<?xml version="1.0" encoding="UTF-8"?>
<!-- Generated by jsxcad -->
<!DOCTYPE svg PUBLIC "-//W3C//DTD SVG 1.1 Tiny//EN" "http://www.w3.org/Graphics/SVG/1.1/DTD/svg11-tiny.dtd">
<svg baseProfile="tiny" height="5.986653493680375mm" width="1.6250000000000009mm" viewBox="-0.8125000000000004 -1.8800000000000003 1.6250000000000009 5.986653493680375" version="1.1" stroke="black" stroke-width=".1" fill="none" xmlns="http://www.w3.org/2000/svg">
<path fill="#bababa" stroke="#bababa" d="M-0.8115384615384629 0.6980751679228836 L-0.811538461538463 0.6263154459753443 L-0.811538461538463 0.400384336475707 L-0.8115384615384614 1.3647570703408265 L-0.8115384615384614 1.5906881798404637 z"/>
<path fill="#bababa" stroke="#bababa" d="M-0.5835581229688165 0.400384336475707 L-0.811538461538463 0.400384336475707 L-0.811538461538463 0.6263154459753444 L-0.5115384615384629 0.6263154459753444 L-0.5115384615384629 0.400384336475707 z"/>
<path fill="#bababa" stroke="#bababa" d="M-0.5115384615384615 1.3647570703408265 L-0.5115384615384629 0.4003843364757069 L-0.5115384615384629 0.6263154459753444 L-0.5115384615384615 1.590688179840464 z"/>
<path fill="#bababa" stroke="#bababa" d="M-0.7056616237070618 1.5906881798404637 L-0.8115384615384614 1.5906881798404637 L-0.8115384615384614 1.3647570703408265 L-0.5115384615384615 1.3647570703408265 L-0.5115384615384615 1.5906881798404637 z"/>
<path fill="#bababa" stroke="#bababa" d="M-0.8125 1.5784423685216404 L-0.8125 1.3647570703408265 L-0.8125 -3.683637106939665 L-0.8125 -3.5567321909174527 L-0.8125 1.590688179840464 z"/>
<path fill="#bababa" stroke="#bababa" d="M0.8125 1.3806063239009554 L0.8125 1.590688179840464 L0.8125 -3.5567321909174527 L0.8125 -3.683637106939665 L0.8125 1.3647570703408265 z"/>
<path fill="#bababa" stroke="#bababa" d="M-0.011363636363636362 -1.5184115882772253 L-0.011363636363636362 -1.645316504299437 L0.033333333333333326 -1.6471278404251688 L0.033333333333333326 -1.5202229244029568 z"/>
<path fill="#bababa" stroke="#bababa" d="M-0.04229797979797979 -1.5221597422036153 L-0.05555555555555555 -1.523766093886354 L-0.05555555555555555 -1.6506710099085655 L-0.011363636363636362 -1.6453165042994369 L-0.011363636363636362 -1.5184115882772253 z"/>
<path fill="#bababa" stroke="#bababa" d="M0.033333333333333326 -1.5202229244029568 L0.033333333333333326 -1.6471278404251686 L0.07738095238095237 -1.6559128040263462 L0.07738095238095237 -1.5290078880041345 z"/>
<path fill="#bababa" stroke="#bababa" d="M-0.08541666666666665 -1.5323858701377653 L-0.0982142857142857 -1.5360800599597988 L-0.0982142857142857 -1.662984975982012 L-0.055555555555555546 -1.6506710099085664 L-0.055555555555555546 -1.5237660938863533 z"/>
<path fill="#bababa" stroke="#bababa" d="M0.07738095238095238 -1.5290078880041342 L0.07738095238095252 -1.6559128040263467 L0.11842105263157889 -1.6720461963002073 L0.11842105263157897 -1.5451412802779951 z"/>
<path fill="#bababa" stroke="#bababa" d="M-0.12571428571428578 -1.5494883720509014 L-0.13749999999999996 -1.555234791518517 L-0.13749999999999998 -1.6821397075407294 L-0.09821428571428577 -1.6629849759820114 L-0.09821428571428571 -1.5360800599597995 z"/>
<path fill="#bababa" stroke="#bababa" d="M0.11842105263157887 -1.545141280277995 L0.11842105263157876 -1.6720461963002071 L0.15566037735849061 -1.6941082979445103 L0.15566037735849034 -1.5672033819222977 z"/>
<path fill="#bababa" stroke="#bababa" d="M-0.16208333333333322 -1.5731883697509477 L-0.17261904761904764 -1.580882760421989 L-0.17261904761904764 -1.7077876764442017 L-0.1375 -1.6821397075407294 L-0.1375 -1.555234791518517 z"/>
<path fill="#bababa" stroke="#bababa" d="M-0.1934523809523813 -1.602129249239981 L-0.20238095238095274 -1.6112348873048348 L-0.20238095238095258 -1.7381398033270472 L-0.1726190476190478 -1.707787676444202 L-0.17261904761904795 -1.5808827604219895 z"/>
<path fill="#bababa" stroke="#bababa" d="M-0.21821428571428583 -1.6355680876478158 L-0.22500000000000006 -1.645996602080522 L-0.2250000000000001 -1.7729015181027343 L-0.2023809523809526 -1.7381398033270472 L-0.20238095238095252 -1.6112348873048348 z"/>
<path fill="#bababa" stroke="#bababa" d="M-0.23601851851851857 -1.672654974900721 L-0.2407407407407408 -1.6840799918236633 L-0.2407407407407408 -1.810984907845876 L-0.22500000000000006 -1.7729015181027343 L-0.2250000000000001 -1.645996602080522 z"/>
<path fill="#bababa" stroke="#bababa" d="M-0.24634282523729764 -1.7122704550358279 L-0.2487437185929648 -1.7243520821267555 L-0.2487437185929649 -1.8512569981489682 L-0.2407407407407408 -1.810984907845876 L-0.24074074074074073 -1.6840799918236635 z"/>
<path fill="#bababa" stroke="#bababa" d="M-0.24314163409640785 -1.7928146356420125 L-0.2407407407407407 -1.8048962627329401 L-0.24074074074074064 -1.9318011787551526 L-0.2487437185929648 -1.8915290884520601 L-0.2487437185929648 -1.764624172429848 z"/>
<path fill="#bababa" stroke="#bababa" d="M0.24999999999999997 -1.8713930433005141 L0.2457627118644068 -1.9118449197210308 L0.24576271186440674 -1.7849400036988186 L0.24999999999999997 -1.744488127278302 z"/>
<path fill="#bababa" stroke="#bababa" d="M-0.20238095238095238 -1.8777413672517689 L-0.20238095238095227 -2.0046462832739813 L-0.2249999999999999 -1.969884568498294 L-0.22499999999999995 -1.8429796524760818 z"/>
<path fill="#bababa" stroke="#bababa" d="M0.2457627118644067 -1.9118449197210308 L0.23387096774193533 -1.9509848433927743 L0.2338709677419353 -1.824079927370562 L0.24576271186440668 -1.7849400036988186 z"/>
<path fill="#bababa" stroke="#bababa" d="M0.21484375 -1.6281616502203833 L0.2148437500000001 -1.7550665662425957 L0.23387096774193564 -1.7918012432082542 L0.23387096774193553 -1.6648963271860417 z"/>
<path fill="#bababa" stroke="#bababa" d="M-0.18154761904761882 -1.8989878560697604 L-0.17261904761904737 -1.908093494134614 L-0.17261904761904753 -2.034998410156826 L-0.2023809523809523 -2.0046462832739813 L-0.2023809523809522 -1.8777413672517687 z"/>
<path fill="#bababa" stroke="#bababa" d="M-0.14803571428571452 -1.9260470723670444 L-0.13750000000000004 -1.9337414630380867 L-0.13750000000000012 -2.0606463790602985 L-0.17261904761904773 -2.034998410156826 L-0.17261904761904773 -1.9080934941346135 z"/>
<path fill="#bababa" stroke="#bababa" d="M-0.09821428571428546 -1.9528961945968037 L-0.0982142857142857 -2.079801110619016 L-0.13749999999999996 -2.060646379060299 L-0.13749999999999996 -1.9337414630380863 z"/>
<path fill="#bababa" stroke="#bababa" d="M0.1184210526315789 -1.9438349742786083 L0.118421052631579 -2.0707398903008203 L0.07738095238095241 -2.086873282574681 L0.07738095238095231 -1.959968366552469 z"/>
<path fill="#bababa" stroke="#bababa" d="M-0.0683531746031746 -1.9615159708482157 L-0.055555555555555546 -1.9652101606702495 L-0.055555555555555546 -2.0921150766924614 L-0.0982142857142857 -2.079801110619016 L-0.0982142857142857 -1.952896194596804 z"/>
<path fill="#bababa" stroke="#bababa" d="M0.15566037735849028 -2.048677788656518 L0.11842105263157889 -2.0707398903008203 L0.11842105263157893 -1.9438349742786083 L0.15566037735849056 -1.9217728726343055 z"/>
<path fill="#bababa" stroke="#bababa" d="M0.23387096774193547 -1.824079927370562 L0.23387096774193533 -1.9509848433927743 L0.2148437499999999 -1.9877195203584326 L0.21484375 -1.8608146043362201 z"/>
<path fill="#bababa" stroke="#bababa" d="M0.15566037735849078 -1.6941082979445103 L0.18846153846153854 -1.7225301380730125 L0.1884615384615387 -1.5956252220508 L0.15566037735849067 -1.567203381922298 z"/>
<path fill="#bababa" stroke="#bababa" d="M0.24576271186440682 -1.8309411668799975 L0.25 -1.8713930433005141 L0.25 -1.744488127278302 L0.24576271186440676 -1.7040362508577849 z"/>
<path fill="#bababa" stroke="#bababa" d="M0.1963762019230772 -1.605386150501675 L0.18846153846153868 -1.5956252220508 L0.18846153846153865 -1.7225301380730125 L0.21484375000000008 -1.7550665662425957 L0.2148437500000001 -1.6281616502203833 z"/>
<path fill="#bababa" stroke="#bababa" d="M0.2148437499999998 -1.8608146043362201 L0.21484375 -1.9877195203584328 L0.18846153846153835 -2.020255948528016 L0.1884615384615384 -1.8933510325058036 z"/>
<path fill="#bababa" stroke="#bababa" d="M-0.055555555555555546 -2.0921150766924614 L-0.055555555555555546 -1.9652101606702497 L-0.011363636363636362 -1.9705646662793783 L-0.011363636363636362 -2.09746958230159 z"/>
<path fill="#bababa" stroke="#bababa" d="M0.07738095238095237 -1.9599683665524685 L0.07738095238095237 -2.086873282574681 L0.033333333333333326 -2.0956582461758586 L0.033333333333333326 -1.9687533301536462 z"/>
<path fill="#bababa" stroke="#bababa" d="M0.23387096774193553 -1.7918012432082542 L0.24576271186440696 -1.8309411668799975 L0.24576271186440687 -1.7040362508577849 L0.23387096774193544 -1.6648963271860417 z"/>
<path fill="#bababa" stroke="#bababa" d="M-0.22499999999999992 -1.9698845684982942 L-0.24074074074074064 -1.9318011787551523 L-0.24074074074074078 -1.8048962627329401 L-0.2249999999999998 -1.8429796524760818 z"/>
<path fill="#bababa" stroke="#bababa" d="M0.1884615384615383 -2.020255948528016 L0.1556603773584905 -2.048677788656518 L0.15566037735849034 -1.9217728726343057 L0.18846153846153837 -1.8933510325058036 z"/>
<path fill="#bababa" stroke="#bababa" d="M0.01992424242424242 -1.969296730991366 L0.033333333333333326 -1.9687533301536466 L0.033333333333333326 -2.095658246175859 L-0.011363636363636362 -2.0974695823015908 L-0.011363636363636362 -1.970564666279378 z"/>
<path fill="#bababa" stroke="#bababa" d="M-0.011363636363636362 1.199954507181501 L-0.011363636363636362 1.0730495911592886 L0.033333333333333326 1.071238255033557 L0.033333333333333326 1.1981431710557695 z"/>
<path fill="#bababa" stroke="#bababa" d="M-0.04229797979797979 1.1962063532551113 L-0.055555555555555546 1.1946000015723728 L-0.055555555555555546 1.0676950855501606 L-0.01136363636363636 1.0730495911592892 L-0.01136363636363636 1.1999545071815012 z"/>
<path fill="#bababa" stroke="#bababa" d="M0.033333333333333326 1.19814317105577 L0.033333333333333326 1.0712382550335577 L0.07738095238095237 1.0624532914323803 L0.07738095238095237 1.1893582074545923 z"/>
<path fill="#bababa" stroke="#bababa" d="M-0.08541666666666665 1.1859802253209606 L-0.0982142857142857 1.1822860354989269 L-0.0982142857142857 1.0553811194767149 L-0.055555555555555546 1.0676950855501603 L-0.055555555555555546 1.1946000015723723 z"/>
<path fill="#bababa" stroke="#bababa" d="M0.0773809523809526 1.1893582074545925 L0.07738095238095234 1.0624532914323794 L0.11842105263157893 1.0463198991585185 L0.11842105263157919 1.1732248151807319 z"/>
<path fill="#bababa" stroke="#bababa" d="M-0.1257142857142853 1.1688777234078247 L-0.1374999999999998 1.1631313039402098 L-0.13750000000000004 1.0362263879179971 L-0.09821428571428531 1.0553811194767149 L-0.09821428571428555 1.182286035498927 z"/>
<path fill="#bababa" stroke="#bababa" d="M0.11842105263157907 1.1732248151807319 L0.11842105263157911 1.0463198991585192 L0.15566037735849084 1.0242577975142166 L0.15566037735849028 1.1511627135364286 z"/>
<path fill="#bababa" stroke="#bababa" d="M-0.16208333333333313 1.1451777257077786 L-0.17261904761904753 1.1374833350367373 L-0.17261904761904756 1.0105784190145248 L-0.13749999999999993 1.036226387917997 L-0.13749999999999993 1.1631313039402096 z"/>
<path fill="#bababa" stroke="#bababa" d="M-0.19345238095238151 1.1162368462187449 L-0.2023809523809529 1.1071312081538913 L-0.2023809523809528 0.9802262921316789 L-0.17261904761904778 1.0105784190145244 L-0.17261904761904825 1.1374833350367364 z"/>
<path fill="#bababa" stroke="#bababa" d="M-0.21821428571428586 1.0827980078109105 L-0.2250000000000001 1.0723694933782044 L-0.22500000000000012 0.945464577355992 L-0.20238095238095263 0.9802262921316791 L-0.20238095238095263 1.1071312081538913 z"/>
<path fill="#bababa" stroke="#bababa" d="M-0.2360185185185187 1.0457111205580052 L-0.24074074074074084 1.0342861036350626 L-0.24074074074074095 0.9073811876128504 L-0.22500000000000028 0.9454645773559918 L-0.22500000000000017 1.072369493378204 z"/>
<path fill="#bababa" stroke="#bababa" d="M-0.2463428252372976 1.0060956404228982 L-0.24874371859296487 0.9940140133319705 L-0.24874371859296496 0.867109097309758 L-0.24074074074074084 0.9073811876128504 L-0.24074074074074078 1.0342861036350626 z"/>
<path fill="#bababa" stroke="#bababa" d="M-0.5508735228909134 1.3647570703408265 L0.8125 1.3647570703408265 L0.8125 -3.6836371069396647 L-0.8125 -3.6836371069396647 L-0.8125 1.3647570703408265 z M-0.09821428571428571 1.0553811194767144 L-0.09821428571428571 1.0553811194767144 L-0.13749999999999998 1.0362263879179967 L-0.17261904761904762 1.0105784190145242 L-0.20238095238095236 0.9802262921316789 L-0.22499999999999998 0.945464577355992 L-0.24074074074074073 0.9073811876128504 L-0.24874371859296482 0.867109097309758 L-0.24874371859296482 0.8268370070066657 L-0.24074074074074073 0.7865649167035736 L-0.22499999999999998 0.7484815269604321 L-0.20238095238095236 0.713719812184745 L-0.17261904761904762 0.6833676853018998 L-0.13749999999999998 0.6577197163984272 L-0.09821428571428571 0.6385649848397096 L-0.05555555555555555 0.6262510187662641 L-0.011363636363636362 0.6208965131571356 L0.03333333333333333 0.6227078492828672 L0.07738095238095237 0.6314928128840447 L0.11842105263157894 0.6476262051579054 L0.15566037735849056 0.669688306802208 L0.18846153846153846 0.6981101469307104 L0.21484375 0.7306465751002935 L0.23387096774193547 0.767381252065952 L0.24576271186440676 0.8065211757376952 L0.25 0.8469730521582121 L0.24576271186440676 0.8874249285787288 L0.23387096774193547 0.9265648522504719 L0.21484375 0.9632995292161304 L0.18846153846153846 0.9958359573857137 L0.15566037735849056 1.0242577975142158 L0.11842105263157894 1.0463198991585185 L0.07738095238095237 1.0624532914323792 L0.03333333333333333 1.0712382550335569 L-0.011363636363636362 1.0730495911592883 L-0.05555555555555555 1.0676950855501597 z M0.07738095238095237 -1.6559128040263467 L0.07738095238095237 -1.6559128040263467 L0.03333333333333333 -1.6471278404251692 L-0.011363636363636362 -1.6453165042994378 L-0.05555555555555555 -1.6506710099085662 L-0.09821428571428571 -1.6629849759820117 L-0.13749999999999998 -1.6821397075407294 L-0.17261904761904762 -1.707787676444202 L-0.20238095238095236 -1.738139803327047 L-0.22499999999999998 -1.772901518102734 L-0.24074074074074073 -1.8109849078458757 L-0.24874371859296482 -1.851256998148968 L-0.24874371859296482 -1.8915290884520604 L-0.24074074074074073 -1.9318011787551526 L-0.22499999999999998 -1.9698845684982942 L-0.20238095238095236 -2.004646283273981 L-0.17261904761904762 -2.034998410156826 L-0.13749999999999998 -2.060646379060299 L-0.09821428571428571 -2.0798011106190164 L-0.05555555555555555 -2.092115076692462 L-0.011363636363636362 -2.0974695823015908 L0.03333333333333333 -2.095658246175859 L0.07738095238095237 -2.0868732825746816 L0.11842105263157894 -2.0707398903008207 L0.15566037735849056 -2.048677788656518 L0.18846153846153846 -2.020255948528016 L0.21484375 -1.9877195203584326 L0.23387096774193547 -1.9509848433927741 L0.24576271186440676 -1.9118449197210308 L0.25 -1.8713930433005144 L0.24576271186440676 -1.8309411668799973 L0.23387096774193547 -1.7918012432082542 L0.21484375 -1.7550665662425955 L0.18846153846153846 -1.7225301380730127 L0.15566037735849056 -1.6941082979445103 L0.11842105263157894 -1.6720461963002076 z M-0.811538461538463 0.4003843364757069 L-0.5115384615384629 0.4003843364757069 L-0.5115384615384615 1.3647570703408265 L-0.8115384615384614 1.3647570703408265 z"/>
<path fill="#bababa" stroke="#bababa" d="M-0.24874371859296482 0.965823550119806 L-0.24874371859296482 0.9537419230288783 L-0.24874371859296482 0.826837007006666 L-0.24874371859296482 0.8671090973097582 L-0.24874371859296482 0.9940140133319706 z"/>
<path fill="#bababa" stroke="#bababa" d="M-0.24874371859296482 -1.7525425453389203 L-0.24874371859296482 -1.7646241724298481 L-0.24874371859296482 -1.8915290884520604 L-0.24874371859296482 -1.8512569981489682 L-0.24874371859296482 -1.7243520821267557 z"/>
<path fill="#bababa" stroke="#bababa" d="M-0.2431416340964079 0.9255514598167137 L-0.24074074074074064 0.9134698327257861 L-0.2407407407407407 0.7865649167035735 L-0.2487437185929648 0.8268370070066658 L-0.24874371859296474 0.9537419230288782 z"/>
<path fill="#bababa" stroke="#bababa" d="M0.24999999999999992 0.846973052158212 L0.24576271186440674 0.8065211757376952 L0.24576271186440668 0.9334260917599075 L0.24999999999999994 0.9738779681804244 z"/>
<path fill="#bababa" stroke="#bababa" d="M-0.20238095238095227 0.8406247282069574 L-0.20238095238095188 0.7137198121847451 L-0.22499999999999967 0.748481526960432 L-0.22499999999999984 0.8753864429826446 z"/>
<path fill="#bababa" stroke="#bababa" d="M0.2457627118644066 0.8065211757376952 L0.2338709677419354 0.7673812520659519 L0.23387096774193544 0.8942861680881644 L0.2457627118644066 0.9334260917599075 z"/>
<path fill="#bababa" stroke="#bababa" d="M0.21484375000000006 1.0902044452383428 L0.21484375000000017 0.9632995292161306 L0.23387096774193572 0.926564852250472 L0.2338709677419356 1.0534697682726843 z"/>
<path fill="#bababa" stroke="#bababa" d="M-0.18154761904761862 0.8193782393889655 L-0.17261904761904742 0.8102726013241123 L-0.17261904761904692 0.6833676853019 L-0.20238095238095163 0.7137198121847452 L-0.20238095238095213 0.8406247282069575 z"/>
<path fill="#bababa" stroke="#bababa" d="M-0.1480357142857142 0.7923190230916817 L-0.13750000000000012 0.7846246324206398 L-0.13749999999999976 0.6577197163984276 L-0.1726190476190478 0.6833676853019004 L-0.1726190476190474 0.8102726013241126 z"/>
<path fill="#bababa" stroke="#bababa" d="M-0.09821428571428568 0.7654699008619223 L-0.09821428571428567 0.6385649848397098 L-0.13749999999999987 0.6577197163984277 L-0.13750000000000018 0.7846246324206398 z"/>
<path fill="#bababa" stroke="#bababa" d="M0.11842105263157889 0.7745311211801181 L0.11842105263157875 0.6476262051579058 L0.07738095238095238 0.6314928128840451 L0.0773809523809523 0.7583977289062575 z"/>
<path fill="#bababa" stroke="#bababa" d="M-0.0683531746031746 0.756850124610511 L-0.055555555555555546 0.7531559347884774 L-0.055555555555555546 0.6262510187662643 L-0.0982142857142857 0.6385649848397099 L-0.0982142857142857 0.7654699008619229 z"/>
<path fill="#bababa" stroke="#bababa" d="M0.15566037735849034 0.6696883068022085 L0.11842105263157891 0.6476262051579059 L0.11842105263157895 0.774531121180118 L0.15566037735849084 0.7965932228244209 z"/>
<path fill="#bababa" stroke="#bababa" d="M0.23387096774193536 0.8942861680881642 L0.23387096774193525 0.7673812520659519 L0.21484374999999978 0.7306465751002935 L0.21484374999999992 0.857551491122506 z"/>
<path fill="#bababa" stroke="#bababa" d="M0.15566037735849098 1.024257797514216 L0.1884615384615387 0.9958359573857138 L0.18846153846153915 1.1227408734079254 L0.1556603773584914 1.1511627135364277 z"/>
<path fill="#bababa" stroke="#bababa" d="M0.2457627118644068 0.8874249285787288 L0.25000000000000006 0.846973052158212 L0.25 0.9738779681804244 L0.24576271186440682 1.014329844600941 z"/>
<path fill="#bababa" stroke="#bababa" d="M0.19637620192307734 1.112979944957051 L0.18846153846153876 1.122740873407926 L0.1884615384615389 0.9958359573857135 L0.21484375000000025 0.9632995292161304 L0.2148437500000001 1.0902044452383428 z"/>
<path fill="#bababa" stroke="#bababa" d="M0.21484374999999928 0.8575514911225058 L0.21484374999999992 0.7306465751002935 L0.18846153846153813 0.6981101469307103 L0.18846153846153826 0.8250150629529226 z"/>
<path fill="#bababa" stroke="#bababa" d="M-0.055555555555555546 0.6262510187662643 L-0.055555555555555546 0.753155934788477 L-0.011363636363636362 0.7478014291793483 L-0.011363636363636362 0.6208965131571358 z"/>
<path fill="#bababa" stroke="#bababa" d="M0.07738095238095237 0.7583977289062571 L0.07738095238095237 0.6314928128840454 L0.033333333333333326 0.6227078492828678 L0.033333333333333326 0.7496127653050796 z"/>
<path fill="#bababa" stroke="#bababa" d="M0.23387096774193558 0.9265648522504719 L0.245762711864407 0.8874249285787287 L0.24576271186440693 1.014329844600941 L0.2338709677419355 1.0534697682726843 z"/>
<path fill="#bababa" stroke="#bababa" d="M-0.2249999999999999 0.748481526960432 L-0.24074074074074053 0.7865649167035735 L-0.24074074074074042 0.913469832725786 L-0.22499999999999978 0.8753864429826445 z"/>
<path fill="#bababa" stroke="#bababa" d="M0.18846153846153807 0.6981101469307105 L0.1556603773584903 0.6696883068022081 L0.15566037735849025 0.7965932228244202 L0.188461538461538 0.8250150629529226 z"/>
<path fill="#bababa" stroke="#bababa" d="M0.01992424242424242 0.749069364467361 L0.033333333333333326 0.7496127653050805 L0.033333333333333326 0.6227078492828678 L-0.011363636363636362 0.6208965131571362 L-0.011363636363636362 0.747801429179349 z"/>
<path fill="#bababa" stroke="#bababa" d="M0.8125 -3.683637106939665 L0.8125 -3.5567321909174523 L-0.8125 -3.5567321909174523 L-0.8125 -3.683637106939665 z"/>
<path fill="#bababa" stroke="#bababa" d="M0.7740338878948984 1.3647570703408263 L-0.8125 1.3647570703408263 L-0.8125 1.5906881798404637 L0.8125 1.5906881798404637 L0.8125 1.3647570703408263 z"/>
<path fill="#bababa" stroke="#bababa" d="M-0.4060192712594043 1.590688179840464 L-0.8125 1.590688179840464 L-0.8125 -3.5567321909174527 L0.8125 -3.5567321909174527 L0.8125 1.590688179840464 z M-0.811538461538463 0.6263154459753444 L-0.8115384615384614 1.590688179840464 L-0.5115384615384615 1.590688179840464 L-0.5115384615384629 0.6263154459753444 z M0.21484375 -1.6281616502203835 L0.23387096774193547 -1.6648963271860417 L0.24576271186440676 -1.704036250857785 L0.25 -1.744488127278302 L0.24576271186440676 -1.7849400036988186 L0.23387096774193547 -1.824079927370562 L0.21484375 -1.8608146043362204 L0.18846153846153846 -1.8933510325058036 L0.15566037735849056 -1.9217728726343057 L0.11842105263157894 -1.9438349742786085 L0.07738095238095237 -1.9599683665524692 L0.03333333333333333 -1.9687533301536468 L-0.011363636363636362 -1.9705646662793783 L-0.05555555555555555 -1.9652101606702497 L-0.09821428571428571 -1.9528961945968042 L-0.13749999999999998 -1.9337414630380865 L-0.17261904761904762 -1.9080934941346142 L-0.20238095238095236 -1.8777413672517689 L-0.22499999999999998 -1.8429796524760818 L-0.24074074074074073 -1.8048962627329403 L-0.24874371859296482 -1.764624172429848 L-0.24874371859296482 -1.7243520821267557 L-0.24074074074074073 -1.6840799918236633 L-0.22499999999999998 -1.645996602080522 L-0.20238095238095236 -1.6112348873048348 L-0.17261904761904762 -1.5808827604219895 L-0.13749999999999998 -1.5552347915185172 L-0.09821428571428571 -1.5360800599597995 L-0.05555555555555555 -1.523766093886354 L-0.011363636363636362 -1.5184115882772253 L0.03333333333333333 -1.5202229244029568 L0.07738095238095237 -1.5290078880041345 L0.11842105263157894 -1.5451412802779951 L0.15566037735849056 -1.567203381922298 L0.18846153846153846 -1.5956252220508 z M0.07738095238095237 1.1893582074545916 L0.11842105263157894 1.173224815180731 L0.15566037735849056 1.1511627135364282 L0.18846153846153846 1.122740873407926 L0.21484375 1.0902044452383426 L0.23387096774193547 1.0534697682726843 L0.24576271186440676 1.0143298446009412 L0.25 0.9738779681804244 L0.24576271186440676 0.9334260917599077 L0.23387096774193547 0.8942861680881643 L0.21484375 0.8575514911225058 L0.18846153846153846 0.8250150629529227 L0.15566037735849056 0.7965932228244205 L0.11842105263157894 0.7745311211801178 L0.07738095238095237 0.758397728906257 L0.03333333333333333 0.7496127653050795 L-0.011363636363636362 0.7478014291793479 L-0.05555555555555555 0.7531559347884765 L-0.09821428571428571 0.765469900861922 L-0.13749999999999998 0.7846246324206396 L-0.17261904761904762 0.8102726013241122 L-0.20238095238095236 0.8406247282069574 L-0.22499999999999998 0.8753864429826445 L-0.24074074074074073 0.913469832725786 L-0.24874371859296482 0.9537419230288782 L-0.24874371859296482 0.9940140133319705 L-0.24074074074074073 1.0342861036350628 L-0.22499999999999998 1.0723694933782042 L-0.20238095238095236 1.1071312081538913 L-0.17261904761904762 1.1374833350367366 L-0.13749999999999998 1.163131303940209 L-0.09821428571428571 1.1822860354989266 L-0.05555555555555555 1.1946000015723721 L-0.011363636363636362 1.1999545071815005 L0.03333333333333333 1.1981431710557693 z"/>
<path fill="#bababa" stroke="#bababa" d="M-0.7184041812180847 1.3647570703408265 L-0.5115384615384615 1.3647570703408265 L-0.5115384615384629 0.6116533720087018 L-0.811538461538463 0.6116533720087018 L-0.8115384615384614 1.3647570703408265 z"/>
<path fill="#bababa" stroke="#bababa" d="M-0.7937879491582491 -0.3527193618564176 L-0.5115384615384629 -0.3527193618564176 L-0.5115384615384629 -4.106653493680373 L-0.811538461538463 -4.106653493680373 L-0.811538461538463 -0.3527193618564176 z"/>
<path fill="#bababa" stroke="#bababa" d="M-0.7718956043956058 0.6116533720087018 L-0.8115384615384614 0.6116533720087018 L-0.811538461538463 -0.3527193618564176 L-0.811538461538463 0.6116533720087018 L-0.5115384615384629 0.6116533720087018 z"/>
<path fill="#bababa" stroke="#bababa" d="M-0.5115384615384616 1.2049265485589824 L-0.5115384615384629 -0.35271936185641767 L-0.5115384615384629 0.400384336475707 L-0.5115384615384615 1.36321209246519 L-0.5115384615384615 1.3643300596603751 z"/>
<path fill="#bababa" stroke="#bababa" d="M-0.8115384615384615 0.3540541781791709 L-0.8115384615384619 0.20089298926225446 L-0.811538461538463 -4.106653493680373 L-0.8115384615384614 -3.6836371069396647 L-0.8115384615384614 0.400384336475707 z"/>
<path fill="#bababa" stroke="#bababa" d="M-0.8115384615384625 0.07664974619289339 L-0.8115384615384614 1.3647570703408265 L-0.811538461538463 0.6116533720087018 L-0.811538461538463 -0.35271936185641767 z"/>
<path fill="#bababa" stroke="#bababa" d="M-0.8115384615384617 1.2037436548223348 L-0.8115384615384627 -0.011058496172319679 L-0.8115384615384627 -0.12621396771348853 L-0.8115384615384614 0.6116533720087018 L-0.8115384615384614 1.3647570703408265 z"/>
<path fill="#bababa" stroke="#bababa" d="M-0.5115384615384617 1.2293910320762682 L-0.5115384615384615 1.3645698196801008 L-0.5115384615384615 1.3647570703408265 L-0.5115384615384629 0.6116533720087018 z"/>
<path fill="#bababa" stroke="#bababa" d="M-0.5115384615384617 1.0662984089463872 L-0.5115384615384615 1.3647570703408265 L-0.5115384615384615 -3.683637106939665 L-0.5115384615384629 -4.106653493680373 L-0.5115384615384629 -0.35271936185641767 z"/>
<path fill="#bababa" stroke="#bababa" d="M-0.7087790229770301 1.3647570703408265 L-0.8115384615384614 1.3647570703408265 L-0.8115384615384614 0.6116533720087018 L-0.5115384615384629 0.6116533720087018 L-0.5115384615384615 1.3647570703408265 z"/>
<path fill="#bababa" stroke="#bababa" d="M-0.5115384615384615 -3.6836371069396643 L-0.8115384615384614 -3.6836371069396643 L-0.811538461538463 -4.106653493680373 L-0.5115384615384629 -4.106653493680373 z"/>
<path fill="#bababa" stroke="#bababa" d="M-0.5292889739186768 -0.35271936185641767 L-0.811538461538463 -0.35271936185641767 L-0.8115384615384614 0.400384336475707 L-0.5115384615384629 0.400384336475707 L-0.5115384615384629 -0.35271936185641767 z"/>
<path fill="#bababa" stroke="#bababa" d="M-0.6131386919095858 0.400384336475707 L-0.8115384615384614 0.400384336475707 L-0.8115384615384614 -3.683637106939665 L-0.5115384615384615 -3.683637106939665 L-0.5115384615384615 1.3647570703408265 L-0.5115384615384629 0.400384336475707 z"/>
<path fill="#bababa" stroke="#bababa" d="M-0.6371298715059369 1.3647570703408265 L-0.8115384615384614 1.3647570703408265 L-0.5115384615384615 1.3647570703408265 z"/>
<path fill="#bababa" stroke="#bababa" d="M-0.011363636363636362 0.07624284101197164 L0.033333333333333326 0.07765736040608982 L0.033333333333333326 0.2896370558375633 L-0.011363636363636362 0.2882225364434451 z"/>
<path fill="#bababa" stroke="#bababa" d="M-0.04229797979797979 0.29114956712852896 L-0.055555555555555546 0.29240400885070816 L-0.055555555555555546 0.0804243134192366 L-0.01136363636363636 0.07624284101197251 L-0.01136363636363636 0.2882225364434441 z"/>
<path fill="#bababa" stroke="#bababa" d="M0.033333333333333326 0.07765736040608953 L0.07738095238095237 0.0845177664974601 L0.07738095238095237 0.2964974619289322 L0.033333333333333326 0.28963705583756166 z"/>
<path fill="#bababa" stroke="#bababa" d="M-0.08541666666666664 0.29913541585318226 L-0.0982142857142857 0.30202030456852785 L-0.0982142857142857 0.09004060913705467 L-0.05555555555555555 0.0804243134192361 L-0.05555555555555555 0.2924040088507093 z"/>
<path fill="#bababa" stroke="#bababa" d="M0.07738095238095237 0.08451776649746078 L0.11842105263157893 0.09711675126903437 L0.11842105263157893 0.3090964467005062 L0.07738095238095237 0.2964974619289326 z"/>
<path fill="#bababa" stroke="#bababa" d="M-0.1257142857142857 0.3124912034954683 L-0.13749999999999998 0.3169787316070149 L-0.13749999999999998 0.1049990361755444 L-0.0982142857142857 0.09004060913705568 L-0.0982142857142857 0.3020203045685262 z"/>
<path fill="#bababa" stroke="#bababa" d="M0.11842105263157893 0.09711675126903395 L0.15566037735849056 0.11434561906863669 L0.15566037735849056 0.32632531450010976 L0.11842105263157893 0.30909644670050707 z"/>
<path fill="#bababa" stroke="#bababa" d="M-0.1620833333333344 0.3309991468368706 L-0.1726190476190481 0.3370078962210945 L-0.17261904761904856 0.1250282007896215 L-0.13750000000000076 0.10499903617554486 L-0.1375000000000012 0.31697873160701706 z"/>
<path fill="#bababa" stroke="#bababa" d="M-0.19345238095238138 0.35359983079526247 L-0.20238095238095274 0.3607106598984776 L-0.20238095238095324 0.14873096446700493 L-0.17261904761904773 0.12502820078962226 L-0.17261904761904817 0.3370078962210944 z"/>
<path fill="#bababa" stroke="#bababa" d="M-0.2182142857142861 0.3797130876186271 L-0.22500000000000034 0.38785698521297735 L-0.22500000000000014 0.1758772897815053 L-0.20238095238095324 0.14873096446700498 L-0.20238095238095263 0.3607106598984774 z"/>
<path fill="#bababa" stroke="#bababa" d="M-0.2360185185185186 0.40867520047083056 L-0.2407407407407411 0.4175972927241962 L-0.2407407407407411 0.20561759729272414 L-0.22500000000000003 0.1758772897815052 L-0.22500000000000003 0.3878569852129773 z"/>
<path fill="#bababa" stroke="#bababa" d="M-0.24634282523729784 0.43961195713479967 L-0.24874371859296504 0.4490468133107726 L-0.24874371859296512 0.23706711787930057 L-0.24074074074074095 0.20561759729272416 L-0.24074074074074087 0.4175972927241962 z"/>
<path fill="#bababa" stroke="#bababa" d="M-0.24314163409640777 0.5025109983079525 L-0.24074074074074056 0.5119458544839255 L-0.2407407407407407 0.29996615905245344 L-0.24874371859296468 0.268516638465877 L-0.24874371859296476 0.4804963338973491 z"/>
<path fill="#bababa" stroke="#bababa" d="M0.24999999999999992 0.2527918781725888 L0.2457627118644067 0.284381798404641 L0.2457627118644067 0.496361493836113 L0.24999999999999992 0.46477157360406085 z"/>
<path fill="#bababa" stroke="#bababa" d="M-0.20238095238095202 0.35685279187817254 L-0.22499999999999956 0.32970646656367236 L-0.22499999999999937 0.5416861619951445 L-0.20238095238095183 0.5688324873096446 z"/>
<path fill="#bababa" stroke="#bababa" d="M0.2457627118644065 0.284381798404641 L0.233870967741935 0.3149471806832212 L0.23387096774193505 0.5269268761146932 L0.24576271186440657 0.49636149383611305 z"/>
<path fill="#bababa" stroke="#bababa" d="M0.21484375000000067 0.1619495129647412 L0.2338709677419357 0.19063657566195635 L0.23387096774193558 0.4026162710934285 L0.21484375000000053 0.3739292083962133 z"/>
<path fill="#bababa" stroke="#bababa" d="M-0.1815476190476183 0.5854244218838127 L-0.17261904761904712 0.5925352509870275 L-0.17261904761904676 0.3805555555555555 L-0.20238095238095113 0.35685279187817215 L-0.20238095238095152 0.5688324873096441 z"/>
<path fill="#bababa" stroke="#bababa" d="M-0.14803571428571352 0.6065556662168825 L-0.1374999999999997 0.612564415601105 L-0.13749999999999926 0.40058472016963337 L-0.17261904761904656 0.3805555555555556 L-0.172619047619047 0.5925352509870272 z"/>
<path fill="#bababa" stroke="#bababa" d="M-0.09821428571428568 0.41554314720812174 L-0.13749999999999998 0.40058472016963304 L-0.13749999999999998 0.6125644156011046 L-0.09821428571428568 0.6275228426395933 z"/>
<path fill="#bababa" stroke="#bababa" d="M0.11842105263157894 0.4084670050761412 L0.07738095238095236 0.4210659898477148 L0.07738095238095236 0.6330456852791856 L0.11842105263157894 0.6204467005076121 z"/>
<path fill="#bababa" stroke="#bababa" d="M-0.0683531746031746 0.6342542496420656 L-0.055555555555555546 0.6371391383574112 L-0.055555555555555546 0.4251594429259396 L-0.0982142857142857 0.4155431472081211 L-0.0982142857142857 0.6275228426395926 z"/>
<path fill="#bababa" stroke="#bababa" d="M0.15566037735849053 0.3912381372765394 L0.11842105263157894 0.4084670050761421 L0.11842105263157894 0.6204467005076137 L0.15566037735849053 0.603217832708011 z"/>
<path fill="#bababa" stroke="#bababa" d="M0.2338709677419353 0.3149471806832213 L0.21484374999999953 0.34363424338043624 L0.2148437499999997 0.5556139388119082 L0.23387096774193541 0.5269268761146935 z"/>
<path fill="#bababa" stroke="#bababa" d="M0.15566037735849106 0.11434561906863823 L0.18846153846153907 0.13654097171863672 L0.18846153846153907 0.34852066715010893 L0.15566037735849103 0.32632531450011043 z"/>
<path fill="#bababa" stroke="#bababa" d="M0.24576271186440682 0.2212019579405366 L0.25000000000000006 0.2527918781725888 L0.25000000000000006 0.46477157360406085 L0.24576271186440682 0.43318165337200865 L0.24576271186440682 0.2212019579405366 z"/>
<path fill="#bababa" stroke="#bababa" d="M0.19637620192307806 0.35614322952393984 L0.18846153846153874 0.34852066715010865 L0.1884615384615397 0.13654097171863658 L0.21484375000000067 0.1619495129647412 L0.21484375000000105 0.3739292083962132 z"/>
<path fill="#bababa" stroke="#bababa" d="M0.21484374999999964 0.3436342433804366 L0.1884615384615376 0.3690427846265409 L0.1884615384615376 0.5810224800580127 L0.21484374999999964 0.5556139388119083 z"/>
<path fill="#bababa" stroke="#bababa" d="M-0.055555555555555546 0.6371391383574122 L-0.011363636363636362 0.6413206107646763 L-0.011363636363636362 0.42934091533320384 L-0.055555555555555546 0.42515944292593977 z"/>
<path fill="#bababa" stroke="#bababa" d="M0.07738095238095237 0.4210659898477154 L0.033333333333333326 0.427926395939086 L0.033333333333333326 0.6399060913705571 L0.07738095238095237 0.6330456852791865 z"/>
<path fill="#bababa" stroke="#bababa" d="M0.2338709677419358 0.19063657566195635 L0.245762711864407 0.22120195794053657 L0.24576271186440693 0.43318165337200865 L0.23387096774193572 0.4026162710934284 z"/>
<path fill="#bababa" stroke="#bababa" d="M-0.22499999999999984 0.3297064665636725 L-0.2407407407407403 0.29996615905245344 L-0.2407407407407405 0.5119458544839255 L-0.22499999999999956 0.5416861619951444 z"/>
<path fill="#bababa" stroke="#bababa" d="M0.18846153846153765 0.3690427846265409 L0.15566037735848992 0.3912381372765398 L0.15566037735848998 0.6032178327080117 L0.1884615384615377 0.5810224800580128 z"/>
<path fill="#bababa" stroke="#bababa" d="M0.01992424242424242 0.6403304471887927 L0.033333333333333326 0.6399060913705572 L0.033333333333333326 0.42792639593908466 L-0.011363636363636362 0.42934091533320284 L-0.011363636363636362 0.6413206107646754 z"/>
<path fill="#bababa" stroke="#bababa" d="M-0.01136363636363636 -2.046599798581937 L0.033333333333333326 -2.0451852791878187 L0.033333333333333326 -1.8332055837563455 L-0.01136363636363636 -1.8346201031504636 z"/>
<path fill="#bababa" stroke="#bababa" d="M-0.04229797979797979 -1.8316930724653797 L-0.055555555555555546 -1.8304386307432006 L-0.055555555555555546 -2.042418326174672 L-0.01136363636363636 -2.046599798581936 L-0.01136363636363636 -1.8346201031504645 z"/>
<path fill="#bababa" stroke="#bababa" d="M0.033333333333333326 -2.045185279187818 L0.07738095238095237 -2.0383248730964474 L0.07738095238095237 -1.8263451776649748 L0.033333333333333326 -1.8332055837563452 z"/>
<path fill="#bababa" stroke="#bababa" d="M-0.08541666666666664 -1.823707223740729 L-0.0982142857142857 -1.8208223350253834 L-0.0982142857142857 -2.0328020304568533 L-0.05555555555555555 -2.042418326174672 L-0.05555555555555555 -1.8304386307432021 z"/>
<path fill="#bababa" stroke="#bababa" d="M0.07738095238095237 -2.0383248730964487 L0.11842105263157891 -2.0257258883248754 L0.11842105263157891 -1.8137461928934022 L0.07738095238095237 -1.826345177664976 z"/>
<path fill="#bababa" stroke="#bababa" d="M-0.1257142857142857 -1.8103514360984392 L-0.13749999999999998 -1.8058639079868926 L-0.13749999999999998 -2.017843603418365 L-0.0982142857142857 -2.032802030456854 L-0.0982142857142857 -1.8208223350253814 z"/>
<path fill="#bababa" stroke="#bababa" d="M0.11842105263157894 -2.025725888324874 L0.15566037735849053 -2.0084970205252715 L0.15566037735849053 -1.7965173250937998 L0.11842105263157894 -1.8137461928934024 z"/>
<path fill="#bababa" stroke="#bababa" d="M-0.1620833333333342 -1.791843492757037 L-0.17261904761904823 -1.7858347433728141 L-0.17261904761904903 -1.9978144388042858 L-0.13750000000000032 -2.0178436034183633 L-0.13750000000000165 -1.8058639079868914 z"/>
<path fill="#bababa" stroke="#bababa" d="M-0.19345238095238157 -1.769242808798646 L-0.2023809523809533 -1.762131979695431 L-0.20238095238095297 -1.9741116751269037 L-0.17261904761904864 -1.9978144388042862 L-0.17261904761904848 -1.7858347433728143 z"/>
<path fill="#bababa" stroke="#bababa" d="M-0.2182142857142863 -1.743129551975281 L-0.2250000000000008 -1.7349856543809312 L-0.22500000000000062 -1.9469653498124033 L-0.20238095238095338 -1.9741116751269028 L-0.20238095238095316 -1.7621319796954316 z"/>
<path fill="#bababa" stroke="#bababa" d="M-0.23601851851851885 -1.714167439123078 L-0.24074074074074084 -1.705245346869712 L-0.24074074074074125 -1.9172250423011843 L-0.22500000000000037 -1.9469653498124033 L-0.22500000000000056 -1.7349856543809312 z"/>
<path fill="#bababa" stroke="#bababa" d="M-0.24634282523729786 -1.6832306824591086 L-0.24874371859296499 -1.6737958262831358 L-0.248743718592965 -1.8857755217146077 L-0.24074074074074106 -1.9172250423011843 L-0.24074074074074073 -1.7052453468697122 z"/>
<path fill="#bababa" stroke="#bababa" d="M-0.24874371859296482 -1.6517811618725322 L-0.24874371859296482 -1.6423463056965595 L-0.24874371859296482 -1.8543260011280314 L-0.24874371859296482 -1.885775521714608 L-0.24874371859296482 -1.6737958262831358 z"/>
<path fill="#bababa" stroke="#bababa" d="M-0.24874371859296482 0.4710614777213762 L-0.24874371859296482 0.4804963338973491 L-0.24874371859296482 0.26851663846587703 L-0.24874371859296482 0.23706711787930063 L-0.24874371859296482 0.4490468133107727 z"/>
<path fill="#bababa" stroke="#bababa" d="M-0.24314163409640774 -1.6203316412859559 L-0.24074074074074056 -1.610896785109983 L-0.24074074074074067 -1.822876480541455 L-0.24874371859296462 -1.8543260011280314 L-0.24874371859296474 -1.6423463056965593 z"/>
<path fill="#bababa" stroke="#bababa" d="M0.24999999999999994 -1.8700507614213195 L0.24576271186440674 -1.8384608411892673 L0.2457627118644067 -1.6264811457577952 L0.24999999999999994 -1.6580710659898474 z"/>
<path fill="#bababa" stroke="#bababa" d="M-0.20238095238095177 -1.765989847715736 L-0.22499999999999923 -1.793136173030236 L-0.22499999999999903 -1.5811564775987639 L-0.2023809523809516 -1.554010152284264 z"/>
<path fill="#bababa" stroke="#bababa" d="M0.24576271186440649 -1.8384608411892671 L0.23387096774193525 -1.8078954589106868 L0.23387096774193536 -1.5959157634792147 L0.24576271186440657 -1.626481145757795 z"/>
<path fill="#bababa" stroke="#bababa" d="M0.2148437500000008 -1.960893126629167 L0.2338709677419358 -1.932206063931952 L0.23387096774193564 -1.72022636850048 L0.21484375000000064 -1.748913431197695 z"/>
<path fill="#bababa" stroke="#bababa" d="M-0.18154761904761815 -1.537418217710096 L-0.17261904761904642 -1.5303073886068808 L-0.17261904761904676 -1.7422870840383535 L-0.20238095238095197 -1.7659898477157354 L-0.20238095238095213 -1.5540101522842635 z"/>
<path fill="#bababa" stroke="#bababa" d="M-0.14803571428571335 -1.5162869733770257 L-0.13749999999999887 -1.5102782239928025 L-0.13749999999999843 -1.7222579194242742 L-0.1726190476190464 -1.7422870840383526 L-0.17261904761904684 -1.530307388606881 z"/>
<path fill="#bababa" stroke="#bababa" d="M-0.09821428571428568 -1.7072994923857896 L-0.13749999999999998 -1.7222579194242784 L-0.13749999999999998 -1.5102782239928052 L-0.09821428571428568 -1.4953197969543166 z"/>
<path fill="#bababa" stroke="#bababa" d="M0.11842105263157894 -1.7143756345177668 L0.07738095238095236 -1.7017766497461932 L0.07738095238095236 -1.489796954314721 L0.11842105263157894 -1.5023959390862947 z"/>
<path fill="#bababa" stroke="#bababa" d="M-0.0683531746031746 -1.488588389951843 L-0.055555555555555546 -1.4857035012364974 L-0.055555555555555546 -1.697683196667969 L-0.0982142857142857 -1.7072994923857876 L-0.0982142857142857 -1.495319796954316 z"/>
<path fill="#bababa" stroke="#bababa" d="M0.15566037735849053 -1.7316045023173703 L0.11842105263157894 -1.7143756345177674 L0.11842105263157894 -1.5023959390862958 L0.15566037735849053 -1.5196248068858986 z"/>
<path fill="#bababa" stroke="#bababa" d="M0.23387096774193528 -1.8078954589106873 L0.2148437499999994 -1.779208396213472 L0.21484374999999956 -1.5672287007819998 L0.23387096774193528 -1.5959157634792147 z"/>
<path fill="#bababa" stroke="#bababa" d="M0.15566037735849153 -2.0084970205252697 L0.18846153846153926 -1.9863016678752707 L0.1884615384615392 -1.7743219724437989 L0.15566037735849148 -1.7965173250937976 z"/>
<path fill="#bababa" stroke="#bababa" d="M0.2457627118644068 -1.9016406816533717 L0.25 -1.8700507614213195 L0.25 -1.6580710659898474 L0.2457627118644068 -1.6896609862218996 z"/>
<path fill="#bababa" stroke="#bababa" d="M0.19637620192307792 -1.7666994100699684 L0.18846153846153887 -1.7743219724437993 L0.18846153846153985 -1.9863016678752714 L0.21484375000000056 -1.9608931266291671 L0.2148437500000012 -1.7489134311976946 z"/>
<path fill="#bababa" stroke="#bababa" d="M0.21484374999999917 -1.7792083962134726 L0.1884615384615378 -1.7537998549673675 L0.18846153846153757 -1.5418201595358951 L0.2148437499999998 -1.5672287007819998 z"/>
<path fill="#bababa" stroke="#bababa" d="M-0.055555555555555546 -1.485703501236496 L-0.011363636363636362 -1.4815220288292321 L-0.011363636363636362 -1.6935017242607044 L-0.055555555555555546 -1.6976831966679686 z"/>
<path fill="#bababa" stroke="#bababa" d="M0.07738095238095237 -1.7017766497461932 L0.033333333333333326 -1.6949162436548229 L0.033333333333333326 -1.4829365482233503 L0.07738095238095237 -1.4897969543147207 z"/>
<path fill="#bababa" stroke="#bababa" d="M0.2338709677419359 -1.9322060639319518 L0.245762711864407 -1.9016406816533717 L0.24576271186440693 -1.6896609862218999 L0.23387096774193578 -1.7202263685004797 z"/>
<path fill="#bababa" stroke="#bababa" d="M-0.22499999999999987 -1.793136173030236 L-0.24074074074074034 -1.822876480541455 L-0.24074074074074053 -1.610896785109983 L-0.2249999999999996 -1.5811564775987639 z"/>
<path fill="#bababa" stroke="#bababa" d="M0.18846153846153793 -1.7537998549673672 L0.15566037735848925 -1.7316045023173692 L0.1556603773584893 -1.519624806885897 L0.188461538461538 -1.5418201595358954 z"/>
<path fill="#bababa" stroke="#bababa" d="M0.01992424242424242 -1.482512192405115 L0.033333333333333326 -1.4829365482233503 L0.033333333333333326 -1.694916243654823 L-0.011363636363636362 -1.6935017242607049 L-0.011363636363636362 -1.4815220288292321 z"/>
<path fill="#bababa" stroke="#bababa" d="M0.8125 1.88 L0.8125 1.590688179840464 L0.8125 -2.5776649746192892 L0.8125 -2.365685279187817 z"/>
<path fill="#bababa" stroke="#bababa" d="M0.3126357524266415 1.590688179840464 L0.8125 1.590688179840464 L0.8125 1.8799999999999997 L-0.8125 1.8799999999999997 L-0.8125 1.590688179840464 z"/>
<path fill="#bababa" stroke="#bababa" d="M-0.8125 -2.3656852791878187 L0.8125 -2.3656852791878187 L0.8125 -2.57766497461929 L-0.8125 -2.57766497461929 z"/>
<path fill="#bababa" stroke="#bababa" d="M-0.8125 -2.5776649746192892 L-0.8125 1.590688179840464 L-0.8125 1.88 L-0.8125 -2.365685279187817 z"/>
<path fill="#bababa" stroke="#bababa" d="M-0.34194298199926504 1.590688179840464 L-0.8125 1.590688179840464 L-0.8125 -2.577664974619289 L0.8125 -2.577664974619289 L0.8125 1.590688179840464 z M0.18846153846153846 0.36904278462654094 L0.21484375 0.34363424338043624 L0.23387096774193547 0.31494718068322125 L0.24576271186440676 0.284381798404641 L0.25 0.2527918781725888 L0.24576271186440676 0.2212019579405366 L0.23387096774193547 0.19063657566195635 L0.21484375 0.16194951296474136 L0.18846153846153846 0.13654097171863666 L0.15566037735849056 0.11434561906863826 L0.11842105263157894 0.09711675126903552 L0.07738095238095237 0.08451776649746191 L0.03333333333333333 0.07765736040609136 L-0.011363636363636362 0.07624284101197319 L-0.05555555555555555 0.08042431341923728 L-0.09821428571428571 0.09004060913705583 L-0.13749999999999998 0.10499903617554456 L-0.17261904761904762 0.1250282007896221 L-0.20238095238095236 0.14873096446700507 L-0.22499999999999998 0.17587728978150516 L-0.24074074074074073 0.20561759729272416 L-0.24874371859296482 0.2370671178793006 L-0.24874371859296482 0.268516638465877 L-0.24074074074074073 0.29996615905245344 L-0.22499999999999998 0.3297064665636724 L-0.20238095238095236 0.35685279187817254 L-0.17261904761904762 0.3805555555555555 L-0.13749999999999998 0.4005847201696331 L-0.09821428571428571 0.4155431472081218 L-0.05555555555555555 0.4251594429259403 L-0.011363636363636362 0.4293409153332044 L0.03333333333333333 0.42792639593908627 L0.07738095238095237 0.4210659898477157 L0.11842105263157894 0.40846700507614203 L0.15566037735849056 0.3912381372765394 z M-0.20238095238095236 -1.7659898477157356 L-0.20238095238095236 -1.7659898477157356 L-0.17261904761904762 -1.7422870840383529 L-0.13749999999999998 -1.7222579194242753 L-0.09821428571428571 -1.7072994923857865 L-0.05555555555555555 -1.6976831966679682 L-0.011363636363636362 -1.693501724260704 L0.03333333333333333 -1.6949162436548222 L0.07738095238095237 -1.7017766497461926 L0.11842105263157894 -1.714375634517766 L0.15566037735849056 -1.731604502317369 L0.18846153846153846 -1.7537998549673672 L0.21484375 -1.779208396213472 L0.23387096774193547 -1.8078954589106873 L0.24576271186440676 -1.8384608411892673 L0.25 -1.8700507614213195 L0.24576271186440676 -1.9016406816533717 L0.23387096774193547 -1.932206063931952 L0.21484375 -1.960893126629167 L0.18846153846153846 -1.9863016678752716 L0.15566037735849056 -2.00849702052527 L0.11842105263157894 -2.0257258883248728 L0.07738095238095237 -2.0383248730964465 L0.03333333333333333 -2.045185279187817 L-0.011363636363636362 -2.0465997985819353 L-0.05555555555555555 -2.042418326174671 L-0.09821428571428571 -2.0328020304568524 L-0.13749999999999998 -2.0178436034183638 L-0.17261904761904762 -1.9978144388042862 L-0.20238095238095236 -1.9741116751269034 L-0.22499999999999998 -1.946965349812403 L-0.24074074074074073 -1.917225042301184 L-0.24874371859296482 -1.8857755217146077 L-0.24874371859296482 -1.8543260011280311 L-0.24074074074074073 -1.822876480541455 L-0.22499999999999998 -1.793136173030236 z"/>
<path fill="#bababa" stroke="#bababa" d="M0.6290474674243166 1.88 L0.8125 1.88 L0.8125 -2.3656852791878165 L-0.8125 -2.3656852791878165 L-0.8125 1.88 z M0.002045454545454545 -1.8341957473322277 L0.03333333333333333 -1.8332055837563448 L0.07738095238095237 -1.8263451776649744 L0.11842105263157894 -1.8137461928934009 L0.15566037735849056 -1.796517325093798 L0.18846153846153846 -1.7743219724437997 L0.21484375 -1.7489134311976948 L0.23387096774193547 -1.72022636850048 L0.24576271186440676 -1.6896609862218996 L0.25 -1.6580710659898474 L0.24576271186440676 -1.6264811457577955 L0.23387096774193547 -1.5959157634792152 L0.21484375 -1.567228700782 L0.18846153846153846 -1.5418201595358954 L0.15566037735849056 -1.519624806885897 L0.11842105263157894 -1.5023959390862942 L0.07738095238095237 -1.4897969543147207 L0.03333333333333333 -1.48293654822335 L-0.011363636363636362 -1.481522028829232 L-0.05555555555555555 -1.4857035012364959 L-0.09821428571428571 -1.4953197969543146 L-0.13749999999999998 -1.5102782239928032 L-0.17261904761904762 -1.5303073886068808 L-0.20238095238095236 -1.5540101522842638 L-0.22499999999999998 -1.5811564775987639 L-0.24074074074074073 -1.610896785109983 L-0.24874371859296482 -1.6423463056965593 L-0.24874371859296482 -1.6737958262831356 L-0.24074074074074073 -1.7052453468697122 L-0.22499999999999998 -1.734985654380931 L-0.20238095238095236 -1.7621319796954311 L-0.17261904761904762 -1.7858347433728141 L-0.13749999999999998 -1.8058639079868917 L-0.09821428571428571 -1.8208223350253805 L-0.05555555555555555 -1.8304386307431992 L-0.011363636363636362 -1.8346201031504632 z M-0.04229797979797979 0.2911495671285301 L-0.011363636363636362 0.2882225364434452 L0.03333333333333333 0.2896370558375634 L0.07738095238095237 0.29649746192893395 L0.11842105263157894 0.3090964467005075 L0.15566037735849056 0.32632531450011026 L0.18846153846153846 0.3485206671501087 L0.21484375 0.37392920839621346 L0.23387096774193547 0.4026162710934284 L0.24576271186440676 0.43318165337200865 L0.25 0.46477157360406085 L0.24576271186440676 0.49636149383611305 L0.23387096774193547 0.5269268761146932 L0.21484375 0.5556139388119083 L0.18846153846153846 0.5810224800580129 L0.15566037735849056 0.6032178327080114 L0.11842105263157894 0.6204467005076142 L0.07738095238095237 0.6330456852791877 L0.03333333333333333 0.6399060913705582 L-0.011363636363636362 0.6413206107646764 L-0.05555555555555555 0.6371391383574123 L-0.09821428571428571 0.6275228426395938 L-0.13749999999999998 0.6125644156011051 L-0.17261904761904762 0.5925352509870275 L-0.20238095238095236 0.5688324873096445 L-0.22499999999999998 0.5416861619951445 L-0.24074074074074073 0.5119458544839255 L-0.24874371859296482 0.480496333897349 L-0.24874371859296482 0.4490468133107727 L-0.24074074074074073 0.4175972927241962 L-0.22499999999999998 0.38785698521297723 L-0.20238095238095236 0.3607106598984771 L-0.17261904761904762 0.3370078962210941 L-0.13749999999999998 0.3169787316070166 L-0.09821428571428571 0.30202030456852785 L-0.05555555555555555 0.29240400885070933 z"/>
<path fill="#bababa" stroke="#bababa" d="M-0.5115384615384622 1.1583193758407428 L-0.5115384615384629 0.6263154459753444 L-0.5115384615384629 -3.2842639593908625 L-0.5115384615384615 -2.577664974619289 L-0.5115384615384615 1.5906881798404637 z"/>
<path fill="#bababa" stroke="#bababa" d="M-0.5115384615384615 1.58581934109895 L-0.5115384615384615 1.590688179840464 L-0.8115384615384614 1.590688179840464 L-0.811538461538463 0.6263154459753444 L-0.5115384615384629 0.6263154459753444 z"/>
<path fill="#bababa" stroke="#bababa" d="M-0.8115384615384614 -2.577664974619291 L-0.5115384615384615 -2.577664974619291 L-0.5115384615384629 -3.284263959390864 L-0.811538461538463 -3.284263959390864 z"/>
<path fill="#bababa" stroke="#bababa" d="M-0.8115384615384629 0.6980751679228836 L-0.8115384615384614 1.5906881798404637 L-0.8115384615384614 -2.577664974619289 L-0.811538461538463 -3.2842639593908625 L-0.811538461538463 0.6263154459753444 z"/>
<path fill="#bababa" stroke="#bababa" d="M-0.5736354577856215 0.6263154459753443 L-0.811538461538463 0.6263154459753443 L-0.811538461538463 -3.2842639593908625 L-0.5115384615384629 -3.2842639593908625 L-0.5115384615384629 0.6263154459753443 z"/>
<path fill="#bababa" stroke="#bababa" d="M-0.6414457120473368 1.5906881798404637 L-0.5115384615384615 1.5906881798404637 L-0.5115384615384615 -2.577664974619289 L-0.8115384615384614 -2.577664974619289 L-0.8115384615384614 1.5906881798404637 z"/>
</svg>