<?xml version="1.0" encoding="UTF-8"?>
<!-- Generated by jsxcad -->
<!DOCTYPE svg PUBLIC "-//W3C//DTD SVG 1.1 Tiny//EN" "http://www.w3.org/Graphics/SVG/1.1/DTD/svg11-tiny.dtd">
<svg baseProfile="tiny" height="6.13879961690429mm" width="1.6279940119760488mm" viewBox="-0.8154940119760483 -1.7186680821832747 1.6279940119760488 6.13879961690429" version="1.1" stroke="black" stroke-width=".1" fill="none" xmlns="http://www.w3.org/2000/svg">
<path fill="#bababa" stroke="#bababa" d="M-0.8115384615384615 0.4716281413148756 L-0.8115384615384614 0.47784249456127625 L-0.8115384615384614 0.8777177264884598 L-0.811538461538463 -0.9584612804547689 L-0.811538461538463 -1.3583365123819524 z"/>
<path fill="#bababa" stroke="#bababa" d="M-0.6284409458695072 0.8777177264884598 L-0.8115384615384614 0.8777177264884598 L-0.8115384615384614 0.47784249456127625 L-0.5115384615384615 0.47784249456127625 L-0.5115384615384615 0.8777177264884598 z"/>
<path fill="#bababa" stroke="#bababa" d="M-0.5280688106664748 -0.9584612804547687 L-0.5115384615384629 -0.9584612804547687 L-0.5115384615384629 -1.3583365123819524 L-0.811538461538463 -1.3583365123819524 L-0.811538461538463 -0.9584612804547687 z"/>
<path fill="#bababa" stroke="#bababa" d="M-0.8125 1.028696196644245 L-0.8125 1.4285714285714284 L-0.8125 0.8777177264884599 L-0.8125 0.4778424945612763 z"/>
<path fill="#bababa" stroke="#bababa" d="M0.809505988023952 0.5155043066349698 L0.809505988023952 0.8777177264884599 L0.809505988023952 -4.420131534721014 L0.809505988023952 -4.353186153118281 L0.809505988023952 0.4778424945612763 z"/>
<path fill="#bababa" stroke="#bababa" d="M-0.8125 1.4285714285714284 L-0.8125 1.028696196644245 L-0.8154940119760479 1.028696196644245 L-0.8154940119760479 1.4285714285714284 z"/>
<path fill="#bababa" stroke="#bababa" d="M0.2926581619369955 -2.8431573880500505 L0.297005988023952 -2.89101041229517 L0.29700598802395206 -2.957955793897903 L0.2926581619369955 -2.9101027696527826 z"/>
<path fill="#bababa" stroke="#bababa" d="M-0.265759562215282 -2.749928579451287 L-0.23983611723920562 -2.71156157137597 L-0.2398361172392054 -2.7785069529787028 L-0.2669940119760478 -2.818700961438559 L-0.2669940119760475 -2.751755579835826 z"/>
<path fill="#bababa" stroke="#bababa" d="M0.26100598802395186 -2.7517555798358266 L0.2807897718077358 -2.7961665804579954 L0.28078977180773584 -2.8631119620607284 L0.2610059880239519 -2.818700961438559 z"/>
<path fill="#bababa" stroke="#bababa" d="M0.16129170230966638 -2.645997180049136 L0.20023179447556488 -2.675984568056478 L0.200231794475565 -2.7429299496592106 L0.16129170230966636 -2.7129425616518685 z"/>
<path fill="#bababa" stroke="#bababa" d="M0.26100598802395214 -3.097210626357247 L0.26100598802395236 -3.030265244754514 L0.23384809328711015 -3.0704592532143704 L0.23384809328711023 -3.137404634817103 z"/>
<path fill="#bababa" stroke="#bababa" d="M-0.29884381434758944 -2.9366882990746026 L-0.3029940119760479 -2.89101041229517 L-0.3029940119760479 -2.957955793897903 L-0.29864618588909136 -3.0058088181430227 L-0.2986461858890914 -2.93886343654029 z"/>
<path fill="#bababa" stroke="#bababa" d="M0.03742806594603001 -2.669306741057374 L0.022005988023952094 -2.666808906297883 L0.022005988023952094 -2.59986352469515 L0.07047537577905412 -2.6077138625106926 L0.07047537577905412 -2.6746592441134256 z"/>
<path fill="#bababa" stroke="#bababa" d="M-0.229140022162805 -2.7671869973770464 L-0.23983611723920548 -2.778506952978703 L-0.23983611723920534 -2.71156157137597 L-0.20621981842766055 -2.6759845680564776 L-0.20621981842766066 -2.7429299496592106 z"/>
<path fill="#bababa" stroke="#bababa" d="M-0.16727972626176224 -3.1360236445412055 L-0.20621981842766077 -3.106036256533863 L-0.20621981842766093 -3.172981638136596 L-0.16727972626176224 -3.202969026143938 z"/>
<path fill="#bababa" stroke="#bababa" d="M-0.012084921066956996 -2.666808906297883 L-0.0279940119760479 -2.666808906297883 L-0.0279940119760479 -2.5998635246951505 L0.022005988023952094 -2.5998635246951505 L0.022005988023952094 -2.666808906297883 z"/>
<path fill="#bababa" stroke="#bababa" d="M0.2338480932871102 -3.0704592532143704 L0.20023179447556577 -3.1060362565338626 L0.2002317944755651 -3.1729816381365956 L0.23384809328711045 -3.1374046348171025 z"/>
<path fill="#bababa" stroke="#bababa" d="M-0.15343675105515062 -2.7056077324851677 L-0.16727972626176218 -2.7129425616518685 L-0.16727972626176207 -2.645997180049136 L-0.12377323275526876 -2.6229448598109335 L-0.12377323275526864 -2.6898902414136665 z"/>
<path fill="#bababa" stroke="#bababa" d="M0.11778520880317286 -3.1590759647794076 L0.07047537577905413 -3.174306962079648 L0.07047537577905412 -3.241252343682381 L0.11778520880317285 -3.2260213463821406 z"/>
<path fill="#bababa" stroke="#bababa" d="M-0.29486987993887226 -2.895151149055311 L-0.2986461858890913 -2.910102769652783 L-0.2986461858890912 -2.84315738805005 L-0.2867777957598316 -2.7961665804579954 L-0.28677779575983153 -2.8631119620607284 z"/>
<path fill="#bababa" stroke="#bababa" d="M-0.5115384615384622 -0.35078078109500277 L-0.5115384615384629 -1.3583365123819524 L-0.5115384615384629 -0.9584612804547687 L-0.5115384615384615 0.8777177264884598 L-0.5115384615384615 0.47784249456127625 z"/>
<path fill="#bababa" stroke="#bababa" d="M0.11778520880317278 -2.6229448598109335 L0.16129170230966625 -2.645997180049136 L0.1612917023096664 -2.7129425616518685 L0.11778520880317278 -2.6898902414136665 z"/>
<path fill="#bababa" stroke="#bababa" d="M-0.2732888522708884 -3.083079853432011 L-0.26699401197604816 -3.0972106263572465 L-0.26699401197604794 -3.030265244754514 L-0.28677779575983176 -2.9858542441323452 L-0.2867777957598318 -3.052799625735078 z"/>
<path fill="#bababa" stroke="#bababa" d="M0.2888818559867766 -3.020760438740495 L0.2926581619369957 -3.0058088181430227 L0.2926581619369956 -2.93886343654029 L0.2807897718077359 -2.9858542441323452 L0.28078977180773596 -3.052799625735078 z"/>
<path fill="#bababa" stroke="#bababa" d="M-0.10872010406577642 -2.6850440149999533 L-0.12377323275526875 -2.6898902414136665 L-0.12377323275526868 -2.6229448598109335 L-0.07646339973114995 -2.6077138625106926 L-0.07646339973114989 -2.6746592441134256 z"/>
<path fill="#bababa" stroke="#bababa" d="M0.006096897114861188 -3.2491026814979236 L0.022005988023952094 -3.2491026814979236 L0.022005988023952094 -3.182157299895191 L-0.0279940119760479 -3.182157299895191 L-0.0279940119760479 -3.2491026814979236 z"/>
<path fill="#bababa" stroke="#bababa" d="M-0.2858785328605686 -2.794147898611533 L-0.26699401197604766 -2.751755579835826 L-0.2669940119760477 -2.818700961438559 L-0.2867777957598315 -2.863111962060728 L-0.28677779575983153 -2.796166580457996 z"/>
<path fill="#bababa" stroke="#bababa" d="M0.20023179447556505 -3.172981638136596 L0.2002317944755651 -3.1060362565338635 L0.16129170230966625 -3.136023644541205 L0.16129170230966638 -3.202969026143938 z"/>
<path fill="#bababa" stroke="#bababa" d="M0.24248924161246863 -2.7912959556704755 L0.2338480932871096 -2.7785069529787028 L0.23384809328710948 -2.7115615713759698 L0.2610059880239518 -2.751755579835826 L0.26100598802395186 -2.818700961438559 z"/>
<path fill="#bababa" stroke="#bababa" d="M-0.043416089898125815 -3.2466048467384327 L-0.0279940119760479 -3.2491026814979236 L-0.0279940119760479 -3.182157299895191 L-0.07646339973114993 -3.1743069620796485 L-0.07646339973114993 -3.241252343682381 z"/>
<path fill="#bababa" stroke="#bababa" d="M0.280789771807736 -2.985854244132345 L0.2610059880239522 -3.030265244754514 L0.2610059880239521 -3.097210626357247 L0.28078977180773596 -3.052799625735078 z"/>
<path fill="#bababa" stroke="#bababa" d="M-0.20621981842766066 -2.675984568056478 L-0.16727972626176218 -2.6459971800491355 L-0.16727972626176224 -2.7129425616518685 L-0.2062198184276609 -2.7429299496592106 z"/>
<path fill="#bababa" stroke="#bababa" d="M0.2968083595654541 -2.8931855497608576 L0.2926581619369956 -2.93886343654029 L0.29265816193699556 -3.005808818143023 L0.2970059880239521 -2.9579557938979026 L0.2970059880239521 -2.89101041229517 z"/>
<path fill="#bababa" stroke="#bababa" d="M0.20023179447556472 -2.6759845680564776 L0.23384809328710954 -2.71156157137597 L0.23384809328710968 -2.778506952978703 L0.20023179447556486 -2.7429299496592106 z"/>
<path fill="#bababa" stroke="#bababa" d="M-0.30161061276656165 -2.9427298316380917 L-0.30299401197604786 -2.957955793897903 L-0.3029940119760478 -2.89101041229517 L-0.2986461858890913 -2.8431573880500505 L-0.2986461858890913 -2.9101027696527826 z"/>
<path fill="#bababa" stroke="#bababa" d="M-0.24107056699997145 -3.0686322528298313 L-0.26699401197604833 -3.030265244754514 L-0.2669940119760482 -3.0972106263572465 L-0.2398361172392064 -3.1374046348171025 L-0.23983611723920584 -3.0704592532143704 z"/>
<path fill="#bababa" stroke="#bababa" d="M-0.09525637195625399 -3.168256724931736 L-0.12377323275526873 -3.1590759647794076 L-0.12377323275526869 -3.22602134638214 L-0.07646339973114993 -3.241252343682381 L-0.07646339973114989 -3.174306962079648 z"/>
<path fill="#bababa" stroke="#bababa" d="M0.2813292440863384 -2.798302526257634 L0.2926581619369955 -2.8431573880500505 L0.29265816193699534 -2.9101027696527826 L0.28078977180773573 -2.863111962060728 L0.28078977180773584 -2.7961665804579954 z"/>
<path fill="#bababa" stroke="#bababa" d="M0.055053297856976206 -3.243750178441872 L0.07047537577905412 -3.241252343682381 L0.07047537577905412 -3.1743069620796485 L0.022005988023952094 -3.182157299895191 L0.022005988023952094 -3.2491026814979236 z"/>
<path fill="#bababa" stroke="#bababa" d="M-0.07426024574228166 -2.6073570289736225 L-0.0279940119760479 -2.59986352469515 L-0.0279940119760479 -2.666808906297883 L-0.07646339973114993 -2.6746592441134256 L-0.07646339973114993 -2.6077138625106926 z"/>
<path fill="#bababa" stroke="#bababa" d="M0.1612917023096664 -3.1360236445412055 L0.11778520880317268 -3.1590759647794076 L0.11778520880317278 -3.22602134638214 L0.1612917023096665 -3.202969026143938 z"/>
<path fill="#bababa" stroke="#bababa" d="M-0.21691591350406214 -3.161661682534939 L-0.20621981842766146 -3.172981638136595 L-0.20621981842766088 -3.106036256533863 L-0.2398361172392058 -3.0704592532143704 L-0.23983611723920642 -3.1374046348171025 z"/>
<path fill="#bababa" stroke="#bababa" d="M0.0704753757790541 -2.607713862510693 L0.11778520880317285 -2.6229448598109335 L0.1177852088031729 -2.689890241413666 L0.07047537577905415 -2.6746592441134256 z"/>
<path fill="#bababa" stroke="#bababa" d="M-0.15260601908629812 -3.1437986447682382 L-0.16727972626176213 -3.136023644541205 L-0.16727972626176202 -3.202969026143938 L-0.12377323275526872 -3.22602134638214 L-0.12377323275526869 -3.1590759647794076 z"/>
<path fill="#bababa" stroke="#bababa" d="M-0.28677779575983176 -2.985854244132345 L-0.2986461858890915 -2.93886343654029 L-0.29864618588909153 -3.0058088181430227 L-0.28677779575983176 -3.052799625735078 z"/>
<path fill="#bababa" stroke="#bababa" d="M0.29265816193699556 0.08119409359617062 L0.29700598802395206 0.03334106935105065 L0.29700598802395206 -0.03360431225168206 L0.2926581619369955 0.01424871199343792 z"/>
<path fill="#bababa" stroke="#bababa" d="M-0.26575956221528224 0.1744229021949334 L-0.23983611723920573 0.21278991027025063 L-0.23983611723920562 0.14584452866751782 L-0.26699401197604783 0.1056505202076618 L-0.2669940119760478 0.1725959018103945 z"/>
<path fill="#bababa" stroke="#bababa" d="M0.261005988023952 0.17259590181039447 L0.2807897718077358 0.12818490118822537 L0.2807897718077358 0.061239519585492716 L0.26100598802395203 0.10565052020766177 z"/>
<path fill="#bababa" stroke="#bababa" d="M0.1612917023096663 0.27835430159708513 L0.20023179447556497 0.2483669135897433 L0.2002317944755649 0.1814215319870105 L0.16129170230966633 0.21140891999435263 z"/>
<path fill="#bababa" stroke="#bababa" d="M0.26100598802395214 -0.17285914471102587 L0.26100598802395214 -0.10591376310829324 L0.23384809328711015 -0.14610777156814933 L0.23384809328711012 -0.21305315317088197 z"/>
<path fill="#bababa" stroke="#bababa" d="M-0.2988438143475894 -0.012336817428382059 L-0.3029940119760479 0.03334106935105065 L-0.30299401197604786 -0.03360431225168206 L-0.29864618588909136 -0.08145733649680204 L-0.29864618588909136 -0.014511954894069333 z"/>
<path fill="#bababa" stroke="#bababa" d="M0.03742806594603001 0.25504474058884735 L0.022005988023952094 0.25754257534833813 L0.022005988023952094 0.3244879569510705 L0.07047537577905412 0.31663761913552796 L0.07047537577905412 0.24969223753279557 z"/>
<path fill="#bababa" stroke="#bababa" d="M-0.22914002216280507 0.1571644842691747 L-0.23983611723920564 0.1458445286675178 L-0.23983611723920562 0.21278991027025057 L-0.2062198184276607 0.2483669135897434 L-0.20621981842766074 0.18142153198701064 z"/>
<path fill="#bababa" stroke="#bababa" d="M-0.16727972626176227 -0.2116721628949843 L-0.20621981842766085 -0.18168477488764215 L-0.20621981842766077 -0.24863015649037506 L-0.16727972626176202 -0.278617544497717 z"/>
<path fill="#bababa" stroke="#bababa" d="M-0.012084921066956996 0.25754257534833813 L-0.0279940119760479 0.25754257534833813 L-0.0279940119760479 0.32448795695107086 L0.022005988023952094 0.32448795695107086 L0.022005988023952094 0.25754257534833813 z"/>
<path fill="#bababa" stroke="#bababa" d="M0.23384809328711026 -0.14610777156814928 L0.2002317944755652 -0.1816847748876422 L0.20023179447556513 -0.24863015649037476 L0.23384809328711006 -0.21305315317088197 z"/>
<path fill="#bababa" stroke="#bababa" d="M-0.15343675105515067 0.21874374916105324 L-0.16727972626176227 0.21140891999435257 L-0.16727972626176213 0.27835430159708524 L-0.12377323275526869 0.3014066218352873 L-0.1237732327552687 0.2344612402325547 z"/>
<path fill="#bababa" stroke="#bababa" d="M0.11778520880317285 -0.23472448313318633 L0.07047537577905412 -0.2499554804334272 L0.07047537577905406 -0.3169008620361598 L0.1177852088031729 -0.3016698647359193 z"/>
<path fill="#bababa" stroke="#bababa" d="M-0.2948698799388723 0.02920033259090989 L-0.2986461858890913 0.014248711993437923 L-0.2986461858890913 0.08119409359617064 L-0.2867777957598316 0.12818490118822537 L-0.2867777957598316 0.06123951958549266 z"/>
<path fill="#bababa" stroke="#bababa" d="M0.11778520880317292 0.3014066218352875 L0.1612917023096663 0.27835430159708524 L0.1612917023096663 0.2114089199943524 L0.11778520880317282 0.2344612402325547 z"/>
<path fill="#bababa" stroke="#bababa" d="M-0.2732888522708882 -0.15872837178579025 L-0.26699401197604794 -0.1728591447110259 L-0.26699401197604794 -0.10591376310829322 L-0.2867777957598318 -0.06150276248612408 L-0.28677779575983176 -0.12844814408885682 z"/>
<path fill="#bababa" stroke="#bababa" d="M0.28888185598677657 -0.096408957094274 L0.2926581619369956 -0.08145733649680202 L0.29265816193699556 -0.01451195489406932 L0.2807897718077359 -0.06150276248612409 L0.28078977180773596 -0.12844814408885677 z"/>
<path fill="#bababa" stroke="#bababa" d="M-0.10872010406577629 0.23930746664626765 L-0.1237732327552686 0.2344612402325546 L-0.12377323275526875 0.30140662183528755 L-0.0764633997311499 0.316637619135528 L-0.07646339973114998 0.24969223753279543 z"/>
<path fill="#bababa" stroke="#bababa" d="M0.006096897114861188 -0.32475119985170237 L0.022005988023952094 -0.32475119985170237 L0.022005988023952094 -0.2578058182489697 L-0.0279940119760479 -0.2578058182489697 L-0.0279940119760479 -0.32475119985170237 z"/>
<path fill="#bababa" stroke="#bababa" d="M-0.28587853286056875 0.1302035830346876 L-0.26699401197604783 0.1725959018103945 L-0.2669940119760478 0.10565052020766176 L-0.28677779575983164 0.06123951958549271 L-0.2867777957598316 0.12818490118822537 z"/>
<path fill="#bababa" stroke="#bababa" d="M0.2002317944755649 -0.24863015649037487 L0.200231794475565 -0.18168477488764243 L0.1612917023096663 -0.21167216289498425 L0.16129170230966633 -0.2786175444977168 z"/>
<path fill="#bababa" stroke="#bababa" d="M0.24248924161246868 0.1330555259757454 L0.23384809328710982 0.14584452866751788 L0.2338480932871098 0.21278991027025052 L0.261005988023952 0.17259590181039455 L0.2610059880239521 0.10565052020766182 z"/>
<path fill="#bababa" stroke="#bababa" d="M-0.043416089898125815 -0.32225336509221164 L-0.0279940119760479 -0.3247511998517024 L-0.0279940119760479 -0.25780581824896964 L-0.07646339973114993 -0.24995548043342708 L-0.07646339973114993 -0.31690086203615986 z"/>
<path fill="#bababa" stroke="#bababa" d="M0.2807897718077359 -0.06150276248612406 L0.2610059880239522 -0.10591376310829326 L0.2610059880239522 -0.1728591447110259 L0.2807897718077359 -0.12844814408885677 z"/>
<path fill="#bababa" stroke="#bababa" d="M-0.20621981842766077 0.24836691358974325 L-0.16727972626176213 0.2783543015970853 L-0.16727972626176218 0.2114089199943526 L-0.20621981842766085 0.18142153198701058 z"/>
<path fill="#bababa" stroke="#bababa" d="M0.29680835956545404 0.031165931885363377 L0.29265816193699556 -0.01451195489406933 L0.29265816193699556 -0.08145733649680204 L0.29700598802395206 -0.03360431225168206 L0.29700598802395206 0.03334106935105065 z"/>
<path fill="#bababa" stroke="#bababa" d="M0.2002317944755649 0.2483669135897434 L0.23384809328710982 0.21278991027025057 L0.23384809328710984 0.1458445286675178 L0.20023179447556494 0.18142153198701064 z"/>
<path fill="#bababa" stroke="#bababa" d="M-0.3016106127665617 -0.018378349991871153 L-0.30299401197604786 -0.033604312251682054 L-0.30299401197604786 0.03334106935105065 L-0.29864618588909136 0.08119409359617062 L-0.2986461858890913 0.01424871199343792 z"/>
<path fill="#bababa" stroke="#bababa" d="M-0.2410705669999714 -0.14428077118361035 L-0.26699401197604805 -0.1059137631082932 L-0.26699401197604794 -0.17285914471102587 L-0.2398361172392059 -0.21305315317088203 L-0.23983611723920586 -0.14610777156814928 z"/>
<path fill="#bababa" stroke="#bababa" d="M-0.09525637195625389 -0.2439052432855148 L-0.12377323275526868 -0.23472448313318658 L-0.12377323275526861 -0.30166986473591906 L-0.07646339973114984 -0.3169008620361598 L-0.07646339973115002 -0.24995548043342727 z"/>
<path fill="#bababa" stroke="#bababa" d="M0.28132924408633847 0.12604895538858651 L0.2926581619369955 0.08119409359617062 L0.2926581619369955 0.014248711993437932 L0.2807897718077358 0.06123951958549267 L0.2807897718077358 0.12818490118822537 z"/>
<path fill="#bababa" stroke="#bababa" d="M0.055053297856976206 -0.31939869679565086 L0.07047537577905412 -0.31690086203616 L0.07047537577905412 -0.24995548043342725 L0.022005988023952094 -0.2578058182489698 L0.022005988023952094 -0.3247511998517026 z"/>
<path fill="#bababa" stroke="#bababa" d="M-0.07426024574228166 0.31699445267259835 L-0.0279940119760479 0.3244879569510708 L-0.0279940119760479 0.2575425753483382 L-0.07646339973114993 0.2496922375327956 L-0.07646339973114993 0.31663761913552824 z"/>
<path fill="#bababa" stroke="#bababa" d="M0.16129170230966636 -0.21167216289498453 L0.11778520880317296 -0.23472448313318664 L0.11778520880317275 -0.30166986473591906 L0.16129170230966636 -0.27861754449771686 z"/>
<path fill="#bababa" stroke="#bababa" d="M-0.2169159135040616 -0.23731020088871785 L-0.20621981842766096 -0.24863015649037482 L-0.20621981842766096 -0.18168477488764204 L-0.2398361172392059 -0.14610777156814928 L-0.2398361172392059 -0.21305315317088205 z"/>
<path fill="#bababa" stroke="#bababa" d="M0.07047537577905409 0.3166376191355281 L0.11778520880317282 0.3014066218352872 L0.11778520880317288 0.2344612402325546 L0.07047537577905413 0.2496922375327955 z"/>
<path fill="#bababa" stroke="#bababa" d="M-0.15260601908629806 -0.21944716312201742 L-0.16727972626176205 -0.21167216289498425 L-0.16727972626176213 -0.27861754449771703 L-0.12377323275526876 -0.3016698647359193 L-0.12377323275526866 -0.2347244831331865 z"/>
<path fill="#bababa" stroke="#bababa" d="M-0.2867777957598317 -0.06150276248612406 L-0.2986461858890914 -0.014511954894069336 L-0.29864618588909136 -0.08145733649680202 L-0.2867777957598317 -0.1284481440888568 z"/>
<path fill="#bababa" stroke="#bababa" d="M0.48814605958949964 0.8777177264884598 L-0.8125 0.8777177264884598 L-0.8125 1.4285714285714284 L-0.8154940119760479 1.4285714285714284 L-0.8154940119760479 -4.420131534721013 L0.809505988023952 -4.420131534721013 L0.809505988023952 0.8777177264884598 z M-0.25835286365068905 -2.8059119587467864 L-0.23983611723920578 -2.7785069529787028 L-0.2062198184276608 -2.7429299496592106 L-0.16727972626176218 -2.712942561651868 L-0.12377323275526868 -2.689890241413666 L-0.07646339973114993 -2.674659244113425 L-0.0279940119760479 -2.6668089062978826 L0.022005988023952094 -2.6668089062978826 L0.07047537577905413 -2.674659244113425 L0.11778520880317286 -2.689890241413666 L0.16129170230966636 -2.712942561651868 L0.200231794475565 -2.7429299496592106 L0.23384809328710998 -2.7785069529787028 L0.2610059880239521 -2.8187009614385587 L0.28078977180773584 -2.863111962060728 L0.29265816193699556 -2.910102769652783 L0.29700598802395206 -2.957955793897903 L0.29265816193699556 -3.005808818143023 L0.28078977180773584 -3.052799625735078 L0.2610059880239521 -3.0972106263572465 L0.23384809328710998 -3.137404634817103 L0.200231794475565 -3.1729816381365956 L0.16129170230966636 -3.2029690261439376 L0.11778520880317286 -3.2260213463821397 L0.07047537577905413 -3.2412523436823806 L0.022005988023952094 -3.249102681497923 L-0.0279940119760479 -3.249102681497923 L-0.07646339973114993 -3.2412523436823806 L-0.12377323275526868 -3.2260213463821397 L-0.16727972626176218 -3.2029690261439376 L-0.2062198184276608 -3.1729816381365956 L-0.23983611723920578 -3.137404634817103 L-0.2669940119760479 -3.0972106263572465 L-0.28677779575983164 -3.052799625735078 L-0.29864618588909136 -3.005808818143023 L-0.30299401197604786 -2.957955793897903 L-0.29864618588909136 -2.910102769652783 L-0.28677779575983164 -2.863111962060728 L-0.2669940119760479 -2.8187009614385587 z M-0.3016106127665617 -0.018378349991871157 L-0.29864618588909136 0.014248711993437921 L-0.28677779575983164 0.061239519585492674 L-0.2669940119760479 0.1056505202076618 L-0.23983611723920578 0.14584452866751785 L-0.2062198184276608 0.18142153198701064 L-0.16727972626176218 0.21140891999435266 L-0.12377323275526868 0.23446124023255485 L-0.07646339973114993 0.2496922375327956 L-0.0279940119760479 0.25754257534833813 L0.022005988023952094 0.25754257534833813 L0.07047537577905413 0.2496922375327956 L0.11778520880317286 0.23446124023255485 L0.16129170230966636 0.21140891999435266 L0.200231794475565 0.18142153198701064 L0.23384809328710998 0.14584452866751785 L0.2610059880239521 0.1056505202076618 L0.28078977180773584 0.061239519585492674 L0.29265816193699556 0.014248711993437921 L0.29700598802395206 -0.033604312251682054 L0.29265816193699556 -0.08145733649680204 L0.28078977180773584 -0.1284481440888568 L0.2610059880239521 -0.1728591447110259 L0.23384809328710998 -0.21305315317088197 L0.200231794475565 -0.2486301564903748 L0.16129170230966636 -0.27861754449771675 L0.11778520880317286 -0.30166986473591895 L0.07047537577905413 -0.3169008620361597 L0.022005988023952094 -0.32475119985170225 L-0.0279940119760479 -0.32475119985170225 L-0.07646339973114993 -0.3169008620361597 L-0.12377323275526868 -0.30166986473591895 L-0.16727972626176218 -0.27861754449771675 L-0.2062198184276608 -0.2486301564903748 L-0.23983611723920578 -0.21305315317088197 L-0.2669940119760479 -0.1728591447110259 L-0.28677779575983164 -0.1284481440888568 L-0.29864618588909136 -0.08145733649680204 L-0.30299401197604786 -0.033604312251682054 z M-0.811538461538463 -0.9584612804547687 L-0.8115384615384614 0.8777177264884598 L-0.5115384615384615 0.8777177264884598 L-0.5115384615384629 -0.9584612804547687 z"/>
<path fill="#bababa" stroke="#bababa" d="M0.641015182645603 0.47784249456127625 L-0.8125 0.47784249456127625 L-0.8125 0.8777177264884598 L0.809505988023952 0.8777177264884598 L0.809505988023952 0.47784249456127625 z"/>
<path fill="#bababa" stroke="#bababa" d="M-0.8154940119760479 1.028696196644245 L-0.8154940119760479 -4.353186153118281 L-0.8154940119760479 -4.420131534721014 L-0.8154940119760479 1.4285714285714284 z"/>
<path fill="#bababa" stroke="#bababa" d="M0.809505988023952 -4.353186153118281 L0.809505988023952 -4.420131534721014 L-0.8154940119760479 -4.420131534721014 L-0.8154940119760479 -4.353186153118281 z"/>
<path fill="#bababa" stroke="#bababa" d="M-0.22137052797283596 0.47784249456127625 L0.809505988023952 0.47784249456127625 L0.809505988023952 -4.353186153118281 L-0.8154940119760479 -4.353186153118281 L-0.8154940119760479 1.028696196644245 L-0.8125 1.028696196644245 L-0.8125 0.47784249456127625 z M-0.16530215837510337 0.27940213433518546 L-0.16727972626176218 0.27835430159708535 L-0.2062198184276608 0.2483669135897434 L-0.23983611723920578 0.21278991027025054 L-0.2669940119760479 0.1725959018103945 L-0.28677779575983164 0.12818490118822537 L-0.29864618588909136 0.08119409359617062 L-0.30299401197604786 0.03334106935105065 L-0.29864618588909136 -0.01451195489406933 L-0.28677779575983164 -0.06150276248612408 L-0.2669940119760479 -0.1059137631082932 L-0.23983611723920578 -0.14610777156814925 L-0.2062198184276608 -0.18168477488764204 L-0.16727972626176218 -0.21167216289498408 L-0.12377323275526868 -0.23472448313318625 L-0.07646339973114993 -0.249955480433427 L-0.0279940119760479 -0.2578058182489696 L0.022005988023952094 -0.2578058182489696 L0.07047537577905413 -0.249955480433427 L0.11778520880317286 -0.23472448313318625 L0.16129170230966636 -0.21167216289498408 L0.200231794475565 -0.18168477488764204 L0.23384809328710998 -0.14610777156814925 L0.2610059880239521 -0.1059137631082932 L0.28078977180773584 -0.06150276248612408 L0.29265816193699556 -0.01451195489406933 L0.29700598802395206 0.03334106935105065 L0.29265816193699556 0.08119409359617062 L0.28078977180773584 0.12818490118822537 L0.2610059880239521 0.1725959018103945 L0.23384809328710998 0.21278991027025054 L0.200231794475565 0.2483669135897434 L0.16129170230966636 0.27835430159708535 L0.11778520880317286 0.30140662183528755 L0.07047537577905413 0.3166376191355283 L0.022005988023952094 0.32448795695107086 L-0.0279940119760479 0.32448795695107086 L-0.07646339973114993 0.3166376191355283 L-0.12377323275526868 0.30140662183528755 z M-0.600359529829115 -1.3583365123819524 L-0.5115384615384629 -1.3583365123819524 L-0.5115384615384615 0.47784249456127625 L-0.8115384615384614 0.47784249456127625 L-0.811538461538463 -1.3583365123819524 z M0.23508254304787551 -2.7133885717605093 L0.23384809328710998 -2.71156157137597 L0.200231794475565 -2.6759845680564776 L0.16129170230966636 -2.6459971800491355 L0.11778520880317286 -2.622944859810933 L0.07047537577905413 -2.6077138625106926 L0.022005988023952094 -2.59986352469515 L-0.0279940119760479 -2.59986352469515 L-0.07646339973114993 -2.6077138625106926 L-0.12377323275526868 -2.622944859810933 L-0.16727972626176218 -2.6459971800491355 L-0.2062198184276608 -2.6759845680564776 L-0.23983611723920578 -2.71156157137597 L-0.2669940119760479 -2.751755579835826 L-0.28677779575983164 -2.7961665804579954 L-0.29864618588909136 -2.84315738805005 L-0.30299401197604786 -2.89101041229517 L-0.29864618588909136 -2.93886343654029 L-0.28677779575983164 -2.985854244132345 L-0.2669940119760479 -3.0302652447545135 L-0.23983611723920578 -3.0704592532143704 L-0.2062198184276608 -3.106036256533863 L-0.16727972626176218 -3.1360236445412046 L-0.12377323275526868 -3.1590759647794067 L-0.07646339973114993 -3.174306962079648 L-0.0279940119760479 -3.18215729989519 L0.022005988023952094 -3.18215729989519 L0.07047537577905413 -3.174306962079648 L0.11778520880317286 -3.1590759647794067 L0.16129170230966636 -3.1360236445412046 L0.200231794475565 -3.106036256533863 L0.23384809328710998 -3.0704592532143704 L0.2610059880239521 -3.0302652447545135 L0.28078977180773584 -2.985854244132345 L0.29265816193699556 -2.93886343654029 L0.29700598802395206 -2.89101041229517 L0.29265816193699556 -2.84315738805005 L0.28078977180773584 -2.7961665804579954 L0.2610059880239521 -2.751755579835826 z"/>
<path fill="#bababa" stroke="#bababa" d="M-0.8115384615384624 -0.7201192757778561 L-0.811538461538463 -1.3583365123819524 L-0.811538461538463 -2.691253952139231 L-0.8115384615384614 -0.8550749451960022 L-0.8115384615384614 0.47784249456127625 z"/>
<path fill="#bababa" stroke="#bababa" d="M-0.8125 -0.8550749451960024 L-0.8125 -0.3042212431130337 L-0.8125 1.028696196644245 L-0.8125 0.47784249456127625 z"/>
<path fill="#bababa" stroke="#bababa" d="M-0.5145324735145095 0.36673645961307644 L-0.5145324735145108 -0.8550749451960024 L-0.8125 -0.8550749451960024 L-0.8125 0.4778424945612762 L-0.5145324735145094 0.4778424945612762 z"/>
<path fill="#bababa" stroke="#bababa" d="M-0.7755109093891184 -2.691253952139231 L-0.811538461538463 -2.691253952139231 L-0.811538461538463 -1.3583365123819524 L-0.5145324735145094 -1.3583365123819524 L-0.5145324735145108 -2.691253952139231 z"/>
<path fill="#bababa" stroke="#bababa" d="M-0.8145324735145095 0.8837424688042802 L-0.8145324735145094 1.0286961966442447 L-0.8125 1.0286961966442447 L-0.8125 -0.3042212431130337 L-0.8145324735145109 -0.3042212431130337 z"/>
<path fill="#bababa" stroke="#bababa" d="M-0.8145324735145109 1.531957763830195 L-0.5145324735145108 1.531957763830195 L-0.5145324735145107 1.691892500409366 L-0.8145324735145106 1.691892500409366 z"/>
<path fill="#bababa" stroke="#bababa" d="M-0.5145324735145108 1.7186680821832703 L-0.5145324735145107 1.6918925004093661 L-0.5145324735145108 1.5319577638301949 z"/>
<path fill="#bababa" stroke="#bababa" d="M-0.5145324735145095 -1.4192828916192026 L-0.5145324735145094 -1.3583365123819524 L-0.5145324735145094 -4.353186153118281 L-0.5145324735145108 -4.130034881109172 L-0.5145324735145108 -2.6912539521392307 z"/>
<path fill="#bababa" stroke="#bababa" d="M-0.5145324735145095 0.3965811882659634 L-0.5145324735145108 -0.8550749451960024 L-0.5145324735145094 0.47784249456127625 L-0.5145324735145094 0.4778424945612762 z"/>
<path fill="#bababa" stroke="#bababa" d="M-0.8145324735145109 1.531957763830195 L-0.8145324735145109 1.71866808218327 L-0.5145324735145108 1.71866808218327 L-0.5145324735145108 1.531957763830195 z"/>
<path fill="#bababa" stroke="#bababa" d="M-0.7431348321322471 -0.8550749451960022 L-0.8115384615384614 -0.8550749451960022 L-0.811538461538463 -2.691253952139231 L-0.5145324735145108 -2.691253952139231 L-0.5145324735145108 -4.130034881109172 L-0.8145324735145109 -4.130034881109172 L-0.8145324735145109 -0.3042212431130337 L-0.8125 -0.3042212431130337 L-0.8125 -0.8550749451960022 L-0.5145324735145108 -0.8550749451960022 z"/>
<path fill="#bababa" stroke="#bababa" d="M-0.8145324735145106 1.691892500409366 L-0.5145324735145107 1.691892500409366 L-0.5145324735145108 1.7186680821832698 L-0.8145324735145109 1.7186680821832698 z"/>
<path fill="#bababa" stroke="#bababa" d="M-0.8145324735145109 1.5319577638301949 L-0.8145324735145106 1.6918925004093661 L-0.8145324735145109 1.71866808218327 z"/>
<path fill="#bababa" stroke="#bababa" d="M-0.8145324735145109 -0.3042212431130337 L-0.8145324735145109 -4.130034881109172 L-0.8145324735145094 -4.353186153118281 L-0.8145324735145094 1.0286961966442447 z"/>
<path fill="#bababa" stroke="#bababa" d="M-0.5145324735145094 -4.353186153118282 L-0.8145324735145094 -4.353186153118282 L-0.8145324735145109 -4.130034881109172 L-0.5145324735145108 -4.130034881109172 z"/>
<path fill="#bababa" stroke="#bababa" d="M-0.5315738607393343 0.47784249456127625 L-0.8115384615384614 0.47784249456127625 L-0.8115384615384614 -0.8550749451960024 L-0.5145324735145108 -0.8550749451960024 L-0.5145324735145094 0.47784249456127625 z"/>
<path fill="#bababa" stroke="#bababa" d="M-0.5183878545317769 -1.3583365123819524 L-0.811538461538463 -1.3583365123819524 L-0.8115384615384614 0.4778424945612762 L-0.5145324735145094 0.4778424945612762 L-0.8125 0.4778424945612762 L-0.8125 1.0286961966442447 L-0.8145324735145094 1.0286961966442447 L-0.8145324735145094 -4.353186153118281 L-0.5145324735145094 -4.353186153118281 L-0.5145324735145094 -1.3583365123819524 z"/>
<path fill="#bababa" stroke="#bababa" d="M0.2956521739130435 0.12043298833146548 L0.30000000000000004 0.15517041334300216 L0.3 0.3671501087744742 L0.2956521739130435 0.33241268376293753 z"/>
<path fill="#bababa" stroke="#bababa" d="M-0.2627655502392345 0.05275641409813091 L-0.23684210526315827 0.024905069549739603 L-0.23684210526315816 0.23688476498121158 L-0.2640000000000004 0.26606236403190714 L-0.2640000000000004 0.054082668600434945 z"/>
<path fill="#bababa" stroke="#bababa" d="M0.26400000000000046 0.054082668600434994 L0.28378378378378405 0.08632146286968617 L0.2837837837837838 0.29830115830115833 L0.26400000000000023 0.26606236403190714 z"/>
<path fill="#bababa" stroke="#bababa" d="M0.1642857142857154 -0.022689375379731033 L0.20322580645161376 -0.0009209572153740479 L0.2032258064516137 0.21105873821609863 L0.16428571428571534 0.18929032005174165 z"/>
<path fill="#bababa" stroke="#bababa" d="M-0.33549078615313777 0.8777177264884598 L0.8125 0.8777177264884598 L0.8125 1.4285714285714284 L-0.8125 1.4285714285714284 L-0.8125 0.8777177264884598 z"/>
<path fill="#bababa" stroke="#bababa" d="M0.2631182501708813 0.4691851781615444 L0.26399999999999973 0.4682378535170412 L0.2639999999999996 0.25625815808556923 L0.23684210526315747 0.28543575713626457 L0.23684210526315747 0.4974154525677368 z"/>
<path fill="#bababa" stroke="#bababa" d="M-0.2958498023715414 0.18832886449037808 L-0.29999999999999993 0.15517041334300216 L-0.29999999999999993 0.3671501087744742 L-0.2956521739130434 0.4018875337860109 L-0.2956521739130434 0.18990783835453884 z"/>
<path fill="#bababa" stroke="#bababa" d="M0.040422077922077915 0.15761424378216787 L0.024999999999999998 0.1558010177840666 L0.024999999999999998 -0.05617867764740607 L0.07346938775510203 -0.0504799673676592 L0.07346938775510203 0.16149972806381346 z"/>
<path fill="#bababa" stroke="#bababa" d="M-0.22614601018675745 0.22866739282867599 L-0.23684210526315827 0.23688476498121144 L-0.23684210526315846 0.024905069549739436 L-0.20322580645161317 -0.0009209572153735668 L-0.20322580645161317 0.21105873821609875 z"/>
<path fill="#bababa" stroke="#bababa" d="M-0.1642857142857138 0.333030202065735 L-0.20322580645161265 0.3112617839013778 L-0.20322580645161276 0.5232414793328498 L-0.16428571428571395 0.5450098974972071 z"/>
<path fill="#bababa" stroke="#bababa" d="M-0.00909090909090909 0.15580101778406716 L-0.024999999999999998 0.15580101778406716 L-0.024999999999999998 -0.056178677647406014 L0.024999999999999998 -0.056178677647406014 L0.024999999999999998 0.15580101778406716 z"/>
<path fill="#bababa" stroke="#bababa" d="M0.23684210526315724 0.2854357571362649 L0.20322580645161237 0.31126178390137776 L0.20322580645161248 0.5232414793328499 L0.2368421052631576 0.49741545256773667 z"/>
<path fill="#bababa" stroke="#bababa" d="M-0.1504427390791027 0.18396582735415107 L-0.16428571428571426 0.1892903200517402 L-0.16428571428571426 -0.022689375379731393 L-0.12077922077922076 -0.03942349528644013 L-0.12077922077922076 0.17255620014503145 z"/>
<path fill="#bababa" stroke="#bababa" d="M0.12077922077922076 0.3497643219724437 L0.07346938775510202 0.36082079405366196 L0.07346938775510202 0.572800489485133 L0.12077922077922076 0.5617440174039147 z"/>
<path fill="#bababa" stroke="#bababa" d="M-0.29187586796282455 0.3215590165705532 L-0.29565217391304355 0.33241268376293753 L-0.2956521739130436 0.12043298833146547 L-0.28378378378378377 0.08632146286968621 L-0.28378378378378377 0.2983011583011583 z"/>
<path fill="#bababa" stroke="#bababa" d="M0.12077922077922076 -0.03942349528644061 L0.16428571428571426 -0.022689375379731872 L0.16428571428571426 0.18929032005174054 L0.12077922077922076 0.17255620014503179 z"/>
<path fill="#bababa" stroke="#bababa" d="M-0.2702948402948399 0.4579800553404613 L-0.2639999999999997 0.4682378535170412 L-0.26399999999999985 0.2562581580855693 L-0.28378378378378355 0.2240193638163181 L-0.2837837837837833 0.4359990592477901 z"/>
<path fill="#bababa" stroke="#bababa" d="M0.29187586796282433 0.4127412009783952 L0.2956521739130432 0.4018875337860109 L0.29565217391304344 0.18990783835453887 L0.2837837837837835 0.2240193638163181 L0.2837837837837836 0.43599905924779014 z"/>
<path fill="#bababa" stroke="#bababa" d="M-0.10572609208972844 0.1690382317555533 L-0.12077922077922076 0.17255620014503184 L-0.12077922077922076 -0.03942349528644024 L-0.07346938775510203 -0.05047996736765852 L-0.07346938775510203 0.16149972806381357 z"/>
<path fill="#bababa" stroke="#bababa" d="M0.00909090909090909 0.5784991997648801 L0.024999999999999998 0.5784991997648801 L0.024999999999999998 0.366519504333408 L-0.024999999999999998 0.366519504333408 L-0.024999999999999998 0.5784991997648801 z"/>
<path fill="#bababa" stroke="#bababa" d="M-0.28288452088452115 0.08485606313017473 L-0.26400000000000046 0.054082668600434994 L-0.26400000000000023 0.26606236403190714 L-0.2837837837837838 0.29830115830115833 L-0.28378378378378405 0.08632146286968617 z"/>
<path fill="#bababa" stroke="#bababa" d="M0.2019615177449277 0.5239482461563679 L0.2032258064516127 0.5232414793328498 L0.20322580645161184 0.31126178390137793 L0.16428571428571404 0.333030202065735 L0.16428571428571362 0.5450098974972069 z"/>
<path fill="#bababa" stroke="#bababa" d="M0.24548325358851697 0.24616854649734202 L0.23684210526315813 0.23688476498121158 L0.23684210526315808 0.024905069549739943 L0.2640000000000005 0.0540826686004349 L0.2640000000000002 0.26606236403190714 z"/>
<path fill="#bababa" stroke="#bababa" d="M-0.040422077922077915 0.5766859737667791 L-0.024999999999999998 0.5784991997648804 L-0.024999999999999998 0.36651950433340813 L-0.07346938775510203 0.36082079405366124 L-0.07346938775510203 0.5728004894851335 z"/>
<path fill="#bababa" stroke="#bababa" d="M0.28378378378378355 0.22401936381631812 L0.26399999999999957 0.2562581580855691 L0.2639999999999998 0.4682378535170413 L0.2837837837837834 0.4359990592477901 z"/>
<path fill="#bababa" stroke="#bababa" d="M-0.20322580645161348 -0.0009209572153729431 L-0.16428571428571512 -0.02268937537973061 L-0.16428571428571484 0.18929032005174193 L-0.20322580645161337 0.21105873821609833 z"/>
<path fill="#bababa" stroke="#bababa" d="M0.29980237154150186 0.15674938720716292 L0.2956521739130434 0.18990783835453884 L0.2956521739130433 0.4018875337860109 L0.2999999999999999 0.36715010877447424 L0.29999999999999993 0.15517041334300216 z"/>
<path fill="#bababa" stroke="#bababa" d="M0.20322580645161298 -0.0009209572153733833 L0.23684210526315833 0.024905069549739596 L0.23684210526315813 0.23688476498121172 L0.20322580645161353 0.21105873821609825 z"/>
<path fill="#bababa" stroke="#bababa" d="M-0.2986166007905139 0.35609729172534893 L-0.3 0.3671501087744742 L-0.30000000000000004 0.15517041334300216 L-0.2956521739130435 0.12043298833146548 L-0.2956521739130435 0.33241268376293753 z"/>
<path fill="#bababa" stroke="#bababa" d="M-0.23807655502392333 0.28410950263396045 L-0.26399999999999985 0.2562581580855692 L-0.2639999999999996 0.4682378535170412 L-0.23684210526315758 0.4974154525677368 L-0.2368421052631578 0.2854357571362648 z"/>
<path fill="#bababa" stroke="#bababa" d="M-0.09226235998020603 0.35642881125752546 L-0.12077922077922075 0.3497643219724427 L-0.12077922077922075 0.5617440174039152 L-0.07346938775510203 0.5728004894851334 L-0.07346938775510203 0.36082079405366096 z"/>
<path fill="#bababa" stroke="#bababa" d="M0.2843232560623868 0.08787198675431251 L0.29565217391304366 0.12043298833146547 L0.29565217391304344 0.33241268376293753 L0.28378378378378394 0.2983011583011582 L0.2837837837837838 0.08632146286968623 z"/>
<path fill="#bababa" stroke="#bababa" d="M0.05804730983302411 0.5746137154832348 L0.07346938775510203 0.5728004894851335 L0.07346938775510203 0.36082079405366124 L0.024999999999999998 0.36651950433340813 L0.024999999999999998 0.5784991997648804 z"/>
<path fill="#bababa" stroke="#bababa" d="M-0.07126623376623374 -0.050738999653100934 L-0.024999999999999998 -0.05617867764740476 L-0.024999999999999998 0.1558010177840663 L-0.07346938775510203 0.16149972806381316 L-0.07346938775510203 -0.0504799673676579 z"/>
<path fill="#bababa" stroke="#bababa" d="M0.16428571428571426 0.3330302020657346 L0.12077922077922075 0.3497643219724433 L0.12077922077922075 0.5617440174039154 L0.16428571428571426 0.5450098974972067 z"/>
<path fill="#bababa" stroke="#bababa" d="M-0.21392190152801333 0.515024107180314 L-0.2032258064516123 0.5232414793328497 L-0.2032258064516123 0.31126178390137743 L-0.2368421052631574 0.28543575713626473 L-0.23684210526315763 0.4974154525677368 z"/>
<path fill="#bababa" stroke="#bababa" d="M0.07346938775510202 -0.05047996736765792 L0.12077922077922076 -0.039423495286439646 L0.12077922077922076 0.17255620014503212 L0.07346938775510202 0.16149972806381385 z"/>
<path fill="#bababa" stroke="#bababa" d="M-0.1496120071102502 0.33867422334990155 L-0.16428571428571423 0.33303020206573397 L-0.16428571428571423 0.5450098974972061 L-0.12077922077922076 0.5617440174039149 L-0.12077922077922076 0.34976432197244267 z"/>
<path fill="#bababa" stroke="#bababa" d="M-0.2837837837837837 0.22401936381631812 L-0.2956521739130432 0.1899078383545388 L-0.2956521739130434 0.4018875337860109 L-0.28378378378378355 0.43599905924779014 z"/>
<path fill="#bababa" stroke="#bababa" d="M0.2956521739130435 -2.0024096512624427 L0.30000000000000004 -1.967672226250906 L0.3 -1.7556925308194342 L0.29565217391304355 -1.7904299558309709 z"/>
<path fill="#bababa" stroke="#bababa" d="M-0.26276555023923526 -2.070086225495778 L-0.23684210526315805 -2.0979375700441687 L-0.23684210526315816 -1.8859578746126964 L-0.2640000000000007 -1.8567802755620015 L-0.2640000000000008 -2.0687599709934736 z"/>
<path fill="#bababa" stroke="#bababa" d="M0.26400000000000023 -2.068759970993473 L0.2837837837837838 -2.036521176724222 L0.28378378378378416 -1.8245414812927498 L0.2640000000000004 -1.8567802755620013 z"/>
<path fill="#bababa" stroke="#bababa" d="M0.16428571428571603 -2.145532014973639 L0.20322580645161376 -2.123763596809282 L0.20322580645161362 -1.91178390137781 L0.1642857142857159 -1.933552319542167 z"/>
<path fill="#bababa" stroke="#bababa" d="M0.26311825017088114 -1.6536574614323636 L0.26399999999999946 -1.6546047860768671 L0.2639999999999997 -1.8665844815083392 L0.23684210526315758 -1.8374068824576435 L0.23684210526315735 -1.6254271870261714 z"/>
<path fill="#bababa" stroke="#bababa" d="M-0.29584980237154146 -1.9345137751035304 L-0.29999999999999993 -1.967672226250906 L-0.2999999999999999 -1.755692530819434 L-0.2956521739130433 -1.7209551058078976 L-0.2956521739130434 -1.9329348012393697 z"/>
<path fill="#bababa" stroke="#bababa" d="M0.040422077922077915 -1.9652283958117405 L0.024999999999999998 -1.9670416218098417 L0.024999999999999998 -2.1790213172413138 L0.07346938775510203 -2.173322606961567 L0.07346938775510203 -1.9613429115300949 z"/>
<path fill="#bababa" stroke="#bababa" d="M-0.22614601018675792 -1.8941752467652324 L-0.23684210526315833 -1.8859578746126966 L-0.23684210526315894 -2.097937570044169 L-0.20322580645161353 -2.1237635968092814 L-0.20322580645161398 -1.9117839013778097 z"/>
<path fill="#bababa" stroke="#bababa" d="M-0.1642857142857134 -1.789812437528173 L-0.2032258064516124 -1.8115808556925306 L-0.20322580645161142 -1.599601160261059 L-0.16428571428571243 -1.577832742096701 z"/>
<path fill="#bababa" stroke="#bababa" d="M-0.00909090909090909 -1.9670416218098417 L-0.024999999999999998 -1.9670416218098417 L-0.024999999999999998 -2.1790213172413138 L0.024999999999999998 -2.1790213172413138 L0.024999999999999998 -1.9670416218098417 z"/>
<path fill="#bababa" stroke="#bababa" d="M0.23684210526315724 -1.8374068824576435 L0.20322580645161192 -1.8115808556925306 L0.20322580645161215 -1.5996011602610585 L0.23684210526315744 -1.6254271870261716 z"/>
<path fill="#bababa" stroke="#bababa" d="M-0.1504427390791027 -1.9388768122397577 L-0.16428571428571426 -1.9335523195421687 L-0.16428571428571426 -2.1455320149736408 L-0.12077922077922075 -2.1622661348803494 L-0.12077922077922075 -1.9502864394488775 z"/>
<path fill="#bababa" stroke="#bababa" d="M0.12077922077922075 -1.773078317621466 L0.07346938775510203 -1.7620218455402477 L0.07346938775510203 -1.5500421501087753 L0.12077922077922075 -1.5610986221899936 z"/>
<path fill="#bababa" stroke="#bababa" d="M-0.29187586796282466 -1.801283623023355 L-0.2956521739130436 -1.7904299558309706 L-0.29565217391304366 -2.0024096512624427 L-0.2837837837837838 -2.036521176724222 L-0.283783783783784 -1.82454148129275 z"/>
<path fill="#bababa" stroke="#bababa" d="M0.12077922077922075 -2.1622661348803494 L0.16428571428571426 -2.1455320149736408 L0.16428571428571426 -1.9335523195421687 L0.12077922077922075 -1.9502864394488775 z"/>
<path fill="#bababa" stroke="#bababa" d="M-0.27029484029483986 -1.6648625842534466 L-0.26399999999999973 -1.654604786076867 L-0.26399999999999957 -1.866584481508339 L-0.28378378378378355 -1.89882327577759 L-0.2837837837837834 -1.686843580346118 z"/>
<path fill="#bababa" stroke="#bababa" d="M0.2918758679628243 -1.7101014386155131 L0.2956521739130433 -1.7209551058078973 L0.29565217391304316 -1.9329348012393694 L0.2837837837837836 -1.8988232757775902 L0.2837837837837835 -1.6868435803461184 z"/>
<path fill="#bababa" stroke="#bababa" d="M-0.10572609208972844 -1.9538044078383556 L-0.12077922077922076 -1.950286439448877 L-0.12077922077922076 -2.162266134880348 L-0.07346938775510202 -2.173322606961566 L-0.07346938775510202 -1.9613429115300953 z"/>
<path fill="#bababa" stroke="#bababa" d="M0.00909090909090909 -1.5443434398290297 L0.024999999999999998 -1.5443434398290297 L0.024999999999999998 -1.7563231352605015 L-0.024999999999999998 -1.7563231352605015 L-0.024999999999999998 -1.5443434398290297 z"/>
<path fill="#bababa" stroke="#bababa" d="M-0.28288452088452104 -2.0379865764637333 L-0.26400000000000023 -2.068759970993473 L-0.26400000000000007 -1.8567802755620013 L-0.28378378378378405 -1.8245414812927503 L-0.2837837837837839 -2.036521176724222 z"/>
<path fill="#bababa" stroke="#bababa" d="M0.20196151774492682 -1.5988943934375395 L0.20322580645161234 -1.5996011602610583 L0.20322580645161203 -1.8115808556925308 L0.16428571428571367 -1.789812437528173 L0.16428571428571326 -1.577832742096701 z"/>
<path fill="#bababa" stroke="#bababa" d="M0.24548325358851755 -1.8766740930965664 L0.23684210526315816 -1.8859578746126964 L0.23684210526315805 -2.0979375700441687 L0.2640000000000008 -2.0687599709934736 L0.2640000000000007 -1.8567802755620015 z"/>
<path fill="#bababa" stroke="#bababa" d="M-0.040422077922077915 -1.5461566658271289 L-0.024999999999999998 -1.5443434398290274 L-0.024999999999999998 -1.7563231352604998 L-0.07346938775510203 -1.7620218455402468 L-0.07346938775510203 -1.5500421501087744 z"/>
<path fill="#bababa" stroke="#bababa" d="M0.28378378378378366 -1.8988232757775902 L0.26399999999999946 -1.866584481508339 L0.26399999999999973 -1.654604786076867 L0.2837837837837835 -1.6868435803461184 z"/>
<path fill="#bababa" stroke="#bababa" d="M-0.20322580645161328 -2.1237635968092814 L-0.16428571428571495 -2.145532014973639 L-0.16428571428571465 -1.9335523195421667 L-0.20322580645161373 -1.9117839013778097 z"/>
<path fill="#bababa" stroke="#bababa" d="M0.2998023715415019 -1.9660932523867454 L0.2956521739130433 -1.9329348012393692 L0.2956521739130434 -1.7209551058078976 L0.29999999999999993 -1.7556925308194342 L0.29999999999999993 -1.967672226250906 z"/>
<path fill="#bababa" stroke="#bababa" d="M0.20322580645161345 -2.123763596809282 L0.2368421052631588 -2.0979375700441687 L0.23684210526315838 -1.885957874612697 L0.20322580645161303 -1.91178390137781 z"/>
<path fill="#bababa" stroke="#bababa" d="M-0.29861660079051383 -1.7667453478685595 L-0.3 -1.7556925308194342 L-0.30000000000000004 -1.967672226250906 L-0.2956521739130435 -2.0024096512624427 L-0.29565217391304355 -1.7904299558309709 z"/>
<path fill="#bababa" stroke="#bababa" d="M-0.23807655502392278 -1.838733136959948 L-0.2639999999999996 -1.866584481508339 L-0.2639999999999992 -1.654604786076867 L-0.2368421052631575 -1.6254271870261716 L-0.23684210526315694 -1.8374068824576435 z"/>
<path fill="#bababa" stroke="#bababa" d="M-0.09226235998020602 -1.7664138283363828 L-0.12077922077922076 -1.7730783176214657 L-0.12077922077922076 -1.5610986221899936 L-0.07346938775510203 -1.5500421501087753 L-0.07346938775510203 -1.7620218455402474 z"/>
<path fill="#bababa" stroke="#bababa" d="M0.28432325606238656 -2.0349706528395957 L0.2956521739130435 -2.0024096512624427 L0.29565217391304366 -1.7904299558309709 L0.2837837837837838 -1.8245414812927503 L0.28378378378378394 -2.036521176724222 z"/>
<path fill="#bababa" stroke="#bababa" d="M0.05804730983302411 -1.548228924110673 L0.07346938775510203 -1.5500421501087744 L0.07346938775510203 -1.7620218455402468 L0.024999999999999998 -1.7563231352604998 L0.024999999999999998 -1.5443434398290274 z"/>
<path fill="#bababa" stroke="#bababa" d="M-0.07126623376623376 -2.173581639247009 L-0.024999999999999998 -2.179021317241313 L-0.024999999999999998 -1.967041621809842 L-0.07346938775510203 -1.961342911530095 L-0.07346938775510203 -2.173322606961566 z"/>
<path fill="#bababa" stroke="#bababa" d="M0.16428571428571426 -1.7898124375281745 L0.12077922077922076 -1.773078317621466 L0.12077922077922076 -1.5610986221899932 L0.16428571428571426 -1.5778327420967018 z"/>
<path fill="#bababa" stroke="#bababa" d="M-0.2139219015280133 -1.6078185324135945 L-0.20322580645161245 -1.599601160261058 L-0.20322580645161248 -1.8115808556925304 L-0.2368421052631571 -1.837406882457644 L-0.23684210526315705 -1.6254271870261714 z"/>
<path fill="#bababa" stroke="#bababa" d="M0.07346938775510203 -2.173322606961566 L0.12077922077922075 -2.162266134880348 L0.12077922077922075 -1.9502864394488766 L0.07346938775510203 -1.9613429115300949 z"/>
<path fill="#bababa" stroke="#bababa" d="M-0.1496120071102502 -1.7841684162440068 L-0.16428571428571426 -1.7898124375281745 L-0.16428571428571426 -1.5778327420967022 L-0.12077922077922075 -1.5610986221899936 L-0.12077922077922075 -1.7730783176214657 z"/>
<path fill="#bababa" stroke="#bababa" d="M-0.2837837837837835 -1.8988232757775902 L-0.2956521739130433 -1.9329348012393694 L-0.2956521739130434 -1.7209551058078973 L-0.28378378378378355 -1.6868435803461181 z"/>
<path fill="#bababa" stroke="#bababa" d="M0.8125 1.4285714285714284 L0.8125 0.8777177264884599 L0.8125 -3.0290935460478607 L0.8125 -2.8171138506163884 z"/>
<path fill="#bababa" stroke="#bababa" d="M-0.8125 -2.8171138506163906 L0.8125 -2.8171138506163906 L0.8125 -3.0290935460478616 L-0.8125 -3.0290935460478616 z"/>
<path fill="#bababa" stroke="#bababa" d="M-0.8125 0.8777177264884599 L-0.8125 1.4285714285714284 L-0.8125 -2.8171138506163884 L-0.8125 -3.0290935460478607 z"/>
<path fill="#bababa" stroke="#bababa" d="M-0.6275741129675692 0.8777177264884598 L-0.8125 0.8777177264884598 L-0.8125 -3.0290935460478603 L0.8125 -3.0290935460478603 L0.8125 0.8777177264884598 z M-0.024999999999999998 -1.7563231352604995 L0.024999999999999998 -1.7563231352604995 L0.07346938775510203 -1.7620218455402463 L0.12077922077922078 -1.7730783176214646 L0.16428571428571428 -1.7898124375281734 L0.2032258064516129 -1.8115808556925304 L0.23684210526315788 -1.8374068824576435 L0.26399999999999996 -1.866584481508339 L0.28378378378378377 -1.89882327577759 L0.29565217391304344 -1.9329348012393694 L0.3 -1.9676722262509063 L0.29565217391304344 -2.0024096512624427 L0.28378378378378377 -2.036521176724222 L0.26399999999999996 -2.068759970993473 L0.23684210526315788 -2.0979375700441687 L0.2032258064516129 -2.123763596809282 L0.16428571428571428 -2.145532014973639 L0.12077922077922078 -2.162266134880348 L0.07346938775510203 -2.173322606961566 L0.024999999999999998 -2.179021317241313 L-0.024999999999999998 -2.179021317241313 L-0.07346938775510203 -2.173322606961566 L-0.12077922077922078 -2.162266134880348 L-0.16428571428571428 -2.145532014973639 L-0.2032258064516129 -2.123763596809282 L-0.23684210526315788 -2.0979375700441687 L-0.26399999999999996 -2.068759970993473 L-0.28378378378378377 -2.036521176724222 L-0.29565217391304344 -2.0024096512624427 L-0.3 -1.9676722262509063 L-0.29565217391304344 -1.9329348012393694 L-0.28378378378378377 -1.89882327577759 L-0.26399999999999996 -1.866584481508339 L-0.23684210526315788 -1.8374068824576435 L-0.2032258064516129 -1.8115808556925304 L-0.16428571428571428 -1.7898124375281734 L-0.12077922077922078 -1.7730783176214646 L-0.07346938775510203 -1.7620218455402463 z M-0.26489926289926286 0.2547927583460578 L-0.26399999999999996 0.25625815808556923 L-0.23684210526315788 0.2854357571362647 L-0.2032258064516129 0.31126178390137776 L-0.16428571428571428 0.33303020206573497 L-0.12077922077922078 0.3497643219724438 L-0.07346938775510203 0.360820794053662 L-0.024999999999999998 0.3665195043334089 L0.024999999999999998 0.3665195043334089 L0.07346938775510203 0.360820794053662 L0.12077922077922078 0.3497643219724438 L0.16428571428571428 0.33303020206573497 L0.2032258064516129 0.31126178390137776 L0.23684210526315788 0.2854357571362647 L0.26399999999999996 0.25625815808556923 L0.28378378378378377 0.2240193638163181 L0.29565217391304344 0.1899078383545388 L0.3 0.15517041334300216 L0.29565217391304344 0.12043298833146547 L0.28378378378378377 0.08632146286968621 L0.26399999999999996 0.054082668600435105 L0.23684210526315788 0.024905069549739606 L0.2032258064516129 -0.0009209572153734511 L0.16428571428571428 -0.022689375379730696 L0.12077922077922078 -0.03942349528643943 L0.07346938775510203 -0.05047996736765771 L0.024999999999999998 -0.05617867764740457 L-0.024999999999999998 -0.05617867764740457 L-0.07346938775510203 -0.05047996736765771 L-0.12077922077922078 -0.03942349528643943 L-0.16428571428571428 -0.022689375379730696 L-0.2032258064516129 -0.0009209572153734511 L-0.23684210526315788 0.024905069549739606 L-0.26399999999999996 0.054082668600435105 L-0.28378378378378377 0.08632146286968621 L-0.29565217391304344 0.12043298833146547 L-0.3 0.15517041334300216 L-0.29565217391304344 0.1899078383545388 L-0.28378378378378377 0.2240193638163181 z"/>
<path fill="#bababa" stroke="#bababa" d="M0.7117392159086787 1.4285714285714284 L0.8125 1.4285714285714284 L0.8125 -2.817113850616388 L-0.8125 -2.817113850616388 L-0.8125 1.4285714285714284 z M-0.3 0.36715010877447424 L-0.29565217391304344 0.33241268376293753 L-0.28378378378378377 0.2983011583011583 L-0.26399999999999996 0.2660623640319071 L-0.23684210526315788 0.23688476498121164 L-0.2032258064516129 0.21105873821609858 L-0.16428571428571428 0.18929032005174135 L-0.12077922077922078 0.17255620014503262 L-0.07346938775510203 0.16149972806381432 L-0.024999999999999998 0.15580101778406746 L0.024999999999999998 0.15580101778406746 L0.07346938775510203 0.16149972806381432 L0.12077922077922078 0.17255620014503262 L0.16428571428571428 0.18929032005174135 L0.2032258064516129 0.21105873821609858 L0.23684210526315788 0.23688476498121164 L0.26399999999999996 0.2660623640319071 L0.28378378378378377 0.2983011583011583 L0.29565217391304344 0.33241268376293753 L0.3 0.36715010877447424 L0.29565217391304344 0.4018875337860109 L0.28378378378378377 0.43599905924779014 L0.26399999999999996 0.4682378535170413 L0.23684210526315788 0.4974154525677368 L0.2032258064516129 0.5232414793328497 L0.16428571428571428 0.5450098974972071 L0.12077922077922078 0.5617440174039158 L0.07346938775510203 0.5728004894851341 L0.024999999999999998 0.578499199764881 L-0.024999999999999998 0.578499199764881 L-0.07346938775510203 0.5728004894851341 L-0.12077922077922078 0.5617440174039158 L-0.16428571428571428 0.5450098974972071 L-0.2032258064516129 0.5232414793328497 L-0.23684210526315788 0.4974154525677368 L-0.26399999999999996 0.4682378535170413 L-0.28378378378378377 0.43599905924779014 L-0.29565217391304344 0.4018875337860109 z M-0.3 -1.755692530819434 L-0.29565217391304344 -1.7904299558309706 L-0.28378378378378377 -1.8245414812927503 L-0.26399999999999996 -1.8567802755620013 L-0.23684210526315788 -1.8859578746126966 L-0.2032258064516129 -1.9117839013778095 L-0.16428571428571428 -1.933552319542167 L-0.12077922077922078 -1.9502864394488757 L-0.07346938775510203 -1.961342911530094 L-0.024999999999999998 -1.9670416218098408 L0.024999999999999998 -1.9670416218098408 L0.07346938775510203 -1.961342911530094 L0.12077922077922078 -1.9502864394488757 L0.16428571428571428 -1.933552319542167 L0.2032258064516129 -1.9117839013778095 L0.23684210526315788 -1.8859578746126966 L0.26399999999999996 -1.8567802755620013 L0.28378378378378377 -1.8245414812927503 L0.29565217391304344 -1.7904299558309706 L0.3 -1.755692530819434 L0.29565217391304344 -1.7209551058078973 L0.28378378378378377 -1.6868435803461181 L0.26399999999999996 -1.6546047860768671 L0.23684210526315788 -1.6254271870261716 L0.2032258064516129 -1.5996011602610587 L0.16428571428571428 -1.5778327420967013 L0.12077922077922078 -1.5610986221899925 L0.07346938775510203 -1.5500421501087742 L0.024999999999999998 -1.5443434398290274 L-0.024999999999999998 -1.5443434398290274 L-0.07346938775510203 -1.5500421501087742 L-0.12077922077922078 -1.5610986221899925 L-0.16428571428571428 -1.5778327420967013 L-0.2032258064516129 -1.5996011602610587 L-0.23684210526315788 -1.6254271870261716 L-0.26399999999999996 -1.6546047860768671 L-0.28378378378378377 -1.6868435803461181 L-0.29565217391304344 -1.7209551058078973 z"/>
<path fill="#bababa" stroke="#bababa" d="M-0.5115384615384629 0.3744561593025097 L-0.5115384615384628 0.5947764859996725 L-0.5115384615384629 0.5099927483683828 z"/>
<path fill="#bababa" stroke="#bababa" d="M-0.5115384615384616 0.6780346972932138 L-0.5115384615384629 -0.9584612804547687 L-0.5115384615384629 -3.735692530819434 L-0.5115384615384615 -3.0290935460478603 L-0.5115384615384615 0.8777177264884598 z"/>
<path fill="#bababa" stroke="#bababa" d="M-0.5178714424695471 -0.9584612804547689 L-0.5115384615384629 -0.9584612804547689 L-0.5115384615384615 0.8777177264884598 L-0.8115384615384614 0.8777177264884598 L-0.811538461538463 -0.9584612804547689 z"/>
<path fill="#bababa" stroke="#bababa" d="M-0.5115384615384629 0.3744561593025097 L-0.5115384615384629 0.5099927483683827 L-0.811538461538463 0.5099927483683827 L-0.811538461538463 0.3744561593025097 z"/>
<path fill="#bababa" stroke="#bababa" d="M-0.5124373707817608 -0.9584612804547689 L-0.811538461538463 -0.9584612804547689 L-0.811538461538463 -3.735692530819434 L-0.5115384615384629 -3.735692530819434 L-0.5115384615384629 -0.9584612804547689 z"/>
<path fill="#bababa" stroke="#bababa" d="M-0.5115384615384629 0.3744561593025097 L-0.811538461538463 0.3744561593025097 L-0.8115384615384628 0.5947764859996724 L-0.5115384615384628 0.5947764859996724 z"/>
<path fill="#bababa" stroke="#bababa" d="M-0.8115384615384614 0.8777177264884598 L-0.8115384615384614 -3.0290935460478607 L-0.811538461538463 -3.735692530819434 L-0.811538461538463 -0.9584612804547689 z"/>
<path fill="#bababa" stroke="#bababa" d="M-0.811538461538463 0.5099927483683827 L-0.8115384615384628 0.5947764859996724 L-0.811538461538463 0.3744561593025097 z"/>
<path fill="#bababa" stroke="#bababa" d="M-0.8115384615384614 -3.0290935460478607 L-0.5115384615384615 -3.0290935460478607 L-0.5115384615384629 -3.735692530819435 L-0.811538461538463 -3.735692530819435 z"/>
<path fill="#bababa" stroke="#bababa" d="M-0.811538461538463 0.5099927483683824 L-0.5115384615384629 0.5099927483683824 L-0.5115384615384628 0.5947764859996714 L-0.8115384615384628 0.5947764859996714 z"/>
<path fill="#bababa" stroke="#bababa" d="M-0.7299845453752799 0.8777177264884597 L-0.5115384615384615 0.8777177264884597 L-0.5115384615384615 -3.0290935460478607 L-0.8115384615384614 -3.0290935460478607 L-0.8115384615384614 0.8777177264884597 z"/>
</svg>