<?xml version="1.0" encoding="UTF-8"?>
<!-- Generated by jsxcad -->
<!DOCTYPE svg PUBLIC "-//W3C//DTD SVG 1.1 Tiny//EN" "http://www.w3.org/Graphics/SVG/1.1/DTD/svg11-tiny.dtd">
<svg baseProfile="tiny" height="5.8760351545442475mm" width="1.6279940119760488mm" viewBox="-0.8154940119760483 -1.9230769230769267 1.6279940119760488 5.8760351545442475" version="1.1" stroke="black" stroke-width=".1" fill="none" xmlns="http://www.w3.org/2000/svg">
<path fill="#bababa" stroke="#bababa" d="M-0.8115384615384629 0.7949317305044886 L-0.811538461538463 0.741092462287531 L-0.811538461538463 0.5202768370136027 L-0.8115384615384614 1.4294956530054426 L-0.8115384615384614 1.6503112782793707 z"/>
<path fill="#bababa" stroke="#bababa" d="M-0.8125 1.89431162438677 L-0.8125 1.923076923076923 L-0.8125 1.650311278279371 L-0.8125 1.4294956530054426 L-0.8125 1.7022612978029945 z"/>
<path fill="#bababa" stroke="#bababa" d="M-0.8125 1.887047316547149 L-0.8125 1.7022612978029945 L-0.8154940119760479 1.7022612978029945 L-0.8154940119760479 1.923076923076923 L-0.8125 1.923076923076923 z"/>
<path fill="#bababa" stroke="#bababa" d="M-0.5115384615384625 1.0046773080493285 L-0.5115384615384615 1.650311278279371 L-0.5115384615384615 1.4294956530054426 L-0.5115384615384629 0.5202768370136027 L-0.5115384615384629 0.741092462287531 z"/>
<path fill="#bababa" stroke="#bababa" d="M-0.5976622461389558 0.7410924622875311 L-0.5115384615384629 0.7410924622875311 L-0.5115384615384629 0.5202768370136027 L-0.811538461538463 0.5202768370136027 L-0.811538461538463 0.7410924622875311 z"/>
<path fill="#bababa" stroke="#bababa" d="M-0.014357648339684266 -1.35520048897628 L-0.014357648339684266 -1.5009294049066022 L0.030339321357285426 -1.5026767101262244 L0.030339321357285426 -1.3569477941959023 z"/>
<path fill="#bababa" stroke="#bababa" d="M-0.0452919917740277 -1.3588161453011849 L-0.058549567531603446 -1.3603657122975723 L-0.058549567531603446 -1.5060946282278942 L-0.014357648339684266 -1.5009294049066022 L-0.014357648339684266 -1.3552004889762805 z"/>
<path fill="#bababa" stroke="#bababa" d="M0.030339321357285426 -1.356947794195902 L0.030339321357285426 -1.5026767101262246 L0.07438694040490447 -1.5111511244198885 L0.07438694040490447 -1.3654222084895662 z"/>
<path fill="#bababa" stroke="#bababa" d="M-0.08841067864271455 -1.3686807786301587 L-0.1012082976903336 -1.3722443784869813 L-0.1012082976903336 -1.517973294417304 L-0.058549567531603446 -1.5060946282278946 L-0.058549567531603446 -1.360365712297572 z"/>
<path fill="#bababa" stroke="#bababa" d="M0.07438694040490447 -1.3654222084895664 L0.07438694040490447 -1.5111511244198887 L0.11542704065553104 -1.526714199726492 L0.11542704065553104 -1.3809852837961696 z"/>
<path fill="#bababa" stroke="#bababa" d="M-0.12870829769033346 -1.3851787054571598 L-0.1404940119760479 -1.390721988444379 L-0.14049401197604766 -1.5364509043747012 L-0.10120829769033336 -1.5179732944173039 L-0.10120829769033361 -1.3722443784869818 z"/>
<path fill="#bababa" stroke="#bababa" d="M0.11542704065553105 -1.3809852837961698 L0.11542704065553105 -1.526714199726492 L0.15266636538244271 -1.5479964039575587 L0.15266636538244271 -1.4022674880272366 z"/>
<path fill="#bababa" stroke="#bababa" d="M-0.16507734530938137 -1.408040905961002 L-0.17561305959509538 -1.4154632991824116 L-0.1756130595950957 -1.561192215112734 L-0.14049401197604824 -1.5364509043747014 L-0.14049401197604788 -1.390721988444379 z"/>
<path fill="#bababa" stroke="#bababa" d="M-0.1964463929284293 -1.4359587225789558 L-0.2053749643570005 -1.444742475463189 L-0.20537496435700037 -1.5904713913935113 L-0.17561305959509563 -1.5611922151127342 L-0.17561305959509577 -1.415463299182412 z"/>
<path fill="#bababa" stroke="#bababa" d="M-0.22120829769033384 -1.468215494835689 L-0.22799401197604818 -1.478275360281046 L-0.22799401197604793 -1.6240042762113682 L-0.20537496435700037 -1.5904713913935111 L-0.20537496435700026 -1.444742475463189 z"/>
<path fill="#bababa" stroke="#bababa" d="M-0.23901253049456642 -1.5039913570602517 L-0.2437347527167888 -1.5150124985370539 L-0.2437347527167887 -1.660741414467376 L-0.22799401197604785 -1.6240042762113682 L-0.22799401197604793 -1.4782753602810461 z"/>
<path fill="#bababa" stroke="#bababa" d="M-0.24933683721334557 -1.542206426165639 L-0.2517377305690127 -1.5538609665778897 L-0.2517377305690127 -1.699589882508212 L-0.24373475271678874 -1.660741414467376 L-0.24373475271678863 -1.5150124985370539 z"/>
<path fill="#bababa" stroke="#bababa" d="M-0.24613564607245586 -1.619903362247311 L-0.2437347527167886 -1.6315579026595617 L-0.24373475271678863 -1.7772868185898838 L-0.25173773056901266 -1.738438350549048 L-0.2517377305690126 -1.5927094346187256 z"/>
<path fill="#bababa" stroke="#bababa" d="M0.24700598802395204 -1.71901411652863 L0.24276869988835886 -1.7580360152303622 L0.24276869988835886 -1.6123070993000403 L0.24700598802395207 -1.5732852005983078 z"/>
<path fill="#bababa" stroke="#bababa" d="M-0.20537496435700014 -1.7018279257334266 L-0.20537496435700003 -1.8475568416637487 L-0.22799401197604788 -1.8140239568458918 L-0.22799401197604777 -1.6682950409155695 z"/>
<path fill="#bababa" stroke="#bababa" d="M0.2427686998883588 -1.7580360152303625 L0.23087695576588757 -1.7957923388390657 L0.23087695576588746 -1.6500634229087434 L0.24276869988835884 -1.6123070993000403 z"/>
<path fill="#bababa" stroke="#bababa" d="M0.21184973802395204 -1.4610708756830555 L0.2118497380239523 -1.6067997916133776 L0.23087695576588774 -1.6422358942181943 L0.23087695576588774 -1.496506978287872 z"/>
<path fill="#bababa" stroke="#bababa" d="M-0.18454163102366672 -1.7223233491299705 L-0.17561305959509552 -1.7311071020142037 L-0.1756130595950952 -1.8768360179445258 L-0.205374964357 -1.8475568416637487 L-0.20537496435699987 -1.7018279257334263 z"/>
<path fill="#bababa" stroke="#bababa" d="M-0.1510297262617625 -1.748426019530826 L-0.1404940119760477 -1.7558484127522358 L-0.14049401197604777 -1.9015773286825577 L-0.17561305959509566 -1.8768360179445256 L-0.17561305959509557 -1.7311071020142037 z"/>
<path fill="#bababa" stroke="#bababa" d="M-0.10120829769033367 -1.774326022709633 L-0.10120829769033345 -1.9200549386399555 L-0.14049401197604822 -1.9015773286825577 L-0.14049401197604797 -1.7558484127522356 z"/>
<path fill="#bababa" stroke="#bababa" d="M0.11542704065553104 -1.7655851174004449 L0.11542704065553104 -1.9113140333307672 L0.07438694040490447 -1.9268771086373704 L0.07438694040490447 -1.781148192707048 z"/>
<path fill="#bababa" stroke="#bababa" d="M-0.0713471865792225 -1.7826410890422197 L-0.05854956753160345 -1.7862046888990426 L-0.05854956753160345 -1.9319336048293645 L-0.10120829769033361 -1.920054938639955 L-0.10120829769033361 -1.7743260227096331 z"/>
<path fill="#bababa" stroke="#bababa" d="M0.15266636538244258 -1.890031829099701 L0.11542704065553133 -1.9113140333307674 L0.1154270406555313 -1.7655851174004453 L0.152666365382443 -1.7443029131693786 z"/>
<path fill="#bababa" stroke="#bababa" d="M0.23087695576588751 -1.6500634229087436 L0.23087695576588754 -1.7957923388390657 L0.21184973802395185 -1.8312284414438824 L0.21184973802395207 -1.6854995255135603 z"/>
<path fill="#bababa" stroke="#bababa" d="M0.15266636538244274 -1.5479964039575589 L0.1854675264854908 -1.5754135293062543 L0.18546752648549059 -1.4296846133759324 L0.15266636538244285 -1.4022674880272368 z"/>
<path fill="#bababa" stroke="#bababa" d="M0.24276869988835886 -1.6799922178268976 L0.24700598802395213 -1.71901411652863 L0.2470059880239521 -1.5732852005983078 L0.24276869988835892 -1.5342633018965752 z"/>
<path fill="#bababa" stroke="#bababa" d="M0.19338218994702908 -1.4391004920680692 L0.18546752648549075 -1.4296846133759322 L0.18546752648549086 -1.5754135293062543 L0.21184973802395216 -1.6067997916133776 L0.21184973802395243 -1.4610708756830553 z"/>
<path fill="#bababa" stroke="#bababa" d="M0.21184973802395196 -1.68549952551356 L0.2118497380239519 -1.8312284414438822 L0.18546752648549045 -1.8626147037510055 L0.18546752648549047 -1.7168857878206834 z"/>
<path fill="#bababa" stroke="#bababa" d="M-0.05854956753160345 -1.9319336048293652 L-0.05854956753160345 -1.7862046888990426 L-0.014357648339684266 -1.7913699122203346 L-0.014357648339684266 -1.9370988281506571 z"/>
<path fill="#bababa" stroke="#bababa" d="M0.07438694040490447 -1.7811481927070485 L0.07438694040490447 -1.92687710863737 L0.030339321357285426 -1.935351522931034 L0.030339321357285426 -1.7896226070007126 z"/>
<path fill="#bababa" stroke="#bababa" d="M0.23087695576588763 -1.6422358942181943 L0.2427686998883588 -1.6799922178268973 L0.2427686998883589 -1.5342633018965752 L0.2308769557658877 -1.496506978287872 z"/>
<path fill="#bababa" stroke="#bababa" d="M-0.2279940119760478 -1.8140239568458916 L-0.24373475271678863 -1.7772868185898838 L-0.2437347527167885 -1.6315579026595617 L-0.22799401197604766 -1.6682950409155695 z"/>
<path fill="#bababa" stroke="#bababa" d="M0.1854675264854904 -1.8626147037510057 L0.15266636538244233 -1.890031829099701 L0.15266636538244255 -1.744302913169379 L0.1854675264854903 -1.7168857878206834 z"/>
<path fill="#bababa" stroke="#bababa" d="M0.016930230448194517 -1.790146798566599 L0.030339321357285422 -1.7896226070007124 L0.030339321357285422 -1.9353515229310339 L-0.014357648339684266 -1.937098828150656 L-0.014357648339684266 -1.7913699122203348 z"/>
<path fill="#bababa" stroke="#bababa" d="M-0.014357648339684266 1.2670711037801434 L-0.014357648339684266 1.1213421878498213 L0.030339321357285426 1.119594882630199 L0.030339321357285426 1.265323798560521 z"/>
<path fill="#bababa" stroke="#bababa" d="M-0.0452919917740277 1.2634554474552384 L-0.058549567531603446 1.2619058804588508 L-0.058549567531603446 1.1161769645285289 L-0.014357648339684266 1.1213421878498209 L-0.014357648339684266 1.2670711037801428 z"/>
<path fill="#bababa" stroke="#bababa" d="M0.030339321357285426 1.265323798560521 L0.030339321357285426 1.1195948826301987 L0.07438694040490447 1.1111204683365346 L0.07438694040490447 1.256849384266857 z"/>
<path fill="#bababa" stroke="#bababa" d="M-0.08841067864271455 1.253590814126264 L-0.1012082976903336 1.250027214269441 L-0.1012082976903336 1.1042982983391194 L-0.058549567531603446 1.1161769645285289 L-0.058549567531603446 1.2619058804588505 z"/>
<path fill="#bababa" stroke="#bababa" d="M0.07438694040490447 1.2568493842668569 L0.07438694040490447 1.1111204683365346 L0.11542704065553104 1.0955573930299314 L0.11542704065553104 1.2412863089602537 z"/>
<path fill="#bababa" stroke="#bababa" d="M-0.12870829769033348 1.237092887299263 L-0.14049401197604794 1.231549604312044 L-0.1404940119760477 1.0858206883817216 L-0.1012082976903334 1.104298298339119 L-0.10120829769033365 1.2500272142694413 z"/>
<path fill="#bababa" stroke="#bababa" d="M-0.6741827017136109 1.650311278279371 L-0.8115384615384614 1.650311278279371 L-0.8115384615384614 1.4294956530054423 L-0.5115384615384615 1.4294956530054423 L-0.5115384615384615 1.650311278279371 z"/>
<path fill="#bababa" stroke="#bababa" d="M0.11542704065553104 1.2412863089602537 L0.11542704065553104 1.0955573930299314 L0.15266636538244271 1.0742751887988646 L0.15266636538244271 1.220004104729187 z"/>
<path fill="#bababa" stroke="#bababa" d="M-0.16507734530938106 1.2142306867954211 L-0.1756130595950955 1.2068082935740119 L-0.17561305959509543 1.061079377643689 L-0.14049401197604794 1.0858206883817216 L-0.14049401197604802 1.2315496043120435 z"/>
<path fill="#bababa" stroke="#bababa" d="M-0.1964463929284294 1.186312870177467 L-0.2053749643570004 1.177529117293234 L-0.20537496435700067 1.0318002013629122 L-0.1756130595950961 1.0610793776436889 L-0.17561305959509585 1.2068082935740108 z"/>
<path fill="#bababa" stroke="#bababa" d="M-0.22120829769033398 1.154056097920734 L-0.2279940119760485 1.1439962324753765 L-0.22799401197604807 0.9982673165450546 L-0.20537496435700056 1.0318002013629115 L-0.20537496435700048 1.1775291172932336 z"/>
<path fill="#bababa" stroke="#bababa" d="M-0.23901253049456667 1.1182802356961714 L-0.24373475271678877 1.107259094219369 L-0.2437347527167887 0.9615301782890469 L-0.22799401197604816 0.9982673165450546 L-0.2279940119760482 1.1439962324753767 z"/>
<path fill="#bababa" stroke="#bababa" d="M0.809505988023952 1.4439348596045625 L0.809505988023952 1.4294956530054426 L-0.8125 1.4294956530054426 L-0.8125 1.650311278279371 L0.809505988023952 1.650311278279371 z"/>
<path fill="#bababa" stroke="#bababa" d="M-0.24933683721334562 1.0800651665907839 L-0.2517377305690128 1.068410626178533 L-0.2517377305690127 0.922681710248211 L-0.24373475271678877 0.9615301782890469 L-0.24373475271678866 1.107259094219369 z"/>
<path fill="#bababa" stroke="#bababa" d="M-0.3450456250213141 1.4294956530054423 L0.809505988023952 1.4294956530054423 L0.809505988023952 -3.467195178366245 L-0.8154940119760479 -3.467195178366245 L-0.8154940119760479 1.7022612978029945 L-0.8125 1.7022612978029945 L-0.8125 1.4294956530054423 z M-0.05854956753160345 1.1161769645285282 L-0.05854956753160346 1.1161769645285282 L-0.10120829769033361 1.1042982983391187 L-0.14049401197604788 1.0858206883817212 L-0.17561305959509552 1.0610793776436889 L-0.20537496435700028 1.0318002013629117 L-0.22799401197604788 0.9982673165450546 L-0.24373475271678863 0.9615301782890469 L-0.2517377305690127 0.9226817102482109 L-0.2517377305690127 0.883833242207375 L-0.24373475271678863 0.8449847741665392 L-0.22799401197604788 0.8082476359105313 L-0.20537496435700028 0.7747147510926743 L-0.17561305959509552 0.7454355748118972 L-0.14049401197604788 0.7206942640738648 L-0.10120829769033361 0.7022166541164672 L-0.05854956753160346 0.6903379879270578 L-0.014357648339684267 0.6851727646057658 L0.030339321357285426 0.6869200698253881 L0.07438694040490447 0.6953944841190521 L0.11542704065553104 0.7109575594256553 L0.15266636538244266 0.7322397636567218 L0.18546752648549053 0.7596568890054175 L0.21184973802395207 0.7910431513125407 L0.23087695576588757 0.8264792539173571 L0.24276869988835886 0.8642355775260605 L0.24700598802395207 0.9032574762277931 L0.24276869988835886 0.9422793749295255 L0.23087695576588757 0.9800356985382288 L0.21184973802395207 1.0154718011430452 L0.18546752648549053 1.0468580634501685 L0.15266636538244266 1.074275188798864 L0.11542704065553104 1.0955573930299307 L0.07438694040490447 1.1111204683365339 L0.030339321357285426 1.119594882630198 L-0.014357648339684267 1.12134218784982 z M-0.811538461538463 0.5202768370136027 L-0.5115384615384629 0.5202768370136027 L-0.5115384615384615 1.4294956530054423 L-0.8115384615384614 1.4294956530054423 z M-0.10120829769033361 -1.517973294417304 L-0.14049401197604788 -1.5364509043747017 L-0.17561305959509552 -1.5611922151127342 L-0.20537496435700028 -1.5904713913935111 L-0.22799401197604788 -1.6240042762113682 L-0.24373475271678863 -1.6607414144673762 L-0.2517377305690127 -1.6995898825082119 L-0.2517377305690127 -1.738438350549048 L-0.24373475271678863 -1.7772868185898838 L-0.22799401197604788 -1.8140239568458916 L-0.20537496435700028 -1.8475568416637487 L-0.17561305959509552 -1.8768360179445258 L-0.14049401197604788 -1.9015773286825581 L-0.10120829769033361 -1.9200549386399557 L-0.05854956753160346 -1.9319336048293654 L-0.014357648339684267 -1.9370988281506571 L0.030339321357285426 -1.9353515229310347 L0.07438694040490447 -1.9268771086373708 L0.11542704065553104 -1.9113140333307677 L0.15266636538244266 -1.890031829099701 L0.18546752648549053 -1.8626147037510055 L0.21184973802395207 -1.8312284414438824 L0.23087695576588757 -1.7957923388390657 L0.24276869988835886 -1.7580360152303625 L0.24700598802395207 -1.71901411652863 L0.24276869988835886 -1.6799922178268976 L0.23087695576588757 -1.6422358942181943 L0.21184973802395207 -1.6067997916133774 L0.18546752648549053 -1.5754135293062543 L0.15266636538244266 -1.5479964039575589 L0.11542704065553104 -1.5267141997264921 L0.07438694040490447 -1.511151124419889 L0.030339321357285426 -1.502676710126225 L-0.014357648339684267 -1.5009294049066026 L-0.05854956753160346 -1.5060946282278946 z"/>
<path fill="#bababa" stroke="#bababa" d="M-0.2517377305690127 1.041216698549948 L-0.2517377305690127 1.0295621581376972 L-0.2517377305690127 0.8838332422073751 L-0.2517377305690127 0.922681710248211 L-0.2517377305690127 1.068410626178533 z"/>
<path fill="#bababa" stroke="#bababa" d="M-0.2517377305690127 -1.581054894206475 L-0.2517377305690127 -1.5927094346187258 L-0.2517377305690127 -1.738438350549048 L-0.2517377305690127 -1.699589882508212 L-0.2517377305690127 -1.55386096657789 z"/>
<path fill="#bababa" stroke="#bababa" d="M-0.2461356460724558 1.002368230509112 L-0.2437347527167885 0.9907136900968614 L-0.24373475271678852 0.8449847741665392 L-0.2517377305690126 0.883833242207375 L-0.2517377305690126 1.0295621581376972 z"/>
<path fill="#bababa" stroke="#bababa" d="M0.24700598802395204 0.903257476227793 L0.24276869988835878 0.8642355775260605 L0.2427686998883588 1.0099644934563825 L0.24700598802395207 1.048986392158115 z"/>
<path fill="#bababa" stroke="#bababa" d="M-0.20537496435700003 0.9204436670229964 L-0.20537496435699953 0.7747147510926742 L-0.22799401197604738 0.8082476359105311 L-0.22799401197604732 0.9539765518408535 z"/>
<path fill="#bababa" stroke="#bababa" d="M0.24276869988835875 0.8642355775260604 L0.23087695576588732 0.8264792539173573 L0.2308769557658875 0.9722081698476794 L0.24276869988835867 1.0099644934563825 z"/>
<path fill="#bababa" stroke="#bababa" d="M0.2118497380239525 1.1612007170733676 L0.21184973802395252 1.0154718011430452 L0.23087695576588763 0.9800356985382289 L0.23087695576588768 1.125764614468551 z"/>
<path fill="#bababa" stroke="#bababa" d="M-0.18454163102366625 0.8999482436264529 L-0.1756130595950951 0.8911644907422196 L-0.17561305959509485 0.7454355748118975 L-0.20537496435699998 0.7747147510926742 L-0.20537496435699962 0.9204436670229968 z"/>
<path fill="#bababa" stroke="#bababa" d="M-0.15102972626176198 0.8738455732255971 L-0.140494011976048 0.8664231800041873 L-0.14049401197604805 0.7206942640738654 L-0.17561305959509554 0.745435574811898 L-0.17561305959509546 0.8911644907422199 z"/>
<path fill="#bababa" stroke="#bababa" d="M-0.10120829769033363 0.8479455700467899 L-0.10120829769033388 0.7022166541164678 L-0.1404940119760482 0.7206942640738652 L-0.14049401197604794 0.8664231800041874 z"/>
<path fill="#bababa" stroke="#bababa" d="M0.11542704065553104 0.8566864753559784 L0.11542704065553104 0.7109575594256562 L0.07438694040490447 0.695394484119053 L0.07438694040490447 0.8411234000493752 z"/>
<path fill="#bababa" stroke="#bababa" d="M-0.0713471865792225 0.8396305037142032 L-0.05854956753160345 0.8360669038573805 L-0.05854956753160345 0.6903379879270586 L-0.10120829769033361 0.702216654116468 L-0.10120829769033361 0.8479455700467898 z"/>
<path fill="#bababa" stroke="#bababa" d="M0.15266636538244252 0.7322397636567223 L0.11542704065553129 0.7109575594256559 L0.11542704065553126 0.8566864753559779 L0.15266636538244294 0.8779686795870446 z"/>
<path fill="#bababa" stroke="#bababa" d="M0.23087695576588735 0.9722081698476794 L0.2308769557658874 0.8264792539173573 L0.2118497380239517 0.7910431513125408 L0.2118497380239519 0.9367720672428628 z"/>
<path fill="#bababa" stroke="#bababa" d="M0.15266636538244302 1.0742751887988642 L0.18546752648549142 1.0468580634501683 L0.1854675264854917 1.1925869793804904 L0.15266636538244327 1.2200041047291863 z"/>
<path fill="#bababa" stroke="#bababa" d="M0.24276869988835892 0.9422793749295255 L0.24700598802395213 0.903257476227793 L0.2470059880239521 1.048986392158115 L0.24276869988835892 1.0880082908598476 z"/>
<path fill="#bababa" stroke="#bababa" d="M0.19338218994702921 1.1831711006883538 L0.18546752648549109 1.1925869793804904 L0.1854675264854906 1.0468580634501685 L0.21184973802395238 1.0154718011430452 L0.21184973802395216 1.1612007170733676 z"/>
<path fill="#bababa" stroke="#bababa" d="M0.2118497380239517 0.9367720672428629 L0.21184973802395177 0.7910431513125409 L0.18546752648549023 0.7596568890054175 L0.1854675264854902 0.9053858049357395 z"/>
<path fill="#bababa" stroke="#bababa" d="M-0.05854956753160345 0.6903379879270584 L-0.05854956753160345 0.8360669038573808 L-0.014357648339684266 0.8309016805360888 L-0.014357648339684266 0.6851727646057665 z"/>
<path fill="#bababa" stroke="#bababa" d="M-0.732029456069215 1.6503112782793707 L-0.8125 1.6503112782793707 L-0.8125 1.923076923076923 L-0.8154940119760479 1.923076923076923 L-0.8154940119760479 -3.3214662624359232 L0.809505988023952 -3.3214662624359232 L0.809505988023952 1.6503112782793707 z M0.21755790334653272 -1.4717017064645004 L0.23087695576588757 -1.496506978287872 L0.24276869988835886 -1.5342633018965752 L0.24700598802395207 -1.5732852005983078 L0.24276869988835886 -1.6123070993000403 L0.23087695576588757 -1.6500634229087434 L0.21184973802395207 -1.6854995255135603 L0.18546752648549053 -1.7168857878206834 L0.15266636538244266 -1.7443029131693788 L0.11542704065553104 -1.7655851174004455 L0.07438694040490447 -1.7811481927070487 L0.030339321357285426 -1.7896226070007126 L-0.014357648339684267 -1.791369912220335 L-0.05854956753160346 -1.786204688899043 L-0.10120829769033361 -1.7743260227096336 L-0.14049401197604788 -1.755848412752236 L-0.17561305959509552 -1.7311071020142035 L-0.20537496435700028 -1.7018279257334266 L-0.22799401197604788 -1.6682950409155695 L-0.24373475271678863 -1.6315579026595615 L-0.2517377305690127 -1.5927094346187258 L-0.2517377305690127 -1.5538609665778897 L-0.24373475271678863 -1.515012498537054 L-0.22799401197604788 -1.4782753602810461 L-0.20537496435700028 -1.444742475463189 L-0.17561305959509552 -1.415463299182412 L-0.14049401197604788 -1.3907219884443796 L-0.10120829769033361 -1.372244378486982 L-0.05854956753160346 -1.3603657122975725 L-0.014357648339684267 -1.3552004889762805 L0.030339321357285426 -1.356947794195903 L0.07438694040490447 -1.3654222084895669 L0.11542704065553104 -1.38098528379617 L0.15266636538244266 -1.4022674880272368 L0.18546752648549053 -1.4296846133759322 L0.21184973802395207 -1.4610708756830553 z M-0.8115384615384629 0.7949317305044887 L-0.8115384615384614 1.6503112782793707 L-0.5115384615384615 1.6503112782793707 L-0.5115384615384629 0.7410924622875311 L-0.811538461538463 0.7410924622875311 z M-0.2517377305690127 1.029562158137697 L-0.2517377305690127 1.068410626178533 L-0.24373475271678863 1.107259094219369 L-0.22799401197604788 1.1439962324753767 L-0.20537496435700028 1.1775291172932338 L-0.17561305959509552 1.206808293574011 L-0.14049401197604788 1.2315496043120433 L-0.10120829769033361 1.2500272142694409 L-0.05854956753160346 1.2619058804588503 L-0.014357648339684267 1.2670711037801423 L0.030339321357285426 1.2653237985605201 L0.07438694040490447 1.2568493842668558 L0.11542704065553104 1.2412863089602528 L0.15266636538244266 1.2200041047291863 L0.18546752648549053 1.1925869793804906 L0.21184973802395207 1.1612007170733674 L0.23087695576588757 1.125764614468551 L0.24276869988835886 1.0880082908598476 L0.24700598802395207 1.048986392158115 L0.24276869988835886 1.0099644934563827 L0.23087695576588757 0.9722081698476793 L0.21184973802395207 0.9367720672428629 L0.18546752648549053 0.9053858049357396 L0.15266636538244266 0.877968679587044 L0.11542704065553104 0.8566864753559775 L0.07438694040490447 0.8411234000493744 L0.030339321357285426 0.8326489857557102 L-0.014357648339684267 0.8309016805360879 L-0.05854956753160346 0.83606690385738 L-0.10120829769033361 0.8479455700467894 L-0.14049401197604788 0.866423180004187 L-0.17561305959509552 0.8911644907422194 L-0.20537496435700028 0.9204436670229964 L-0.22799401197604788 0.9539765518408534 L-0.24373475271678863 0.9907136900968613 z"/>
<path fill="#bababa" stroke="#bababa" d="M0.07438694040490447 0.8411234000493747 L0.07438694040490447 0.6953944841190522 L0.030339321357285426 0.6869200698253882 L0.030339321357285426 0.8326489857557107 z"/>
<path fill="#bababa" stroke="#bababa" d="M0.23087695576588763 0.9800356985382288 L0.2427686998883591 0.9422793749295255 L0.24276869988835895 1.0880082908598476 L0.2308769557658877 1.125764614468551 z"/>
<path fill="#bababa" stroke="#bababa" d="M-0.22799401197604768 0.8082476359105314 L-0.24373475271678846 0.844984774166539 L-0.24373475271678838 0.9907136900968613 L-0.22799401197604754 0.9539765518408535 z"/>
<path fill="#bababa" stroke="#bababa" d="M0.18546752648548984 0.7596568890054178 L0.15266636538244205 0.7322397636567215 L0.1526663653824418 0.8779686795870436 L0.1854675264854902 0.9053858049357394 z"/>
<path fill="#bababa" stroke="#bababa" d="M0.016930230448194517 0.8321247941898244 L0.030339321357285422 0.8326489857557111 L0.030339321357285422 0.6869200698253887 L-0.014357648339684266 0.6851727646057664 L-0.014357648339684266 0.8309016805360889 z"/>
<path fill="#bababa" stroke="#bababa" d="M0.809505988023952 1.4409801454156863 L0.809505988023952 1.650311278279371 L0.809505988023952 -3.3214662624359232 L0.809505988023952 -3.4671951783662456 L0.809505988023952 1.4294956530054426 z"/>
<path fill="#bababa" stroke="#bababa" d="M-0.8154940119760479 1.7022612978029945 L-0.8154940119760479 -3.4671951783662456 L-0.8154940119760479 -3.3214662624359232 L-0.8154940119760479 1.923076923076923 z"/>
<path fill="#bababa" stroke="#bababa" d="M0.809505988023952 -3.4671951783662456 L0.809505988023952 -3.321466262435923 L-0.8154940119760479 -3.321466262435923 L-0.8154940119760479 -3.4671951783662456 z"/>
<path fill="#bababa" stroke="#bababa" d="M-0.8115384615384628 0.6192500869114258 L-0.811538461538463 0.5202768370136027 L-0.811538461538463 -0.21577524723282515 L-0.8115384615384614 0.6934435687590147 L-0.8115384615384614 1.4294956530054426 z"/>
<path fill="#bababa" stroke="#bababa" d="M-0.8125 0.6934435687590147 L-0.8125 0.9662092135565666 L-0.8125 1.7022612978029945 L-0.8125 1.4294956530054426 z"/>
<path fill="#bababa" stroke="#bababa" d="M-0.6990636007946174 1.4294956530054423 L-0.5145324735145094 1.4294956530054423 L-0.5145324735145108 0.6934435687590146 L-0.8125 0.6934435687590146 L-0.8125 1.4294956530054423 z"/>
<path fill="#bababa" stroke="#bababa" d="M-0.6008920237577012 0.5202768370136027 L-0.5145324735145094 0.5202768370136027 L-0.5145324735145108 -0.21577524723282515 L-0.811538461538463 -0.21577524723282515 L-0.811538461538463 0.5202768370136027 z"/>
<path fill="#bababa" stroke="#bababa" d="M-0.7803174028708688 0.6934435687590146 L-0.8115384615384614 0.6934435687590146 L-0.811538461538463 -0.21577524723282515 L-0.5145324735145108 -0.21577524723282515 L-0.5145324735145108 -3.9529582314673193 L-0.8145324735145109 -3.9529582314673193 L-0.8145324735145109 0.9662092135565665 L-0.8125 0.9662092135565665 L-0.8125 0.6934435687590146 L-0.5145324735145108 0.6934435687590146 z"/>
<path fill="#bababa" stroke="#bababa" d="M-0.8125 0.9662092135565665 L-0.8145324735145109 0.9662092135565665 L-0.8145324735145094 1.7022612978029945 L-0.8125 1.7022612978029945 z"/>
<path fill="#bababa" stroke="#bababa" d="M-0.5145324735145095 0.4867085492591888 L-0.5145324735145094 0.5202768370136027 L-0.5145324735145094 -3.467195178366245 L-0.5145324735145108 -3.9529582314673193 L-0.5145324735145108 -0.21577524723282515 z"/>
<path fill="#bababa" stroke="#bababa" d="M-0.5145324735145097 1.28143578997581 L-0.5145324735145094 1.4294956530054426 L-0.5145324735145108 0.6934435687590147 z"/>
<path fill="#bababa" stroke="#bababa" d="M-0.5834458398744112 0.6934435687590146 L-0.5145324735145108 0.6934435687590146 L-0.5145324735145094 1.4294956530054426 L-0.8115384615384614 1.4294956530054426 L-0.8115384615384614 0.6934435687590146 z"/>
<path fill="#bababa" stroke="#bababa" d="M-0.8145324735145109 -3.952958231467319 L-0.8145324735145094 -3.467195178366245 L-0.8145324735145094 1.7022612978029945 L-0.8145324735145109 0.9662092135565666 z"/>
<path fill="#bababa" stroke="#bababa" d="M-0.5145324735145094 -3.4671951783662456 L-0.8145324735145094 -3.4671951783662456 L-0.8145324735145109 -3.9529582314673184 L-0.5145324735145108 -3.9529582314673184 z"/>
<path fill="#bababa" stroke="#bababa" d="M-0.5204898290775873 0.5202768370136027 L-0.811538461538463 0.5202768370136027 L-0.8115384615384614 1.4294956530054426 L-0.5145324735145094 1.4294956530054426 L-0.8125 1.4294956530054426 L-0.8125 1.7022612978029945 L-0.8145324735145094 1.7022612978029945 L-0.8145324735145094 -3.467195178366245 L-0.5145324735145094 -3.467195178366245 L-0.5145324735145094 0.5202768370136027 z"/>
<path fill="#bababa" stroke="#bababa" d="M0.7743074202137784 1.650311278279371 L0.8125 1.650311278279371 L0.8125 1.9230769230769227 L-0.8125 1.9230769230769227 L-0.8125 1.650311278279371 z"/>
<path fill="#bababa" stroke="#bababa" d="M-0.011363636363636362 0.11931976408889435 L0.033333333333333326 0.12073428348301253 L0.033333333333333326 0.33271397891448595 L-0.011363636363636362 0.33129945952036777 z"/>
<path fill="#bababa" stroke="#bababa" d="M-0.04229797979797979 0.33422649020545275 L-0.055555555555555546 0.33548093192763195 L-0.055555555555555546 0.12350123649615827 L-0.01136363636363636 0.11931976408889418 L-0.01136363636363636 0.3312994595203679 z"/>
<path fill="#bababa" stroke="#bababa" d="M0.033333333333333326 0.1207342834830133 L0.07738095238095237 0.12759468957438386 L0.07738095238095237 0.33957438500585596 L0.033333333333333326 0.3327139789144854 z"/>
<path fill="#bababa" stroke="#bababa" d="M-0.08541666666666664 0.34221233893010516 L-0.0982142857142857 0.34509722764545075 L-0.0982142857142857 0.13311753221397754 L-0.05555555555555555 0.12350123649615898 L-0.05555555555555555 0.3354809319276322 z"/>
<path fill="#bababa" stroke="#bababa" d="M0.07738095238095237 0.12759468957438325 L0.11842105263157893 0.14019367434595686 L0.11842105263157893 0.3521733697774287 L0.07738095238095237 0.3395743850058551 z"/>
<path fill="#bababa" stroke="#bababa" d="M-0.1257142857142857 0.355568126572393 L-0.13749999999999998 0.36005565468393963 L-0.13749999999999998 0.14807595925246725 L-0.0982142857142857 0.1331175322139785 L-0.0982142857142857 0.3450972276454509 z"/>
<path fill="#bababa" stroke="#bababa" d="M0.11842105263157893 0.140193674345957 L0.15566037735849056 0.15742254214555973 L0.15566037735849056 0.36940223757703283 L0.11842105263157893 0.35217336977743013 z"/>
<path fill="#bababa" stroke="#bababa" d="M-0.1620833333333342 0.37407606991379355 L-0.17261904761904787 0.3800848192980175 L-0.17261904761904917 0.16810512386654544 L-0.13750000000000054 0.14807595925246783 L-0.13750000000000098 0.36005565468394 z"/>
<path fill="#bababa" stroke="#bababa" d="M-0.19345238095238176 0.396676753872185 L-0.20238095238095313 0.40378758297540013 L-0.2023809523809527 0.191807887543928 L-0.17261904761904845 0.16810512386654533 L-0.17261904761904853 0.3800848192980169 z"/>
<path fill="#bababa" stroke="#bababa" d="M-0.21821428571428647 0.42279001069555033 L-0.22500000000000056 0.43093390828990025 L-0.22500000000000034 0.21895421285842823 L-0.20238095238095266 0.19180788754392825 L-0.20238095238095286 0.4037875829754003 z"/>
<path fill="#bababa" stroke="#bababa" d="M-0.23601851851851893 0.45175212354775357 L-0.24074074074074084 0.46067421580111934 L-0.24074074074074084 0.24869452036964726 L-0.2250000000000004 0.21895421285842817 L-0.2250000000000004 0.43093390828990025 z"/>
<path fill="#bababa" stroke="#bababa" d="M-0.24634282523729775 0.4826888802117228 L-0.24874371859296496 0.49212373638769574 L-0.24874371859296504 0.28014404095622364 L-0.24074074074074087 0.24869452036964726 L-0.24074074074074078 0.4606742158011193 z"/>
<path fill="#bababa" stroke="#bababa" d="M-0.24314163409640796 0.5455879213848757 L-0.24074074074074056 0.5550227775608485 L-0.24074074074074067 0.3430430821293765 L-0.24874371859296465 0.31159356154280005 L-0.24874371859296474 0.5235732569742721 z"/>
<path fill="#bababa" stroke="#bababa" d="M0.24999999999999997 0.29586880124951187 L0.24576271186440676 0.3274587214815641 L0.24576271186440676 0.5394384169130361 L0.24999999999999997 0.5078484966809839 z"/>
<path fill="#bababa" stroke="#bababa" d="M-0.20238095238095172 0.3999297149550955 L-0.22499999999999926 0.3727833896405954 L-0.22499999999999998 0.5847630850720675 L-0.20238095238095163 0.6119094103865674 z"/>
<path fill="#bababa" stroke="#bababa" d="M0.24576271186440662 0.3274587214815641 L0.23387096774193514 0.35802410376014426 L0.23387096774193517 0.5700037991916164 L0.24576271186440668 0.5394384169130362 z"/>
<path fill="#bababa" stroke="#bababa" d="M0.21484375000000044 0.20502643604166432 L0.2338709677419355 0.23371349873887948 L0.23387096774193608 0.44569319417035136 L0.21484375000000033 0.4170061314731365 z"/>
<path fill="#bababa" stroke="#bababa" d="M-0.18154761904761874 0.6285013449607358 L-0.17261904761904756 0.6356121740639507 L-0.17261904761904717 0.42363247863247866 L-0.20238095238095158 0.39992971495509533 L-0.20238095238095166 0.6119094103865678 z"/>
<path fill="#bababa" stroke="#bababa" d="M-0.1480357142857135 0.6496325892938056 L-0.13749999999999968 0.6556413386780281 L-0.13749999999999923 0.44366164324655644 L-0.1726190476190465 0.42363247863247866 L-0.17261904761904698 0.6356121740639503 z"/>
<path fill="#bababa" stroke="#bababa" d="M-0.09821428571428568 0.4586200702850435 L-0.13749999999999998 0.44366164324655477 L-0.13749999999999998 0.6556413386780279 L-0.09821428571428568 0.6705997657165166 z"/>
<path fill="#bababa" stroke="#bababa" d="M0.11842105263157894 0.45154392815306466 L0.07738095238095236 0.4641429129246383 L0.07738095238095236 0.6761226083561105 L0.11842105263157894 0.6635236235845369 z"/>
<path fill="#bababa" stroke="#bababa" d="M-0.0683531746031746 0.6773311727189889 L-0.055555555555555546 0.6802160614343344 L-0.055555555555555546 0.4682363660028629 L-0.0982142857142857 0.45862007028504437 L-0.0982142857142857 0.6705997657165159 z"/>
<path fill="#bababa" stroke="#bababa" d="M0.15566037735849053 0.43431506035346135 L0.11842105263157894 0.4515439281530641 L0.11842105263157894 0.6635236235845372 L0.15566037735849053 0.6462947557849344 z"/>
<path fill="#bababa" stroke="#bababa" d="M0.2338709677419348 0.3580241037601442 L0.21484374999999975 0.38671116645735937 L0.21484374999999992 0.5986908618888314 L0.23387096774193492 0.5700037991916164 z"/>
<path fill="#bababa" stroke="#bababa" d="M0.15566037735849098 0.15742254214556148 L0.188461538461539 0.17961789479555995 L0.18846153846153899 0.39159759022703217 L0.15566037735849098 0.3694022375770337 z"/>
<path fill="#bababa" stroke="#bababa" d="M0.24576271186440676 0.26427888101745967 L0.25 0.29586880124951187 L0.25 0.5078484966809839 L0.24576271186440676 0.47625857644893166 z"/>
<path fill="#bababa" stroke="#bababa" d="M0.19637620192307786 0.399220152600863 L0.18846153846153854 0.3915975902270319 L0.1884615384615395 0.17961789479555978 L0.21484375000000047 0.2050264360416644 L0.2148437500000009 0.41700613147313637 z"/>
<path fill="#bababa" stroke="#bababa" d="M0.2148437499999992 0.3867111664573592 L0.18846153846153801 0.41211970770346396 L0.1884615384615378 0.6240994031349362 L0.2148437499999992 0.598690861888831 z"/>
<path fill="#bababa" stroke="#bababa" d="M-0.055555555555555546 0.6802160614343334 L-0.011363636363636362 0.6843975338415975 L-0.011363636363636362 0.47241783841012513 L-0.055555555555555546 0.468236366002861 z"/>
<path fill="#bababa" stroke="#bababa" d="M0.07738095238095237 0.4641429129246377 L0.033333333333333326 0.4710033190160083 L0.033333333333333326 0.6829830144474808 L0.07738095238095237 0.6761226083561103 z"/>
<path fill="#bababa" stroke="#bababa" d="M0.23387096774193547 0.23371349873887945 L0.24576271186440704 0.26427888101745967 L0.24576271186440696 0.4762585764489317 L0.23387096774193572 0.44569319417035147 z"/>
<path fill="#bababa" stroke="#bababa" d="M-0.22499999999999956 0.37278338964059543 L-0.2407407407407405 0.3430430821293765 L-0.24074074074074067 0.5550227775608486 L-0.22499999999999973 0.5847630850720675 z"/>
<path fill="#bababa" stroke="#bababa" d="M0.1884615384615373 0.4121197077034642 L0.15566037735849012 0.4343150603534623 L0.15566037735848962 0.646294755784935 L0.18846153846153735 0.6240994031349361 z"/>
<path fill="#bababa" stroke="#bababa" d="M0.01992424242424242 0.6834073702657163 L0.033333333333333326 0.6829830144474808 L0.033333333333333326 0.4710033190160082 L-0.011363636363636362 0.4724178384101264 L-0.011363636363636362 0.684397533841599 z"/>
<path fill="#bababa" stroke="#bababa" d="M-0.01136363636363636 -2.003522875505014 L0.033333333333333326 -2.0021083561108957 L0.033333333333333326 -1.7901286606794224 L-0.01136363636363636 -1.7915431800735406 z"/>
<path fill="#bababa" stroke="#bababa" d="M-0.04229797979797979 -1.7886161493884558 L-0.055555555555555546 -1.7873617076662767 L-0.055555555555555546 -1.9993414030977483 L-0.01136363636363636 -2.0035228755050123 L-0.01136363636363636 -1.7915431800735409 z"/>
<path fill="#bababa" stroke="#bababa" d="M0.033333333333333326 -2.002108356110894 L0.07738095238095237 -1.9952479500195235 L0.07738095238095237 -1.783268254588054 L0.033333333333333326 -1.7901286606794244 z"/>
<path fill="#bababa" stroke="#bababa" d="M-0.08541666666666664 -1.7806303006638053 L-0.0982142857142857 -1.7777454119484597 L-0.0982142857142857 -1.9897251073799298 L-0.05555555555555555 -1.9993414030977483 L-0.05555555555555555 -1.7873617076662784 z"/>
<path fill="#bababa" stroke="#bababa" d="M0.07738095238095237 -1.9952479500195244 L0.11842105263157891 -1.9826489652479509 L0.11842105263157891 -1.7706692698164779 L0.07738095238095237 -1.7832682545880514 z"/>
<path fill="#bababa" stroke="#bababa" d="M-0.1257142857142857 -1.7672745130215157 L-0.13749999999999998 -1.762786984909969 L-0.13749999999999998 -1.9747666803414419 L-0.0982142857142857 -1.9897251073799305 L-0.0982142857142857 -1.7777454119484577 z"/>
<path fill="#bababa" stroke="#bababa" d="M0.11842105263157894 -1.98264896524795 L0.15566037735849053 -1.9654200974483473 L0.15566037735849053 -1.7534404020168755 L0.11842105263157894 -1.7706692698164783 z"/>
<path fill="#bababa" stroke="#bababa" d="M-0.16208333333333488 -1.7487665696801136 L-0.17261904761904892 -1.7427578202958907 L-0.17261904761904853 -1.9547375157273637 L-0.137500000000001 -1.97476668034144 L-0.13750000000000023 -1.7627869849099684 z"/>
<path fill="#bababa" stroke="#bababa" d="M-0.19345238095238212 -1.7261658857217228 L-0.20238095238095333 -1.7190550566185085 L-0.2023809523809535 -1.9310347520499804 L-0.1726190476190478 -1.9547375157273632 L-0.17261904761904814 -1.7427578202958907 z"/>
<path fill="#bababa" stroke="#bababa" d="M-0.2182142857142865 -1.7000526288983582 L-0.22500000000000023 -1.6919087313040082 L-0.22500000000000023 -1.9038884267354799 L-0.2023809523809526 -1.9310347520499802 L-0.20238095238095277 -1.719055056618508 z"/>
<path fill="#bababa" stroke="#bababa" d="M-0.23601851851851913 -1.6710905160461547 L-0.2407407407407411 -1.662168423792789 L-0.24074074074074092 -1.874148119224261 L-0.22500000000000003 -1.90388842673548 L-0.2250000000000002 -1.691908731304008 z"/>
<path fill="#bababa" stroke="#bababa" d="M-0.2463428252372978 -1.6401537593821853 L-0.24874371859296496 -1.6307189032062126 L-0.24874371859296493 -1.8426985986376847 L-0.240740740740741 -1.8741481192242613 L-0.24074074074074103 -1.662168423792789 z"/>
<path fill="#bababa" stroke="#bababa" d="M-0.24874371859296482 -1.6087042387956092 L-0.24874371859296482 -1.5992693826196362 L-0.24874371859296482 -1.8112490780511084 L-0.24874371859296482 -1.8426985986376847 L-0.24874371859296482 -1.6307189032062128 z"/>
<path fill="#bababa" stroke="#bababa" d="M-0.24874371859296482 0.5141384007982992 L-0.24874371859296482 0.5235732569742721 L-0.24874371859296482 0.3115935615428001 L-0.24874371859296482 0.2801440409562237 L-0.24874371859296482 0.49212373638769574 z"/>
<path fill="#bababa" stroke="#bababa" d="M-0.2431416340964079 -1.5772547182090326 L-0.2407407407407405 -1.5678198620330597 L-0.24074074074074062 -1.7797995574645318 L-0.2487437185929646 -1.8112490780511081 L-0.24874371859296468 -1.599269382619636 z"/>
<path fill="#bababa" stroke="#bababa" d="M0.2499999999999999 -1.8269738383443965 L0.24576271186440668 -1.7953839181123443 L0.24576271186440668 -1.5834042226808722 L0.2499999999999999 -1.6149941429129244 z"/>
<path fill="#bababa" stroke="#bababa" d="M-0.20238095238095216 -1.7229129246388126 L-0.2249999999999998 -1.750059249953313 L-0.22499999999999962 -1.5380795545218409 L-0.202380952380952 -1.5109332292073403 z"/>
<path fill="#bababa" stroke="#bababa" d="M0.2457627118644065 -1.7953839181123443 L0.2338709677419353 -1.764818535833764 L0.2338709677419354 -1.552838840402292 L0.24576271186440662 -1.5834042226808722 z"/>
<path fill="#bababa" stroke="#bababa" d="M0.21484375000000056 -1.917816203552244 L0.23387096774193555 -1.889129140855029 L0.2338709677419361 -1.6771494454235572 L0.2148437500000004 -1.705836508120772 z"/>
<path fill="#bababa" stroke="#bababa" d="M-0.18154761904761849 -1.494341294633172 L-0.17261904761904728 -1.4872304655299577 L-0.17261904761904712 -1.6992101609614296 L-0.2023809523809519 -1.722912924638813 L-0.20238095238095158 -1.5109332292073405 z"/>
<path fill="#bababa" stroke="#bababa" d="M-0.1480357142857133 -1.4732100503001027 L-0.13749999999999882 -1.4672013009158793 L-0.13749999999999837 -1.679180996347351 L-0.17261904761904634 -1.6992101609614296 L-0.17261904761904678 -1.487230465529958 z"/>
<path fill="#bababa" stroke="#bababa" d="M-0.09821428571428568 -1.664222569308865 L-0.13749999999999998 -1.6791809963473536 L-0.13749999999999998 -1.4672013009158804 L-0.09821428571428568 -1.4522428738773918 z"/>
<path fill="#bababa" stroke="#bababa" d="M0.11842105263157894 -1.6712987114408449 L0.07738095238095236 -1.6586997266692711 L0.07738095238095236 -1.4467200312377988 L0.11842105263157894 -1.4593190160093725 z"/>
<path fill="#bababa" stroke="#bababa" d="M-0.0683531746031746 -1.4455114668749214 L-0.055555555555555546 -1.4426265781595757 L-0.055555555555555546 -1.6546062735910456 L-0.0982142857142857 -1.6642225693088641 L-0.0982142857142857 -1.4522428738773943 z"/>
<path fill="#bababa" stroke="#bababa" d="M0.15566037735849053 -1.6885275792404468 L0.11842105263157894 -1.6712987114408442 L0.11842105263157894 -1.4593190160093725 L0.15566037735849053 -1.4765478838089752 z"/>
<path fill="#bababa" stroke="#bababa" d="M0.23387096774193467 -1.764818535833764 L0.21484374999999964 -1.736131473136549 L0.2148437499999998 -1.5241517777050768 L0.2338709677419348 -1.552838840402292 z"/>
<path fill="#bababa" stroke="#bababa" d="M0.1556603773584919 -1.9654200974483462 L0.18846153846153962 -1.9432247447983475 L0.18846153846153957 -1.7312450493668756 L0.15566037735849184 -1.7534404020168743 z"/>
<path fill="#bababa" stroke="#bababa" d="M0.24576271186440685 -1.8585637585764487 L0.25000000000000006 -1.8269738383443965 L0.25000000000000006 -1.6149941429129244 L0.24576271186440685 -1.6465840631449766 z"/>
<path fill="#bababa" stroke="#bababa" d="M0.19637620192307775 -1.7236224869930454 L0.18846153846153982 -1.7312450493668765 L0.18846153846153915 -1.943224744798349 L0.21484375000000036 -1.917816203552244 L0.21484375000000103 -1.7058365081207716 z"/>
<path fill="#bababa" stroke="#bababa" d="M0.21484374999999936 -1.7361314731365491 L0.18846153846153796 -1.7107229318904438 L0.18846153846153818 -1.4987432364589726 L0.21484374999999914 -1.5241517777050768 z"/>
<path fill="#bababa" stroke="#bababa" d="M-0.055555555555555546 -1.4426265781595748 L-0.011363636363636362 -1.4384451057523109 L-0.011363636363636362 -1.6504248011837832 L-0.055555555555555546 -1.6546062735910474 z"/>
<path fill="#bababa" stroke="#bababa" d="M0.07738095238095237 -1.6586997266692725 L0.033333333333333326 -1.651839320577902 L0.033333333333333326 -1.4398596251464295 L0.07738095238095237 -1.4467200312378 z"/>
<path fill="#bababa" stroke="#bababa" d="M0.23387096774193586 -1.889129140855029 L0.24576271186440707 -1.8585637585764485 L0.24576271186440699 -1.6465840631449764 L0.23387096774193575 -1.677149445423557 z"/>
<path fill="#bababa" stroke="#bababa" d="M-0.22499999999999953 -1.7500592499533127 L-0.24074074074074045 -1.7797995574645316 L-0.2407407407407402 -1.5678198620330597 L-0.2249999999999997 -1.5380795545218406 z"/>
<path fill="#bababa" stroke="#bababa" d="M0.18846153846153757 -1.710722931890444 L0.15566037735848984 -1.688527579240445 L0.1556603773584899 -1.4765478838089732 L0.18846153846153763 -1.4987432364589721 z"/>
<path fill="#bababa" stroke="#bababa" d="M0.01992424242424242 -1.439435269328193 L0.033333333333333326 -1.4398596251464286 L0.033333333333333326 -1.6518393205778994 L-0.011363636363636362 -1.6504248011837812 L-0.011363636363636362 -1.4384451057523104 z"/>
<path fill="#bababa" stroke="#bababa" d="M0.8125 1.923076923076923 L0.8125 1.650311278279371 L0.8125 -2.534588051542366 L0.8125 -2.322608356110894 z"/>
<path fill="#bababa" stroke="#bababa" d="M-0.8125 -2.322608356110896 L0.8125 -2.322608356110896 L0.8125 -2.5345880515423675 L-0.8125 -2.5345880515423675 z"/>
<path fill="#bababa" stroke="#bababa" d="M-0.8125 1.650311278279371 L-0.8125 1.923076923076923 L-0.8125 -2.322608356110894 L-0.8125 -2.534588051542366 z"/>
<path fill="#bababa" stroke="#bababa" d="M0.35990977789534423 1.6503112782793707 L-0.8125 1.6503112782793707 L-0.8125 -2.5345880515423658 L0.8125 -2.5345880515423658 L0.8125 1.6503112782793707 z M-0.17261904761904762 0.42363247863247855 L-0.13749999999999998 0.4436616432465561 L-0.09821428571428571 0.4586200702850448 L-0.05555555555555555 0.46823636600286345 L-0.011363636363636362 0.47241783841012747 L0.03333333333333333 0.47100331901600934 L0.07738095238095237 0.4641429129246388 L0.11842105263157894 0.45154392815306515 L0.15566037735849056 0.4343150603534624 L0.18846153846153846 0.412119707703464 L0.21484375 0.3867111664573593 L0.23387096774193547 0.35802410376014426 L0.24576271186440676 0.327458721481564 L0.25 0.29586880124951187 L0.24576271186440676 0.26427888101745967 L0.23387096774193547 0.23371349873887942 L0.21484375 0.20502643604166446 L0.18846153846153846 0.17961789479555976 L0.15566037735849056 0.1574225421455613 L0.11842105263157894 0.1401936743459586 L0.07738095238095237 0.127594689574385 L0.03333333333333333 0.12073428348301443 L-0.011363636363636362 0.11931976408889626 L-0.05555555555555555 0.12350123649616034 L-0.09821428571428571 0.1331175322139789 L-0.13749999999999998 0.14807595925246764 L-0.17261904761904762 0.16810512386654514 L-0.20238095238095236 0.19180788754392813 L-0.22499999999999998 0.21895421285842825 L-0.24074074074074073 0.24869452036964723 L-0.24874371859296482 0.2801440409562237 L-0.24874371859296482 0.3115935615428001 L-0.24074074074074073 0.3430430821293765 L-0.22499999999999998 0.37278338964059554 L-0.20238095238095236 0.3999297149550956 z M-0.13749999999999998 -1.679180996347352 L-0.09821428571428571 -1.6642225693088635 L-0.05555555555555555 -1.654606273591045 L-0.011363636363636362 -1.6504248011837808 L0.03333333333333333 -1.651839320577899 L0.07738095238095237 -1.6586997266692696 L0.11842105263157894 -1.6712987114408433 L0.15566037735849056 -1.688527579240446 L0.18846153846153846 -1.7107229318904444 L0.21484375 -1.7361314731365491 L0.23387096774193547 -1.764818535833764 L0.24576271186440676 -1.795383918112344 L0.25 -1.8269738383443963 L0.24576271186440676 -1.8585637585764487 L0.23387096774193547 -1.889129140855029 L0.21484375 -1.917816203552244 L0.18846153846153846 -1.9432247447983486 L0.15566037735849056 -1.965420097448347 L0.11842105263157894 -1.9826489652479498 L0.07738095238095237 -1.9952479500195233 L0.03333333333333333 -2.002108356110894 L-0.011363636363636362 -2.003522875505012 L-0.05555555555555555 -1.999341403097748 L-0.09821428571428571 -1.9897251073799296 L-0.13749999999999998 -1.9747666803414408 L-0.17261904761904762 -1.954737515727363 L-0.20238095238095236 -1.9310347520499802 L-0.22499999999999998 -1.90388842673548 L-0.24074074074074073 -1.874148119224261 L-0.24874371859296482 -1.8426985986376847 L-0.24874371859296482 -1.8112490780511084 L-0.24074074074074073 -1.7797995574645318 L-0.22499999999999998 -1.7500592499533127 L-0.20238095238095236 -1.7229129246388128 L-0.17261904761904762 -1.6992101609614298 z"/>
<path fill="#bababa" stroke="#bababa" d="M0.6514147271245693 1.923076923076923 L0.8125 1.923076923076923 L0.8125 -2.322608356110894 L-0.8125 -2.322608356110894 L-0.8125 1.923076923076923 z M0.002045454545454545 -1.7911188242553044 L0.03333333333333333 -1.7901286606794218 L0.07738095238095237 -1.7832682545880512 L0.11842105263157894 -1.7706692698164777 L0.15566037735849056 -1.7534404020168748 L0.18846153846153846 -1.7312450493668765 L0.21484375 -1.7058365081207718 L0.23387096774193547 -1.6771494454235567 L0.24576271186440676 -1.6465840631449766 L0.25 -1.6149941429129244 L0.24576271186440676 -1.5834042226808722 L0.23387096774193547 -1.5528388404022921 L0.21484375 -1.5241517777050768 L0.18846153846153846 -1.4987432364589723 L0.15566037735849056 -1.4765478838089738 L0.11842105263157894 -1.4593190160093712 L0.07738095238095237 -1.4467200312377977 L0.03333333333333333 -1.439859625146427 L-0.011363636363636362 -1.4384451057523087 L-0.05555555555555555 -1.4426265781595728 L-0.09821428571428571 -1.4522428738773914 L-0.13749999999999998 -1.4672013009158802 L-0.17261904761904762 -1.4872304655299575 L-0.20238095238095236 -1.5109332292073407 L-0.22499999999999998 -1.5380795545218409 L-0.24074074074074073 -1.56781986203306 L-0.24874371859296482 -1.5992693826196362 L-0.24874371859296482 -1.6307189032062126 L-0.24074074074074073 -1.662168423792789 L-0.22499999999999998 -1.691908731304008 L-0.20238095238095236 -1.719055056618508 L-0.17261904761904762 -1.742757820295891 L-0.13749999999999998 -1.7627869849099687 L-0.09821428571428571 -1.7777454119484575 L-0.05555555555555555 -1.7873617076662758 L-0.011363636363636362 -1.7915431800735402 z M-0.04229797979797979 0.33422649020545314 L-0.011363636363636362 0.33129945952036827 L0.03333333333333333 0.33271397891448645 L0.07738095238095237 0.339574385005857 L0.11842105263157894 0.35217336977743063 L0.15566037735849056 0.3694022375770334 L0.18846153846153846 0.3915975902270318 L0.21484375 0.4170061314731365 L0.23387096774193547 0.44569319417035147 L0.24576271186440676 0.4762585764489317 L0.25 0.5078484966809839 L0.24576271186440676 0.5394384169130362 L0.23387096774193547 0.5700037991916164 L0.21484375 0.5986908618888314 L0.18846153846153846 0.6240994031349361 L0.15566037735849056 0.6462947557849344 L0.11842105263157894 0.6635236235845372 L0.07738095238095237 0.6761226083561108 L0.03333333333333333 0.6829830144474814 L-0.011363636363636362 0.6843975338415995 L-0.05555555555555555 0.6802160614343354 L-0.09821428571428571 0.6705997657165168 L-0.13749999999999998 0.6556413386780281 L-0.17261904761904762 0.6356121740639507 L-0.20238095238095236 0.6119094103865675 L-0.22499999999999998 0.5847630850720675 L-0.24074074074074073 0.5550227775608485 L-0.24874371859296482 0.5235732569742721 L-0.24874371859296482 0.4921237363876957 L-0.24074074074074073 0.4606742158011193 L-0.22499999999999998 0.43093390828990025 L-0.20238095238095236 0.4037875829754002 L-0.17261904761904762 0.38008481929801724 L-0.13749999999999998 0.36005565468393963 L-0.09821428571428571 0.3450972276454509 L-0.05555555555555555 0.33548093192763234 z"/>
<path fill="#bababa" stroke="#bababa" d="M-0.5115384615384616 1.5961669542590664 L-0.5115384615384615 1.6503112782793707 L-0.8115384615384614 1.6503112782793707 L-0.811538461538463 0.741092462287531 L-0.5115384615384629 0.741092462287531 z"/>
<path fill="#bababa" stroke="#bababa" d="M-0.5115384615384626 0.9232759504583733 L-0.5115384615384629 0.741092462287531 L-0.5115384615384629 -3.2411870363139395 L-0.5115384615384615 -2.5345880515423658 L-0.5115384615384615 1.650311278279371 z"/>
<path fill="#bababa" stroke="#bababa" d="M-0.8115384615384614 -2.534588051542369 L-0.5115384615384615 -2.534588051542369 L-0.5115384615384629 -3.2411870363139412 L-0.811538461538463 -3.2411870363139412 z"/>
<path fill="#bababa" stroke="#bababa" d="M-0.8115384615384629 0.7949317305044886 L-0.8115384615384614 1.650311278279371 L-0.8115384615384614 -2.5345880515423658 L-0.811538461538463 -3.2411870363139395 L-0.811538461538463 0.7410924622875311 z"/>
<path fill="#bababa" stroke="#bababa" d="M-0.5893700475387877 0.7410924622875311 L-0.811538461538463 0.7410924622875311 L-0.811538461538463 -3.2411870363139395 L-0.5115384615384629 -3.2411870363139395 L-0.5115384615384629 0.7410924622875311 z"/>
<path fill="#bababa" stroke="#bababa" d="M-0.7374166614623465 1.6503112782793707 L-0.5115384615384615 1.6503112782793707 L-0.5115384615384615 -2.5345880515423658 L-0.8115384615384614 -2.5345880515423658 L-0.8115384615384614 1.6503112782793707 z"/>
</svg>