<?xml version="1.0" encoding="UTF-8"?>
<!-- Generated by jsxcad -->
<!DOCTYPE svg PUBLIC "-//W3C//DTD SVG 1.1 Tiny//EN" "http://www.w3.org/Graphics/SVG/1.1/DTD/svg11-tiny.dtd">
<svg baseProfile="tiny" height="5.986653493680375mm" width="1.6250000000000009mm" viewBox="-0.8125000000000004 -1.8800000000000003 1.6250000000000009 5.986653493680375" version="1.1" stroke="black" stroke-width=".1" fill="none" xmlns="http://www.w3.org/2000/svg">
<path fill="#bababa" stroke="#bababa" d="M0.8125 1.3806063239009554 L0.8125 1.590688179840464 L0.8125 -3.5567321909174527 L0.8125 -3.683637106939665 L0.8125 1.3647570703408265 z"/>
<path fill="#bababa" stroke="#bababa" d="M-0.8125 -3.683637106939665 L-0.8125 -3.5567321909174527 L-0.8125 1.590688179840464 L-0.8125 1.3647570703408265 z"/>
<path fill="#bababa" stroke="#bababa" d="M-0.5115384615384624 0.7461736782043215 L-0.5115384615384629 0.400384336475707 L-0.5115384615384629 0.6263154459753444 L-0.5115384615384615 1.590688179840464 L-0.5115384615384615 1.3647570703408265 z"/>
<path fill="#bababa" stroke="#bababa" d="M-0.8115384615384629 0.6980751679228835 L-0.811538461538463 0.6263154459753443 L-0.811538461538463 0.400384336475707 L-0.8115384615384614 1.3647570703408265 L-0.8115384615384614 1.5906881798404637 z"/>
<path fill="#bababa" stroke="#bababa" d="M-0.7260267857142857 1.5906881798404637 L-0.8115384615384614 1.5906881798404637 L-0.8115384615384614 1.3647570703408265 L-0.5115384615384615 1.3647570703408265 L-0.5115384615384615 1.5906881798404637 z"/>
<path fill="#bababa" stroke="#bababa" d="M-0.7422276016687324 0.6263154459753444 L-0.5115384615384629 0.6263154459753444 L-0.5115384615384629 0.400384336475707 L-0.811538461538463 0.400384336475707 L-0.811538461538463 0.6263154459753444 z"/>
<path fill="#bababa" stroke="#bababa" d="M-0.7845060541495609 1.3647570703408265 L0.8125 1.3647570703408265 L0.8125 -3.683637106939665 L-0.8125 -3.683637106939665 L-0.8125 1.3647570703408265 z M-0.811538461538463 0.400384336475707 L-0.5115384615384629 0.400384336475707 L-0.5115384615384615 1.3647570703408265 L-0.8115384615384614 1.3647570703408265 z"/>
<path fill="#bababa" stroke="#bababa" d="M0.8125 -3.5567321909174523 L-0.8125 -3.5567321909174523 L-0.8125 -3.683637106939665 L0.8125 -3.683637106939665 z"/>
<path fill="#bababa" stroke="#bababa" d="M0.8125 1.3647570703408263 L-0.8125 1.3647570703408263 L-0.8125 1.5906881798404637 L0.8125 1.5906881798404637 z"/>
<path fill="#bababa" stroke="#bababa" d="M-0.8125 1.5906881798404637 L-0.8125 -3.5567321909174523 L0.8125 -3.5567321909174523 L0.8125 1.5906881798404637 z M-0.811538461538463 0.6263154459753444 L-0.8115384615384614 1.5906881798404637 L-0.5115384615384615 1.5906881798404637 L-0.5115384615384629 0.6263154459753444 z"/>
<path fill="#bababa" stroke="#bababa" d="M-0.5115384615384615 1.3333675325046048 L-0.5115384615384629 -0.3527193618564176 L-0.5115384615384629 0.400384336475707 L-0.5115384615384615 1.3470699162826603 z"/>
<path fill="#bababa" stroke="#bababa" d="M-0.8115384615384617 1.2037436548223348 L-0.811538461538463 -0.3527193618564176 L-0.8115384615384614 0.6116533720087018 L-0.8115384615384614 1.3647570703408265 z"/>
<path fill="#bababa" stroke="#bababa" d="M-0.6669795355392065 0.6116533720087018 L-0.811538461538463 0.6116533720087018 L-0.8115384615384614 1.3647570703408265 L-0.5115384615384615 1.3647570703408265 L-0.5115384615384629 0.6116533720087018 z"/>
<path fill="#bababa" stroke="#bababa" d="M-0.5115384615384629 -4.106653493680373 L-0.811538461538463 -4.106653493680373 L-0.7937879491582491 -0.3527193618564176 L-0.5115384615384629 -0.3527193618564176 z"/>
<path fill="#bababa" stroke="#bababa" d="M-0.8115384615384625 -0.07130868755234236 L-0.8115384615384627 -0.12621396771348853 L-0.811538461538463 0.6116533720087018 L-0.5115384615384629 0.6116533720087018 L-0.8115384615384614 0.6116533720087018 z"/>
<path fill="#bababa" stroke="#bababa" d="M-0.5115384615384627 0.7054743714642191 L-0.5115384615384615 1.3647570703408265 z"/>
<path fill="#bababa" stroke="#bababa" d="M-0.5115384615384626 -0.011058496172319677 L-0.5115384615384615 1.3647570703408265 L-0.5115384615384615 -3.683637106939665 L-0.5115384615384629 -4.106653493680373 L-0.5115384615384629 -0.35271936185641767 z"/>
<path fill="#bababa" stroke="#bababa" d="M-0.5115384615384627 0.7054743714642191 L-0.5115384615384629 0.6116533720087018 z"/>
<path fill="#bababa" stroke="#bababa" d="M-0.5861813186813186 0.6116533720087018 L-0.5115384615384629 0.6116533720087018 L-0.5115384615384615 1.3647570703408265 L-0.8115384615384614 1.3647570703408265 L-0.8115384615384614 0.6116533720087018 z"/>
<path fill="#bababa" stroke="#bababa" d="M-0.609488164730528 0.400384336475707 L-0.5115384615384629 0.400384336475707 L-0.5115384615384629 -0.3527193618564176 L-0.811538461538463 -0.3527193618564176 L-0.8115384615384614 0.400384336475707 z"/>
<path fill="#bababa" stroke="#bababa" d="M-0.5115384615384615 -3.6836371069396643 L-0.8115384615384614 -3.6836371069396643 L-0.811538461538463 -4.106653493680373 L-0.5115384615384629 -4.106653493680373 z"/>
<path fill="#bababa" stroke="#bababa" d="M-0.8115384615384619 0.20089298926225443 L-0.811538461538463 -0.3527193618564176 L-0.811538461538463 -4.106653493680373 L-0.8115384615384614 -3.6836371069396647 L-0.8115384615384614 0.400384336475707 z"/>
<path fill="#bababa" stroke="#bababa" d="M-0.8115384615384627 -0.011058496172319677 L-0.8115384615384614 1.3647570703408263 L-0.811538461538463 0.6116533720087018 L-0.811538461538463 -0.3527193618564176 z"/>
<path fill="#bababa" stroke="#bababa" d="M-0.532967032967033 1.3647570703408265 L-0.5115384615384615 1.3647570703408265 L-0.8115384615384614 1.3647570703408265 z"/>
<path fill="#bababa" stroke="#bababa" d="M-0.5338490193404903 0.400384336475707 L-0.8115384615384614 0.400384336475707 L-0.8115384615384614 -3.683637106939665 L-0.5115384615384615 -3.683637106939665 L-0.5115384615384615 1.3647570703408265 L-0.5115384615384629 0.400384336475707 z"/>
<path fill="#bababa" stroke="#bababa" d="M0.8125 1.88 L0.8125 1.590688179840464 L0.8125 -2.5776649746192892 L0.8125 -2.365685279187817 z"/>
<path fill="#bababa" stroke="#bababa" d="M-0.8125 1.8799999999999997 L-0.8125 1.590688179840464 L0.8125 1.590688179840464 L0.8125 1.8799999999999997 z"/>
<path fill="#bababa" stroke="#bababa" d="M-0.8125 -2.3656852791878187 L0.8125 -2.3656852791878187 L0.8125 -2.57766497461929 L-0.8125 -2.57766497461929 z"/>
<path fill="#bababa" stroke="#bababa" d="M-0.8125 1.590688179840464 L-0.8125 1.88 L-0.8125 -2.365685279187817 L-0.8125 -2.5776649746192892 z"/>
<path fill="#bababa" stroke="#bababa" d="M-0.8125 1.5906881798404637 L-0.8125 -2.577664974619289 L0.8125 -2.577664974619289 L0.8125 1.5906881798404637 z"/>
<path fill="#bababa" stroke="#bababa" d="M-0.6964285714285714 1.88 L0.8125 1.88 L0.8125 -2.3656852791878165 L-0.8125 -2.3656852791878165 L-0.8125 1.88 z"/>
<path fill="#bababa" stroke="#bababa" d="M-0.8115384615384614 1.590688179840464 L-0.811538461538463 0.6263154459753444 L-0.5115384615384629 0.6263154459753444 L-0.5115384615384615 1.590688179840464 z"/>
<path fill="#bababa" stroke="#bababa" d="M-0.5115384615384629 0.6263154459753444 L-0.5115384615384629 -3.2842639593908625 L-0.5115384615384615 -2.5776649746192892 L-0.5115384615384615 1.590688179840464 z"/>
<path fill="#bababa" stroke="#bababa" d="M-0.8115384615384614 -2.577664974619291 L-0.5115384615384615 -2.577664974619291 L-0.5115384615384629 -3.284263959390864 L-0.811538461538463 -3.284263959390864 z"/>
<path fill="#bababa" stroke="#bababa" d="M-0.8115384615384629 0.6980751679228836 L-0.8115384615384614 1.5906881798404637 L-0.8115384615384614 -2.577664974619289 L-0.811538461538463 -3.2842639593908625 L-0.811538461538463 0.6263154459753444 z"/>
<path fill="#bababa" stroke="#bababa" d="M-0.5352170329670344 0.6263154459753444 L-0.811538461538463 0.6263154459753444 L-0.811538461538463 -3.284263959390862 L-0.5115384615384629 -3.284263959390862 L-0.5115384615384629 0.6263154459753444 z"/>
<path fill="#bababa" stroke="#bababa" d="M-0.6223086734693877 1.590688179840464 L-0.5115384615384615 1.590688179840464 L-0.5115384615384615 -2.577664974619289 L-0.8115384615384614 -2.577664974619289 L-0.8115384615384614 1.590688179840464 z"/>
</svg>