<?xml version="1.0" encoding="UTF-8"?>
<!-- Generated by jsxcad -->
<!DOCTYPE svg PUBLIC "-//W3C//DTD SVG 1.1 Tiny//EN" "http://www.w3.org/Graphics/SVG/1.1/DTD/svg11-tiny.dtd">
<svg baseProfile="tiny" height="5.848702963292447mm" width="1.6279940119760488mm" viewBox="-0.8154940119760483 -1.0625000000000038 1.6279940119760488 5.848702963292447" version="1.1" stroke="black" stroke-width=".1" fill="none" xmlns="http://www.w3.org/2000/svg">
<path fill="#bababa" stroke="#bababa" d="M-0.8115384615384628 -1.536468863521423 L-0.8115384615384614 0.11177106598984772 L-0.8115384615384614 0.5116462979170313 L-0.811538461538463 -1.3245327090261974 L-0.811538461538463 -1.7244079409533808 z"/>
<path fill="#bababa" stroke="#bababa" d="M-0.5211975203290687 -1.7244079409533808 L-0.811538461538463 -1.7244079409533808 L-0.811538461538463 -1.3245327090261974 L-0.5115384615384629 -1.3245327090261974 L-0.5115384615384629 -1.7244079409533808 z"/>
<path fill="#bababa" stroke="#bababa" d="M-0.5115384615384616 -0.06294025233627708 L-0.5115384615384629 -1.724407940953381 L-0.5115384615384629 -1.3245327090261974 L-0.5115384615384615 0.5116462979170312 L-0.5115384615384615 0.11177106598984772 z"/>
<path fill="#bababa" stroke="#bababa" d="M-0.6288867450603224 0.1117710659898477 L-0.5115384615384615 0.1117710659898477 L-0.5115384615384615 0.5116462979170312 L-0.8115384615384614 0.5116462979170312 L-0.8115384615384614 0.1117710659898477 z"/>
<path fill="#bababa" stroke="#bababa" d="M-0.8125 0.6626247680728163 L-0.8125 1.0625 L-0.8125 0.5116462979170313 L-0.8125 0.11177106598984775 z"/>
<path fill="#bababa" stroke="#bababa" d="M0.809505988023952 0.14943287806354133 L0.809505988023952 0.5116462979170313 L0.809505988023952 -4.786202963292442 L0.809505988023952 -4.7192575816897095 L0.809505988023952 0.11177106598984775 z"/>
<path fill="#bababa" stroke="#bababa" d="M-0.8125 1.0624999999999998 L-0.8125 0.6626247680728162 L-0.8154940119760479 0.6626247680728162 L-0.8154940119760479 1.0624999999999998 z"/>
<path fill="#bababa" stroke="#bababa" d="M0.2926581619369955 -3.2092288166214784 L0.297005988023952 -3.2570818408665985 L0.297005988023952 -3.3240272224693315 L0.2926581619369955 -3.2761741982242114 z"/>
<path fill="#bababa" stroke="#bababa" d="M-0.26575956221528224 -3.116000008022716 L-0.23983611723920537 -3.0776329999473986 L-0.23983611723920562 -3.1445783815501316 L-0.2669940119760475 -3.1847723900099876 L-0.2669940119760477 -3.117827008407255 z"/>
<path fill="#bababa" stroke="#bababa" d="M0.261005988023952 -3.117827008407255 L0.28078977180773573 -3.162238009029424 L0.28078977180773557 -3.2291833906321563 L0.26100598802395186 -3.1847723900099876 z"/>
<path fill="#bababa" stroke="#bababa" d="M0.16129170230966633 -3.0120686086205644 L0.20023179447556497 -3.0420559966279064 L0.20023179447556494 -3.109001378230639 L0.16129170230966636 -3.079013990223297 z"/>
<path fill="#bababa" stroke="#bababa" d="M0.26100598802395225 -3.4632820549286754 L0.26100598802395214 -3.396336673325943 L0.23384809328711026 -3.436530681785799 L0.23384809328711031 -3.5034760633885313 z"/>
<path fill="#bababa" stroke="#bababa" d="M-0.2988438143475894 -3.3027597276460314 L-0.3029940119760479 -3.2570818408665985 L-0.3029940119760479 -3.3240272224693315 L-0.29864618588909136 -3.3718802467144515 L-0.29864618588909136 -3.304934865111719 z"/>
<path fill="#bababa" stroke="#bababa" d="M0.03742806594603001 -3.0353781696288022 L0.022005988023952094 -3.0328803348693114 L0.022005988023952094 -2.965934953266579 L0.07047537577905412 -2.9737852910821214 L0.07047537577905412 -3.040730672684854 z"/>
<path fill="#bababa" stroke="#bababa" d="M-0.22914002216280452 -3.1332584259484744 L-0.23983611723920556 -3.1445783815501316 L-0.23983611723920487 -3.077632999947398 L-0.20621981842766043 -3.042055996627906 L-0.20621981842766018 -3.1090013782306385 z"/>
<path fill="#bababa" stroke="#bababa" d="M-0.1672797262617623 -3.502095073112634 L-0.2062198184276608 -3.472107685105292 L-0.2062198184276608 -3.5390530667080244 L-0.16727972626176218 -3.5690404547153665 z"/>
<path fill="#bababa" stroke="#bababa" d="M-0.012084921066956996 -3.0328803348693114 L-0.0279940119760479 -3.0328803348693114 L-0.0279940119760479 -2.965934953266579 L0.022005988023952094 -2.965934953266579 L0.022005988023952094 -3.0328803348693114 z"/>
<path fill="#bababa" stroke="#bababa" d="M0.23384809328711068 -3.4365306817857983 L0.20023179447556533 -3.4721076851052914 L0.20023179447556558 -3.539053066708024 L0.23384809328711018 -3.503476063388532 z"/>
<path fill="#bababa" stroke="#bababa" d="M-0.1534367510551506 -3.0716791610565966 L-0.16727972626176213 -3.0790139902232974 L-0.16727972626176218 -3.0120686086205644 L-0.12377323275526875 -2.9890162883823623 L-0.12377323275526862 -3.055961669985095 z"/>
<path fill="#bababa" stroke="#bababa" d="M0.1177852088031729 -3.5251473933508364 L0.07047537577905405 -3.540378390651077 L0.0704753757790541 -3.6073237722538094 L0.11778520880317289 -3.592092774953569 z"/>
<path fill="#bababa" stroke="#bababa" d="M-0.29486987993887237 -3.26122257762674 L-0.2986461858890913 -3.2761741982242114 L-0.2986461858890913 -3.209228816621479 L-0.2867777957598316 -3.162238009029424 L-0.2867777957598316 -3.2291833906321568 z"/>
<path fill="#bababa" stroke="#bababa" d="M0.1177852088031729 -2.9890162883823623 L0.16129170230966627 -3.0120686086205644 L0.16129170230966636 -3.079013990223297 L0.11778520880317289 -3.055961669985095 z"/>
<path fill="#bababa" stroke="#bababa" d="M-0.27328885227088845 -3.4491512820034393 L-0.26699401197604805 -3.4632820549286754 L-0.266994011976048 -3.396336673325943 L-0.2867777957598317 -3.3519256727037736 L-0.2867777957598319 -3.4188710543065057 z"/>
<path fill="#bababa" stroke="#bababa" d="M0.2888818559867766 -3.3868318673119235 L0.29265816193699556 -3.3718802467144515 L0.2926581619369956 -3.3049348651117185 L0.2807897718077359 -3.3519256727037736 L0.28078977180773596 -3.418871054306506 z"/>
<path fill="#bababa" stroke="#bababa" d="M-0.10872010406577631 -3.051115443571382 L-0.12377323275526869 -3.055961669985095 L-0.12377323275526861 -2.9890162883823623 L-0.07646339973114988 -2.9737852910821214 L-0.07646339973114989 -3.040730672684854 z"/>
<path fill="#bababa" stroke="#bababa" d="M0.006096897114861188 -3.615174110069352 L0.022005988023952094 -3.615174110069352 L0.022005988023952094 -3.5482287284666194 L-0.0279940119760479 -3.5482287284666194 L-0.0279940119760479 -3.615174110069352 z"/>
<path fill="#bababa" stroke="#bababa" d="M-0.2858785328605686 -3.1602193271829617 L-0.2669940119760478 -3.117827008407255 L-0.26699401197604766 -3.184772390009987 L-0.2867777957598316 -3.2291833906321568 L-0.2867777957598314 -3.1622380090294238 z"/>
<path fill="#bababa" stroke="#bababa" d="M0.20023179447556497 -3.5390530667080244 L0.200231794475565 -3.472107685105292 L0.16129170230966625 -3.502095073112634 L0.1612917023096664 -3.5690404547153665 z"/>
<path fill="#bababa" stroke="#bababa" d="M0.24248924161246868 -3.157367384241904 L0.23384809328710962 -3.144578381550131 L0.23384809328710954 -3.0776329999473986 L0.2610059880239519 -3.117827008407255 L0.26100598802395203 -3.1847723900099876 z"/>
<path fill="#bababa" stroke="#bababa" d="M-0.043416089898125815 -3.612676275309861 L-0.0279940119760479 -3.615174110069352 L-0.0279940119760479 -3.5482287284666194 L-0.07646339973114993 -3.540378390651077 L-0.07646339973114993 -3.6073237722538094 z"/>
<path fill="#bababa" stroke="#bababa" d="M0.28078977180773584 -3.3519256727037736 L0.26100598802395214 -3.396336673325943 L0.26100598802395225 -3.4632820549286754 L0.280789771807736 -3.418871054306506 z"/>
<path fill="#bababa" stroke="#bababa" d="M-0.20621981842766082 -3.0420559966279064 L-0.16727972626176218 -3.0120686086205644 L-0.16727972626176224 -3.079013990223297 L-0.2062198184276608 -3.109001378230639 z"/>
<path fill="#bababa" stroke="#bababa" d="M0.29680835956545404 -3.259256978332286 L0.29265816193699556 -3.304934865111719 L0.29265816193699556 -3.371880246714451 L0.2970059880239521 -3.3240272224693315 L0.2970059880239521 -3.2570818408665985 z"/>
<path fill="#bababa" stroke="#bababa" d="M0.20023179447556463 -3.042055996627906 L0.23384809328710907 -3.077632999947398 L0.23384809328710973 -3.1445783815501316 L0.20023179447556438 -3.1090013782306385 z"/>
<path fill="#bababa" stroke="#bababa" d="M-0.3016106127665617 -3.3088012602095205 L-0.30299401197604786 -3.3240272224693315 L-0.3029940119760478 -3.2570818408665985 L-0.2986461858890913 -3.2092288166214784 L-0.2986461858890913 -3.2761741982242114 z"/>
<path fill="#bababa" stroke="#bababa" d="M-0.2410705669999714 -3.43470368140126 L-0.2669940119760483 -3.396336673325943 L-0.2669940119760481 -3.4632820549286754 L-0.23983611723920617 -3.503476063388531 L-0.23983611723920625 -3.4365306817857983 z"/>
<path fill="#bababa" stroke="#bababa" d="M-0.09525637195625399 -3.5343281535031643 L-0.12377323275526873 -3.5251473933508364 L-0.12377323275526868 -3.592092774953569 L-0.07646339973114993 -3.6073237722538094 L-0.07646339973114989 -3.540378390651077 z"/>
<path fill="#bababa" stroke="#bababa" d="M0.28132924408633847 -3.164373954829063 L0.2926581619369955 -3.209228816621479 L0.2926581619369954 -3.2761741982242114 L0.28078977180773573 -3.2291833906321568 L0.28078977180773584 -3.162238009029424 z"/>
<path fill="#bababa" stroke="#bababa" d="M0.055053297856976206 -3.6098216070133002 L0.07047537577905412 -3.6073237722538094 L0.07047537577905412 -3.540378390651077 L0.022005988023952094 -3.5482287284666194 L0.022005988023952094 -3.615174110069352 z"/>
<path fill="#bababa" stroke="#bababa" d="M-0.07426024574228166 -2.9734284575450514 L-0.0279940119760479 -2.965934953266579 L-0.0279940119760479 -3.0328803348693114 L-0.07646339973114993 -3.040730672684854 L-0.07646339973114993 -2.9737852910821214 z"/>
<path fill="#bababa" stroke="#bababa" d="M0.16129170230966638 -3.502095073112634 L0.11778520880317281 -3.5251473933508364 L0.11778520880317292 -3.592092774953569 L0.1612917023096662 -3.5690404547153665 z"/>
<path fill="#bababa" stroke="#bababa" d="M-0.21691591350406197 -3.5277331111063672 L-0.20621981842766132 -3.539053066708024 L-0.2062198184276614 -3.472107685105291 L-0.23983611723920634 -3.4365306817857983 L-0.23983611723920625 -3.5034760633885313 z"/>
<path fill="#bababa" stroke="#bababa" d="M0.0704753757790541 -2.9737852910821214 L0.11778520880317285 -2.9890162883823623 L0.11778520880317285 -3.055961669985095 L0.0704753757790541 -3.0407306726848544 z"/>
<path fill="#bababa" stroke="#bababa" d="M-0.1526060190862982 -3.509870073339667 L-0.16727972626176207 -3.502095073112634 L-0.1672797262617623 -3.5690404547153665 L-0.12377323275526868 -3.592092774953569 L-0.12377323275526865 -3.525147393350836 z"/>
<path fill="#bababa" stroke="#bababa" d="M-0.28677779575983176 -3.3519256727037736 L-0.2986461858890915 -3.3049348651117185 L-0.2986461858890914 -3.3718802467144515 L-0.2867777957598317 -3.418871054306506 z"/>
<path fill="#bababa" stroke="#bababa" d="M0.2926581619369955 -0.2848773349752579 L0.29700598802395206 -0.33273035922037786 L0.29700598802395206 -0.3996757408231106 L0.2926581619369955 -0.3518227165779906 z"/>
<path fill="#bababa" stroke="#bababa" d="M-0.26575956221528224 -0.1916485263764951 L-0.23983611723920564 -0.15328151830117803 L-0.23983611723920564 -0.22022689990391067 L-0.26699401197604783 -0.2604209083637667 L-0.26699401197604783 -0.19347552676103405 z"/>
<path fill="#bababa" stroke="#bababa" d="M0.26100598802395203 -0.193475526761034 L0.2807897718077358 -0.23788652738320315 L0.28078977180773584 -0.3048319089859359 L0.26100598802395203 -0.2604209083637667 z"/>
<path fill="#bababa" stroke="#bababa" d="M0.1612917023096663 -0.08771712697434325 L0.20023179447556488 -0.11770451498168538 L0.20023179447556502 -0.184649896584418 L0.16129170230966627 -0.15466250857707606 z"/>
<path fill="#bababa" stroke="#bababa" d="M0.2610059880239522 -0.5389305732824543 L0.26100598802395214 -0.4719851916797218 L0.23384809328711012 -0.5121792001395777 L0.23384809328711004 -0.5791245817423105 z"/>
<path fill="#bababa" stroke="#bababa" d="M-0.2988438143475894 -0.3784082459998106 L-0.3029940119760479 -0.33273035922037786 L-0.3029940119760479 -0.3996757408231106 L-0.29864618588909136 -0.4475287650682306 L-0.29864618588909136 -0.3805833834654978 z"/>
<path fill="#bababa" stroke="#bababa" d="M0.03742806594603001 -0.11102668798258132 L0.022005988023952094 -0.1085288532230905 L0.022005988023952094 -0.04158347162035772 L0.07047537577905412 -0.0494338094359003 L0.07047537577905412 -0.11637919103863308 z"/>
<path fill="#bababa" stroke="#bababa" d="M-0.22914002216280507 -0.20890694430225387 L-0.23983611723920564 -0.22022689990391078 L-0.23983611723920562 -0.153281518301178 L-0.2062198184276607 -0.1177045149816852 L-0.20621981842766066 -0.18464989658441786 z"/>
<path fill="#bababa" stroke="#bababa" d="M-0.16727972626176216 -0.5777435914664127 L-0.2062198184276608 -0.547756203459071 L-0.2062198184276608 -0.6147015850618034 L-0.1672797262617623 -0.6446889730691455 z"/>
<path fill="#bababa" stroke="#bababa" d="M-0.012084921066956996 -0.1085288532230904 L-0.0279940119760479 -0.1085288532230904 L-0.0279940119760479 -0.04158347162035769 L0.022005988023952094 -0.04158347162035769 L0.022005988023952094 -0.1085288532230904 z"/>
<path fill="#bababa" stroke="#bababa" d="M0.2338480932871101 -0.5121792001395779 L0.20023179447556516 -0.5477562034590706 L0.20023179447556508 -0.6147015850618034 L0.23384809328711015 -0.5791245817423104 z"/>
<path fill="#bababa" stroke="#bababa" d="M-0.15343675105515062 -0.14732767941037528 L-0.16727972626176213 -0.15466250857707592 L-0.16727972626176213 -0.0877171269743433 L-0.12377323275526862 -0.0646648067361412 L-0.12377323275526864 -0.1316101883388738 z"/>
<path fill="#bababa" stroke="#bababa" d="M0.11778520880317286 -0.6007959117046148 L0.07047537577905413 -0.6160269090048557 L0.07047537577905406 -0.6829722906075882 L0.11778520880317285 -0.6677412933073477 z"/>
<path fill="#bababa" stroke="#bababa" d="M-0.2948698799388723 -0.3368710959805186 L-0.2986461858890913 -0.35182271657799064 L-0.2986461858890913 -0.2848773349752579 L-0.28677779575983164 -0.23788652738320312 L-0.2867777957598316 -0.3048319089859358 z"/>
<path fill="#bababa" stroke="#bababa" d="M0.11778520880317286 -0.06466480673614108 L0.1612917023096664 -0.08771712697434324 L0.16129170230966633 -0.154662508577076 L0.11778520880317286 -0.1316101883388737 z"/>
<path fill="#bababa" stroke="#bababa" d="M-0.2732888522708882 -0.5247998003572188 L-0.266994011976048 -0.5389305732824544 L-0.266994011976048 -0.47198519167972175 L-0.2867777957598317 -0.4275741910575526 L-0.28677779575983176 -0.4945195726602853 z"/>
<path fill="#bababa" stroke="#bababa" d="M0.2888818559867766 -0.46248038566570254 L0.29265816193699556 -0.4475287650682305 L0.29265816193699556 -0.3805833834654978 L0.2807897718077359 -0.42757419105755257 L0.2807897718077359 -0.4945195726602853 z"/>
<path fill="#bababa" stroke="#bababa" d="M-0.10872010406577634 -0.12676396192516087 L-0.1237732327552687 -0.13161018833887372 L-0.12377323275526864 -0.06466480673614111 L-0.07646339973114996 -0.04943380943590028 L-0.07646339973114992 -0.11637919103863305 z"/>
<path fill="#bababa" stroke="#bababa" d="M0.006096897114861188 -0.6908226284231309 L0.022005988023952094 -0.6908226284231309 L0.022005988023952094 -0.6238772468203982 L-0.0279940119760479 -0.6238772468203982 L-0.0279940119760479 -0.6908226284231309 z"/>
<path fill="#bababa" stroke="#bababa" d="M-0.2858785328605687 -0.23586784553674087 L-0.26699401197604783 -0.19347552676103405 L-0.26699401197604783 -0.26042090836376675 L-0.28677779575983164 -0.3048319089859358 L-0.28677779575983164 -0.23788652738320315 z"/>
<path fill="#bababa" stroke="#bababa" d="M0.2002317944755649 -0.6147015850618034 L0.20023179447556488 -0.5477562034590708 L0.16129170230966633 -0.5777435914664127 L0.16129170230966636 -0.6446889730691454 z"/>
<path fill="#bababa" stroke="#bababa" d="M0.24248924161246876 -0.23301590259568308 L0.2338480932871099 -0.22022689990391062 L0.23384809328710987 -0.15328151830117798 L0.261005988023952 -0.19347552676103402 L0.26100598802395203 -0.26042090836376675 z"/>
<path fill="#bababa" stroke="#bababa" d="M-0.043416089898125815 -0.6883247936636401 L-0.0279940119760479 -0.6908226284231309 L-0.0279940119760479 -0.6238772468203984 L-0.07646339973114993 -0.6160269090048557 L-0.07646339973114993 -0.6829722906075884 z"/>
<path fill="#bababa" stroke="#bababa" d="M0.2807897718077359 -0.42757419105755257 L0.26100598802395214 -0.47198519167972175 L0.2610059880239521 -0.5389305732824544 L0.28078977180773596 -0.4945195726602853 z"/>
<path fill="#bababa" stroke="#bababa" d="M-0.20621981842766077 -0.11770451498168528 L-0.1672797262617621 -0.08771712697434325 L-0.16727972626176216 -0.15466250857707592 L-0.20621981842766082 -0.18464989658441797 z"/>
<path fill="#bababa" stroke="#bababa" d="M0.29680835956545404 -0.3349054966860652 L0.29265816193699556 -0.38058338346549786 L0.29265816193699556 -0.4475287650682306 L0.29700598802395206 -0.3996757408231106 L0.29700598802395206 -0.3327303592203779 z"/>
<path fill="#bababa" stroke="#bababa" d="M0.2002317944755649 -0.1177045149816852 L0.23384809328710982 -0.153281518301178 L0.23384809328710984 -0.22022689990391078 L0.20023179447556483 -0.18464989658441786 z"/>
<path fill="#bababa" stroke="#bababa" d="M-0.3016106127665617 -0.3844497785632997 L-0.30299401197604786 -0.3996757408231106 L-0.30299401197604786 -0.33273035922037786 L-0.29864618588909136 -0.28487733497525786 L-0.29864618588909136 -0.35182271657799064 z"/>
<path fill="#bababa" stroke="#bababa" d="M-0.24107056699997145 -0.5103521997550388 L-0.266994011976048 -0.4719851916797216 L-0.26699401197604794 -0.5389305732824544 L-0.23983611723920598 -0.5791245817423104 L-0.23983611723920586 -0.5121792001395779 z"/>
<path fill="#bababa" stroke="#bababa" d="M-0.09525637195625389 -0.6099766718569432 L-0.12377323275526868 -0.6007959117046149 L-0.12377323275526869 -0.6677412933073477 L-0.07646339973114992 -0.6829722906075884 L-0.0764633997311499 -0.6160269090048557 z"/>
<path fill="#bababa" stroke="#bababa" d="M0.2813292440863385 -0.240022473182842 L0.29265816193699556 -0.2848773349752579 L0.2926581619369955 -0.3518227165779906 L0.28078977180773584 -0.3048319089859359 L0.28078977180773584 -0.23788652738320315 z"/>
<path fill="#bababa" stroke="#bababa" d="M0.055053297856976206 -0.6854701253670791 L0.07047537577905412 -0.6829722906075882 L0.07047537577905412 -0.6160269090048557 L0.022005988023952094 -0.6238772468203982 L0.022005988023952094 -0.6908226284231309 z"/>
<path fill="#bababa" stroke="#bababa" d="M-0.07426024574228166 -0.049076975898830255 L-0.0279940119760479 -0.04158347162035779 L-0.0279940119760479 -0.10852885322309044 L-0.07646339973114993 -0.11637919103863302 L-0.07646339973114993 -0.049433809435900374 z"/>
<path fill="#bababa" stroke="#bababa" d="M0.16129170230966633 -0.5777435914664127 L0.11778520880317282 -0.6007959117046149 L0.11778520880317292 -0.6677412933073477 L0.1612917023096664 -0.6446889730691455 z"/>
<path fill="#bababa" stroke="#bababa" d="M-0.21691591350406159 -0.6033816294601465 L-0.206219818427661 -0.6147015850618032 L-0.20621981842766085 -0.5477562034590706 L-0.23983611723920592 -0.5121792001395777 L-0.23983611723920592 -0.5791245817423104 z"/>
<path fill="#bababa" stroke="#bababa" d="M0.07047537577905415 -0.049433809435900256 L0.11778520880317289 -0.06466480673614099 L0.11778520880317284 -0.13161018833887378 L0.07047537577905409 -0.11637919103863305 z"/>
<path fill="#bababa" stroke="#bababa" d="M-0.152606019086298 -0.5855185916934458 L-0.16727972626176207 -0.5777435914664127 L-0.16727972626176218 -0.6446889730691454 L-0.12377323275526872 -0.6677412933073477 L-0.12377323275526864 -0.6007959117046149 z"/>
<path fill="#bababa" stroke="#bababa" d="M-0.28677779575983164 -0.4275741910575526 L-0.2986461858890914 -0.3805833834654978 L-0.2986461858890914 -0.4475287650682305 L-0.28677779575983164 -0.49451957266028534 z"/>
<path fill="#bababa" stroke="#bababa" d="M0.48814605958949964 0.5116462979170312 L-0.8125 0.5116462979170312 L-0.8125 1.0624999999999998 L-0.8154940119760479 1.0624999999999998 L-0.8154940119760479 -4.786202963292442 L0.809505988023952 -4.786202963292442 L0.809505988023952 0.5116462979170312 z M-0.2291400221628051 -3.133258425948475 L-0.2062198184276608 -3.109001378230639 L-0.16727972626176218 -3.079013990223297 L-0.12377323275526868 -3.0559616699850944 L-0.07646339973114993 -3.0407306726848535 L-0.0279940119760479 -3.0328803348693114 L0.022005988023952094 -3.0328803348693114 L0.07047537577905413 -3.0407306726848535 L0.11778520880317286 -3.0559616699850944 L0.16129170230966636 -3.079013990223297 L0.200231794475565 -3.109001378230639 L0.23384809328710998 -3.1445783815501316 L0.2610059880239521 -3.1847723900099876 L0.28078977180773584 -3.2291833906321563 L0.29265816193699556 -3.2761741982242114 L0.29700598802395206 -3.3240272224693315 L0.29265816193699556 -3.3718802467144515 L0.28078977180773584 -3.418871054306506 L0.2610059880239521 -3.4632820549286754 L0.23384809328710998 -3.5034760633885313 L0.200231794475565 -3.539053066708024 L0.16129170230966636 -3.569040454715366 L0.11778520880317286 -3.592092774953568 L0.07047537577905413 -3.607323772253809 L0.022005988023952094 -3.615174110069352 L-0.0279940119760479 -3.615174110069352 L-0.07646339973114993 -3.607323772253809 L-0.12377323275526868 -3.592092774953568 L-0.16727972626176218 -3.569040454715366 L-0.2062198184276608 -3.539053066708024 L-0.23983611723920578 -3.5034760633885313 L-0.2669940119760479 -3.4632820549286754 L-0.28677779575983164 -3.418871054306506 L-0.29864618588909136 -3.3718802467144515 L-0.30299401197604786 -3.3240272224693315 L-0.29864618588909136 -3.2761741982242114 L-0.28677779575983164 -3.2291833906321563 L-0.2669940119760479 -3.1847723900099876 L-0.23983611723920578 -3.1445783815501316 z M-0.30299401197604786 -0.3996757408231106 L-0.29864618588909136 -0.3518227165779906 L-0.28677779575983164 -0.3048319089859359 L-0.2669940119760479 -0.2604209083637667 L-0.23983611723920578 -0.22022689990391067 L-0.2062198184276608 -0.18464989658441786 L-0.16727972626176218 -0.15466250857707584 L-0.12377323275526868 -0.13161018833887364 L-0.07646339973114993 -0.11637919103863294 L-0.0279940119760479 -0.10852885322309035 L0.022005988023952094 -0.10852885322309035 L0.07047537577905413 -0.11637919103863294 L0.11778520880317286 -0.13161018833887364 L0.16129170230966636 -0.15466250857707584 L0.200231794475565 -0.18464989658441786 L0.23384809328710998 -0.22022689990391067 L0.2610059880239521 -0.2604209083637667 L0.28078977180773584 -0.3048319089859359 L0.29265816193699556 -0.3518227165779906 L0.29700598802395206 -0.3996757408231106 L0.29265816193699556 -0.4475287650682306 L0.28078977180773584 -0.4945195726602853 L0.2610059880239521 -0.5389305732824544 L0.23384809328710998 -0.5791245817423105 L0.200231794475565 -0.6147015850618033 L0.16129170230966636 -0.6446889730691453 L0.11778520880317286 -0.6677412933073475 L0.07047537577905413 -0.6829722906075881 L0.022005988023952094 -0.6908226284231308 L-0.0279940119760479 -0.6908226284231308 L-0.07646339973114993 -0.6829722906075881 L-0.12377323275526868 -0.6677412933073475 L-0.16727972626176218 -0.6446889730691453 L-0.2062198184276608 -0.6147015850618033 L-0.23983611723920578 -0.5791245817423105 L-0.2669940119760479 -0.5389305732824544 L-0.28677779575983164 -0.4945195726602853 L-0.29864618588909136 -0.4475287650682306 z M-0.5115384615384617 0.22208796845073675 L-0.5115384615384629 -1.3245327090261974 L-0.811538461538463 -1.3245327090261974 L-0.8115384615384614 0.5116462979170312 L-0.5115384615384615 0.5116462979170312 z"/>
<path fill="#bababa" stroke="#bababa" d="M0.641015182645603 0.11177106598984773 L-0.8125 0.11177106598984773 L-0.8125 0.5116462979170312 L0.809505988023952 0.5116462979170312 L0.809505988023952 0.11177106598984773 z"/>
<path fill="#bababa" stroke="#bababa" d="M-0.8154940119760479 0.6626247680728163 L-0.8154940119760479 -4.7192575816897095 L-0.8154940119760479 -4.786202963292442 L-0.8154940119760479 1.0625 z"/>
<path fill="#bababa" stroke="#bababa" d="M0.809505988023952 -4.7192575816897095 L0.809505988023952 -4.7862029632924425 L-0.8154940119760479 -4.7862029632924425 L-0.8154940119760479 -4.7192575816897095 z"/>
<path fill="#bababa" stroke="#bababa" d="M-0.22137052797283596 0.11177106598984773 L0.809505988023952 0.11177106598984773 L0.809505988023952 -4.719257581689709 L-0.8154940119760479 -4.719257581689709 L-0.8154940119760479 0.6626247680728163 L-0.8125 0.6626247680728163 L-0.8125 0.11177106598984773 z M-0.07426024574228167 -2.973428457545051 L-0.07646339973114993 -2.9737852910821214 L-0.12377323275526868 -2.9890162883823614 L-0.16727972626176218 -3.012068608620564 L-0.2062198184276608 -3.042055996627906 L-0.23983611723920578 -3.077632999947399 L-0.2669940119760479 -3.117827008407255 L-0.28677779575983164 -3.162238009029424 L-0.29864618588909136 -3.209228816621479 L-0.30299401197604786 -3.257081840866599 L-0.29864618588909136 -3.304934865111719 L-0.28677779575983164 -3.3519256727037736 L-0.2669940119760479 -3.3963366733259424 L-0.23983611723920578 -3.436530681785799 L-0.2062198184276608 -3.472107685105292 L-0.16727972626176218 -3.5020950731126335 L-0.12377323275526868 -3.5251473933508355 L-0.07646339973114993 -3.5403783906510764 L-0.0279940119760479 -3.548228728466619 L0.022005988023952094 -3.548228728466619 L0.07047537577905413 -3.5403783906510764 L0.11778520880317286 -3.5251473933508355 L0.16129170230966636 -3.5020950731126335 L0.200231794475565 -3.472107685105292 L0.23384809328710998 -3.436530681785799 L0.2610059880239521 -3.3963366733259424 L0.28078977180773584 -3.3519256727037736 L0.29265816193699556 -3.304934865111719 L0.29700598802395206 -3.257081840866599 L0.29265816193699556 -3.209228816621479 L0.28078977180773584 -3.162238009029424 L0.2610059880239521 -3.117827008407255 L0.23384809328710998 -3.077632999947399 L0.200231794475565 -3.042055996627906 L0.16129170230966636 -3.012068608620564 L0.11778520880317286 -2.9890162883823614 L0.07047537577905413 -2.9737852910821214 L0.022005988023952094 -2.965934953266579 L-0.0279940119760479 -2.965934953266579 z M-0.16530215837510337 -0.08666929423624306 L-0.16727972626176218 -0.08771712697434314 L-0.2062198184276608 -0.11770451498168516 L-0.23983611723920578 -0.15328151830117795 L-0.2669940119760479 -0.19347552676103402 L-0.28677779575983164 -0.23788652738320312 L-0.29864618588909136 -0.28487733497525786 L-0.30299401197604786 -0.33273035922037786 L-0.29864618588909136 -0.38058338346549786 L-0.28677779575983164 -0.4275741910575526 L-0.2669940119760479 -0.47198519167972175 L-0.23983611723920578 -0.5121792001395777 L-0.2062198184276608 -0.5477562034590706 L-0.16727972626176218 -0.5777435914664125 L-0.12377323275526868 -0.6007959117046148 L-0.07646339973114993 -0.6160269090048555 L-0.0279940119760479 -0.6238772468203981 L0.022005988023952094 -0.6238772468203981 L0.07047537577905413 -0.6160269090048555 L0.11778520880317286 -0.6007959117046148 L0.16129170230966636 -0.5777435914664125 L0.200231794475565 -0.5477562034590706 L0.23384809328710998 -0.5121792001395777 L0.2610059880239521 -0.47198519167972175 L0.28078977180773584 -0.4275741910575526 L0.29265816193699556 -0.38058338346549786 L0.29700598802395206 -0.33273035922037786 L0.29265816193699556 -0.28487733497525786 L0.28078977180773584 -0.23788652738320312 L0.2610059880239521 -0.19347552676103402 L0.23384809328710998 -0.15328151830117795 L0.200231794475565 -0.11770451498168516 L0.16129170230966636 -0.08771712697434314 L0.11778520880317286 -0.06466480673614096 L0.07047537577905413 -0.04943380943590023 L0.022005988023952094 -0.04158347162035765 L-0.0279940119760479 -0.04158347162035765 L-0.07646339973114993 -0.04943380943590023 L-0.12377323275526868 -0.06466480673614096 z M-0.6435545534924859 -1.724407940953381 L-0.5115384615384629 -1.724407940953381 L-0.5115384615384615 0.11177106598984772 L-0.8115384615384614 0.11177106598984772 L-0.811538461538463 -1.724407940953381 z"/>
<path fill="#bababa" stroke="#bababa" d="M-0.8115384615384628 -1.536468863521423 L-0.811538461538463 -1.7244079409533808 L-0.811538461538463 -3.0573253807106595 L-0.8115384615384614 -1.2211463737674308 L-0.8115384615384614 0.1117710659898477 z"/>
<path fill="#bababa" stroke="#bababa" d="M-0.8125 -1.2211463737674308 L-0.8125 -0.6702926716844623 L-0.8125 0.6626247680728163 L-0.8125 0.11177106598984773 z"/>
<path fill="#bababa" stroke="#bababa" d="M-0.5145324735145095 0.0006650310416479297 L-0.5145324735145108 -1.2211463737674308 L-0.8125 -1.2211463737674308 L-0.8125 0.1117710659898477 L-0.5145324735145094 0.1117710659898477 z"/>
<path fill="#bababa" stroke="#bababa" d="M-0.7755109093891184 -3.0573253807106595 L-0.811538461538463 -3.0573253807106595 L-0.811538461538463 -1.7244079409533808 L-0.5145324735145094 -1.7244079409533808 L-0.5145324735145108 -3.0573253807106595 z"/>
<path fill="#bababa" stroke="#bababa" d="M-0.8125 -0.6678256819548566 L-0.8125 -0.6702926716844623 L-0.8145324735145109 -0.6702926716844623 L-0.8145324735145094 0.6626247680728162 L-0.8125 0.6626247680728162 z"/>
<path fill="#bababa" stroke="#bababa" d="M-0.5145324735145103 -2.550709668123982 L-0.5145324735145094 -1.724407940953381 L-0.5145324735145094 -4.719257581689709 L-0.5145324735145108 -4.4961063096805995 L-0.5145324735145108 -3.0573253807106595 z"/>
<path fill="#bababa" stroke="#bababa" d="M-0.5145324735145108 -1.2211463737674308 L-0.5145324735145094 0.11177106598984772 L-0.5145324735145094 0.1117710659898477 z"/>
<path fill="#bababa" stroke="#bababa" d="M-0.7618490780278454 -1.2211463737674308 L-0.8115384615384614 -1.2211463737674308 L-0.811538461538463 -3.057325380710659 L-0.5145324735145108 -3.057325380710659 L-0.5145324735145108 -4.4961063096806 L-0.8145324735145109 -4.4961063096806 L-0.8145324735145109 -0.6702926716844623 L-0.8125 -0.6702926716844623 L-0.8125 -1.2211463737674308 L-0.5145324735145108 -1.2211463737674308 z"/>
<path fill="#bababa" stroke="#bababa" d="M-0.8145324735145109 -0.6702926716844623 L-0.8145324735145109 -4.4961063096806 L-0.8145324735145094 -4.7192575816897095 L-0.8145324735145094 0.6626247680728163 z"/>
<path fill="#bababa" stroke="#bababa" d="M-0.5145324735145094 -4.7192575816897095 L-0.8145324735145094 -4.7192575816897095 L-0.8145324735145109 -4.4961063096806 L-0.5145324735145108 -4.4961063096806 z"/>
<path fill="#bababa" stroke="#bababa" d="M-0.6276492969133196 0.11177106598984769 L-0.8115384615384614 0.11177106598984769 L-0.8115384615384614 -1.2211463737674308 L-0.5145324735145108 -1.2211463737674308 L-0.5145324735145094 0.11177106598984769 z"/>
<path fill="#bababa" stroke="#bababa" d="M-0.5353041780485696 0.11177106598984769 L-0.5145324735145094 0.11177106598984769 L-0.5145324735145094 0.11177106598984772 L-0.8125 0.11177106598984772 L-0.8125 0.6626247680728162 L-0.8145324735145094 0.6626247680728162 L-0.8145324735145094 -4.7192575816897095 L-0.5145324735145094 -4.7192575816897095 L-0.5145324735145094 -1.7244079409533808 L-0.811538461538463 -1.7244079409533808 L-0.8115384615384614 0.11177106598984769 z"/>
<path fill="#bababa" stroke="#bababa" d="M0.2956521739130435 -0.24563844023996304 L0.3 -0.21090101522842633 L0.3 0.001078680203045684 L0.29565217391304344 -0.033658744808490994 z"/>
<path fill="#bababa" stroke="#bababa" d="M-0.26276555023923465 -0.3133150144732978 L-0.23684210526315794 -0.34116635902168885 L-0.2368421052631584 -0.12918666359021688 L-0.26400000000000007 -0.10000906453952131 L-0.2640000000000002 -0.3119887599709933 z"/>
<path fill="#bababa" stroke="#bababa" d="M0.26400000000000007 -0.31198875997099335 L0.28378378378378394 -0.27974996570174226 L0.28378378378378394 -0.0677702702702703 L0.2640000000000001 -0.10000906453952141 z"/>
<path fill="#bababa" stroke="#bababa" d="M0.16428571428571473 -0.38876080395115936 L0.20322580645161373 -0.3669923857868017 L0.20322580645161353 -0.15501269035533016 L0.16428571428571517 -0.17678110851968715 z"/>
<path fill="#bababa" stroke="#bababa" d="M-0.33549078615313777 0.5116462979170312 L0.8125 0.5116462979170312 L0.8125 1.0624999999999998 L-0.8125 1.0624999999999998 L-0.8125 0.5116462979170312 z"/>
<path fill="#bababa" stroke="#bababa" d="M0.26311825017088164 0.10311374959011599 L0.26399999999999946 0.10216642494561277 L0.26399999999999946 -0.10981327048585943 L0.2368421052631577 -0.08063567143516362 L0.2368421052631578 0.13134402399630835 z"/>
<path fill="#bababa" stroke="#bababa" d="M-0.29584980237154146 -0.1777425640810504 L-0.29999999999999993 -0.21090101522842633 L-0.29999999999999993 0.001078680203045684 L-0.2956521739130434 0.03581610521458237 L-0.2956521739130434 -0.17616359021688968 z"/>
<path fill="#bababa" stroke="#bababa" d="M0.040422077922077915 -0.20845718478926062 L0.024999999999999998 -0.2102704107873619 L0.024999999999999998 -0.4222501062188346 L0.07346938775510203 -0.4165513959390877 L0.07346938775510203 -0.20457170050761503 z"/>
<path fill="#bababa" stroke="#bababa" d="M-0.22614601018675753 -0.13740403574275273 L-0.23684210526315858 -0.12918666359021694 L-0.23684210526315794 -0.34116635902168885 L-0.20322580645161345 -0.36699238578680193 L-0.20322580645161326 -0.15501269035532994 z"/>
<path fill="#bababa" stroke="#bababa" d="M-0.16428571428571384 -0.03304122650569307 L-0.20322580645161203 -0.05480964467005086 L-0.20322580645161217 0.15717005076142113 L-0.16428571428571337 0.1789384689257784 z"/>
<path fill="#bababa" stroke="#bababa" d="M-0.00909090909090909 -0.21027041078736244 L-0.024999999999999998 -0.21027041078736244 L-0.024999999999999998 -0.42225010621883396 L0.024999999999999998 -0.42225010621883396 L0.024999999999999998 -0.21027041078736244 z"/>
<path fill="#bababa" stroke="#bababa" d="M0.23684210526315738 -0.08063567143516363 L0.20322580645161253 -0.054809644670050735 L0.20322580645161262 0.15717005076142146 L0.2368421052631575 0.13134402399630854 z"/>
<path fill="#bababa" stroke="#bababa" d="M-0.1504427390791027 -0.18210560121727706 L-0.16428571428571426 -0.17678110851968792 L-0.16428571428571426 -0.38876080395115953 L-0.12077922077922076 -0.40549492385786823 L-0.12077922077922076 -0.19351522842639665 z"/>
<path fill="#bababa" stroke="#bababa" d="M0.12077922077922076 -0.016307106598985502 L0.07346938775510202 -0.00525063451776723 L0.07346938775510202 0.20672906091370535 L0.12077922077922076 0.1956725888324871 z"/>
<path fill="#bababa" stroke="#bababa" d="M-0.29187586796282444 -0.044512412000875294 L-0.29565217391304344 -0.03365874480849097 L-0.2956521739130435 -0.245638440239963 L-0.2837837837837838 -0.2797499657017423 L-0.28378378378378377 -0.06777027027027026 z"/>
<path fill="#bababa" stroke="#bababa" d="M0.12077922077922076 -0.405494923857868 L0.16428571428571426 -0.38876080395115925 L0.16428571428571426 -0.17678110851968779 L0.12077922077922076 -0.19351522842639654 z"/>
<path fill="#bababa" stroke="#bababa" d="M-0.27029484029483986 0.09190862676903272 L-0.26399999999999957 0.10216642494561273 L-0.2639999999999998 -0.10981327048585927 L-0.28378378378378366 -0.14205206475511042 L-0.2837837837837837 0.06992763067636165 z"/>
<path fill="#bababa" stroke="#bababa" d="M0.29187586796282444 0.0466697724069667 L0.2956521739130434 0.035816105214582374 L0.2956521739130434 -0.17616359021688965 L0.28378378378378366 -0.14205206475511042 L0.2837837837837837 0.06992763067636164 z"/>
<path fill="#bababa" stroke="#bababa" d="M-0.10572609208972844 -0.1970331968158749 L-0.12077922077922076 -0.19351522842639635 L-0.12077922077922076 -0.40549492385786845 L-0.07346938775510203 -0.4165513959390867 L-0.07346938775510203 -0.2045717005076146 z"/>
<path fill="#bababa" stroke="#bababa" d="M0.00909090909090909 0.21242777119345221 L0.024999999999999998 0.21242777119345221 L0.024999999999999998 0.00044807576198017653 L-0.024999999999999998 0.00044807576198017653 L-0.024999999999999998 0.21242777119345221 z"/>
<path fill="#bababa" stroke="#bababa" d="M-0.28288452088452104 -0.2812153654412537 L-0.26400000000000007 -0.31198875997099335 L-0.2640000000000001 -0.10000906453952141 L-0.28378378378378394 -0.0677702702702703 L-0.28378378378378394 -0.27974996570174226 z"/>
<path fill="#bababa" stroke="#bababa" d="M0.2019615177449269 0.1578768175849393 L0.2032258064516119 0.15717005076142118 L0.2032258064516123 -0.0548096446700507 L0.16428571428571326 -0.03304122650569368 L0.16428571428571354 0.17893846892577886 z"/>
<path fill="#bababa" stroke="#bababa" d="M0.2454832535885171 -0.11990288207408646 L0.23684210526315827 -0.12918666359021688 L0.23684210526315813 -0.3411663590216887 L0.26400000000000007 -0.3119887599709933 L0.26400000000000023 -0.10000906453952149 z"/>
<path fill="#bababa" stroke="#bababa" d="M-0.040422077922077915 0.21061454519535097 L-0.024999999999999998 0.21242777119345224 L-0.024999999999999998 0.00044807576197996565 L-0.07346938775510203 -0.005250634517766898 L-0.07346938775510203 0.20672906091370538 z"/>
<path fill="#bababa" stroke="#bababa" d="M0.28378378378378344 -0.14205206475511037 L0.2639999999999999 -0.10981327048585927 L0.26399999999999973 0.1021664249456127 L0.28378378378378366 0.06992763067636167 z"/>
<path fill="#bababa" stroke="#bababa" d="M-0.20322580645161373 -0.3669923857868022 L-0.16428571428571467 -0.38876080395115925 L-0.1642857142857151 -0.17678110851968737 L-0.20322580645161345 -0.1550126903553297 z"/>
<path fill="#bababa" stroke="#bababa" d="M0.2998023715415019 -0.2093220413642656 L0.2956521739130434 -0.17616359021688968 L0.29565217391304344 0.03581610521458237 L0.3 0.0010786802030456853 L0.29999999999999993 -0.2109010152284264 z"/>
<path fill="#bababa" stroke="#bababa" d="M0.20322580645161364 -0.36699238578680216 L0.23684210526315824 -0.3411663590216887 L0.2368421052631588 -0.12918666359021705 L0.20322580645161345 -0.15501269035533002 z"/>
<path fill="#bababa" stroke="#bababa" d="M-0.2986166007905139 -0.009974136846079623 L-0.3 0.001078680203045684 L-0.3 -0.21090101522842633 L-0.2956521739130435 -0.24563844023996304 L-0.29565217391304344 -0.033658744808490994 z"/>
<path fill="#bababa" stroke="#bababa" d="M-0.23807655502392328 -0.08196192593746819 L-0.2639999999999997 -0.10981327048585927 L-0.26399999999999957 0.10216642494561255 L-0.23684210526315752 0.13134402399630812 L-0.23684210526315774 -0.08063567143516387 z"/>
<path fill="#bababa" stroke="#bababa" d="M-0.09226235998020603 -0.00964261731390278 L-0.12077922077922075 -0.016307106598985547 L-0.12077922077922075 0.19567258883248695 L-0.07346938775510203 0.20672906091370521 L-0.07346938775510203 -0.005250634517767276 z"/>
<path fill="#bababa" stroke="#bababa" d="M0.2843232560623865 -0.278199441817116 L0.29565217391304355 -0.24563844023996306 L0.29565217391304355 -0.03365874480849099 L0.2837837837837839 -0.06777027027027027 L0.2837837837837839 -0.27974996570174226 z"/>
<path fill="#bababa" stroke="#bababa" d="M0.05804730983302411 0.20854228691180665 L0.07346938775510203 0.20672906091370538 L0.07346938775510203 -0.005250634517766898 L0.024999999999999998 0.00044807576197996565 L0.024999999999999998 0.21242777119345224 z"/>
<path fill="#bababa" stroke="#bababa" d="M-0.07126623376623374 -0.4168104282245303 L-0.024999999999999998 -0.42225010621883413 L-0.024999999999999998 -0.21027041078736183 L-0.07346938775510203 -0.20457170050761497 L-0.07346938775510203 -0.41655139593908724 z"/>
<path fill="#bababa" stroke="#bababa" d="M0.16428571428571426 -0.03304122650569363 L0.12077922077922075 -0.01630710659898489 L0.12077922077922075 0.19567258883248725 L0.16428571428571426 0.1789384689257785 z"/>
<path fill="#bababa" stroke="#bababa" d="M-0.21392190152801324 0.14895267860888525 L-0.20322580645161223 0.15717005076142104 L-0.20322580645161265 -0.05480964467005055 L-0.23684210526315733 -0.08063567143516395 L-0.23684210526315752 0.13134402399630804 z"/>
<path fill="#bababa" stroke="#bababa" d="M0.07346938775510202 -0.41655139593908697 L0.12077922077922076 -0.40549492385786867 L0.12077922077922076 -0.1935152284263969 L0.07346938775510202 -0.20457170050761517 z"/>
<path fill="#bababa" stroke="#bababa" d="M-0.1496120071102502 -0.02739720522152679 L-0.16428571428571423 -0.03304122650569437 L-0.16428571428571423 0.17893846892577778 L-0.12077922077922076 0.1956725888324865 L-0.12077922077922076 -0.01630710659898564 z"/>
<path fill="#bababa" stroke="#bababa" d="M-0.2837837837837836 -0.1420520647551104 L-0.29565217391304344 -0.17616359021688965 L-0.29565217391304327 0.03581610521458237 L-0.2837837837837836 0.06992763067636161 z"/>
<path fill="#bababa" stroke="#bababa" d="M0.29565217391304355 -2.3684810798338716 L0.3 -2.3337436548223343 L0.3000000000000001 -2.1217639593908624 L0.29565217391304355 -2.1565013844023992 z"/>
<path fill="#bababa" stroke="#bababa" d="M-0.26276555023923454 -2.436157654067206 L-0.23684210526315833 -2.464008998615597 L-0.23684210526315821 -2.252029303184125 L-0.26400000000000046 -2.2228517041334297 L-0.26400000000000057 -2.4348313995649016 z"/>
<path fill="#bababa" stroke="#bababa" d="M0.2640000000000004 -2.4348313995649016 L0.283783783783784 -2.4025926052956503 L0.28378378378378416 -2.1906129098641784 L0.2640000000000001 -2.2228517041334297 z"/>
<path fill="#bababa" stroke="#bababa" d="M0.16428571428571492 -2.5116034435450674 L0.20322580645161326 -2.4898350253807107 L0.20322580645161314 -2.2778553299492383 L0.1642857142857148 -2.299623748113595 z"/>
<path fill="#bababa" stroke="#bababa" d="M0.26311825017088125 -2.0197288900037926 L0.26399999999999924 -2.0206762146482955 L0.26399999999999946 -2.2326559100797674 L0.23684210526315735 -2.2034783110290714 L0.23684210526315747 -1.9914986155976004 z"/>
<path fill="#bababa" stroke="#bababa" d="M-0.29584980237154146 -2.3005852036749586 L-0.2999999999999999 -2.3337436548223343 L-0.2999999999999999 -2.1217639593908624 L-0.2956521739130433 -2.087026534379326 L-0.29565217391304344 -2.299006229810798 z"/>
<path fill="#bababa" stroke="#bababa" d="M0.040422077922077915 -2.3312998243831684 L0.024999999999999998 -2.33311305038127 L0.024999999999999998 -2.545092745812742 L0.07346938775510203 -2.5393940355329954 L0.07346938775510203 -2.327414340101523 z"/>
<path fill="#bababa" stroke="#bababa" d="M-0.22614601018675778 -2.260246675336661 L-0.23684210526315816 -2.252029303184125 L-0.23684210526315827 -2.464008998615597 L-0.2032258064516134 -2.48983502538071 L-0.2032258064516133 -2.277855329949238 z"/>
<path fill="#bababa" stroke="#bababa" d="M-0.16428571428571356 -2.1558838660996016 L-0.20322580645161256 -2.1776522842639596 L-0.2032258064516116 -1.9656725888324877 L-0.16428571428571323 -1.9439041706681308 z"/>
<path fill="#bababa" stroke="#bababa" d="M-0.00909090909090909 -2.3331130503812707 L-0.024999999999999998 -2.3331130503812707 L-0.024999999999999998 -2.5450927458127426 L0.024999999999999998 -2.5450927458127426 L0.024999999999999998 -2.3331130503812707 z"/>
<path fill="#bababa" stroke="#bababa" d="M0.23684210526315738 -2.2034783110290723 L0.20322580645161267 -2.177652284263959 L0.20322580645161287 -1.965672588832487 L0.23684210526315716 -1.9914986155976 z"/>
<path fill="#bababa" stroke="#bababa" d="M-0.1504427390791027 -2.3049482408111848 L-0.16428571428571426 -2.2996237481135955 L-0.16428571428571426 -2.511603443545068 L-0.12077922077922075 -2.5283375634517764 L-0.12077922077922075 -2.3163578680203045 z"/>
<path fill="#bababa" stroke="#bababa" d="M0.12077922077922075 -2.1391497461928934 L0.07346938775510203 -2.1280932741116754 L0.07346938775510203 -1.916113578680203 L0.12077922077922075 -1.9271700507614213 z"/>
<path fill="#bababa" stroke="#bababa" d="M-0.29187586796282466 -2.1673550515947837 L-0.29565217391304366 -2.1565013844023992 L-0.2956521739130437 -2.3684810798338716 L-0.2837837837837838 -2.4025926052956503 L-0.283783783783784 -2.1906129098641784 z"/>
<path fill="#bababa" stroke="#bababa" d="M0.12077922077922075 -2.5283375634517764 L0.16428571428571426 -2.511603443545068 L0.16428571428571426 -2.2996237481135955 L0.12077922077922075 -2.3163578680203045 z"/>
<path fill="#bababa" stroke="#bababa" d="M-0.27029484029483986 -2.0309340128248756 L-0.2639999999999998 -2.0206762146482955 L-0.2639999999999998 -2.2326559100797674 L-0.28378378378378344 -2.2648947043490186 L-0.2837837837837832 -2.0529150089175463 z"/>
<path fill="#bababa" stroke="#bababa" d="M0.2918758679628244 -2.0761728671869415 L0.29565217391304316 -2.087026534379326 L0.2956521739130432 -2.299006229810798 L0.28378378378378366 -2.2648947043490186 L0.28378378378378355 -2.0529150089175467 z"/>
<path fill="#bababa" stroke="#bababa" d="M-0.10572609208972844 -2.3198758364097833 L-0.12077922077922076 -2.3163578680203045 L-0.12077922077922076 -2.5283375634517773 L-0.07346938775510202 -2.5393940355329954 L-0.07346938775510202 -2.327414340101523 z"/>
<path fill="#bababa" stroke="#bababa" d="M0.00909090909090909 -1.9104148684004563 L0.024999999999999998 -1.9104148684004563 L0.024999999999999998 -2.122394563831928 L-0.024999999999999998 -2.122394563831928 L-0.024999999999999998 -1.9104148684004563 z"/>
<path fill="#bababa" stroke="#bababa" d="M-0.28288452088452115 -2.4040580050351616 L-0.2640000000000004 -2.434831399564902 L-0.2640000000000002 -2.2228517041334297 L-0.2837837837837842 -2.1906129098641784 L-0.283783783783784 -2.4025926052956508 z"/>
<path fill="#bababa" stroke="#bababa" d="M0.2019615177449271 -1.9649658220089694 L0.20322580645161153 -1.9656725888324869 L0.20322580645161195 -2.1776522842639587 L0.1642857142857129 -2.1558838660996016 L0.16428571428571317 -1.9439041706681293 z"/>
<path fill="#bababa" stroke="#bababa" d="M0.24548325358851714 -2.242745521667995 L0.23684210526315821 -2.252029303184125 L0.23684210526315833 -2.464008998615597 L0.26400000000000057 -2.4348313995649016 L0.26400000000000046 -2.2228517041334297 z"/>
<path fill="#bababa" stroke="#bababa" d="M-0.040422077922077915 -1.9122280943985581 L-0.024999999999999998 -1.910414868400457 L-0.024999999999999998 -2.122394563831929 L-0.07346938775510203 -2.128093274111676 L-0.07346938775510203 -1.9161135786802037 z"/>
<path fill="#bababa" stroke="#bababa" d="M0.2837837837837835 -2.2648947043490186 L0.2639999999999999 -2.2326559100797674 L0.26399999999999973 -2.0206762146482955 L0.2837837837837833 -2.0529150089175467 z"/>
<path fill="#bababa" stroke="#bababa" d="M-0.2032258064516141 -2.48983502538071 L-0.16428571428571503 -2.5116034435450674 L-0.16428571428571545 -2.2996237481135955 L-0.2032258064516138 -2.277855329949238 z"/>
<path fill="#bababa" stroke="#bababa" d="M0.29980237154150186 -2.3321646809581735 L0.2956521739130434 -2.299006229810798 L0.2956521739130434 -2.0870265343793255 L0.2999999999999999 -2.1217639593908624 L0.29999999999999993 -2.3337436548223343 z"/>
<path fill="#bababa" stroke="#bababa" d="M0.20322580645161314 -2.48983502538071 L0.2368421052631585 -2.4640089986155975 L0.23684210526315852 -2.2520293031841248 L0.20322580645161392 -2.2778553299492383 z"/>
<path fill="#bababa" stroke="#bababa" d="M-0.29861660079051394 -2.132816776439988 L-0.3000000000000001 -2.1217639593908624 L-0.3 -2.3337436548223343 L-0.29565217391304355 -2.3684810798338716 L-0.29565217391304355 -2.1565013844023992 z"/>
<path fill="#bababa" stroke="#bababa" d="M-0.23807655502392258 -2.204804565531376 L-0.26399999999999946 -2.2326559100797674 L-0.26399999999999935 -2.020676214648296 L-0.23684210526315733 -1.9914986155976 L-0.2368421052631578 -2.2034783110290723 z"/>
<path fill="#bababa" stroke="#bababa" d="M-0.09226235998020602 -2.132485256907811 L-0.12077922077922076 -2.139149746192894 L-0.12077922077922076 -1.9271700507614218 L-0.07346938775510203 -1.9161135786802035 L-0.07346938775510203 -2.1280932741116754 z"/>
<path fill="#bababa" stroke="#bababa" d="M0.28432325606238673 -2.401042081411024 L0.29565217391304366 -2.368481079833871 L0.2956521739130436 -2.1565013844023992 L0.283783783783784 -2.190612909864179 L0.2837837837837838 -2.4025926052956508 z"/>
<path fill="#bababa" stroke="#bababa" d="M0.05804730983302411 -1.9143003526821025 L0.07346938775510203 -1.9161135786802037 L0.07346938775510203 -2.128093274111676 L0.024999999999999998 -2.122394563831929 L0.024999999999999998 -1.910414868400457 z"/>
<path fill="#bababa" stroke="#bababa" d="M-0.07126623376623376 -2.5396530678184392 L-0.024999999999999998 -2.545092745812743 L-0.024999999999999998 -2.3331130503812703 L-0.07346938775510203 -2.3274143401015235 L-0.07346938775510203 -2.5393940355329963 z"/>
<path fill="#bababa" stroke="#bababa" d="M0.16428571428571426 -2.1558838660996025 L0.12077922077922076 -2.139149746192894 L0.12077922077922076 -1.9271700507614213 L0.16428571428571426 -1.94390417066813 z"/>
<path fill="#bababa" stroke="#bababa" d="M-0.21392190152801316 -1.9738899609850227 L-0.203225806451612 -1.965672588832487 L-0.2032258064516128 -2.177652284263959 L-0.2368421052631574 -2.2034783110290723 L-0.23684210526315735 -1.9914986155976 z"/>
<path fill="#bababa" stroke="#bababa" d="M0.07346938775510203 -2.539394035532996 L0.12077922077922075 -2.5283375634517773 L0.12077922077922075 -2.316357868020305 L0.07346938775510203 -2.327414340101523 z"/>
<path fill="#bababa" stroke="#bababa" d="M-0.1496120071102502 -2.150239844815435 L-0.16428571428571426 -2.1558838660996025 L-0.16428571428571426 -1.9439041706681306 L-0.12077922077922075 -1.9271700507614218 L-0.12077922077922075 -2.139149746192894 z"/>
<path fill="#bababa" stroke="#bababa" d="M-0.2837837837837837 -2.2648947043490186 L-0.2956521739130433 -2.2990062298107983 L-0.2956521739130433 -2.087026534379326 L-0.28378378378378344 -2.0529150089175463 z"/>
<path fill="#bababa" stroke="#bababa" d="M0.8125 1.0625 L0.8125 0.5116462979170313 L0.8125 -3.395164974619289 L0.8125 -3.1831852791878172 z"/>
<path fill="#bababa" stroke="#bababa" d="M-0.8125 -3.1831852791878177 L0.8125 -3.1831852791878177 L0.8125 -3.3951649746192905 L-0.8125 -3.3951649746192905 z"/>
<path fill="#bababa" stroke="#bababa" d="M-0.8125 0.5116462979170313 L-0.8125 1.0625 L-0.8125 -3.1831852791878172 L-0.8125 -3.395164974619289 z"/>
<path fill="#bababa" stroke="#bababa" d="M-0.6275741129675692 0.5116462979170312 L-0.8125 0.5116462979170312 L-0.8125 -3.3951649746192887 L0.8125 -3.3951649746192887 L0.8125 0.5116462979170312 z M-0.024999999999999998 -2.122394563831928 L0.024999999999999998 -2.122394563831928 L0.07346938775510203 -2.128093274111675 L0.12077922077922078 -2.139149746192893 L0.16428571428571428 -2.155883866099602 L0.2032258064516129 -2.1776522842639587 L0.23684210526315788 -2.203478311029072 L0.26399999999999996 -2.2326559100797674 L0.28378378378378377 -2.2648947043490186 L0.29565217391304344 -2.299006229810798 L0.3 -2.3337436548223347 L0.29565217391304344 -2.368481079833871 L0.28378378378378377 -2.4025926052956508 L0.26399999999999996 -2.434831399564902 L0.23684210526315788 -2.464008998615597 L0.2032258064516129 -2.48983502538071 L0.16428571428571428 -2.5116034435450674 L0.12077922077922078 -2.5283375634517764 L0.07346938775510203 -2.5393940355329945 L0.024999999999999998 -2.5450927458127413 L-0.024999999999999998 -2.5450927458127413 L-0.07346938775510203 -2.5393940355329945 L-0.12077922077922078 -2.5283375634517764 L-0.16428571428571428 -2.5116034435450674 L-0.2032258064516129 -2.48983502538071 L-0.23684210526315788 -2.464008998615597 L-0.26399999999999996 -2.434831399564902 L-0.28378378378378377 -2.4025926052956508 L-0.29565217391304344 -2.368481079833871 L-0.3 -2.3337436548223347 L-0.29565217391304344 -2.299006229810798 L-0.28378378378378377 -2.2648947043490186 L-0.26399999999999996 -2.2326559100797674 L-0.23684210526315788 -2.203478311029072 L-0.2032258064516129 -2.1776522842639587 L-0.16428571428571428 -2.155883866099602 L-0.12077922077922078 -2.139149746192893 L-0.07346938775510203 -2.128093274111675 z M-0.26489926289926286 -0.1112786702253707 L-0.26399999999999996 -0.10981327048585929 L-0.23684210526315788 -0.08063567143516379 L-0.2032258064516129 -0.05480964467005074 L-0.16428571428571428 -0.033041226505693494 L-0.12077922077922078 -0.016307106598984763 L-0.07346938775510203 -0.005250634517766489 L-0.024999999999999998 0.00044807576198037407 L0.024999999999999998 0.00044807576198037407 L0.07346938775510203 -0.005250634517766489 L0.12077922077922078 -0.016307106598984763 L0.16428571428571428 -0.033041226505693494 L0.2032258064516129 -0.05480964467005074 L0.23684210526315788 -0.08063567143516379 L0.26399999999999996 -0.10981327048585929 L0.28378378378378377 -0.1420520647551104 L0.29565217391304344 -0.17616359021688968 L0.3 -0.21090101522842636 L0.29565217391304344 -0.24563844023996304 L0.28378378378378377 -0.27974996570174226 L0.26399999999999996 -0.3119887599709934 L0.23684210526315788 -0.3411663590216889 L0.2032258064516129 -0.366992385786802 L0.16428571428571428 -0.3887608039511592 L0.12077922077922078 -0.40549492385786795 L0.07346938775510203 -0.41655139593908624 L0.024999999999999998 -0.4222501062188331 L-0.024999999999999998 -0.4222501062188331 L-0.07346938775510203 -0.41655139593908624 L-0.12077922077922078 -0.40549492385786795 L-0.16428571428571428 -0.3887608039511592 L-0.2032258064516129 -0.366992385786802 L-0.23684210526315788 -0.3411663590216889 L-0.26399999999999996 -0.3119887599709934 L-0.28378378378378377 -0.27974996570174226 L-0.29565217391304344 -0.24563844023996304 L-0.3 -0.21090101522842636 L-0.29565217391304344 -0.17616359021688968 L-0.28378378378378377 -0.1420520647551104 z"/>
<path fill="#bababa" stroke="#bababa" d="M0.7117392159086787 1.0624999999999998 L0.8125 1.0624999999999998 L0.8125 -3.183185279187817 L-0.8125 -3.183185279187817 L-0.8125 1.0624999999999998 z M-0.3 0.001078680203045685 L-0.29565217391304344 -0.033658744808490994 L-0.28378378378378377 -0.06777027027027026 L-0.26399999999999996 -0.10000906453952138 L-0.23684210526315788 -0.12918666359021685 L-0.2032258064516129 -0.15501269035532994 L-0.16428571428571428 -0.17678110851968717 L-0.12077922077922078 -0.19351522842639593 L-0.07346938775510203 -0.20457170050761417 L-0.024999999999999998 -0.21027041078736103 L0.024999999999999998 -0.21027041078736103 L0.07346938775510203 -0.20457170050761417 L0.12077922077922078 -0.19351522842639593 L0.16428571428571428 -0.17678110851968717 L0.2032258064516129 -0.15501269035532994 L0.23684210526315788 -0.12918666359021685 L0.26399999999999996 -0.10000906453952138 L0.28378378378378377 -0.06777027027027026 L0.29565217391304344 -0.033658744808490994 L0.3 0.001078680203045685 L0.29565217391304344 0.03581610521458237 L0.28378378378378377 0.06992763067636162 L0.26399999999999996 0.10216642494561275 L0.23684210526315788 0.13134402399630823 L0.2032258064516129 0.1571700507614213 L0.16428571428571428 0.17893846892577855 L0.12077922077922078 0.19567258883248728 L0.07346938775510203 0.20672906091370555 L0.024999999999999998 0.2124277711934524 L-0.024999999999999998 0.2124277711934524 L-0.07346938775510203 0.20672906091370555 L-0.12077922077922078 0.19567258883248728 L-0.16428571428571428 0.17893846892577855 L-0.2032258064516129 0.1571700507614213 L-0.23684210526315788 0.13134402399630823 L-0.26399999999999996 0.10216642494561275 L-0.28378378378378377 0.06992763067636162 L-0.29565217391304344 0.03581610521458237 z M-0.3 -2.121763959390863 L-0.29565217391304344 -2.1565013844023992 L-0.28378378378378377 -2.1906129098641784 L-0.26399999999999996 -2.2228517041334297 L-0.23684210526315788 -2.252029303184125 L-0.2032258064516129 -2.2778553299492383 L-0.16428571428571428 -2.2996237481135955 L-0.12077922077922078 -2.316357868020304 L-0.07346938775510203 -2.3274143401015226 L-0.024999999999999998 -2.333113050381269 L0.024999999999999998 -2.333113050381269 L0.07346938775510203 -2.3274143401015226 L0.12077922077922078 -2.316357868020304 L0.16428571428571428 -2.2996237481135955 L0.2032258064516129 -2.2778553299492383 L0.23684210526315788 -2.252029303184125 L0.26399999999999996 -2.2228517041334297 L0.28378378378378377 -2.1906129098641784 L0.29565217391304344 -2.1565013844023992 L0.3 -2.121763959390863 L0.29565217391304344 -2.0870265343793255 L0.28378378378378377 -2.0529150089175463 L0.26399999999999996 -2.0206762146482955 L0.23684210526315788 -1.9914986155976002 L0.2032258064516129 -1.9656725888324869 L0.16428571428571428 -1.9439041706681297 L0.12077922077922078 -1.9271700507614211 L0.07346938775510203 -1.9161135786802028 L0.024999999999999998 -1.910414868400456 L-0.024999999999999998 -1.910414868400456 L-0.07346938775510203 -1.9161135786802028 L-0.12077922077922078 -1.9271700507614211 L-0.16428571428571428 -1.9439041706681297 L-0.2032258064516129 -1.9656725888324869 L-0.23684210526315788 -1.9914986155976002 L-0.26399999999999996 -2.0206762146482955 L-0.28378378378378377 -2.0529150089175463 L-0.29565217391304344 -2.0870265343793255 z"/>
<path fill="#bababa" stroke="#bababa" d="M-0.5115384615384617 0.17935224422155321 L-0.5115384615384629 -1.3245327090261974 L-0.5115384615384629 -4.101763959390863 L-0.5115384615384615 -3.395164974619289 L-0.5115384615384615 0.5116462979170312 z"/>
<path fill="#bababa" stroke="#bababa" d="M-0.5178714424695471 -1.3245327090261974 L-0.5115384615384629 -1.3245327090261974 L-0.5115384615384615 0.5116462979170312 L-0.8115384615384614 0.5116462979170312 L-0.811538461538463 -1.3245327090261974 z"/>
<path fill="#bababa" stroke="#bababa" d="M-0.8115384615384614 -3.3951649746192905 L-0.5115384615384615 -3.3951649746192905 L-0.5115384615384629 -4.101763959390863 L-0.811538461538463 -4.101763959390863 z"/>
<path fill="#bababa" stroke="#bababa" d="M-0.8115384615384625 -0.8229119872165522 L-0.8115384615384614 0.5116462979170313 L-0.8115384615384614 -3.395164974619289 L-0.811538461538463 -4.101763959390862 L-0.811538461538463 -1.3245327090261974 z"/>
<path fill="#bababa" stroke="#bababa" d="M-0.5119481358909169 -1.3245327090261974 L-0.811538461538463 -1.3245327090261974 L-0.811538461538463 -4.101763959390862 L-0.5115384615384629 -4.101763959390862 L-0.5115384615384629 -1.3245327090261974 z"/>
<path fill="#bababa" stroke="#bababa" d="M-0.7299845453752799 0.5116462979170312 L-0.5115384615384615 0.5116462979170312 L-0.5115384615384615 -3.3951649746192887 L-0.8115384615384614 -3.3951649746192887 L-0.8115384615384614 0.5116462979170312 z"/>
</svg>