<?xml version="1.0" encoding="UTF-8"?>
<!-- Generated by jsxcad -->
<!DOCTYPE svg PUBLIC "-//W3C//DTD SVG 1.1 Tiny//EN" "http://www.w3.org/Graphics/SVG/1.1/DTD/svg11-tiny.dtd">
<svg baseProfile="tiny" height="5.164263959390869mm" width="1.6279940119760488mm" viewBox="-0.8154940119760483 -2.0416666666666687 1.6279940119760488 5.164263959390869" version="1.1" stroke="black" stroke-width=".1" fill="none" xmlns="http://www.w3.org/2000/svg">
<path fill="#bababa" stroke="#bababa" d="M-0.8115384615384627 1.271613233591593 L-0.8115384615384614 1.6696572953273459 L-0.8115384615384614 1.8296869712351944 z"/>
<path fill="#bababa" stroke="#bababa" d="M-0.5766427570949387 1.2716132335915926 L-0.8115384615384627 1.2716132335915926 L-0.8115384615384614 1.8296869712351942 L-0.5115384615384615 1.8296869712351942 L-0.5115384615384626 1.2716132335915926 z"/>
<path fill="#bababa" stroke="#bababa" d="M-0.5115384615384615 1.8296869712351944 L-0.5115384615384615 1.6696572953273459 L-0.5115384615384626 1.271613233591593 z"/>
<path fill="#bababa" stroke="#bababa" d="M0.809505988023952 1.8296869712351933 L-0.8125 1.8296869712351933 L-0.8125 2.041666666666666 L0.809505988023952 2.041666666666666 z"/>
<path fill="#bababa" stroke="#bababa" d="M0.809505988023952 1.8110845821048258 L0.809505988023952 1.6696572953273459 L-0.8125 1.6696572953273459 L-0.8125 1.8296869712351942 L0.809505988023952 1.8296869712351942 z"/>
<path fill="#bababa" stroke="#bababa" d="M-0.2552667392487752 -0.09853544131894912 L-0.30299401197604847 -0.13861743181631297 L-0.3029940119760483 -0.4010535510267453 L-0.15299401197604812 -0.27508158089217316 L-0.15299401197604823 -0.012645461681740851 z"/>
<path fill="#bababa" stroke="#bababa" d="M0.1470059880239523 -0.27508158089217316 L0.2970059880239523 -0.40105355102674534 L0.2970059880239522 -0.13861743181631297 L0.1470059880239523 -0.01264546168174085 z"/>
<path fill="#bababa" stroke="#bababa" d="M-0.05753946652150246 -0.01264546168174085 L-0.1529940119760479 -0.01264546168174085 L-0.1529940119760479 -0.27508158089217316 L0.1470059880239521 -0.27508158089217316 L0.1470059880239521 -0.01264546168174085 z"/>
<path fill="#bababa" stroke="#bababa" d="M0.24927871529667883 -0.17869942231367686 L0.29700598802395134 -0.13861743181631297 L0.29700598802395206 -0.4010535510267453 L0.14700598802395176 -0.5270255211613174 L0.14700598802395187 -0.26458940195088515 z"/>
<path fill="#bababa" stroke="#bababa" d="M-0.15981219379422934 -0.5212995225188369 L-0.3029940119760474 -0.4010535510267453 L-0.3029940119760473 -0.13861743181631297 L-0.1529940119760471 -0.26458940195088515 L-0.1529940119760472 -0.5270255211613174 z"/>
<path fill="#bababa" stroke="#bababa" d="M0.1470059880239521 -0.5270255211613174 L-0.1529940119760479 -0.5270255211613174 L-0.1529940119760479 -0.26458940195088515 L0.1470059880239521 -0.26458940195088515 z"/>
<path fill="#bababa" stroke="#bababa" d="M-0.25526673924877585 1.354987291003037 L-0.30299401197604847 1.3149053005056732 L-0.3029940119760486 1.052469181295241 L-0.15299401197604814 1.178441151429813 L-0.15299401197604803 1.4408772706402455 z"/>
<path fill="#bababa" stroke="#bababa" d="M0.14700598802395318 1.178441151429813 L0.29700598802395256 1.052469181295241 L0.2970059880239531 1.314905300505673 L0.1470059880239526 1.4408772706402453 z"/>
<path fill="#bababa" stroke="#bababa" d="M-0.05753946652150246 1.4408772706402453 L-0.1529940119760479 1.4408772706402453 L-0.1529940119760479 1.178441151429813 L0.1470059880239521 1.178441151429813 L0.1470059880239521 1.4408772706402453 z"/>
<path fill="#bababa" stroke="#bababa" d="M0.2492787152966788 1.2748233100083095 L0.2970059880239519 1.3149053005056732 L0.2970059880239519 1.052469181295241 L0.14700598802395196 0.9264972111606687 L0.147005988023952 1.1889333303711012 z"/>
<path fill="#bababa" stroke="#bababa" d="M-0.1598121937942295 0.9322232098031494 L-0.30299401197604736 1.052469181295241 L-0.3029940119760472 1.314905300505673 L-0.15299401197604726 1.1889333303711012 L-0.15299401197604737 0.9264972111606689 z"/>
<path fill="#bababa" stroke="#bababa" d="M0.1470059880239521 0.9264972111606687 L-0.1529940119760479 0.9264972111606687 L-0.1529940119760479 1.1889333303711012 L0.1470059880239521 1.1889333303711012 z"/>
<path fill="#bababa" stroke="#bababa" d="M-0.7866696452551555 1.6696572953273459 L-0.5115384615384615 1.6696572953273459 L-0.5115384615384615 1.8296869712351942 L-0.8115384615384614 1.8296869712351942 L-0.8115384615384614 1.6696572953273459 z"/>
<path fill="#bababa" stroke="#bababa" d="M0.809505988023952 -0.8653787979773062 L0.809505988023952 -1.1278149171877385 L0.809505988023952 1.669657295327346 L0.809505988023952 1.8296869712351944 L0.809505988023952 2.0416666666666665 z"/>
<path fill="#bababa" stroke="#bababa" d="M-0.8154940119760479 1.779230547456234 L-0.8154940119760479 2.0416666666666665 L-0.8125 2.0416666666666665 L-0.8125 1.779230547456234 z"/>
<path fill="#bababa" stroke="#bababa" d="M-0.8125 1.675438912583876 L-0.8125 1.7792305474562342 L-0.8125 2.0416666666666665 L-0.8125 1.8296869712351944 L-0.8125 1.669657295327346 z"/>
<path fill="#bababa" stroke="#bababa" d="M-0.8154940119760479 -0.8653787979773062 L-0.8154940119760479 2.0416666666666665 L-0.8154940119760479 1.7792305474562342 L-0.8154940119760479 -1.1278149171877385 z"/>
<path fill="#bababa" stroke="#bababa" d="M0.809505988023952 -0.8653787979773061 L-0.8154940119760479 -0.8653787979773061 L-0.8154940119760479 -1.1278149171877385 L0.809505988023952 -1.1278149171877385 z"/>
<path fill="#bababa" stroke="#bababa" d="M-0.6581894214053282 1.6696572953273459 L0.809505988023952 1.6696572953273459 L0.809505988023952 -1.127814917187739 L-0.8154940119760479 -1.127814917187739 L-0.8154940119760479 1.779230547456234 L-0.8125 1.779230547456234 L-0.8125 1.6696572953273459 z M-0.1598121937942297 -0.5212995225188376 L-0.1529940119760479 -0.5270255211613177 L0.1470059880239521 -0.5270255211613177 L0.29700598802395206 -0.40105355102674606 L0.1470059880239521 -0.2750815808921736 L-0.1529940119760479 -0.2750815808921736 L-0.30299401197604786 -0.40105355102674606 z M-0.13935764833968425 1.1784411514298128 L-0.1529940119760479 1.1784411514298128 L-0.30299401197604786 1.0524691812952403 L-0.1529940119760479 0.9264972111606687 L0.1470059880239521 0.9264972111606687 L0.29700598802395206 1.0524691812952403 L0.1470059880239521 1.1784411514298128 z M-0.5228461538461537 1.6696572953273459 L-0.8115384615384614 1.6696572953273459 L-0.8115384615384627 1.2716132335915926 L-0.5115384615384626 1.2716132335915926 L-0.5115384615384615 1.6696572953273459 z"/>
<path fill="#bababa" stroke="#bababa" d="M-0.8125 2.0416666666666665 L-0.8154940119760479 2.0416666666666665 L-0.8154940119760479 -0.8653787979773063 L0.809505988023952 -0.8653787979773063 L0.809505988023952 2.0416666666666665 z M-0.30299401197604786 1.3149053005056726 L-0.1529940119760479 1.4408772706402455 L0.1470059880239521 1.4408772706402455 L0.29700598802395206 1.3149053005056726 L0.1470059880239521 1.188933330371101 L-0.1529940119760479 1.188933330371101 z M-0.30299401197604786 -0.1386174318163135 L-0.1529940119760479 -0.01264546168174126 L0.1470059880239521 -0.01264546168174126 L0.29700598802395206 -0.1386174318163135 L0.1470059880239521 -0.2645894019508852 L-0.1529940119760479 -0.2645894019508852 z"/>
<path fill="#bababa" stroke="#bababa" d="M-0.5145324735145095 1.12308798646362 L-0.811538461538463 1.12308798646362 L-0.8115384615384627 1.271613233591591 L-0.5145324735145094 1.271613233591591 z"/>
<path fill="#bababa" stroke="#bababa" d="M-0.5145324735145108 0.4296260575296108 L-0.811538461538463 0.4296260575296108 L-0.811538461538463 1.1230879864636207 L-0.5145324735145095 1.1230879864636207 z"/>
<path fill="#bababa" stroke="#bababa" d="M-0.8115384615384614 1.0883214222103479 L-0.8115384615384614 1.6696572953273456 L-0.8115384615384627 1.271613233591593 L-0.811538461538463 1.1230879864636207 L-0.811538461538463 0.4296260575296108 L-0.8115384615384615 0.9044434834214596 z"/>
<path fill="#bababa" stroke="#bababa" d="M-0.8115384615384614 1.088321422210348 L-0.8115384615384615 0.9044434834214596 L-0.8145324735145109 0.9044434834214596 L-0.8145324735145094 1.7792305474562342 L-0.8125 1.7792305474562342 L-0.8125 1.088321422210348 L-0.5145324735145106 1.088321422210348 z"/>
<path fill="#bababa" stroke="#bababa" d="M-0.5145324735145098 1.435046804521846 L-0.5145324735145106 1.088321422210348 L-0.8125 1.088321422210348 L-0.8125 1.6696572953273459 L-0.5145324735145094 1.6696572953273459 z"/>
<path fill="#bababa" stroke="#bababa" d="M-0.8125 1.675438912583876 L-0.8125 1.669657295327346 L-0.8125 1.088321422210348 L-0.8125 1.7792305474562342 z"/>
<path fill="#bababa" stroke="#bababa" d="M-0.5145324735145097 1.486802891959662 L-0.5145324735145094 1.6696572953273459 L-0.5145324735145106 1.088321422210348 z"/>
<path fill="#bababa" stroke="#bababa" d="M-0.5145324735145094 1.271613233591593 L-0.5145324735145094 -1.1278149171877383 L-0.5145324735145108 -2.002601981222513 L-0.5145324735145108 0.4296260575296108 L-0.5145324735145095 1.1230879864636207 z"/>
<path fill="#bababa" stroke="#bababa" d="M-0.8145324735145094 -1.1278149171877385 L-0.8145324735145094 1.779230547456234 L-0.8145324735145109 0.9044434834214596 L-0.8145324735145109 -2.002601981222513 z"/>
<path fill="#bababa" stroke="#bababa" d="M-0.5145324735145094 -1.1278149171877383 L-0.8145324735145094 -1.1278149171877383 L-0.8145324735145109 -2.002601981222513 L-0.5145324735145108 -2.002601981222513 z"/>
<path fill="#bababa" stroke="#bababa" d="M-0.8115384615384615 0.9044434834214594 L-0.811538461538463 0.4296260575296105 L-0.5145324735145108 0.4296260575296105 L-0.5145324735145108 -2.002601981222513 L-0.8145324735145109 -2.002601981222513 L-0.8145324735145109 0.9044434834214594 z"/>
<path fill="#bababa" stroke="#bababa" d="M-0.7514732629881947 1.088321422210348 L-0.5145324735145106 1.088321422210348 L-0.5145324735145094 1.6696572953273456 L-0.8115384615384614 1.6696572953273456 L-0.8115384615384614 1.088321422210348 z"/>
<path fill="#bababa" stroke="#bababa" d="M-0.5145324735145094 1.6696572953273454 L-0.8125 1.6696572953273454 L-0.8125 1.779230547456233 L-0.8145324735145094 1.779230547456233 L-0.8145324735145094 -1.1278149171877387 L-0.5145324735145094 -1.1278149171877387 L-0.5145324735145094 1.2716132335915926 L-0.8115384615384627 1.2716132335915926 L-0.8115384615384614 1.6696572953273454 z"/>
<path fill="#bababa" stroke="#bababa" d="M-0.25227272727272776 0.9217063528687892 L-0.3000000000000003 0.9802453468697123 L-0.30000000000000054 0.7682656514382402 L-0.15000000000000058 0.5842859560067679 L-0.1500000000000004 0.7962656514382401 z"/>
<path fill="#bababa" stroke="#bababa" d="M0.15000000000000063 0.5842859560067681 L0.30000000000000043 0.7682656514382401 L0.30000000000000027 0.9802453468697123 L0.15000000000000085 0.7962656514382399 z"/>
<path fill="#bababa" stroke="#bababa" d="M-0.05454545454545455 0.7962656514382386 L-0.15 0.7962656514382386 L-0.15 0.5842859560067674 L0.15 0.5842859560067674 L0.15 0.7962656514382386 z"/>
<path fill="#bababa" stroke="#bababa" d="M0.25227272727272676 1.038784340870635 L0.2999999999999998 0.9802453468697123 L0.2999999999999996 0.7682656514382402 L0.1499999999999994 0.9522453468697121 L0.14999999999999958 1.1642250423011842 z"/>
<path fill="#bababa" stroke="#bababa" d="M-0.15681818181818116 0.9438826334410089 L-0.29999999999999943 0.7682656514382402 L-0.2999999999999996 0.9802453468697123 L-0.14999999999999974 1.1642250423011844 L-0.14999999999999958 0.9522453468697122 z"/>
<path fill="#bababa" stroke="#bababa" d="M0.15 0.9522453468697112 L-0.15 0.9522453468697112 L-0.15 1.1642250423011833 L0.15 1.1642250423011833 z"/>
<path fill="#bababa" stroke="#bababa" d="M-0.2522727272727278 -1.201136286725119 L-0.30000000000000104 -1.142597292724196 L-0.3000000000000011 -1.3545769881556682 L-0.15000000000000005 -1.5385566835871403 L-0.15000000000000105 -1.3265769881556684 z"/>
<path fill="#bababa" stroke="#bababa" d="M0.1500000000000001 -1.5385566835871403 L0.3000000000000002 -1.354576988155668 L0.3000000000000005 -1.142597292724196 L0.1500000000000006 -1.326576988155668 z"/>
<path fill="#bababa" stroke="#bababa" d="M-0.05454545454545455 -1.3265769881556702 L-0.15 -1.3265769881556702 L-0.15 -1.5385566835871414 L0.15 -1.5385566835871414 L0.15 -1.3265769881556702 z"/>
<path fill="#bababa" stroke="#bababa" d="M0.25227272727272665 -1.0840582987232734 L0.2999999999999997 -1.1425972927241959 L0.2999999999999992 -1.3545769881556684 L0.14999999999999944 -1.1705972927241963 L0.14999999999999916 -0.9586175972927242 z"/>
<path fill="#bababa" stroke="#bababa" d="M-0.1568181818181809 -1.1789600061528993 L-0.29999999999999943 -1.3545769881556684 L-0.29999999999999977 -1.1425972927241959 L-0.14999999999999938 -0.9586175972927238 L-0.14999999999999977 -1.1705972927241959 z"/>
<path fill="#bababa" stroke="#bababa" d="M0.15 -1.170597292724197 L-0.15 -1.170597292724197 L-0.15 -0.9586175972927244 L0.15 -0.9586175972927244 z"/>
<path fill="#bababa" stroke="#bababa" d="M0.8125 -2.2040186125211503 L0.8125 2.0416666666666665 L0.8125 1.8296869712351944 L0.8125 -2.4159983079526226 z"/>
<path fill="#bababa" stroke="#bababa" d="M-0.8125 -2.2040186125211516 L0.8125 -2.2040186125211516 L0.8125 -2.415998307952623 L-0.8125 -2.415998307952623 z"/>
<path fill="#bababa" stroke="#bababa" d="M-0.8125 2.0416666666666665 L-0.8125 -2.2040186125211503 L-0.8125 -2.4159983079526226 L-0.8125 1.8296869712351944 z"/>
<path fill="#bababa" stroke="#bababa" d="M0.8125 2.0416666666666656 L-0.8125 2.0416666666666656 L-0.8125 1.8296869712351942 L0.8125 1.8296869712351942 z"/>
<path fill="#bababa" stroke="#bababa" d="M-0.8125 1.8296869712351942 L-0.8125 -2.415998307952622 L0.8125 -2.415998307952622 L0.8125 1.8296869712351942 z M0.13636363636363635 0.9522453468697123 L0.15 0.9522453468697123 L0.3 0.7682656514382401 L0.15 0.5842859560067681 L-0.15 0.5842859560067681 L-0.3 0.7682656514382401 L-0.15 0.9522453468697123 z M-0.3 -1.3545769881556682 L-0.15 -1.170597292724196 L0.15 -1.170597292724196 L0.3 -1.3545769881556682 L0.15 -1.53855668358714 L-0.15 -1.53855668358714 z"/>
<path fill="#bababa" stroke="#bababa" d="M-0.8125 2.0416666666666665 L0.8125 2.0416666666666665 L0.8125 -2.2040186125211503 L-0.8125 -2.2040186125211503 z M-0.3 -1.142597292724196 L-0.15 -1.3265769881556682 L0.15 -1.3265769881556682 L0.3 -1.142597292724196 L0.15 -0.958617597292724 L-0.15 -0.958617597292724 z M-0.3 0.9802453468697121 L-0.15 0.7962656514382402 L0.15 0.7962656514382402 L0.3 0.9802453468697121 L0.15 1.1642250423011844 L-0.15 1.1642250423011844 z"/>
<path fill="#bababa" stroke="#bababa" d="M-0.5115384615384629 -3.122597292724196 L-0.5115384615384615 -2.4159983079526226 L-0.5115384615384615 1.8296869712351944 L-0.5115384615384629 1.1230879864636207 z"/>
<path fill="#bababa" stroke="#bababa" d="M-0.811538461538463 -3.122597292724199 L-0.8115384615384614 -2.4159983079526235 L-0.5115384615384615 -2.4159983079526235 L-0.5115384615384629 -3.122597292724199 z"/>
<path fill="#bababa" stroke="#bababa" d="M-0.811538461538463 1.1230879864636207 L-0.8115384615384614 1.8296869712351944 L-0.8115384615384614 -2.4159983079526226 L-0.811538461538463 -3.122597292724196 z"/>
<path fill="#bababa" stroke="#bababa" d="M-0.5115384615384629 1.12308798646362 L-0.5115384615384615 1.8296869712351942 L-0.8115384615384614 1.8296869712351942 L-0.811538461538463 1.12308798646362 z"/>
<path fill="#bababa" stroke="#bababa" d="M-0.5115384615384629 -3.122597292724196 L-0.5115384615384629 1.1230879864636207 L-0.811538461538463 1.1230879864636207 L-0.811538461538463 -3.122597292724196 z"/>
<path fill="#bababa" stroke="#bababa" d="M-0.5115384615384615 -2.415998307952622 L-0.8115384615384614 -2.415998307952622 L-0.8115384615384614 1.8296869712351942 L-0.5115384615384615 1.8296869712351942 z"/>
</svg>