<?xml version="1.0" encoding="UTF-8"?>
<!-- Generated by jsxcad -->
<!DOCTYPE svg PUBLIC "-//W3C//DTD SVG 1.1 Tiny//EN" "http://www.w3.org/Graphics/SVG/1.1/DTD/svg11-tiny.dtd">
<svg baseProfile="tiny" height="5.986653493680375mm" width="1.6250000000000009mm" viewBox="-0.8125000000000004 -1.8800000000000003 1.6250000000000009 5.986653493680375" version="1.1" stroke="black" stroke-width=".1" fill="none" xmlns="http://www.w3.org/2000/svg">
<path fill="#bababa" stroke="#bababa" d="M-0.8115384615384629 0.45265481204715213 L-0.8115384615384614 1.3647570703408265 L-0.8115384615384614 1.590688179840464 L-0.811538461538463 0.6263154459753444 L-0.811538461538463 0.400384336475707 z"/>
<path fill="#bababa" stroke="#bababa" d="M-0.5511813186813201 0.400384336475707 L-0.811538461538463 0.400384336475707 L-0.811538461538463 0.6263154459753444 L-0.5115384615384629 0.6263154459753444 L-0.5115384615384629 0.400384336475707 z"/>
<path fill="#bababa" stroke="#bababa" d="M-0.5115384615384615 1.3647570703408265 L-0.5115384615384629 0.400384336475707 L-0.5115384615384629 0.6263154459753444 L-0.5115384615384615 1.5906881798404637 z"/>
<path fill="#bababa" stroke="#bababa" d="M-0.5791357222354028 1.3647570703408263 L-0.5115384615384615 1.3647570703408263 L-0.5115384615384615 1.5906881798404637 L-0.8115384615384614 1.5906881798404637 L-0.8115384615384614 1.3647570703408263 z"/>
<path fill="#bababa" stroke="#bababa" d="M-0.8125 -3.683637106939665 L-0.8125 -3.5567321909174527 L-0.8125 1.590688179840464 L-0.8125 1.3647570703408265 z"/>
<path fill="#bababa" stroke="#bababa" d="M0.8125 1.376779832953486 L0.8125 1.590688179840464 L0.8125 -3.5567321909174527 L0.8125 -3.683637106939665 L0.8125 1.3647570703408265 z"/>
<path fill="#bababa" stroke="#bababa" d="M0.12499999999999997 -2.9738415153476643 L0.12499999999999986 -2.846936599325452 L0.25 -2.650610159097877 L0.24999999999999992 -2.7775150751200894 z"/>
<path fill="#bababa" stroke="#bababa" d="M-0.049999999999999996 -2.4542837188703026 L-0.125 -2.4542837188703026 L-0.125 -2.581188634892515 L0.125 -2.581188634892515 L0.125 -2.4542837188703026 z"/>
<path fill="#bababa" stroke="#bababa" d="M-0.21250000000000002 -2.5917122270296047 L-0.25000000000000017 -2.650610159097877 L-0.2500000000000001 -2.7775150751200894 L-0.12500000000000006 -2.5811886348925146 L-0.125 -2.4542837188703026 z"/>
<path fill="#bababa" stroke="#bababa" d="M0.12500000000000003 -2.5811886348925146 L0.2500000000000003 -2.7775150751200894 L0.24999999999999997 -2.650610159097877 L0.12500000000000003 -2.454283718870302 z"/>
<path fill="#bababa" stroke="#bababa" d="M-0.16249999999999978 -2.7880386672571795 L-0.12499999999999996 -2.846936599325452 L-0.125 -2.9738415153476643 L-0.24999999999999983 -2.7775150751200894 L-0.2499999999999998 -2.650610159097877 z"/>
<path fill="#bababa" stroke="#bababa" d="M0.049999999999999996 -2.8469365993254514 L0.125 -2.8469365993254514 L0.125 -2.973841515347664 L-0.125 -2.973841515347664 L-0.125 -2.8469365993254514 z"/>
<path fill="#bababa" stroke="#bababa" d="M0.12499999999999972 -0.2554754198889381 L0.12499999999999983 -0.12857050386672578 L0.24999999999999986 0.067755936360849 L0.24999999999999975 -0.059148979661363316 z"/>
<path fill="#bababa" stroke="#bababa" d="M-0.049999999999999996 0.2640823765884238 L-0.125 0.2640823765884238 L-0.125 0.13717746056621144 L0.125 0.13717746056621144 L0.125 0.2640823765884238 z"/>
<path fill="#bababa" stroke="#bababa" d="M0.48857608692988225 1.3647570703408265 L0.8125 1.3647570703408265 L0.8125 -3.6836371069396647 L-0.8125 -3.6836371069396647 L-0.8125 1.3647570703408265 z M-0.25 -0.05914897966136339 L-0.125 -0.255475419888938 L0.125 -0.255475419888938 L0.25 -0.05914897966136339 L0.125 0.13717746056621127 L-0.125 0.13717746056621127 z M-0.811538461538463 0.400384336475707 L-0.5115384615384629 0.400384336475707 L-0.5115384615384615 1.3647570703408265 L-0.8115384615384614 1.3647570703408265 z M-0.12499999999999999 -2.581188634892515 L-0.125 -2.581188634892515 L-0.25 -2.7775150751200894 L-0.125 -2.9738415153476643 L0.125 -2.9738415153476643 L0.25 -2.7775150751200894 L0.125 -2.581188634892515 z"/>
<path fill="#bababa" stroke="#bababa" d="M-0.2125000000000001 0.12665386842912127 L-0.2500000000000002 0.06775593636084887 L-0.25000000000000017 -0.059148979661363295 L-0.12500000000000014 0.13717746056621116 L-0.12500000000000008 0.26408237658842354 z"/>
<path fill="#bababa" stroke="#bababa" d="M0.12500000000000003 0.1371774605662112 L0.2500000000000002 -0.059148979661363316 L0.2500000000000001 0.067755936360849 L0.12500000000000017 0.26408237658842365 z"/>
<path fill="#bababa" stroke="#bababa" d="M-0.1624999999999997 -0.06967257179845338 L-0.12499999999999968 -0.12857050386672558 L-0.12499999999999992 -0.25547541988893807 L-0.24999999999999978 -0.059148979661363295 L-0.24999999999999975 0.06775593636084887 z"/>
<path fill="#bababa" stroke="#bababa" d="M0.049999999999999996 -0.12857050386672508 L0.125 -0.12857050386672508 L0.125 -0.25547541988893746 L-0.125 -0.25547541988893746 L-0.125 -0.12857050386672508 z"/>
<path fill="#bababa" stroke="#bababa" d="M0.8125 -3.683637106939665 L0.8125 -3.5567321909174523 L-0.8125 -3.5567321909174523 L-0.8125 -3.683637106939665 z"/>
<path fill="#bababa" stroke="#bababa" d="M-0.7616034096565455 1.5906881798404637 L0.8125 1.5906881798404637 L0.8125 1.3647570703408265 L-0.8125 1.3647570703408265 L-0.8125 1.5906881798404637 z"/>
<path fill="#bababa" stroke="#bababa" d="M0.7926408118313404 1.5906881798404637 L-0.8125 1.5906881798404637 L-0.8125 -3.5567321909174527 L0.8125 -3.5567321909174527 L0.8125 1.5906881798404637 z M0.125 -2.4542837188703026 L0.25 -2.650610159097877 L0.125 -2.846936599325452 L-0.125 -2.846936599325452 L-0.25 -2.650610159097877 L-0.125 -2.4542837188703026 z M-0.8115384615384629 0.6980751679228836 L-0.8115384615384614 1.5906881798404637 L-0.5115384615384615 1.5906881798404637 L-0.5115384615384629 0.6263154459753443 L-0.811538461538463 0.6263154459753443 z M-0.049999999999999996 0.2640823765884236 L0.125 0.2640823765884236 L0.25 0.06775593636084896 L0.125 -0.1285705038667257 L-0.125 -0.1285705038667257 L-0.25 0.06775593636084896 L-0.125 0.2640823765884236 z"/>
<path fill="#bababa" stroke="#bababa" d="M-0.8115384615384617 1.2037436548223348 L-0.8115384615384627 -0.011058496172319679 L-0.8115384615384627 -0.12621396771348853 L-0.8115384615384614 0.6116533720087018 L-0.8115384615384614 1.3647570703408265 z"/>
<path fill="#bababa" stroke="#bababa" d="M-0.5714285714285714 1.3647570703408265 L-0.8115384615384614 1.3647570703408265 L-0.8115384615384614 0.6116533720087018 L-0.5115384615384629 0.6116533720087018 L-0.5115384615384615 1.3647570703408265 z"/>
<path fill="#bababa" stroke="#bababa" d="M-0.8115384615384614 1.3647570703408265 L-0.5115384615384615 1.3647570703408265 L-0.5115384615384629 0.6116533720087018 L-0.811538461538463 0.6116533720087018 z"/>
<path fill="#bababa" stroke="#bababa" d="M-0.542112772073214 0.400384336475707 L-0.5115384615384629 0.400384336475707 L-0.5115384615384629 -0.3527193618564176 L-0.811538461538463 -0.3527193618564176 L-0.8115384615384614 0.400384336475707 z"/>
<path fill="#bababa" stroke="#bababa" d="M-0.5115384615384617 1.2534603273770786 L-0.5115384615384629 0.6116533720087018 L-0.5115384615384616 1.3137034297587782 z"/>
<path fill="#bababa" stroke="#bababa" d="M-0.5115384615384615 1.3647570703408265 L-0.5115384615384615 -3.683637106939665 L-0.5115384615384629 -4.106653493680373 L-0.5115384615384629 -0.35271936185641767 z"/>
<path fill="#bababa" stroke="#bababa" d="M-0.5115384615384616 1.3137034297587782 L-0.5115384615384615 1.3647570703408265 z"/>
<path fill="#bababa" stroke="#bababa" d="M-0.5861813186813186 0.6116533720087018 L-0.8115384615384614 0.6116533720087018 L-0.811538461538463 -0.3527193618564176 L-0.811538461538463 0.6116533720087018 L-0.5115384615384629 0.6116533720087018 z"/>
<path fill="#bababa" stroke="#bababa" d="M-0.6043956043956058 -0.3527193618564176 L-0.5115384615384629 -0.3527193618564176 L-0.5115384615384629 -4.106653493680373 L-0.811538461538463 -4.106653493680373 L-0.7937879491582491 -0.3527193618564176 z"/>
<path fill="#bababa" stroke="#bababa" d="M-0.8115384615384619 0.20089298926225443 L-0.811538461538463 -0.35271936185641767 L-0.811538461538463 -4.106653493680373 L-0.8115384615384614 -3.683637106939665 L-0.8115384615384614 0.4003843364757069 z"/>
<path fill="#bababa" stroke="#bababa" d="M-0.8115384615384627 -0.011058496172319677 L-0.8115384615384614 1.3647570703408265 L-0.811538461538463 0.6116533720087018 L-0.811538461538463 -0.35271936185641767 z"/>
<path fill="#bababa" stroke="#bababa" d="M-0.5115384615384615 -3.6836371069396643 L-0.8115384615384614 -3.6836371069396643 L-0.811538461538463 -4.106653493680373 L-0.5115384615384629 -4.106653493680373 z"/>
<path fill="#bababa" stroke="#bababa" d="M-0.5918919568700581 0.400384336475707 L-0.8115384615384614 0.400384336475707 L-0.8115384615384614 -3.6836371069396647 L-0.5115384615384615 -3.6836371069396647 L-0.5115384615384615 1.3470699162826603 L-0.5115384615384629 0.400384336475707 z"/>
<path fill="#bababa" stroke="#bababa" d="M-0.6929945474069445 1.3647570703408265 L-0.5115384615384615 1.3647570703408265 L-0.8115384615384614 1.3647570703408265 z"/>
<path fill="#bababa" stroke="#bababa" d="M-0.5115384615384616 1.2498161176235432 L-0.5115384615384629 -0.3527193618564176 L-0.5115384615384629 0.4003843364757069 L-0.5115384615384615 1.3647570703408265 z"/>
<path fill="#bababa" stroke="#bababa" d="M0.12499999999999961 1.3257021996615903 L0.24999999999999936 1.1723857868020302 L0.2499999999999997 0.9604060913705583 L0.12499999999999996 1.1137225042301184 z"/>
<path fill="#bababa" stroke="#bababa" d="M-0.049999999999999996 1.0190693739424685 L-0.125 1.0190693739424685 L-0.125 0.8070896785109982 L0.125 0.8070896785109982 L0.125 1.0190693739424685 z"/>
<path fill="#bababa" stroke="#bababa" d="M-0.21250000000000063 1.1263908629441621 L-0.2500000000000006 1.1723857868020302 L-0.2500000000000003 0.9604060913705583 L-0.12500000000000056 0.8070896785109981 L-0.1250000000000001 1.0190693739424703 z"/>
<path fill="#bababa" stroke="#bababa" d="M0.12500000000000014 0.8070896785109982 L0.2500000000000004 0.9604060913705582 L0.2500000000000005 1.1723857868020302 L0.12500000000000033 1.0190693739424703 z"/>
<path fill="#bababa" stroke="#bababa" d="M-0.16249999999999973 1.2797072758037222 L-0.12499999999999957 1.3257021996615903 L-0.12499999999999954 1.1137225042301182 L-0.2499999999999996 0.9604060913705582 L-0.24999999999999964 1.1723857868020302 z"/>
<path fill="#bababa" stroke="#bababa" d="M0.049999999999999996 1.3257021996615885 L0.125 1.3257021996615885 L0.125 1.1137225042301166 L-0.125 1.1137225042301166 L-0.125 1.3257021996615885 z"/>
<path fill="#bababa" stroke="#bababa" d="M0.12499999999999944 -0.7971404399323182 L0.2499999999999999 -0.9504568527918779 L0.2499999999999994 -1.1624365482233499 L0.12499999999999972 -1.00912013536379 z"/>
<path fill="#bababa" stroke="#bababa" d="M-0.049999999999999996 -1.1037732656514394 L-0.125 -1.1037732656514394 L-0.125 -1.3157529610829117 L0.125 -1.3157529610829117 L0.125 -1.1037732656514394 z"/>
<path fill="#bababa" stroke="#bababa" d="M-0.2125000000000009 -0.9964517766497464 L-0.2500000000000006 -0.9504568527918781 L-0.2500000000000001 -1.16243654822335 L-0.1250000000000006 -1.3157529610829102 L-0.1250000000000011 -1.103773265651438 z"/>
<path fill="#bababa" stroke="#bababa" d="M0.12500000000000025 -1.3157529610829097 L0.25000000000000044 -1.1624365482233496 L0.25000000000000044 -0.9504568527918782 L0.12500000000000044 -1.1037732656514376 z"/>
<path fill="#bababa" stroke="#bababa" d="M-0.16249999999999937 -0.8431353637901859 L-0.1249999999999998 -0.797140439932318 L-0.1249999999999993 -1.0091201353637902 L-0.24999999999999983 -1.16243654822335 L-0.24999999999999933 -0.9504568527918781 z"/>
<path fill="#bababa" stroke="#bababa" d="M0.049999999999999996 -0.7971404399323195 L0.125 -0.7971404399323195 L0.125 -1.0091201353637915 L-0.125 -1.0091201353637915 L-0.125 -0.7971404399323195 z"/>
<path fill="#bababa" stroke="#bababa" d="M0.8125 1.88 L0.8125 1.590688179840464 L0.8125 -2.5776649746192892 L0.8125 -2.365685279187817 z"/>
<path fill="#bababa" stroke="#bababa" d="M-0.6455291970802919 1.8799999999999997 L-0.8125 1.8799999999999997 L-0.8125 1.5906881798404637 L0.8125 1.5906881798404637 L0.8125 1.8799999999999997 z"/>
<path fill="#bababa" stroke="#bababa" d="M-0.8125 -2.3656852791878187 L0.8125 -2.3656852791878187 L0.8125 -2.57766497461929 L-0.8125 -2.57766497461929 z"/>
<path fill="#bababa" stroke="#bababa" d="M-0.8125 1.590688179840464 L-0.8125 1.88 L-0.8125 -2.365685279187817 L-0.8125 -2.5776649746192892 z"/>
<path fill="#bababa" stroke="#bababa" d="M0.5030252867570385 1.590688179840464 L-0.8125 1.590688179840464 L-0.8125 -2.577664974619289 L0.8125 -2.577664974619289 L0.8125 1.590688179840464 z M0.125 -1.00912013536379 L0.25 -1.16243654822335 L0.125 -1.3157529610829102 L-0.125 -1.3157529610829102 L-0.25 -1.16243654822335 L-0.125 -1.00912013536379 z M-0.125 1.1137225042301182 L0.125 1.1137225042301182 L0.25 0.9604060913705582 L0.125 0.8070896785109981 L-0.125 0.8070896785109981 L-0.25 0.9604060913705582 z"/>
<path fill="#bababa" stroke="#bababa" d="M0.7 1.8799999999999997 L0.8125 1.8799999999999997 L0.8125 -2.365685279187817 L-0.8125 -2.365685279187817 L-0.8125 1.8799999999999997 z M0.2125 -0.90446192893401 L0.125 -0.7971404399323179 L-0.125 -0.7971404399323179 L-0.25 -0.950456852791878 L-0.125 -1.103773265651438 L0.125 -1.103773265651438 L0.25 -0.950456852791878 z M-0.049999999999999996 1.01906937394247 L0.125 1.01906937394247 L0.25 1.1723857868020302 L0.125 1.3257021996615903 L-0.125 1.3257021996615903 L-0.25 1.1723857868020302 L-0.125 1.01906937394247 z"/>
<path fill="#bababa" stroke="#bababa" d="M-0.8115384615384614 1.590688179840464 L-0.811538461538463 0.6263154459753444 L-0.5115384615384629 0.6263154459753444 L-0.5115384615384615 1.590688179840464 z"/>
<path fill="#bababa" stroke="#bababa" d="M-0.5115384615384629 0.6263154459753443 L-0.5115384615384629 -3.2842639593908625 L-0.5115384615384615 -2.577664974619289 L-0.5115384615384615 1.590688179840464 z"/>
<path fill="#bababa" stroke="#bababa" d="M-0.8115384615384614 -2.577664974619291 L-0.5115384615384615 -2.577664974619291 L-0.5115384615384629 -3.284263959390864 L-0.811538461538463 -3.284263959390864 z"/>
<path fill="#bababa" stroke="#bababa" d="M-0.8115384615384629 0.6980751679228836 L-0.8115384615384614 1.5906881798404637 L-0.8115384615384614 -2.577664974619289 L-0.811538461538463 -3.2842639593908625 L-0.811538461538463 0.6263154459753444 z"/>
<path fill="#bababa" stroke="#bababa" d="M-0.5352170329670344 0.6263154459753444 L-0.811538461538463 0.6263154459753444 L-0.811538461538463 -3.284263959390862 L-0.5115384615384629 -3.284263959390862 L-0.5115384615384629 0.6263154459753444 z"/>
<path fill="#bababa" stroke="#bababa" d="M-0.6281607142857142 1.5906881798404637 L-0.5115384615384615 1.5906881798404637 L-0.5115384615384615 -2.5776649746192892 L-0.8115384615384614 -2.5776649746192892 L-0.8115384615384614 1.5906881798404637 z"/>
</svg>