<?xml version="1.0" encoding="UTF-8"?>
<!-- Generated by jsxcad -->
<!DOCTYPE svg PUBLIC "-//W3C//DTD SVG 1.1 Tiny//EN" "http://www.w3.org/Graphics/SVG/1.1/DTD/svg11-tiny.dtd">
<svg baseProfile="tiny" height="5.659943253878428mm" width="1.6250000000000009mm" viewBox="-0.8125000000000004 -1.9687500000000002 1.6250000000000009 5.659943253878428" version="1.1" stroke="black" stroke-width=".1" fill="none" xmlns="http://www.w3.org/2000/svg">
<path fill="#bababa" stroke="#bababa" d="M0.8125 1.5164012077784756 L0.8125 1.7192386574044916 L0.8125 -2.9452669122047572 L0.8125 -3.1174037602832962 L0.8125 1.5036621436938695 z"/>
<path fill="#bababa" stroke="#bababa" d="M-0.8125 -3.1174037602832962 L-0.8125 -2.9452669122047572 L-0.8125 1.7192386574044916 L-0.8125 1.5036621436938695 z"/>
<path fill="#bababa" stroke="#bababa" d="M-0.5115384615384626 0.886502327353364 L-0.5115384615384629 0.6719576683755085 L-0.5115384615384629 0.8875341820861306 L-0.5115384615384615 1.7192386574044913 L-0.5115384615384615 1.5036621436938693 z"/>
<path fill="#bababa" stroke="#bababa" d="M-0.8115384615384629 0.9184819081186155 L-0.811538461538463 0.8875341820861306 L-0.811538461538463 0.6719576683755084 L-0.8115384615384614 1.5036621436938693 L-0.8115384615384614 1.7192386574044916 z"/>
<path fill="#bababa" stroke="#bababa" d="M-0.7299899193548387 1.7192386574044916 L-0.8115384615384614 1.7192386574044916 L-0.8115384615384614 1.5036621436938695 L-0.5115384615384615 1.5036621436938695 L-0.5115384615384615 1.7192386574044916 z"/>
<path fill="#bababa" stroke="#bababa" d="M-0.7447018759185883 0.8875341820861306 L-0.5115384615384629 0.8875341820861306 L-0.5115384615384629 0.6719576683755084 L-0.811538461538463 0.6719576683755084 L-0.811538461538463 0.8875341820861306 z"/>
<path fill="#bababa" stroke="#bababa" d="M-0.7988709708965732 1.5036621436938693 L0.8125 1.5036621436938693 L0.8125 -3.117403760283296 L-0.8125 -3.117403760283296 L-0.8125 1.5036621436938693 z M-0.811538461538463 0.6719576683755084 L-0.5115384615384629 0.6719576683755084 L-0.5115384615384615 1.5036621436938693 L-0.8115384615384614 1.5036621436938693 z"/>
<path fill="#bababa" stroke="#bababa" d="M0.8125 -2.9452669122047563 L-0.8125 -2.9452669122047563 L-0.8125 -3.117403760283296 L0.8125 -3.117403760283296 z"/>
<path fill="#bababa" stroke="#bababa" d="M0.8125 1.5036621436938695 L-0.8125 1.5036621436938695 L-0.8125 1.7192386574044916 L0.8125 1.7192386574044916 z"/>
<path fill="#bababa" stroke="#bababa" d="M-0.8125 1.7192386574044916 L-0.8125 -2.945266912204757 L0.8125 -2.945266912204757 L0.8125 1.7192386574044916 z M-0.811538461538463 0.8875341820861304 L-0.8115384615384614 1.7192386574044916 L-0.5115384615384615 1.7192386574044916 L-0.5115384615384629 0.8875341820861304 z"/>
<path fill="#bababa" stroke="#bababa" d="M-0.5115384615384615 1.4902857262331128 L-0.5115384615384629 -0.046630710659898475 L-0.5115384615384629 0.6719576683755084 L-0.5115384615384615 1.4964747727104448 z"/>
<path fill="#bababa" stroke="#bababa" d="M-0.8115384615384615 1.388320355329949 L-0.811538461538463 -0.04663071065989847 L-0.8115384615384614 0.7850737646584625 L-0.8115384615384614 1.5036621436938695 z"/>
<path fill="#bababa" stroke="#bababa" d="M-0.6671719849654167 0.7850737646584623 L-0.811538461538463 0.7850737646584623 L-0.8115384615384614 1.5036621436938693 L-0.5115384615384615 1.5036621436938693 L-0.5115384615384629 0.7850737646584623 z"/>
<path fill="#bababa" stroke="#bababa" d="M-0.5115384615384629 -3.6911932538784265 L-0.811538461538463 -3.6911932538784265 L-0.8026757781003078 -0.04663071065989847 L-0.5115384615384629 -0.04663071065989847 z"/>
<path fill="#bababa" stroke="#bababa" d="M-0.8115384615384625 0.1620764101626843 L-0.8115384615384627 0.137998746798507 L-0.811538461538463 0.7850737646584625 L-0.5115384615384629 0.7850737646584625 L-0.8115384615384614 0.7850737646584625 z"/>
<path fill="#bababa" stroke="#bababa" d="M-0.5115384615384628 0.8472547174933431 L-0.5115384615384615 1.5036621436938693 z"/>
<path fill="#bababa" stroke="#bababa" d="M-0.5115384615384627 0.247321997795597 L-0.5115384615384615 1.5036621436938693 L-0.5115384615384615 -3.117403760283296 L-0.5115384615384629 -3.6911932538784265 L-0.5115384615384629 -0.04663071065989847 z"/>
<path fill="#bababa" stroke="#bababa" d="M-0.5115384615384628 0.8472547174933431 L-0.5115384615384629 0.7850737646584623 z"/>
<path fill="#bababa" stroke="#bababa" d="M-0.5801985111662531 0.7850737646584623 L-0.5115384615384629 0.7850737646584623 L-0.5115384615384615 1.5036621436938693 L-0.8115384615384614 1.5036621436938693 L-0.8115384615384614 0.7850737646584623 z"/>
<path fill="#bababa" stroke="#bababa" d="M-0.6130045994231054 0.6719576683755085 L-0.5115384615384629 0.6719576683755085 L-0.5115384615384629 -0.04663071065989847 L-0.811538461538463 -0.04663071065989847 L-0.8115384615384614 0.6719576683755085 z"/>
<path fill="#bababa" stroke="#bababa" d="M-0.5115384615384615 -3.1174037602832954 L-0.8115384615384614 -3.1174037602832954 L-0.811538461538463 -3.6911932538784265 L-0.5115384615384629 -3.6911932538784265 z"/>
<path fill="#bababa" stroke="#bababa" d="M-0.8115384615384619 0.5025033980194015 L-0.811538461538463 -0.046630710659898475 L-0.811538461538463 -3.6911932538784265 L-0.8115384615384614 -3.117403760283296 L-0.8115384615384614 0.6719576683755084 z"/>
<path fill="#bababa" stroke="#bababa" d="M-0.8115384615384627 0.247321997795597 L-0.8115384615384614 1.5036621436938693 L-0.811538461538463 0.7850737646584625 L-0.811538461538463 -0.046630710659898475 z"/>
<path fill="#bababa" stroke="#bababa" d="M-0.5294230769230769 1.5036621436938693 L-0.5115384615384615 1.5036621436938693 L-0.8115384615384614 1.5036621436938693 z"/>
<path fill="#bababa" stroke="#bababa" d="M-0.5224236465502456 0.6719576683755084 L-0.8115384615384614 0.6719576683755084 L-0.8115384615384614 -3.1174037602832962 L-0.5115384615384615 -3.1174037602832962 L-0.5115384615384615 1.5036621436938693 L-0.5115384615384629 0.6719576683755084 z"/>
<path fill="#bababa" stroke="#bababa" d="M0.8125 1.96875 L0.8125 1.7192386574044916 L0.8125 -2.488914974619289 L0.8125 -2.2769352791878172 z"/>
<path fill="#bababa" stroke="#bababa" d="M-0.8125 1.9687499999999996 L-0.8125 1.7192386574044916 L0.8125 1.7192386574044916 L0.8125 1.9687499999999996 z"/>
<path fill="#bababa" stroke="#bababa" d="M-0.8125 -2.2769352791878186 L0.8125 -2.2769352791878186 L0.8125 -2.48891497461929 L-0.8125 -2.48891497461929 z"/>
<path fill="#bababa" stroke="#bababa" d="M-0.8125 1.7192386574044916 L-0.8125 1.96875 L-0.8125 -2.2769352791878172 L-0.8125 -2.488914974619289 z"/>
<path fill="#bababa" stroke="#bababa" d="M-0.8125 1.7192386574044916 L-0.8125 -2.4889149746192887 L0.8125 -2.4889149746192887 L0.8125 1.7192386574044916 z"/>
<path fill="#bababa" stroke="#bababa" d="M-0.6964285714285714 1.9687499999999998 L0.8125 1.9687499999999998 L0.8125 -2.276935279187817 L-0.8125 -2.276935279187817 L-0.8125 1.9687499999999998 z"/>
<path fill="#bababa" stroke="#bababa" d="M-0.8115384615384614 1.7192386574044916 L-0.811538461538463 0.8875341820861306 L-0.5115384615384629 0.8875341820861306 L-0.5115384615384615 1.7192386574044916 z"/>
<path fill="#bababa" stroke="#bababa" d="M-0.5115384615384629 0.8875341820861306 L-0.5115384615384629 -3.1955139593908624 L-0.5115384615384615 -2.4889149746192887 L-0.5115384615384615 1.7192386574044916 z"/>
<path fill="#bababa" stroke="#bababa" d="M-0.8115384615384614 -2.4889149746192913 L-0.5115384615384615 -2.4889149746192913 L-0.5115384615384629 -3.195513959390864 L-0.811538461538463 -3.195513959390864 z"/>
<path fill="#bababa" stroke="#bababa" d="M-0.8115384615384629 0.9184819081186155 L-0.8115384615384614 1.7192386574044916 L-0.8115384615384614 -2.4889149746192887 L-0.811538461538463 -3.1955139593908624 L-0.811538461538463 0.8875341820861306 z"/>
<path fill="#bababa" stroke="#bababa" d="M-0.5230303970223339 0.8875341820861306 L-0.811538461538463 0.8875341820861306 L-0.811538461538463 -3.1955139593908624 L-0.5115384615384629 -3.1955139593908624 L-0.5115384615384629 0.8875341820861306 z"/>
<path fill="#bababa" stroke="#bababa" d="M-0.6257056451612902 1.7192386574044913 L-0.5115384615384615 1.7192386574044913 L-0.5115384615384615 -2.488914974619289 L-0.8115384615384614 -2.488914974619289 L-0.8115384615384614 1.7192386574044913 z"/>
</svg>