<?xml version="1.0" encoding="UTF-8"?>
<!-- Generated by jsxcad -->
<!DOCTYPE svg PUBLIC "-//W3C//DTD SVG 1.1 Tiny//EN" "http://www.w3.org/Graphics/SVG/1.1/DTD/svg11-tiny.dtd">
<svg baseProfile="tiny" height="5.8760351545442475mm" width="1.6279940119760488mm" viewBox="-0.8154940119760483 -1.9230769230769267 1.6279940119760488 5.8760351545442475" version="1.1" stroke="black" stroke-width=".1" fill="none" xmlns="http://www.w3.org/2000/svg">
<path fill="#bababa" stroke="#bababa" d="M-0.8115384615384629 0.7949317305044886 L-0.811538461538463 0.741092462287531 L-0.811538461538463 0.5202768370136027 L-0.8115384615384614 1.4294956530054426 L-0.8115384615384614 1.650311278279371 z"/>
<path fill="#bababa" stroke="#bababa" d="M-0.8125 1.8944705926430399 L-0.8125 1.923076923076923 L-0.8125 1.650311278279371 L-0.8125 1.4294956530054426 L-0.8125 1.7022612978029945 z"/>
<path fill="#bababa" stroke="#bababa" d="M-0.5115384615384615 1.6187794780070788 L-0.5115384615384615 1.650311278279371 L-0.5115384615384615 1.4294956530054426 L-0.5115384615384629 0.5202768370136026 L-0.5115384615384629 0.7410924622875311 z"/>
<path fill="#bababa" stroke="#bababa" d="M-0.8125 1.923076923076923 L-0.8125 1.7022612978029945 L-0.8154940119760479 1.7022612978029945 L-0.8154940119760479 1.923076923076923 z"/>
<path fill="#bababa" stroke="#bababa" d="M0.2926581619369956 -1.6761042177380705 L0.29700598802395206 -1.71901411652863 L0.29700598802395206 -1.5732852005983078 L0.29265816193699556 -1.530375301807748 z"/>
<path fill="#bababa" stroke="#bababa" d="M-0.26575956221528246 -1.5925057659276745 L-0.2398361172392059 -1.5581019960640312 L-0.2398361172392058 -1.412373080133709 L-0.26699401197604816 -1.4484151247527637 L-0.26699401197604794 -1.594144040683086 z"/>
<path fill="#bababa" stroke="#bababa" d="M0.2610059880239521 -1.594144040683086 L0.280789771807736 -1.6339674702770703 L0.28078977180773607 -1.4882385543467482 L0.26100598802395214 -1.448415124752764 z"/>
<path fill="#bababa" stroke="#bababa" d="M0.16129170230966633 -1.499310280378767 L0.20023179447556508 -1.5262000288259514 L0.2002317944755651 -1.3804711128956295 L0.16129170230966636 -1.3535813644484451 z"/>
<path fill="#bababa" stroke="#bababa" d="M0.296808359565454 -1.7209645664736555 L0.2926581619369955 -1.7619240153191897 L0.2926581619369955 -1.6161950993888674 L0.29700598802395206 -1.5732852005983078 L0.29700598802395206 -1.7190141165286301 z"/>
<path fill="#bababa" stroke="#bababa" d="M0.20023179447556513 -1.7660992883009856 L0.2002317944755651 -1.9118282042313082 L0.16129170230966636 -1.9387179526784923 L0.16129170230966638 -1.7929890367481698 z"/>
<path fill="#bababa" stroke="#bababa" d="M0.2610059880239519 -1.6981552764438517 L0.2610059880239518 -1.8438841923741738 L0.23384809328711 -1.8799262369932288 L0.23384809328710973 -1.7341973210629065 z"/>
<path fill="#bababa" stroke="#bababa" d="M-0.29884381434758933 -1.7599735653741642 L-0.3029940119760478 -1.7190141165286301 L-0.30299401197604786 -1.5732852005983078 L-0.2986461858890913 -1.6161950993888674 L-0.2986461858890913 -1.7619240153191895 z"/>
<path fill="#bababa" stroke="#bababa" d="M0.03742806594603001 -1.3144530402747912 L0.022005988023952094 -1.3122132270463467 L0.022005988023952094 -1.4579421429766681 L0.07047537577905412 -1.4649815559803507 L0.07047537577905412 -1.3192526400500293 z"/>
<path fill="#bababa" stroke="#bababa" d="M-0.22914002216280538 -1.40222245419432 L-0.23983611723920614 -1.412373080133709 L-0.23983611723920603 -1.5581019960640312 L-0.20621981842766102 -1.5262000288259518 L-0.20621981842766113 -1.3804711128956295 z"/>
<path fill="#bababa" stroke="#bababa" d="M-0.16727972626176205 -1.938717952678492 L-0.2062198184276606 -1.9118282042313077 L-0.20621981842766077 -1.7660992883009856 L-0.1672797262617622 -1.7929890367481698 z"/>
<path fill="#bababa" stroke="#bababa" d="M-0.012084921066956996 -1.3122132270463462 L-0.0279940119760479 -1.3122132270463462 L-0.0279940119760479 -1.4579421429766684 L0.022005988023952094 -1.4579421429766684 L0.022005988023952094 -1.3122132270463462 z"/>
<path fill="#bababa" stroke="#bababa" d="M0.23384809328710993 -1.8799262369932288 L0.20023179447556458 -1.911828204231308 L0.20023179447556477 -1.766099288300986 L0.23384809328710968 -1.7341973210629065 z"/>
<path fill="#bababa" stroke="#bababa" d="M-0.2948698799388724 -1.516968154888339 L-0.2986461858890915 -1.530375301807748 L-0.2986461858890915 -1.6761042177380703 L-0.2867777957598318 -1.6339674702770703 L-0.2867777957598318 -1.4882385543467482 z"/>
<path fill="#bababa" stroke="#bababa" d="M0.006096897114861188 -1.8343571741502687 L0.022005988023952094 -1.8343571741502687 L0.022005988023952094 -1.980086090080591 L-0.0279940119760479 -1.980086090080591 L-0.0279940119760479 -1.8343571741502687 z"/>
<path fill="#bababa" stroke="#bababa" d="M-0.28587853286056875 -1.6321573143864345 L-0.2669940119760479 -1.594144040683086 L-0.2669940119760481 -1.448415124752764 L-0.28677779575983176 -1.488238554346748 L-0.28677779575983187 -1.6339674702770703 z"/>
<path fill="#bababa" stroke="#bababa" d="M0.24248924161246882 -1.4238410034215903 L0.23384809328711023 -1.412373080133709 L0.2338480932871101 -1.5581019960640312 L0.26100598802395225 -1.594144040683086 L0.26100598802395236 -1.4484151247527637 z"/>
<path fill="#bababa" stroke="#bababa" d="M0.28078977180773573 -1.8040607627801897 L0.26100598802395203 -1.843884192374174 L0.26100598802395203 -1.6981552764438517 L0.28078977180773573 -1.6583318468498673 z"/>
<path fill="#bababa" stroke="#bababa" d="M0.20023179447556522 -1.5262000288259518 L0.23384809328711026 -1.5581019960640312 L0.2338480932871102 -1.412373080133709 L0.20023179447556516 -1.3804711128956297 z"/>
<path fill="#bababa" stroke="#bababa" d="M-0.30161061276656176 -1.5596320509831298 L-0.3029940119760479 -1.5732852005983078 L-0.30299401197604797 -1.7190141165286301 L-0.29864618588909136 -1.6761042177380703 L-0.2986461858890914 -1.5303753018077482 z"/>
<path fill="#bababa" stroke="#bababa" d="M0.2813292440863387 -1.6358827769798427 L0.2926581619369956 -1.6761042177380703 L0.29265816193699573 -1.5303753018077482 L0.2807897718077359 -1.4882385543467482 L0.28078977180773607 -1.6339674702770703 z"/>
<path fill="#bababa" stroke="#bababa" d="M0.16129170230966627 -1.9387179526784921 L0.11778520880317296 -1.959389012531302 L0.11778520880317309 -1.81366009660098 L0.1612917023096664 -1.7929890367481698 z"/>
<path fill="#bababa" stroke="#bababa" d="M-0.21691591350406111 -1.755948662361597 L-0.20621981842766077 -1.766099288300986 L-0.20621981842766046 -1.911828204231308 L-0.23983611723920548 -1.8799262369932286 L-0.23983611723920542 -1.7341973210629065 z"/>
<path fill="#bababa" stroke="#bababa" d="M-0.1526060190862979 -1.945689810321796 L-0.16727972626176232 -1.9387179526784921 L-0.16727972626176218 -1.7929890367481702 L-0.1237732327552686 -1.8136600966009795 L-0.12377323275526836 -1.9593890125313016 z"/>
<path fill="#bababa" stroke="#bababa" d="M-0.28677779575983153 -1.8040607627801897 L-0.29864618588909136 -1.7619240153191895 L-0.29864618588909136 -1.6161950993888674 L-0.28677779575983153 -1.6583318468498673 z"/>
<path fill="#bababa" stroke="#bababa" d="M0.29265816193699556 0.9461673750183527 L0.29700598802395206 0.9032574762277931 L0.2970059880239521 1.048986392158115 L0.29265816193699556 1.0918962909486747 z"/>
<path fill="#bababa" stroke="#bababa" d="M-0.2657595622152827 1.0297658268287486 L-0.23983611723920628 1.0641695966923914 L-0.23983611723920603 1.2098985126227138 L-0.26699401197604805 1.173856468003659 L-0.26699401197604833 1.0281275520733366 z"/>
<path fill="#bababa" stroke="#bababa" d="M0.26100598802395225 1.0281275520733368 L0.2807897718077359 0.9883041224793527 L0.280789771807736 1.1340330384096746 L0.26100598802395225 1.1738564680036592 z"/>
<path fill="#bababa" stroke="#bababa" d="M0.28888185598677646 -1.6296022463082764 L0.2926581619369955 -1.6161950993888674 L0.2926581619369955 -1.7619240153191895 L0.2807897718077358 -1.8040607627801897 L0.2807897718077358 -1.6583318468498676 z"/>
<path fill="#bababa" stroke="#bababa" d="M0.16129170230966622 1.1229613123776558 L0.20023179447556497 1.0960715639304714 L0.20023179447556494 1.241800479860794 L0.1612917023096666 1.268690228307978 z"/>
<path fill="#bababa" stroke="#bababa" d="M0.7782471062431228 1.4294956530054426 L-0.8125 1.4294956530054426 L-0.8125 1.650311278279371 L0.809505988023952 1.650311278279371 L0.809505988023952 1.4294956530054426 z"/>
<path fill="#bababa" stroke="#bababa" d="M-0.1534367510551506 -1.3470042090407326 L-0.1672797262617621 -1.353581364448445 L-0.1672797262617622 -1.4993102803787672 L-0.1237732327552686 -1.4786392205259575 L-0.12377323275526846 -1.3329103045956354 z"/>
<path fill="#bababa" stroke="#bababa" d="M0.11778520880317286 -1.9593890125313018 L0.07047537577905412 -1.9730466770769082 L0.07047537577905412 -1.8273177611465856 L0.11778520880317286 -1.8136600966009793 z"/>
<path fill="#bababa" stroke="#bababa" d="M-0.6220607140341737 0.7410924622875311 L-0.5115384615384629 0.7410924622875311 L-0.5115384615384629 0.5202768370136027 L-0.811538461538463 0.5202768370136027 L-0.811538461538463 0.7410924622875311 z"/>
<path fill="#bababa" stroke="#bababa" d="M0.2610059880239517 0.9241163163125715 L0.2610059880239519 0.7783874003822491 L0.2338480932871096 0.7423453557631943 L0.23384809328710976 0.8880742716935164 z"/>
<path fill="#bababa" stroke="#bababa" d="M0.11778520880317313 -1.4786392205259575 L0.16129170230966616 -1.4993102803787672 L0.16129170230966658 -1.3535813644484451 L0.11778520880317285 -1.3329103045956354 z"/>
<path fill="#bababa" stroke="#bababa" d="M-0.27328885227088806 -1.6854841852094022 L-0.2669940119760478 -1.6981552764438517 L-0.26699401197604766 -1.8438841923741738 L-0.2867777957598314 -1.8040607627801897 L-0.2867777957598315 -1.6583318468498673 z"/>
<path fill="#bababa" stroke="#bababa" d="M-0.2062198184276606 -1.526200028825951 L-0.16727972626176252 -1.4993102803787672 L-0.16727972626176213 -1.353581364448445 L-0.20621981842766082 -1.380471112895629 z"/>
<path fill="#bababa" stroke="#bababa" d="M-0.29884381434758933 0.8622980273822588 L-0.30299401197604786 0.9032574762277931 L-0.3029940119760478 1.048986392158115 L-0.2986461858890913 1.0060764933675554 L-0.2986461858890913 0.8603475774372334 z"/>
<path fill="#bababa" stroke="#bababa" d="M0.03742806594603001 1.3078185524816326 L0.022005988023952094 1.310058365710077 L0.022005988023952094 1.1643294497797547 L0.07047537577905412 1.1572900367760721 L0.07047537577905412 1.3030189527063945 z"/>
<path fill="#bababa" stroke="#bababa" d="M-0.09525637195625393 -1.9676214178007965 L-0.12377323275526868 -1.9593890125313012 L-0.12377323275526868 -1.8136600966009793 L-0.07646339973114993 -1.8273177611465856 L-0.07646339973114993 -1.9730466770769075 z"/>
<path fill="#bababa" stroke="#bababa" d="M-0.22914002216280532 1.2200491385621028 L-0.239836117239206 1.209898512622714 L-0.23983611723920614 1.0641695966923916 L-0.20621981842766096 1.0960715639304712 L-0.20621981842766116 1.2418004798607933 z"/>
<path fill="#bababa" stroke="#bababa" d="M-0.732052654985407 1.4294956530054423 L-0.5115384615384615 1.4294956530054423 L-0.5115384615384615 1.6503112782793707 L-0.8115384615384614 1.6503112782793707 L-0.8115384615384614 1.4294956530054423 z"/>
<path fill="#bababa" stroke="#bababa" d="M-0.1672797262617621 0.6835536400779311 L-0.20621981842766085 0.7104433885251153 L-0.20621981842766085 0.8561723044554371 L-0.1672797262617625 0.8292825560082532 z"/>
<path fill="#bababa" stroke="#bababa" d="M0.07047537577905412 -1.464981555980351 L0.11778520880317286 -1.4786392205259573 L0.11778520880317286 -1.3329103045956354 L0.07047537577905412 -1.319252640050029 z"/>
<path fill="#bababa" stroke="#bababa" d="M-0.012084921066956996 1.3100583657100768 L-0.0279940119760479 1.3100583657100768 L-0.0279940119760479 1.1643294497797547 L0.022005988023952094 1.1643294497797547 L0.022005988023952094 1.3100583657100768 z"/>
<path fill="#bababa" stroke="#bababa" d="M0.23384809328710937 0.7423453557631939 L0.20023179447556488 0.7104433885251148 L0.2002317944755644 0.8561723044554368 L0.23384809328710943 0.8880742716935166 z"/>
<path fill="#bababa" stroke="#bababa" d="M0.05505329785697621 -1.8295575743750307 L0.07047537577905413 -1.8273177611465863 L0.07047537577905413 -1.9730466770769077 L0.02200598802395209 -1.9800860900805903 L0.02200598802395209 -1.8343571741502689 z"/>
<path fill="#bababa" stroke="#bababa" d="M-0.10872010406577634 -1.3285646840583967 L-0.12377323275526865 -1.332910304595635 L-0.12377323275526865 -1.4786392205259575 L-0.07646339973114993 -1.464981555980351 L-0.07646339973114993 -1.3192526400500286 z"/>
<path fill="#bababa" stroke="#bababa" d="M-0.15343675105515087 1.2752673837156911 L-0.16727972626176205 1.2686902283079784 L-0.16727972626176218 1.122961312377656 L-0.12377323275526886 1.143632372230466 L-0.12377323275526873 1.2893612881607883 z"/>
<path fill="#bababa" stroke="#bababa" d="M0.11778520880317286 0.6628825802251214 L0.07047537577905412 0.649224915679515 L0.07047537577905412 0.7949538316098373 L0.11778520880317286 0.8086114961554437 z"/>
<path fill="#bababa" stroke="#bababa" d="M-0.043416089898125815 -1.832117360921824 L-0.0279940119760479 -1.8343571741502684 L-0.0279940119760479 -1.980086090080591 L-0.07646339973114993 -1.9730466770769086 L-0.07646339973114993 -1.8273177611465858 z"/>
<path fill="#bababa" stroke="#bababa" d="M-0.07426024574228166 -1.4646615826620015 L-0.0279940119760479 -1.4579421429766681 L-0.0279940119760479 -1.3122132270463467 L-0.07646339973114993 -1.3192526400500293 L-0.07646339973114993 -1.4649815559803507 z"/>
<path fill="#bababa" stroke="#bababa" d="M-0.2948698799388726 1.1053034378680837 L-0.2986461858890914 1.0918962909486747 L-0.2986461858890914 0.9461673750183526 L-0.28677779575983176 0.9883041224793527 L-0.28677779575983176 1.1340330384096748 z"/>
<path fill="#bababa" stroke="#bababa" d="M0.11778520880317282 1.1436323722304653 L0.16129170230966622 1.1229613123776558 L0.16129170230966663 1.2686902283079782 L0.11778520880317289 1.2893612881607877 z"/>
<path fill="#bababa" stroke="#bababa" d="M-0.27328885227088795 0.936787407547021 L-0.26699401197604766 0.9241163163125711 L-0.2669940119760478 0.7783874003822491 L-0.2867777957598314 0.8182108299762333 L-0.2867777957598314 0.9639397459065555 z"/>
<path fill="#bababa" stroke="#bababa" d="M0.2888818559867765 0.9926693464481464 L0.29265816193699534 1.0060764933675554 L0.2926581619369954 0.8603475774372334 L0.2807897718077357 0.8182108299762333 L0.2807897718077357 0.9639397459065554 z"/>
<path fill="#bababa" stroke="#bababa" d="M-0.24107056699997115 -1.878287962237817 L-0.2669940119760477 -1.8438841923741738 L-0.26699401197604755 -1.6981552764438517 L-0.23983611723920575 -1.7341973210629065 L-0.23983611723920553 -1.8799262369932286 z"/>
<path fill="#bababa" stroke="#bababa" d="M-0.8125 1.7022612978029945 L-0.8125 1.4294956530054423 L0.809505988023952 1.4294956530054423 L0.809505988023952 -3.467195178366245 L-0.8154940119760479 -3.467195178366245 L-0.8154940119760479 1.7022612978029945 z M0.16129170230966636 -1.4993102803787675 L0.11778520880317286 -1.4786392205259578 L0.07047537577905413 -1.4649815559803514 L0.022005988023952094 -1.457942142976669 L-0.0279940119760479 -1.457942142976669 L-0.07646339973114993 -1.4649815559803514 L-0.12377323275526868 -1.4786392205259578 L-0.16727972626176218 -1.4993102803787675 L-0.2062198184276608 -1.5262000288259516 L-0.23983611723920578 -1.5581019960640312 L-0.2669940119760479 -1.594144040683086 L-0.28677779575983164 -1.6339674702770703 L-0.29864618588909136 -1.6761042177380703 L-0.30299401197604786 -1.71901411652863 L-0.29864618588909136 -1.7619240153191895 L-0.28677779575983164 -1.8040607627801895 L-0.2669940119760479 -1.843884192374174 L-0.23983611723920578 -1.8799262369932286 L-0.2062198184276608 -1.9118282042313082 L-0.16727972626176218 -1.9387179526784923 L-0.12377323275526868 -1.9593890125313023 L-0.07646339973114993 -1.9730466770769084 L-0.0279940119760479 -1.980086090080591 L0.022005988023952094 -1.980086090080591 L0.07047537577905413 -1.9730466770769084 L0.11778520880317286 -1.9593890125313023 L0.16129170230966636 -1.9387179526784923 L0.200231794475565 -1.9118282042313082 L0.23384809328710998 -1.8799262369932286 L0.2610059880239521 -1.843884192374174 L0.28078977180773584 -1.8040607627801895 L0.29265816193699556 -1.7619240153191895 L0.29700598802395206 -1.71901411652863 L0.29265816193699556 -1.6761042177380703 L0.28078977180773584 -1.6339674702770703 L0.2610059880239521 -1.594144040683086 L0.23384809328710998 -1.5581019960640312 L0.200231794475565 -1.5262000288259516 z M0.2610059880239521 1.028127552073337 L0.23384809328710998 1.0641695966923916 L0.200231794475565 1.0960715639304712 L0.16129170230966636 1.1229613123776554 L0.11778520880317286 1.143632372230465 L0.07047537577905413 1.1572900367760715 L0.022005988023952094 1.164329449779754 L-0.0279940119760479 1.164329449779754 L-0.07646339973114993 1.1572900367760715 L-0.12377323275526868 1.143632372230465 L-0.16727972626176218 1.1229613123776554 L-0.2062198184276608 1.0960715639304712 L-0.23983611723920578 1.0641695966923916 L-0.2669940119760479 1.028127552073337 L-0.28677779575983164 0.9883041224793527 L-0.29864618588909136 0.9461673750183527 L-0.30299401197604786 0.9032574762277931 L-0.29864618588909136 0.8603475774372333 L-0.28677779575983164 0.8182108299762333 L-0.2669940119760479 0.7783874003822491 L-0.23983611723920578 0.7423453557631944 L-0.2062198184276608 0.7104433885251149 L-0.16727972626176218 0.6835536400779305 L-0.12377323275526868 0.6628825802251209 L-0.07646339973114993 0.6492249156795145 L-0.0279940119760479 0.642185502675832 L0.022005988023952094 0.642185502675832 L0.07047537577905413 0.6492249156795145 L0.11778520880317286 0.6628825802251209 L0.16129170230966636 0.6835536400779305 L0.200231794475565 0.7104433885251149 L0.23384809328710998 0.7423453557631944 L0.2610059880239521 0.7783874003822491 L0.28078977180773584 0.8182108299762333 L0.29265816193699556 0.8603475774372333 L0.29700598802395206 0.9032574762277931 L0.29265816193699556 0.9461673750183527 L0.28078977180773584 0.9883041224793527 z M-0.811538461538463 0.5202768370136027 L-0.5115384615384629 0.5202768370136027 L-0.5115384615384615 1.4294956530054423 L-0.8115384615384614 1.4294956530054423 z"/>
<path fill="#bababa" stroke="#bababa" d="M-0.10872010406577634 1.2937069086980257 L-0.12377323275526865 1.2893612881607874 L-0.12377323275526865 1.1436323722304658 L-0.07646339973114993 1.1572900367760723 L-0.07646339973114993 1.3030189527063938 z"/>
<path fill="#bababa" stroke="#bababa" d="M0.006096897114861188 0.7879144186061545 L0.022005988023952094 0.7879144186061545 L0.022005988023952094 0.6421855026758323 L-0.0279940119760479 0.6421855026758323 L-0.0279940119760479 0.7879144186061545 z"/>
<path fill="#bababa" stroke="#bababa" d="M-0.2858785328605689 0.9901142783699882 L-0.26699401197604805 1.0281275520733368 L-0.2669940119760482 1.1738564680036592 L-0.28677779575983187 1.1340330384096748 L-0.28677779575983203 0.9883041224793527 z"/>
<path fill="#bababa" stroke="#bababa" d="M0.2002317944755649 0.8561723044554376 L0.20023179447556474 0.7104433885251156 L0.1612917023096667 0.6835536400779308 L0.16129170230966605 0.8292825560082532 z"/>
<path fill="#bababa" stroke="#bababa" d="M0.24248924161246901 1.1984305893348328 L0.2338480932871102 1.2098985126227135 L0.23384809328711018 1.0641695966923919 L0.2610059880239525 1.028127552073337 L0.2610059880239523 1.1738564680036592 z"/>
<path fill="#bababa" stroke="#bababa" d="M-0.043416089898125815 0.7901542318345993 L-0.0279940119760479 0.7879144186061549 L-0.0279940119760479 0.6421855026758325 L-0.07646339973114993 0.6492249156795151 L-0.07646339973114993 0.7949538316098375 z"/>
<path fill="#bababa" stroke="#bababa" d="M0.2807897718077357 0.8182108299762334 L0.2610059880239519 0.778387400382249 L0.26100598802395203 0.9241163163125712 L0.28078977180773573 0.9639397459065554 z"/>
<path fill="#bababa" stroke="#bababa" d="M-0.20621981842766093 1.096071563930472 L-0.16727972626176205 1.1229613123776563 L-0.1672797262617622 1.268690228307978 L-0.20621981842766043 1.2418004798607942 z"/>
<path fill="#bababa" stroke="#bababa" d="M0.29680835956545404 0.9013070262827676 L0.2926581619369955 0.8603475774372333 L0.2926581619369955 1.0060764933675554 L0.29700598802395206 1.048986392158115 L0.297005988023952 0.903257476227793 z"/>
<path fill="#bababa" stroke="#bababa" d="M0.20023179447556516 1.0960715639304712 L0.23384809328711034 1.0641695966923916 L0.2338480932871102 1.209898512622714 L0.20023179447556536 1.2418004798607933 z"/>
<path fill="#bababa" stroke="#bababa" d="M-0.30161061276656176 1.0626395417732932 L-0.3029940119760479 1.048986392158115 L-0.3029940119760479 0.903257476227793 L-0.2986461858890914 0.9461673750183527 L-0.2986461858890914 1.091896290948675 z"/>
<path fill="#bababa" stroke="#bababa" d="M-0.2410705669999709 0.7439836305186059 L-0.26699401197604766 0.7783874003822487 L-0.2669940119760475 0.9241163163125713 L-0.23983611723920556 0.8880742716935166 L-0.23983611723920523 0.7423453557631944 z"/>
<path fill="#bababa" stroke="#bababa" d="M-0.09525637195625393 0.6546501749556257 L-0.12377323275526868 0.662882580225121 L-0.12377323275526868 0.8086114961554431 L-0.07646339973114993 0.7949538316098368 L-0.07646339973114993 0.6492249156795147 z"/>
<path fill="#bababa" stroke="#bababa" d="M0.2813292440863387 0.9863888157765799 L0.2926581619369956 0.9461673750183527 L0.2926581619369957 1.0918962909486747 L0.28078977180773607 1.1340330384096746 L0.28078977180773596 0.9883041224793526 z"/>
<path fill="#bababa" stroke="#bababa" d="M0.055053297856976206 0.7927140183813927 L0.07047537577905412 0.7949538316098371 L0.07047537577905412 0.6492249156795148 L0.022005988023952094 0.6421855026758323 L0.022005988023952094 0.7879144186061545 z"/>
<path fill="#bababa" stroke="#bababa" d="M-0.07426024574228166 1.1576100100944215 L-0.0279940119760479 1.164329449779755 L-0.0279940119760479 1.3100583657100764 L-0.07646339973114993 1.3030189527063938 L-0.07646339973114993 1.1572900367760723 z"/>
<path fill="#bababa" stroke="#bababa" d="M0.1612917023096665 0.6835536400779307 L0.1177852088031729 0.6628825802251217 L0.11778520880317277 0.8086114961554436 L0.1612917023096663 0.8292825560082536 z"/>
<path fill="#bababa" stroke="#bababa" d="M-0.21691591350406078 0.866322930394826 L-0.20621981842766005 0.8561723044554368 L-0.20621981842766038 0.7104433885251152 L-0.23983611723920567 0.7423453557631943 L-0.23983611723920512 0.8880742716935167 z"/>
<path fill="#bababa" stroke="#bababa" d="M0.07047537577905412 1.157290036776072 L0.11778520880317285 1.1436323722304655 L0.11778520880317285 1.289361288160788 L0.07047537577905412 1.3030189527063945 z"/>
<path fill="#bababa" stroke="#bababa" d="M-0.152606019086298 0.6765817824346269 L-0.16727972626176232 0.683553640077931 L-0.1672797262617619 0.8292825560082533 L-0.12377323275526889 0.8086114961554434 L-0.12377323275526861 0.6628825802251215 z"/>
<path fill="#bababa" stroke="#bababa" d="M-0.2867777957598316 0.8182108299762334 L-0.2986461858890912 0.8603475774372334 L-0.2986461858890912 1.0060764933675557 L-0.2867777957598316 0.9639397459065556 z"/>
<path fill="#bababa" stroke="#bababa" d="M-0.7728575339846446 1.6503112782793707 L-0.8125 1.6503112782793707 L-0.8125 1.923076923076923 L-0.8154940119760479 1.923076923076923 L-0.8154940119760479 -3.3214662624359232 L0.809505988023952 -3.3214662624359232 L0.809505988023952 1.6503112782793707 z M-0.026370635352671278 -1.3122132270463467 L0.022005988023952094 -1.3122132270463467 L0.07047537577905413 -1.3192526400500293 L0.11778520880317286 -1.3329103045956356 L0.16129170230966636 -1.3535813644484451 L0.200231794475565 -1.3804711128956297 L0.23384809328710998 -1.4123730801337089 L0.2610059880239521 -1.4484151247527637 L0.28078977180773584 -1.488238554346748 L0.29265816193699556 -1.530375301807748 L0.29700598802395206 -1.5732852005983076 L0.29265816193699556 -1.6161950993888674 L0.28078977180773584 -1.6583318468498676 L0.2610059880239521 -1.6981552764438517 L0.23384809328710998 -1.7341973210629062 L0.200231794475565 -1.766099288300986 L0.16129170230966636 -1.7929890367481702 L0.11778520880317286 -1.81366009660098 L0.07047537577905413 -1.8273177611465863 L0.022005988023952094 -1.8343571741502689 L-0.0279940119760479 -1.8343571741502689 L-0.07646339973114993 -1.8273177611465863 L-0.12377323275526868 -1.81366009660098 L-0.16727972626176218 -1.7929890367481702 L-0.2062198184276608 -1.766099288300986 L-0.23983611723920578 -1.7341973210629062 L-0.2669940119760479 -1.6981552764438517 L-0.28677779575983164 -1.6583318468498676 L-0.29864618588909136 -1.6161950993888674 L-0.30299401197604786 -1.5732852005983076 L-0.29864618588909136 -1.530375301807748 L-0.28677779575983164 -1.488238554346748 L-0.2669940119760479 -1.4484151247527637 L-0.23983611723920578 -1.4123730801337089 L-0.2062198184276608 -1.3804711128956297 L-0.16727972626176218 -1.3535813644484451 L-0.12377323275526868 -1.3329103045956356 L-0.07646339973114993 -1.3192526400500293 L-0.0279940119760479 -1.3122132270463467 z M-0.629849476132517 0.7410924622875311 L-0.811538461538463 0.7410924622875311 L-0.8115384615384614 1.6503112782793707 L-0.5115384615384615 1.6503112782793707 L-0.5115384615384629 0.7410924622875311 z M-0.30299401197604786 1.048986392158115 L-0.29864618588909136 1.0918962909486747 L-0.28677779575983164 1.1340330384096748 L-0.2669940119760479 1.1738564680036592 L-0.23983611723920578 1.2098985126227138 L-0.2062198184276608 1.2418004798607933 L-0.16727972626176218 1.2686902283079775 L-0.12377323275526868 1.2893612881607872 L-0.07646339973114993 1.3030189527063938 L-0.0279940119760479 1.3100583657100762 L0.022005988023952094 1.3100583657100762 L0.07047537577905413 1.3030189527063938 L0.11778520880317286 1.2893612881607872 L0.16129170230966636 1.2686902283079775 L0.200231794475565 1.2418004798607933 L0.23384809328710998 1.2098985126227138 L0.2610059880239521 1.1738564680036592 L0.28078977180773584 1.1340330384096748 L0.29265816193699556 1.0918962909486747 L0.29700598802395206 1.048986392158115 L0.29265816193699556 1.0060764933675554 L0.28078977180773584 0.9639397459065554 L0.2610059880239521 0.9241163163125712 L0.23384809328710998 0.8880742716935165 L0.200231794475565 0.856172304455437 L0.16129170230966636 0.8292825560082526 L0.11778520880317286 0.808611496155443 L0.07047537577905413 0.7949538316098367 L0.022005988023952094 0.7879144186061541 L-0.0279940119760479 0.7879144186061541 L-0.07646339973114993 0.7949538316098367 L-0.12377323275526868 0.808611496155443 L-0.16727972626176218 0.8292825560082526 L-0.2062198184276608 0.856172304455437 L-0.23983611723920578 0.8880742716935165 L-0.2669940119760479 0.9241163163125712 L-0.28677779575983164 0.9639397459065554 L-0.29864618588909136 1.0060764933675554 z"/>
<path fill="#bababa" stroke="#bababa" d="M0.809505988023952 -3.4671951783662456 L0.809505988023952 1.4294956530054426 L0.809505988023952 1.650311278279371 L0.809505988023952 -3.3214662624359232 z"/>
<path fill="#bababa" stroke="#bababa" d="M-0.8154940119760479 1.7022612978029945 L-0.8154940119760479 -3.4671951783662456 L-0.8154940119760479 -3.3214662624359232 L-0.8154940119760479 1.923076923076923 z"/>
<path fill="#bababa" stroke="#bababa" d="M0.809505988023952 -3.4671951783662456 L0.809505988023952 -3.321466262435923 L-0.8154940119760479 -3.321466262435923 L-0.8154940119760479 -3.4671951783662456 z"/>
<path fill="#bababa" stroke="#bababa" d="M-0.8125 1.7022612978029945 L-0.8125 1.4294956530054426 L-0.8125 0.6934435687590147 L-0.8125 0.9662092135565666 z"/>
<path fill="#bababa" stroke="#bababa" d="M-0.7303449992537676 1.4294956530054423 L-0.5145324735145094 1.4294956530054423 L-0.5145324735145108 0.6934435687590146 L-0.8125 0.6934435687590146 L-0.8125 1.4294956530054423 z"/>
<path fill="#bababa" stroke="#bababa" d="M-0.811538461538463 -0.21577524723282518 L-0.8115384615384614 0.6934435687590147 L-0.8115384615384614 1.4294956530054426 L-0.811538461538463 0.5202768370136027 z"/>
<path fill="#bababa" stroke="#bababa" d="M-0.5519527399407165 0.5202768370136027 L-0.5145324735145094 0.5202768370136027 L-0.5145324735145108 -0.21577524723282515 L-0.811538461538463 -0.21577524723282515 L-0.811538461538463 0.5202768370136027 z"/>
<path fill="#bababa" stroke="#bababa" d="M-0.5145324735145095 0.45198351111500135 L-0.5145324735145094 0.5202768370136027 L-0.5145324735145094 -3.467195178366245 L-0.5145324735145108 -3.9529582314673193 L-0.5145324735145108 -0.21577524723282515 z"/>
<path fill="#bababa" stroke="#bababa" d="M-0.5145324735145096 1.3421402707380024 L-0.5145324735145094 1.4294956530054426 L-0.5145324735145108 0.6934435687590147 z"/>
<path fill="#bababa" stroke="#bababa" d="M-0.8125 0.9676936562775861 L-0.8125 0.9662092135565665 L-0.8145324735145109 0.9662092135565665 L-0.8145324735145094 1.7022612978029945 L-0.8125 1.7022612978029945 z"/>
<path fill="#bababa" stroke="#bababa" d="M-0.5145324735145098 1.2217846582911727 L-0.5145324735145094 1.4294956530054426 L-0.8115384615384614 1.4294956530054426 L-0.8115384615384614 0.6934435687590146 L-0.5145324735145108 0.6934435687590146 z"/>
<path fill="#bababa" stroke="#bababa" d="M-0.8125 0.757900276284716 L-0.8125 0.6934435687590146 L-0.5145324735145108 0.6934435687590146 L-0.8115384615384614 0.6934435687590146 L-0.811538461538463 -0.21577524723282515 L-0.5145324735145108 -0.21577524723282515 L-0.5145324735145108 -3.9529582314673193 L-0.8145324735145109 -3.9529582314673193 L-0.8145324735145109 0.9662092135565665 L-0.8125 0.9662092135565665 z"/>
<path fill="#bababa" stroke="#bababa" d="M-0.8145324735145109 -3.952958231467319 L-0.8145324735145094 -3.467195178366245 L-0.8145324735145094 1.7022612978029945 L-0.8145324735145109 0.9662092135565666 z"/>
<path fill="#bababa" stroke="#bababa" d="M-0.5145324735145094 -3.4671951783662456 L-0.8145324735145094 -3.4671951783662456 L-0.8145324735145109 -3.9529582314673184 L-0.5145324735145108 -3.9529582314673184 z"/>
<path fill="#bababa" stroke="#bababa" d="M-0.536208525292306 1.4294956530054426 L-0.8125 1.4294956530054426 L-0.8125 1.7022612978029945 L-0.8145324735145094 1.7022612978029945 L-0.8145324735145094 -3.467195178366245 L-0.5145324735145094 -3.467195178366245 L-0.5145324735145094 0.5202768370136027 L-0.811538461538463 0.5202768370136027 L-0.8115384615384614 1.4294956530054423 L-0.5145324735145094 1.4294956530054423 L-0.5145324735145094 1.4294956530054426 z"/>
<path fill="#bababa" stroke="#bababa" d="M0.2662869051266514 1.6503112782793707 L0.8125 1.6503112782793707 L0.8125 1.923076923076923 L-0.8125 1.923076923076923 L-0.8125 1.6503112782793707 z"/>
<path fill="#bababa" stroke="#bababa" d="M0.2956521739130435 0.26113137623797517 L0.3 0.29586880124951187 L0.3 0.5078484966809839 L0.2956521739130435 0.4731110716694472 z"/>
<path fill="#bababa" stroke="#bababa" d="M-0.2627655502392349 0.19345480200464032 L-0.23684210526315852 0.16560345745624927 L-0.2368421052631582 0.37758315288772154 L-0.2640000000000001 0.40676075193841693 L-0.26400000000000046 0.19478105650694466 z"/>
<path fill="#bababa" stroke="#bababa" d="M0.2640000000000003 0.19478105650694477 L0.2837837837837842 0.227019850776196 L0.2837837837837842 0.4389995462076679 L0.26400000000000035 0.40676075193841676 z"/>
<path fill="#bababa" stroke="#bababa" d="M0.1642857142857147 0.1180090125267791 L0.2032258064516137 0.1397774306911368 L0.20322580645161403 0.35175712612260784 L0.16428571428571567 0.32998870795825086 z"/>
<path fill="#bababa" stroke="#bababa" d="M0.2998023715415019 0.29744777511367265 L0.29565217391304344 0.3306062262610485 L0.29565217391304344 0.5425859216925205 L0.2999999999999999 0.5078484966809839 L0.2999999999999999 0.29586880124951187 z"/>
<path fill="#bababa" stroke="#bababa" d="M0.2019615177449265 0.6646466340628773 L0.20322580645161178 0.6639398672393597 L0.20322580645161173 0.45196017180788706 L0.16428571428571337 0.47372858997224404 L0.16428571428571342 0.6857082854037168 z"/>
<path fill="#bababa" stroke="#bababa" d="M0.2631182501708815 0.609883566068054 L0.2639999999999996 0.608936241423551 L0.2639999999999999 0.39695654599207897 L0.23684210526315722 0.42613414504277447 L0.23684210526315755 0.6381138404742467 z"/>
<path fill="#bababa" stroke="#bababa" d="M-0.29584980237154146 0.3290272523968878 L-0.29999999999999993 0.29586880124951187 L-0.2999999999999999 0.5078484966809839 L-0.2956521739130433 0.5425859216925206 L-0.2956521739130434 0.3306062262610486 z"/>
<path fill="#bababa" stroke="#bababa" d="M0.040422077922077915 0.2983126316886779 L0.024999999999999998 0.2964994056905766 L0.024999999999999998 0.08451971025910394 L0.07346938775510203 0.0902184205388508 L0.07346938775510203 0.3021981159703235 z"/>
<path fill="#bababa" stroke="#bababa" d="M-0.22614601018675803 0.3693657807351852 L-0.23684210526315844 0.37758315288772115 L-0.23684210526315885 0.16560345745624938 L-0.20322580645161348 0.1397774306911364 L-0.20322580645161353 0.3517571261226089 z"/>
<path fill="#bababa" stroke="#bababa" d="M-0.16428571428571323 0.47372858997224465 L-0.2032258064516123 0.4519601718078876 L-0.20322580645161187 0.6639398672393595 L-0.16428571428571354 0.6857082854037172 z"/>
<path fill="#bababa" stroke="#bababa" d="M-0.00909090909090909 0.29649940569057476 L-0.024999999999999998 0.29649940569057476 L-0.024999999999999998 0.08451971025910271 L0.024999999999999998 0.08451971025910271 L0.024999999999999998 0.29649940569057476 z"/>
<path fill="#bababa" stroke="#bababa" d="M0.23684210526315685 0.4261341450427738 L0.20322580645161215 0.4519601718078872 L0.20322580645161173 0.6639398672393588 L0.23684210526315724 0.6381138404742469 z"/>
<path fill="#bababa" stroke="#bababa" d="M-0.2918758679628246 0.4622574044770629 L-0.29565217391304366 0.4731110716694472 L-0.2956521739130437 0.26113137623797517 L-0.2837837837837839 0.22701985077619594 L-0.2837837837837838 0.438999546207668 z"/>
<path fill="#bababa" stroke="#bababa" d="M0.00909090909090909 0.7191975876713905 L0.024999999999999998 0.7191975876713905 L0.024999999999999998 0.5072178922399184 L-0.024999999999999998 0.5072178922399184 L-0.024999999999999998 0.7191975876713905 z"/>
<path fill="#bababa" stroke="#bababa" d="M-0.282884520884521 0.22555445103668453 L-0.2640000000000003 0.19478105650694483 L-0.26400000000000046 0.40676075193841676 L-0.28378378378378444 0.43899954620766785 L-0.28378378378378427 0.22701985077619583 z"/>
<path fill="#bababa" stroke="#bababa" d="M0.24548325358851705 0.3868669344038516 L0.236842105263158 0.37758315288772154 L0.23684210526315813 0.16560345745624927 L0.2640000000000001 0.19478105650694483 L0.2640000000000005 0.4067607519384169 z"/>
<path fill="#bababa" stroke="#bababa" d="M0.2837837837837832 0.36471775172282767 L0.26399999999999924 0.3969565459920788 L0.26399999999999985 0.608936241423551 L0.28378378378378305 0.5766974471542997 z"/>
<path fill="#bababa" stroke="#bababa" d="M0.20322580645161348 0.1397774306911364 L0.23684210526315885 0.16560345745624938 L0.23684210526315844 0.37758315288772115 L0.20322580645161353 0.3517571261226089 z"/>
<path fill="#bababa" stroke="#bababa" d="M-0.29861660079051383 0.4967956796318586 L-0.30000000000000004 0.5078484966809839 L-0.30000000000000004 0.29586880124951187 L-0.2956521739130435 0.26113137623797517 L-0.2956521739130435 0.47311107166944727 z"/>
<path fill="#bababa" stroke="#bababa" d="M0.2843232560623865 0.22857037466082228 L0.2956521739130436 0.26113137623797517 L0.29565217391304355 0.47311107166944727 L0.28378378378378394 0.43899954620766796 L0.283783783783784 0.2270198507761959 z"/>
<path fill="#bababa" stroke="#bababa" d="M0.16428571428571426 0.47372858997224476 L0.12077922077922076 0.4904627098789535 L0.12077922077922076 0.7024424053104245 L0.16428571428571426 0.6857082854037158 z"/>
<path fill="#bababa" stroke="#bababa" d="M-0.2139219015280133 0.6557224950868238 L-0.20322580645161184 0.6639398672393589 L-0.203225806451612 0.45196017180788756 L-0.23684210526315766 0.4261341450427746 L-0.23684210526315724 0.6381138404742464 z"/>
<path fill="#bababa" stroke="#bababa" d="M-0.1496120071102502 0.4793726112564111 L-0.16428571428571426 0.47372858997224354 L-0.16428571428571426 0.6857082854037163 L-0.12077922077922076 0.702442405310425 L-0.12077922077922076 0.4904627098789523 z"/>
<path fill="#bababa" stroke="#bababa" d="M-0.28378378378378355 0.36471775172282783 L-0.2956521739130434 0.3306062262610486 L-0.2956521739130432 0.5425859216925206 L-0.28378378378378366 0.5766974471542998 z"/>
<path fill="#bababa" stroke="#bababa" d="M0.29565217391304344 -1.8617112633559332 L0.30000000000000004 -1.8269738383443965 L0.3 -1.6149941429129244 L0.29565217391304355 -1.649731567924461 z"/>
<path fill="#bababa" stroke="#bababa" d="M-0.2627655502392352 -1.9293878375892684 L-0.23684210526315824 -1.9572391821376587 L-0.2368421052631581 -1.7452594867061868 L-0.26400000000000085 -1.7160818876554915 L-0.26400000000000096 -1.9280615830869634 z"/>
<path fill="#bababa" stroke="#bababa" d="M0.2640000000000002 -1.9280615830869636 L0.2837837837837843 -1.8958227888177124 L0.2837837837837845 -1.6838430933862403 L0.26400000000000035 -1.7160818876554917 z"/>
<path fill="#bababa" stroke="#bababa" d="M0.29187586796282444 0.553439588884905 L0.2956521739130433 0.5425859216925206 L0.29565217391304327 0.3306062262610485 L0.2837837837837836 0.36471775172282783 L0.2837837837837837 0.5766974471542998 z"/>
<path fill="#bababa" stroke="#bababa" d="M0.1642857142857156 -2.0048336270671303 L0.20322580645161428 -1.983065208902772 L0.20322580645161417 -1.7710855134713 L0.16428571428571545 -1.7928539316356584 z"/>
<path fill="#bababa" stroke="#bababa" d="M-0.1504427390791027 0.324664215260661 L-0.16428571428571426 0.3299887079582502 L-0.16428571428571426 0.11800901252677738 L-0.12077922077922076 0.10127489262006864 L-0.12077922077922076 0.31325458805154144 z"/>
<path fill="#bababa" stroke="#bababa" d="M0.12077922077922076 0.4904627098789527 L0.07346938775510202 0.501519181960171 L0.07346938775510202 0.7134988773916435 L0.12077922077922076 0.7024424053104252 z"/>
<path fill="#bababa" stroke="#bababa" d="M0.26311825017088125 -1.512959073525854 L0.26399999999999907 -1.5139063981703578 L0.2639999999999995 -1.7258860936018288 L0.23684210526315772 -1.696708494551134 L0.23684210526315694 -1.484728799119662 z"/>
<path fill="#bababa" stroke="#bababa" d="M0.12077922077922076 0.10127489262006889 L0.16428571428571423 0.11800901252677762 L0.16428571428571423 0.32998870795824975 L0.12077922077922076 0.31325458805154105 z"/>
<path fill="#bababa" stroke="#bababa" d="M-0.27029484029483997 0.5986784432469711 L-0.26399999999999973 0.608936241423551 L-0.26399999999999996 0.39695654599207897 L-0.2837837837837836 0.36471775172282783 L-0.2837837837837834 0.5766974471542998 z"/>
<path fill="#bababa" stroke="#bababa" d="M-0.20322580645161353 0.13977743069113646 L-0.1642857142857158 0.11800901252677923 L-0.16428571428571567 0.32998870795825125 L-0.2032258064516134 0.35175712612260845 z"/>
<path fill="#bababa" stroke="#bababa" d="M-0.29584980237154146 -1.7938153871970206 L-0.29999999999999993 -1.8269738383443965 L-0.2999999999999999 -1.6149941429129242 L-0.2956521739130433 -1.5802567179013878 L-0.2956521739130434 -1.7922364133328599 z"/>
<path fill="#bababa" stroke="#bababa" d="M0.040422077922077915 -1.8245300079052318 L0.024999999999999998 -1.826343233903333 L0.024999999999999998 -2.038322929334805 L0.07346938775510203 -2.0326242190550583 L0.07346938775510203 -1.8206445236235862 z"/>
<path fill="#bababa" stroke="#bababa" d="M-0.09226235998020603 0.4971271991640358 L-0.12077922077922075 0.4904627098789531 L-0.12077922077922075 0.7024424053104247 L-0.07346938775510203 0.713498877391643 L-0.07346938775510203 0.5015191819601713 z"/>
<path fill="#bababa" stroke="#bababa" d="M-0.2261460101867575 -1.7534768588587226 L-0.23684210526315896 -1.7452594867061877 L-0.23684210526315852 -1.9572391821376594 L-0.20322580645161312 -1.983065208902772 L-0.20322580645161356 -1.7710855134713002 z"/>
<path fill="#bababa" stroke="#bababa" d="M-0.16428571428571306 -1.6491140496216636 L-0.20322580645161206 -1.6708824677860215 L-0.20322580645161212 -1.4589027723545487 L-0.16428571428571312 -1.437134354190191 z"/>
<path fill="#bababa" stroke="#bababa" d="M0.07346938775510203 0.09021842053884976 L0.12077922077922076 0.10127489262006804 L0.12077922077922076 0.3132545880515401 L0.07346938775510203 0.30219811597032187 z"/>
<path fill="#bababa" stroke="#bababa" d="M-0.00909090909090909 -1.8263432339033325 L-0.024999999999999998 -1.8263432339033325 L-0.024999999999999998 -2.038322929334804 L0.024999999999999998 -2.038322929334804 L0.024999999999999998 -1.8263432339033325 z"/>
<path fill="#bababa" stroke="#bababa" d="M0.23684210526315624 -1.696708494551134 L0.20322580645161198 -1.670882467786021 L0.20322580645161115 -1.458902772354549 L0.2368421052631575 -1.484728799119662 z"/>
<path fill="#bababa" stroke="#bababa" d="M0.05804730983302411 0.7153121033897445 L0.07346938775510203 0.7134988773916432 L0.07346938775510203 0.5015191819601705 L0.024999999999999998 0.5072178922399173 L0.024999999999999998 0.7191975876713901 z"/>
<path fill="#bababa" stroke="#bababa" d="M-0.10572609208972844 0.30973661966206234 L-0.12077922077922075 0.3132545880515409 L-0.12077922077922075 0.10127489262006853 L-0.07346938775510203 0.09021842053885025 L-0.07346938775510203 0.3021981159703226 z"/>
<path fill="#bababa" stroke="#bababa" d="M-0.1504427390791027 -1.7981784243332466 L-0.16428571428571426 -1.7928539316356575 L-0.16428571428571426 -2.0048336270671294 L-0.12077922077922075 -2.0215677469738385 L-0.12077922077922075 -1.8095880515423661 z"/>
<path fill="#bababa" stroke="#bababa" d="M0.12077922077922075 -1.632379929714957 L0.07346938775510203 -1.6213234576337388 L0.07346938775510203 -1.4093437622022664 L0.12077922077922075 -1.4204002342834845 z"/>
<path fill="#bababa" stroke="#bababa" d="M-0.040422077922077915 0.7173843616732878 L-0.024999999999999994 0.7191975876713891 L-0.024999999999999994 0.5072178922399171 L-0.07346938775510202 0.5015191819601702 L-0.07346938775510202 0.7134988773916422 z"/>
<path fill="#bababa" stroke="#bababa" d="M-0.07126623376623376 0.08995938825340798 L-0.024999999999999998 0.08451971025910415 L-0.024999999999999998 0.2964994056905752 L-0.07346938775510202 0.3021981159703221 L-0.07346938775510202 0.09021842053885101 z"/>
<path fill="#bababa" stroke="#bababa" d="M-0.29187586796282455 -1.6605852351168455 L-0.2956521739130435 -1.649731567924461 L-0.29565217391304366 -1.861711263355933 L-0.283783783783784 -1.8958227888177124 L-0.2837837837837839 -1.6838430933862405 z"/>
<path fill="#bababa" stroke="#bababa" d="M0.12077922077922075 -2.0215677469738385 L0.16428571428571426 -2.0048336270671294 L0.16428571428571426 -1.7928539316356575 L0.12077922077922075 -1.8095880515423661 z"/>
<path fill="#bababa" stroke="#bababa" d="M-0.2702948402948399 -1.524164196346937 L-0.26399999999999946 -1.5139063981703573 L-0.2639999999999996 -1.7258860936018294 L-0.28378378378378366 -1.7581248878710805 L-0.28378378378378344 -1.5461451924396084 z"/>
<path fill="#bababa" stroke="#bababa" d="M0.2918758679628243 -1.5694030507090033 L0.2956521739130432 -1.5802567179013878 L0.2956521739130434 -1.7922364133328597 L0.2837837837837835 -1.7581248878710807 L0.28378378378378355 -1.5461451924396084 z"/>
<path fill="#bababa" stroke="#bababa" d="M-0.2380765550239233 0.4248078905404701 L-0.2639999999999996 0.3969565459920788 L-0.2639999999999998 0.6089362414235511 L-0.2368421052631578 0.6381138404742466 L-0.23684210526315763 0.42613414504277436 z"/>
<path fill="#bababa" stroke="#bababa" d="M-0.10572609208972844 -1.813106019931845 L-0.12077922077922076 -1.8095880515423666 L-0.12077922077922076 -2.0215677469738407 L-0.07346938775510202 -2.0326242190550587 L-0.07346938775510202 -1.8206445236235849 z"/>
<path fill="#bababa" stroke="#bababa" d="M0.00909090909090909 -1.4036450519225179 L0.024999999999999998 -1.4036450519225179 L0.024999999999999998 -1.61562474735399 L-0.024999999999999998 -1.61562474735399 L-0.024999999999999998 -1.4036450519225179 z"/>
<path fill="#bababa" stroke="#bababa" d="M-0.2828845208845214 -1.897288188557224 L-0.26400000000000073 -1.9280615830869634 L-0.2640000000000001 -1.716081887655491 L-0.283783783783784 -1.6838430933862405 L-0.28378378378378394 -1.8958227888177122 z"/>
<path fill="#bababa" stroke="#bababa" d="M0.20196151774492654 -1.4581960055310303 L0.20322580645161206 -1.4589027723545491 L0.20322580645161176 -1.6708824677860217 L0.16428571428571342 -1.649114049621664 L0.1642857142857137 -1.4371343541901915 z"/>
<path fill="#bababa" stroke="#bababa" d="M0.24548325358851772 -1.7359757051900562 L0.2368421052631581 -1.7452594867061868 L0.23684210526315824 -1.9572391821376587 L0.26400000000000096 -1.9280615830869634 L0.26400000000000085 -1.7160818876554915 z"/>
<path fill="#bababa" stroke="#bababa" d="M-0.040422077922077915 -1.4054582779206202 L-0.024999999999999998 -1.4036450519225188 L-0.024999999999999998 -1.615624747353991 L-0.07346938775510203 -1.621323457633738 L-0.07346938775510203 -1.4093437622022658 z"/>
<path fill="#bababa" stroke="#bababa" d="M0.2837837837837837 -1.7581248878710807 L0.26399999999999957 -1.7258860936018292 L0.2639999999999994 -1.5139063981703573 L0.28378378378378344 -1.5461451924396084 z"/>
<path fill="#bababa" stroke="#bababa" d="M-0.20322580645161428 -1.9830652089027732 L-0.1642857142857145 -2.0048336270671294 L-0.16428571428571564 -1.7928539316356584 L-0.203225806451614 -1.7710855134713006 z"/>
<path fill="#bababa" stroke="#bababa" d="M0.2998023715415019 -1.8253948644802358 L0.2956521739130434 -1.7922364133328599 L0.2956521739130434 -1.5802567179013878 L0.29999999999999993 -1.6149941429129244 L0.29999999999999993 -1.8269738383443965 z"/>
<path fill="#bababa" stroke="#bababa" d="M0.2032258064516147 -1.9830652089027725 L0.23684210526315858 -1.9572391821376585 L0.23684210526315888 -1.7452594867061872 L0.20322580645161353 -1.7710855134713002 z"/>
<path fill="#bababa" stroke="#bababa" d="M-0.29861660079051383 -1.6260469599620497 L-0.3 -1.6149941429129244 L-0.30000000000000004 -1.8269738383443965 L-0.29565217391304344 -1.8617112633559332 L-0.29565217391304355 -1.649731567924461 z"/>
<path fill="#bababa" stroke="#bababa" d="M-0.23807655502392314 -1.6980347490534382 L-0.2639999999999993 -1.7258860936018294 L-0.2639999999999995 -1.5139063981703569 L-0.23684210526315716 -1.484728799119662 L-0.23684210526315727 -1.6967084945511335 z"/>
<path fill="#bababa" stroke="#bababa" d="M-0.09226235998020602 -1.6257154404298733 L-0.12077922077922076 -1.6323799297149562 L-0.12077922077922076 -1.420400234283484 L-0.07346938775510203 -1.4093437622022658 L-0.07346938775510203 -1.6213234576337379 z"/>
<path fill="#bababa" stroke="#bababa" d="M0.28432325606238656 -1.894272264933086 L0.29565217391304377 -1.8617112633559332 L0.2956521739130439 -1.6497315679244613 L0.28378378378378405 -1.6838430933862405 L0.28378378378378394 -1.8958227888177124 z"/>
<path fill="#bababa" stroke="#bababa" d="M0.05804730983302411 -1.4075305362041644 L0.07346938775510203 -1.4093437622022658 L0.07346938775510203 -1.621323457633738 L0.024999999999999998 -1.615624747353991 L0.024999999999999998 -1.4036450519225188 z"/>
<path fill="#bababa" stroke="#bababa" d="M-0.07126623376623376 -2.032883251340502 L-0.024999999999999998 -2.038322929334806 L-0.024999999999999998 -1.826343233903332 L-0.07346938775510203 -1.820644523623585 L-0.07346938775510203 -2.032624219055059 z"/>
<path fill="#bababa" stroke="#bababa" d="M0.16428571428571426 -1.6491140496216647 L0.12077922077922076 -1.632379929714956 L0.12077922077922076 -1.4204002342834832 L0.16428571428571426 -1.4371343541901918 z"/>
<path fill="#bababa" stroke="#bababa" d="M-0.2139219015280128 -1.4671201445070847 L-0.20322580645161165 -1.4589027723545493 L-0.20322580645161198 -1.6708824677860206 L-0.23684210526315733 -1.6967084945511337 L-0.236842105263157 -1.4847287991196623 z"/>
<path fill="#bababa" stroke="#bababa" d="M0.07346938775510203 -2.032624219055058 L0.12077922077922075 -2.0215677469738393 L0.12077922077922075 -1.8095880515423683 L0.07346938775510203 -1.8206445236235866 z"/>
<path fill="#bababa" stroke="#bababa" d="M-0.1496120071102502 -1.643470028337498 L-0.16428571428571426 -1.6491140496216654 L-0.16428571428571426 -1.4371343541901933 L-0.12077922077922075 -1.4204002342834845 L-0.12077922077922075 -1.6323799297149566 z"/>
<path fill="#bababa" stroke="#bababa" d="M-0.2837837837837835 -1.7581248878710802 L-0.2956521739130434 -1.7922364133328599 L-0.29565217391304316 -1.5802567179013878 L-0.2837837837837836 -1.5461451924396086 z"/>
<path fill="#bababa" stroke="#bababa" d="M0.8125 1.923076923076923 L0.8125 1.650311278279371 L0.8125 -2.534588051542366 L0.8125 -2.322608356110894 z"/>
<path fill="#bababa" stroke="#bababa" d="M-0.8125 -2.322608356110896 L0.8125 -2.322608356110896 L0.8125 -2.5345880515423675 L-0.8125 -2.5345880515423675 z"/>
<path fill="#bababa" stroke="#bababa" d="M-0.8125 1.650311278279371 L-0.8125 1.923076923076923 L-0.8125 -2.322608356110894 L-0.8125 -2.534588051542366 z"/>
<path fill="#bababa" stroke="#bababa" d="M0.8027737293685696 1.6503112782793707 L-0.8125 1.6503112782793707 L-0.8125 -2.5345880515423658 L0.8125 -2.5345880515423658 L0.8125 1.6503112782793707 z M0.16230814639905547 -1.6483534078077222 L0.16428571428571428 -1.6491140496216634 L0.2032258064516129 -1.6708824677860208 L0.23684210526315788 -1.696708494551134 L0.26399999999999996 -1.7258860936018294 L0.28378378378378377 -1.7581248878710807 L0.29565217391304344 -1.7922364133328599 L0.3 -1.8269738383443965 L0.29565217391304344 -1.8617112633559332 L0.28378378378378377 -1.8958227888177124 L0.26399999999999996 -1.9280615830869636 L0.23684210526315788 -1.9572391821376591 L0.2032258064516129 -1.9830652089027723 L0.16428571428571428 -2.004833627067129 L0.12077922077922078 -2.021567746973838 L0.07346938775510203 -2.032624219055056 L0.024999999999999998 -2.0383229293348033 L-0.024999999999999998 -2.0383229293348033 L-0.07346938775510203 -2.032624219055056 L-0.12077922077922078 -2.021567746973838 L-0.16428571428571428 -2.004833627067129 L-0.2032258064516129 -1.9830652089027723 L-0.23684210526315788 -1.9572391821376591 L-0.26399999999999996 -1.9280615830869636 L-0.28378378378378377 -1.8958227888177124 L-0.29565217391304344 -1.8617112633559332 L-0.3 -1.8269738383443965 L-0.29565217391304344 -1.7922364133328599 L-0.28378378378378377 -1.7581248878710807 L-0.26399999999999996 -1.7258860936018294 L-0.23684210526315788 -1.696708494551134 L-0.2032258064516129 -1.6708824677860208 L-0.16428571428571428 -1.6491140496216634 L-0.12077922077922078 -1.6323799297149548 L-0.07346938775510203 -1.6213234576337365 L-0.024999999999999998 -1.6156247473539898 L0.024999999999999998 -1.6156247473539898 L0.07346938775510203 -1.6213234576337365 L0.12077922077922078 -1.6323799297149548 z M0.20145580226225387 0.45294964536081284 L0.2032258064516129 0.4519601718078875 L0.23684210526315788 0.4261341450427744 L0.26399999999999996 0.3969565459920789 L0.28378378378378377 0.36471775172282783 L0.29565217391304344 0.3306062262610485 L0.3 0.29586880124951187 L0.29565217391304344 0.26113137623797517 L0.28378378378378377 0.2270198507761959 L0.26399999999999996 0.1947810565069448 L0.23684210526315788 0.1656034574562493 L0.2032258064516129 0.13977743069113624 L0.16428571428571428 0.11800901252677902 L0.12077922077922078 0.10127489262007028 L0.07346938775510203 0.090218420538852 L0.024999999999999998 0.08451971025910515 L-0.024999999999999998 0.08451971025910515 L-0.07346938775510203 0.090218420538852 L-0.12077922077922078 0.10127489262007028 L-0.16428571428571428 0.11800901252677902 L-0.2032258064516129 0.13977743069113624 L-0.23684210526315788 0.1656034574562493 L-0.26399999999999996 0.1947810565069448 L-0.28378378378378377 0.2270198507761959 L-0.29565217391304344 0.26113137623797517 L-0.3 0.29586880124951187 L-0.29565217391304344 0.3306062262610485 L-0.28378378378378377 0.36471775172282783 L-0.26399999999999996 0.3969565459920789 L-0.23684210526315788 0.4261341450427744 L-0.2032258064516129 0.4519601718078875 L-0.16428571428571428 0.47372858997224476 L-0.12077922077922078 0.49046270987895346 L-0.07346938775510203 0.5015191819601718 L-0.024999999999999998 0.5072178922399185 L0.024999999999999998 0.5072178922399185 L0.07346938775510203 0.5015191819601718 L0.12077922077922078 0.49046270987895346 L0.16428571428571428 0.47372858997224476 z"/>
<path fill="#bababa" stroke="#bababa" d="M0.668135514823625 1.923076923076923 L0.8125 1.923076923076923 L0.8125 -2.322608356110894 L-0.8125 -2.322608356110894 L-0.8125 1.923076923076923 z M-0.026573681420620193 0.7190125646103598 L-0.07346938775510203 0.7134988773916437 L-0.12077922077922078 0.7024424053104255 L-0.16428571428571428 0.6857082854037168 L-0.2032258064516129 0.6639398672393595 L-0.23684210526315788 0.6381138404742464 L-0.26399999999999996 0.608936241423551 L-0.28378378378378377 0.5766974471542998 L-0.29565217391304344 0.5425859216925206 L-0.3 0.5078484966809839 L-0.29565217391304344 0.4731110716694472 L-0.28378378378378377 0.438999546207668 L-0.26399999999999996 0.4067607519384169 L-0.23684210526315788 0.3775831528877214 L-0.2032258064516129 0.3517571261226083 L-0.16428571428571428 0.3299887079582511 L-0.12077922077922078 0.3132545880515423 L-0.07346938775510203 0.30219811597032403 L-0.024999999999999998 0.2964994056905772 L0.024999999999999998 0.2964994056905772 L0.07346938775510203 0.30219811597032403 L0.12077922077922078 0.3132545880515423 L0.16428571428571428 0.3299887079582511 L0.2032258064516129 0.3517571261226083 L0.23684210526315788 0.3775831528877214 L0.26399999999999996 0.4067607519384169 L0.28378378378378377 0.438999546207668 L0.29565217391304344 0.4731110716694472 L0.3 0.5078484966809839 L0.29565217391304344 0.5425859216925206 L0.28378378378378377 0.5766974471542998 L0.26399999999999996 0.608936241423551 L0.23684210526315788 0.6381138404742464 L0.2032258064516129 0.6639398672393595 L0.16428571428571428 0.6857082854037168 L0.12077922077922078 0.7024424053104255 L0.07346938775510203 0.7134988773916437 L0.024999999999999998 0.7191975876713906 L-0.024999999999999998 0.7191975876713906 z M-0.3 -1.6149941429129244 L-0.29565217391304344 -1.649731567924461 L-0.28378378378378377 -1.6838430933862403 L-0.26399999999999996 -1.7160818876554913 L-0.23684210526315788 -1.745259486706187 L-0.2032258064516129 -1.7710855134713 L-0.16428571428571428 -1.792853931635657 L-0.12077922077922078 -1.8095880515423661 L-0.07346938775510203 -1.8206445236235842 L-0.024999999999999998 -1.8263432339033312 L0.024999999999999998 -1.8263432339033312 L0.07346938775510203 -1.8206445236235842 L0.12077922077922078 -1.8095880515423661 L0.16428571428571428 -1.792853931635657 L0.2032258064516129 -1.7710855134713 L0.23684210526315788 -1.745259486706187 L0.26399999999999996 -1.7160818876554913 L0.28378378378378377 -1.6838430933862403 L0.29565217391304344 -1.649731567924461 L0.3 -1.6149941429129244 L0.29565217391304344 -1.5802567179013878 L0.28378378378378377 -1.5461451924396086 L0.26399999999999996 -1.513906398170357 L0.23684210526315788 -1.4847287991196618 L0.2032258064516129 -1.458902772354549 L0.16428571428571428 -1.4371343541901913 L0.12077922077922078 -1.4204002342834827 L0.07346938775510203 -1.4093437622022646 L0.024999999999999998 -1.4036450519225177 L-0.024999999999999998 -1.4036450519225177 L-0.07346938775510203 -1.4093437622022646 L-0.12077922077922078 -1.4204002342834827 L-0.16428571428571428 -1.4371343541901913 L-0.2032258064516129 -1.458902772354549 L-0.23684210526315788 -1.4847287991196618 L-0.26399999999999996 -1.513906398170357 L-0.28378378378378377 -1.5461451924396086 L-0.29565217391304344 -1.5802567179013878 z"/>
<path fill="#bababa" stroke="#bababa" d="M-0.5115384615384625 0.9996624115043627 L-0.5115384615384615 1.6503112782793707 L-0.8115384615384614 1.6503112782793707 L-0.811538461538463 0.741092462287531 L-0.5115384615384629 0.741092462287531 z"/>
<path fill="#bababa" stroke="#bababa" d="M-0.5115384615384626 0.951010556549348 L-0.5115384615384629 0.741092462287531 L-0.5115384615384629 -3.2411870363139395 L-0.5115384615384615 -2.5345880515423658 L-0.5115384615384615 1.650311278279371 z"/>
<path fill="#bababa" stroke="#bababa" d="M-0.8115384615384614 -2.534588051542369 L-0.5115384615384615 -2.534588051542369 L-0.5115384615384629 -3.2411870363139412 L-0.811538461538463 -3.2411870363139412 z"/>
<path fill="#bababa" stroke="#bababa" d="M-0.8115384615384629 0.7949317305044886 L-0.8115384615384614 1.650311278279371 L-0.8115384615384614 -2.5345880515423658 L-0.811538461538463 -3.2411870363139395 L-0.811538461538463 0.7410924622875311 z"/>
<path fill="#bababa" stroke="#bababa" d="M-0.6187198177218529 0.7410924622875311 L-0.811538461538463 0.7410924622875311 L-0.811538461538463 -3.2411870363139395 L-0.5115384615384629 -3.2411870363139395 L-0.5115384615384629 0.7410924622875311 z"/>
<path fill="#bababa" stroke="#bababa" d="M-0.7518547268305515 1.6503112782793707 L-0.5115384615384615 1.6503112782793707 L-0.5115384615384615 -2.5345880515423658 L-0.8115384615384614 -2.5345880515423658 L-0.8115384615384614 1.6503112782793707 z"/>
</svg>