<?xml version="1.0" encoding="UTF-8"?>
<!-- Generated by jsxcad -->
<!DOCTYPE svg PUBLIC "-//W3C//DTD SVG 1.1 Tiny//EN" "http://www.w3.org/Graphics/SVG/1.1/DTD/svg11-tiny.dtd">
<svg baseProfile="tiny" height="6.511567483450195mm" width="1.6279940119760488mm" viewBox="-0.8154940119760483 -2.775874952630757 1.6279940119760488 6.511567483450195" version="1.1" stroke="black" stroke-width=".1" fill="none" xmlns="http://www.w3.org/2000/svg">
<path fill="#bababa" stroke="#bababa" d="M-0.5115384615384615 1.2165917331399563 L-0.5115384615384615 1.1555905078642692 L-0.5115384615384616 1.1784329457999017 z"/>
<path fill="#bababa" stroke="#bababa" d="M-0.8115384615384615 1.1784329457999017 L-0.8115384615384614 1.1555905078642692 L-0.8115384615384614 1.2165917331399563 z"/>
<path fill="#bababa" stroke="#bababa" d="M-0.8115384615384615 1.1784329457999014 L-0.8115384615384614 1.2165917331399552 L-0.5115384615384615 1.2165917331399552 L-0.5115384615384616 1.1784329457999014 z"/>
<path fill="#bababa" stroke="#bababa" d="M0.809505988023952 1.2165917331399556 L-0.8125 1.2165917331399556 L-0.8125 1.4285714285714273 L0.809505988023952 1.4285714285714273 z"/>
<path fill="#bababa" stroke="#bababa" d="M0.29265816193699556 2.1356869491854624 L0.2970059880239521 2.146710341655039 L0.2970059880239521 2.439049071615924 L0.29265816193699556 2.428025679146348 z"/>
<path fill="#bababa" stroke="#bababa" d="M-0.26575956221528246 2.114210819664558 L-0.23983611723920586 2.1053726198941276 L-0.23983611723920592 2.397711349855013 L-0.266994011976048 2.406970416281178 L-0.266994011976048 2.114631686320293 z"/>
<path fill="#bababa" stroke="#bababa" d="M0.2610059880239523 2.114631686320293 L0.2807897718077361 2.124862176400023 L0.2807897718077361 2.417200906360908 L0.26100598802395225 2.406970416281178 z"/>
<path fill="#bababa" stroke="#bababa" d="M0.16129170230966636 2.0902692480795806 L0.20023179447556494 2.09717712385874 L0.20023179447556497 2.389515853819625 L0.16129170230966636 2.3826079780404656 z"/>
<path fill="#bababa" stroke="#bababa" d="M0.26012423819483355 2.4714283459904807 L0.261005988023952 2.47112772695067 L0.26100598802395203 2.178788996989785 L0.2338480932871099 2.18804806341595 L0.23384809328710984 2.480386793376835 z"/>
<path fill="#bababa" stroke="#bababa" d="M-0.29884381434758933 2.1572326708305436 L-0.30299401197604786 2.146710341655039 L-0.3029940119760478 2.439049071615924 L-0.2986461858890913 2.4500724640855003 L-0.2986461858890913 2.157733734124615 z"/>
<path fill="#bababa" stroke="#bababa" d="M0.037428065946030015 2.3725560579427682 L0.02200598802395209 2.3719806583037197 L0.02200598802395209 2.0796419283428347 L0.07047537577905413 2.0814503272084153 L0.07047537577905413 2.3737890571693003 z"/>
<path fill="#bababa" stroke="#bababa" d="M-0.2291400221628055 2.3951036920255713 L-0.2398361172392061 2.3977113498550127 L-0.2398361172392059 2.1053726198941276 L-0.2062198184276612 2.09717712385874 L-0.20621981842766085 2.3895158538196255 z"/>
<path fill="#bababa" stroke="#bababa" d="M-0.1672797262617622 2.203151435230497 L-0.2062198184276608 2.1962435594513376 L-0.20621981842766077 2.4885822894122227 L-0.1672797262617621 2.4954901651913826 z"/>
<path fill="#bababa" stroke="#bababa" d="M-0.012084921066956996 2.3719806583037197 L-0.0279940119760479 2.3719806583037197 L-0.0279940119760479 2.0796419283428342 L0.022005988023952094 2.0796419283428342 L0.022005988023952094 2.3719806583037197 z"/>
<path fill="#bababa" stroke="#bababa" d="M0.2338480932871098 2.1880480634159505 L0.20023179447556488 2.1962435594513376 L0.20023179447556466 2.4885822894122227 L0.23384809328710995 2.4803867933768355 z"/>
<path fill="#bababa" stroke="#bababa" d="M-0.1534367510551506 2.380918331421943 L-0.16727972626176216 2.3826079780404656 L-0.16727972626176216 2.0902692480795806 L-0.12377323275526866 2.0849589301356533 L-0.12377323275526865 2.377297660096538 z"/>
<path fill="#bababa" stroke="#bababa" d="M0.11778520880317286 2.208461753174425 L0.07047537577905412 2.211970356101663 L0.07047537577905412 2.504309086062548 L0.11778520880317286 2.50080048313531 z"/>
<path fill="#bababa" stroke="#bababa" d="M-0.2948698799388725 2.4245814332600717 L-0.2986461858890914 2.428025679146348 L-0.29864618588909136 2.1356869491854624 L-0.28677779575983176 2.1248621764000224 L-0.2867777957598317 2.417200906360908 z"/>
<path fill="#bababa" stroke="#bababa" d="M0.11778520880317285 2.0849589301356533 L0.16129170230966636 2.0902692480795806 L0.16129170230966636 2.3826079780404656 L0.11778520880317288 2.3772976600965383 z"/>
<path fill="#bababa" stroke="#bababa" d="M-0.2732888522708879 2.46787257101621 L-0.2669940119760478 2.47112772695067 L-0.2669940119760478 2.178788996989785 L-0.2867777957598314 2.168558506910055 L-0.2867777957598314 2.46089723687094 z"/>
<path fill="#bababa" stroke="#bababa" d="M0.2888818559867765 2.4535167099717765 L0.29265816193699534 2.4500724640855003 L0.29265816193699545 2.157733734124615 L0.2807897718077358 2.168558506910055 L0.28078977180773573 2.46089723687094 z"/>
<path fill="#bababa" stroke="#bababa" d="M-0.10872010406577635 2.3761812864378715 L-0.12377323275526868 2.3772976600965383 L-0.12377323275526866 2.0849589301356533 L-0.07646339973114993 2.0814503272084153 L-0.07646339973114992 2.3737890571693 z"/>
<path fill="#bababa" stroke="#bababa" d="M0.006096897114861188 2.5061174849281285 L0.022005988023952094 2.5061174849281285 L0.022005988023952094 2.2137787549672434 L-0.0279940119760479 2.2137787549672434 L-0.0279940119760479 2.5061174849281285 z"/>
<path fill="#bababa" stroke="#bababa" d="M-0.2858785328605689 2.1243971541236717 L-0.2669940119760481 2.114631686320293 L-0.26699401197604805 2.406970416281178 L-0.2867777957598319 2.417200906360908 L-0.2867777957598319 2.124862176400023 z"/>
<path fill="#bababa" stroke="#bababa" d="M0.19896750576887995 2.4888065710933645 L0.200231794475565 2.4885822894122227 L0.20023179447556497 2.196243559451338 L0.16129170230966636 2.2031514352304975 L0.16129170230966627 2.4954901651913826 z"/>
<path fill="#bababa" stroke="#bababa" d="M0.24248924161246885 2.400657416445156 L0.23384809328711043 2.397711349855013 L0.23384809328711 2.1053726198941276 L0.26100598802395236 2.114631686320293 L0.2610059880239523 2.406970416281178 z"/>
<path fill="#bababa" stroke="#bababa" d="M-0.043416089898125815 2.50554208528908 L-0.0279940119760479 2.5061174849281285 L-0.0279940119760479 2.2137787549672434 L-0.07646339973114993 2.211970356101663 L-0.07646339973114993 2.504309086062548 z"/>
<path fill="#bababa" stroke="#bababa" d="M0.28078977180773573 2.168558506910055 L0.2610059880239521 2.178788996989785 L0.26100598802395186 2.47112772695067 L0.28078977180773573 2.4608972368709403 z"/>
<path fill="#bababa" stroke="#bababa" d="M-0.20621981842766077 2.09717712385874 L-0.16727972626176216 2.0902692480795806 L-0.16727972626176216 2.3826079780404656 L-0.20621981842766077 2.389515853819625 z"/>
<path fill="#bababa" stroke="#bababa" d="M0.29680835956545404 2.1472114049491107 L0.2926581619369955 2.157733734124615 L0.2926581619369955 2.4500724640855003 L0.29700598802395206 2.439049071615924 L0.297005988023952 2.146710341655039 z"/>
<path fill="#bababa" stroke="#bababa" d="M0.20023179447556555 2.09717712385874 L0.2338480932871104 2.1053726198941276 L0.2338480932871102 2.3977113498550127 L0.2002317944755653 2.389515853819625 z"/>
<path fill="#bababa" stroke="#bababa" d="M-0.30161061276656176 2.4355416285574223 L-0.3029940119760479 2.439049071615924 L-0.3029940119760479 2.146710341655039 L-0.29864618588909136 2.1356869491854624 L-0.2986461858890914 2.428025679146348 z"/>
<path fill="#bababa" stroke="#bababa" d="M-0.24107056699997104 2.187627196760215 L-0.2669940119760478 2.1787889969897845 L-0.26699401197604783 2.47112772695067 L-0.23983611723920542 2.4803867933768355 L-0.2398361172392054 2.18804806341595 z"/>
<path fill="#bababa" stroke="#bababa" d="M-0.09525637195625394 2.210576627290003 L-0.12377323275526868 2.208461753174425 L-0.12377323275526868 2.50080048313531 L-0.07646339973114993 2.504309086062548 L-0.07646339973114995 2.2119703561016624 z"/>
<path fill="#bababa" stroke="#bababa" d="M0.2813292440863386 2.1253542115266337 L0.2926581619369956 2.135686949185463 L0.2926581619369956 2.4280256791463475 L0.28078977180773584 2.4172009063609075 L0.28078977180773584 2.124862176400023 z"/>
<path fill="#bababa" stroke="#bababa" d="M0.055053297856976206 2.504884485701596 L0.07047537577905412 2.504309086062548 L0.07047537577905412 2.211970356101663 L0.022005988023952094 2.2137787549672434 L0.022005988023952094 2.5061174849281285 z"/>
<path fill="#bababa" stroke="#bababa" d="M-0.07426024574228166 2.0813681272599798 L-0.0279940119760479 2.0796419283428347 L-0.0279940119760479 2.3719806583037197 L-0.07646339973114993 2.3737890571693003 L-0.07646339973114993 2.0814503272084153 z"/>
<path fill="#bababa" stroke="#bababa" d="M0.16129170230966636 2.203151435230497 L0.11778520880317289 2.208461753174425 L0.11778520880317288 2.50080048313531 L0.16129170230966636 2.495490165191382 z"/>
<path fill="#bababa" stroke="#bababa" d="M-0.21691591350406128 2.4859746315827813 L-0.20621981842766066 2.4885822894122227 L-0.20621981842766027 2.1962435594513376 L-0.23983611723920556 2.18804806341595 L-0.23983611723920537 2.480386793376835 z"/>
<path fill="#bababa" stroke="#bababa" d="M0.07047537577905412 2.0814503272084153 L0.11778520880317286 2.0849589301356533 L0.11778520880317285 2.377297660096538 L0.07047537577905413 2.3737890571693003 z"/>
<path fill="#bababa" stroke="#bababa" d="M-0.1526060190862981 2.2049424793767276 L-0.16727972626176216 2.203151435230497 L-0.16727972626176218 2.495490165191382 L-0.12377323275526869 2.50080048313531 L-0.12377323275526866 2.208461753174425 z"/>
<path fill="#bababa" stroke="#bababa" d="M-0.2867777957598316 2.1685585069100553 L-0.29864618588909125 2.157733734124615 L-0.29864618588909125 2.4500724640855 L-0.2867777957598316 2.46089723687094 z"/>
<path fill="#bababa" stroke="#bababa" d="M0.29265816193699556 1.4620351871557988 L0.2970059880239521 1.4730585796253752 L0.2970059880239521 1.7653973095862603 L0.2926581619369956 1.754373917116684 z"/>
<path fill="#bababa" stroke="#bababa" d="M-0.2657595622152826 1.4405590576348946 L-0.2398361172392063 1.431720857864464 L-0.23983611723920603 1.7240595878253493 L-0.26699401197604844 1.7333186542515142 L-0.2669940119760481 1.4409799242906294 z"/>
<path fill="#bababa" stroke="#bababa" d="M0.26100598802395236 1.4409799242906294 L0.280789771807736 1.4512104143703592 L0.280789771807736 1.7435491443312443 L0.26100598802395236 1.7333186542515144 z"/>
<path fill="#bababa" stroke="#bababa" d="M0.16129170230966636 1.4166174860499168 L0.20023179447556497 1.4235253618290764 L0.20023179447556497 1.7158640917899615 L0.16129170230966636 1.7089562160108018 z"/>
<path fill="#bababa" stroke="#bababa" d="M0.2601242381948337 1.7977765839608169 L0.2610059880239518 1.7974759649210061 L0.26100598802395125 1.5051372349601213 L0.23384809328710937 1.5143963013862864 L0.2338480932871099 1.8067350313471715 z"/>
<path fill="#bababa" stroke="#bababa" d="M-0.29884381434758933 1.48358090880088 L-0.30299401197604786 1.4730585796253752 L-0.3029940119760478 1.7653973095862603 L-0.2986461858890913 1.7764207020558365 L-0.2986461858890913 1.4840819720949516 z"/>
<path fill="#bababa" stroke="#bababa" d="M0.03742806594603001 1.6989042959131042 L0.022005988023952094 1.698328896274056 L0.022005988023952094 1.4059901663131709 L0.07047537577905412 1.4077985651787517 L0.07047537577905412 1.7001372951396365 z"/>
<path fill="#bababa" stroke="#bababa" d="M-0.22914002216280516 1.7214519299959075 L-0.23983611723920648 1.724059587825349 L-0.23983611723920625 1.4317208578644642 L-0.20621981842766096 1.4235253618290764 L-0.20621981842766118 1.7158640917899615 z"/>
<path fill="#bababa" stroke="#bababa" d="M-0.16727972626176216 1.5294996732008335 L-0.20621981842766077 1.522591797421674 L-0.20621981842766074 1.8149305273825591 L-0.16727972626176216 1.8218384031617185 z"/>
<path fill="#bababa" stroke="#bababa" d="M-0.012084921066956996 1.698328896274056 L-0.0279940119760479 1.698328896274056 L-0.0279940119760479 1.4059901663131706 L0.022005988023952094 1.4059901663131706 L0.022005988023952094 1.698328896274056 z"/>
<path fill="#bababa" stroke="#bababa" d="M0.2338480932871092 1.5143963013862864 L0.20023179447556394 1.522591797421674 L0.2002317944755649 1.8149305273825591 L0.233848093287109 1.8067350313471713 z"/>
<path fill="#bababa" stroke="#bababa" d="M-0.15343675105515062 1.7072665693922797 L-0.16727972626176216 1.7089562160108018 L-0.16727972626176216 1.4166174860499168 L-0.12377323275526868 1.4113071681059894 L-0.12377323275526866 1.7036458980668745 z"/>
<path fill="#bababa" stroke="#bababa" d="M0.11778520880317286 1.534809991144761 L0.0704753757790541 1.538318594071999 L0.07047537577905412 1.830657324032884 L0.11778520880317288 1.827148721105646 z"/>
<path fill="#bababa" stroke="#bababa" d="M-0.29486987993887254 1.7509296712304077 L-0.2986461858890914 1.7543739171166841 L-0.29864618588909153 1.4620351871557988 L-0.28677779575983164 1.451210414370359 L-0.28677779575983176 1.7435491443312443 z"/>
<path fill="#bababa" stroke="#bababa" d="M-0.8125 1.1536091711871306 L-0.8125 1.1362326986105433 L-0.8125 1.4285714285714284 L-0.8125 1.2165917331399563 L-0.8125 1.1555905078642694 z"/>
<path fill="#bababa" stroke="#bababa" d="M-0.7859847329290955 1.1555905078642692 L-0.5115384615384615 1.1555905078642692 L-0.5115384615384615 1.2165917331399563 L-0.8115384615384614 1.2165917331399563 L-0.8115384615384614 1.1555905078642692 z"/>
<path fill="#bababa" stroke="#bababa" d="M0.11778520880317286 1.4113071681059894 L0.16129170230966636 1.4166174860499168 L0.16129170230966636 1.7089562160108018 L0.11778520880317286 1.7036458980668745 z"/>
<path fill="#bababa" stroke="#bababa" d="M-0.27328885227088806 1.7942208089865466 L-0.26699401197604783 1.7974759649210061 L-0.26699401197604783 1.505137234960121 L-0.2867777957598315 1.4949067448803914 L-0.2867777957598315 1.7872454748412763 z"/>
<path fill="#bababa" stroke="#bababa" d="M0.28888185598677635 1.779864947942113 L0.2926581619369955 1.7764207020558367 L0.2926581619369955 1.4840819720949516 L0.2807897718077357 1.4949067448803912 L0.2807897718077356 1.7872454748412763 z"/>
<path fill="#bababa" stroke="#bababa" d="M-0.10872010406577634 1.7025295244082077 L-0.12377323275526866 1.7036458980668745 L-0.12377323275526866 1.4113071681059894 L-0.07646339973114993 1.4077985651787517 L-0.07646339973114993 1.7001372951396365 z"/>
<path fill="#bababa" stroke="#bababa" d="M0.006096897114861188 1.8324657228984647 L0.022005988023952094 1.8324657228984647 L0.022005988023952094 1.5401269929375796 L-0.0279940119760479 1.5401269929375796 L-0.0279940119760479 1.8324657228984647 z"/>
<path fill="#bababa" stroke="#bababa" d="M-0.28587853286056897 1.4507453920940077 L-0.26699401197604794 1.4409799242906294 L-0.2669940119760479 1.7333186542515144 L-0.28677779575983203 1.743549144331244 L-0.28677779575983203 1.451210414370359 z"/>
<path fill="#bababa" stroke="#bababa" d="M0.19896750576887998 1.8151548090637006 L0.20023179447556497 1.8149305273825591 L0.20023179447556497 1.522591797421674 L0.16129170230966633 1.5294996732008337 L0.16129170230966636 1.8218384031617185 z"/>
<path fill="#bababa" stroke="#bababa" d="M0.2424892416124694 1.7270056544154926 L0.23384809328711023 1.7240595878253493 L0.23384809328711048 1.431720857864464 L0.2610059880239523 1.4409799242906294 L0.26100598802395264 1.7333186542515142 z"/>
<path fill="#bababa" stroke="#bababa" d="M-0.043416089898125815 1.8318903232594161 L-0.0279940119760479 1.8324657228984647 L-0.0279940119760479 1.5401269929375796 L-0.07646339973114993 1.538318594071999 L-0.07646339973114993 1.8306573240328838 z"/>
<path fill="#bababa" stroke="#bababa" d="M0.2807897718077358 1.4949067448803914 L0.2610059880239518 1.505137234960121 L0.2610059880239518 1.7974759649210061 L0.28078977180773573 1.7872454748412765 z"/>
<path fill="#bababa" stroke="#bababa" d="M-0.2062198184276608 1.4235253618290764 L-0.16727972626176216 1.4166174860499168 L-0.16727972626176216 1.7089562160108018 L-0.20621981842766077 1.7158640917899612 z"/>
<path fill="#bababa" stroke="#bababa" d="M0.29680835956545404 1.4735596429194469 L0.2926581619369955 1.4840819720949514 L0.2926581619369955 1.7764207020558365 L0.297005988023952 1.7653973095862603 L0.29700598802395206 1.4730585796253752 z"/>
<path fill="#bababa" stroke="#bababa" d="M0.2002317944755662 1.4235253618290764 L0.2338480932871104 1.431720857864464 L0.23384809328711081 1.724059587825349 L0.20023179447556533 1.7158640917899615 z"/>
<path fill="#bababa" stroke="#bababa" d="M-0.3016106127665617 1.7618898665277587 L-0.30299401197604797 1.7653973095862603 L-0.3029940119760479 1.4730585796253752 L-0.29864618588909136 1.4620351871557988 L-0.2986461858890914 1.754373917116684 z"/>
<path fill="#bababa" stroke="#bababa" d="M-0.24107056699997084 1.5139754347305516 L-0.2669940119760475 1.505137234960121 L-0.26699401197604766 1.7974759649210064 L-0.23983611723920545 1.8067350313471715 L-0.23983611723920578 1.5143963013862864 z"/>
<path fill="#bababa" stroke="#bababa" d="M-0.09525637195625392 1.5369248652603398 L-0.12377323275526866 1.534809991144761 L-0.12377323275526868 1.827148721105646 L-0.07646339973114993 1.830657324032884 L-0.07646339973114993 1.5383185940719988 z"/>
<path fill="#bababa" stroke="#bababa" d="M0.2813292440863387 1.45170244949697 L0.29265816193699556 1.4620351871557988 L0.2926581619369958 1.754373917116684 L0.28078977180773607 1.7435491443312443 L0.28078977180773584 1.451210414370359 z"/>
<path fill="#bababa" stroke="#bababa" d="M0.055053297856976206 1.8312327236719326 L0.07047537577905412 1.830657324032884 L0.07047537577905412 1.538318594071999 L0.022005988023952094 1.5401269929375796 L0.022005988023952094 1.8324657228984649 z"/>
<path fill="#bababa" stroke="#bababa" d="M-0.07426024574228166 1.407716365230316 L-0.0279940119760479 1.4059901663131706 L-0.0279940119760479 1.698328896274056 L-0.07646339973114993 1.7001372951396365 L-0.07646339973114993 1.4077985651787515 z"/>
<path fill="#bababa" stroke="#bababa" d="M0.16129170230966636 1.5294996732008335 L0.11778520880317288 1.534809991144761 L0.11778520880317284 1.827148721105646 L0.16129170230966636 1.8218384031617185 z"/>
<path fill="#bababa" stroke="#bababa" d="M-0.21691591350406064 1.8123228695531177 L-0.2062198184276605 1.8149305273825591 L-0.20621981842765963 1.522591797421674 L-0.23983611723920512 1.5143963013862864 L-0.2398361172392047 1.8067350313471715 z"/>
<path fill="#bababa" stroke="#bababa" d="M0.07047537577905412 1.4077985651787517 L0.11778520880317286 1.4113071681059894 L0.11778520880317285 1.7036458980668743 L0.07047537577905413 1.7001372951396365 z"/>
<path fill="#bababa" stroke="#bababa" d="M-0.1526060190862981 1.5312907173470638 L-0.16727972626176216 1.5294996732008335 L-0.16727972626176216 1.8218384031617187 L-0.12377323275526865 1.827148721105646 L-0.12377323275526864 1.5348099911447612 z"/>
<path fill="#bababa" stroke="#bababa" d="M-0.28677779575983153 1.4949067448803914 L-0.2986461858890912 1.4840819720949514 L-0.29864618588909114 1.7764207020558367 L-0.28677779575983153 1.7872454748412765 z"/>
<path fill="#bababa" stroke="#bababa" d="M0.809505988023952 1.1983470590079115 L0.809505988023952 1.2165917331399563 L0.809505988023952 1.4285714285714284 L0.809505988023952 2.775874952630756 L0.809505988023952 2.483536222669871 L0.809505988023952 1.1555905078642694 z"/>
<path fill="#bababa" stroke="#bababa" d="M-0.8125 1.1362326986105433 L-0.8154940119760479 1.1362326986105433 L-0.8154940119760479 1.4285714285714284 L-0.8125 1.4285714285714284 z"/>
<path fill="#bababa" stroke="#bababa" d="M0.8023976029105236 1.1555905078642692 L-0.8125 1.1555905078642692 L-0.8125 1.2165917331399563 L0.809505988023952 1.2165917331399563 L0.809505988023952 1.1555905078642692 z"/>
<path fill="#bababa" stroke="#bababa" d="M-0.8154940119760479 2.775874952630756 L-0.8154940119760479 1.4285714285714284 L-0.8154940119760479 1.1362326986105433 L-0.8154940119760479 2.483536222669871 z"/>
<path fill="#bababa" stroke="#bababa" d="M0.809505988023952 2.775874952630756 L-0.8154940119760479 2.775874952630756 L-0.8154940119760479 2.483536222669871 L0.809505988023952 2.483536222669871 z"/>
<path fill="#bababa" stroke="#bababa" d="M-0.7525640495083991 1.1555905078642696 L0.809505988023952 1.1555905078642696 L0.809505988023952 2.483536222669871 L-0.8154940119760479 2.483536222669871 L-0.8154940119760479 1.1362326986105435 L-0.8125 1.1362326986105435 L-0.8125 1.1555905078642696 z M-0.30279638351754984 1.4725575163313038 L-0.30299401197604786 1.4730585796253757 L-0.29864618588909136 1.4840819720949519 L-0.28677779575983164 1.4949067448803917 L-0.2669940119760479 1.5051372349601213 L-0.23983611723920578 1.514396301386287 L-0.2062198184276608 1.5225917974216745 L-0.16727972626176218 1.529499673200834 L-0.12377323275526868 1.5348099911447612 L-0.07646339973114993 1.538318594071999 L-0.0279940119760479 1.5401269929375798 L0.022005988023952094 1.5401269929375798 L0.07047537577905413 1.538318594071999 L0.11778520880317286 1.5348099911447612 L0.16129170230966636 1.529499673200834 L0.200231794475565 1.5225917974216745 L0.23384809328710998 1.514396301386287 L0.2610059880239521 1.5051372349601213 L0.28078977180773584 1.4949067448803917 L0.29265816193699556 1.4840819720949519 L0.29700598802395206 1.4730585796253757 L0.29265816193699556 1.4620351871557993 L0.28078977180773584 1.4512104143703595 L0.2610059880239521 1.4409799242906296 L0.23384809328710998 1.4317208578644645 L0.200231794475565 1.4235253618290766 L0.16129170230966636 1.4166174860499172 L0.11778520880317286 1.4113071681059894 L0.07047537577905413 1.4077985651787517 L0.022005988023952094 1.405990166313171 L-0.0279940119760479 1.405990166313171 L-0.07646339973114993 1.4077985651787517 L-0.12377323275526868 1.4113071681059894 L-0.16727972626176218 1.4166174860499172 L-0.2062198184276608 1.4235253618290766 L-0.23983611723920578 1.4317208578644645 L-0.2669940119760479 1.4409799242906296 L-0.28677779575983164 1.4512104143703595 L-0.29864618588909136 1.4620351871557993 z M-0.6862586046572773 1.1784329457999019 L-0.5115384615384616 1.1784329457999019 L-0.5115384615384615 1.1555905078642696 L-0.8115384615384614 1.1555905078642696 L-0.8115384615384615 1.1784329457999019 z M0.23508254304787551 2.105793486549863 L0.23384809328710998 2.105372619894128 L0.200231794475565 2.0971771238587404 L0.16129170230966636 2.090269248079581 L0.11778520880317286 2.0849589301356533 L0.07047537577905413 2.0814503272084153 L0.022005988023952094 2.0796419283428347 L-0.0279940119760479 2.0796419283428347 L-0.07646339973114993 2.0814503272084153 L-0.12377323275526868 2.0849589301356533 L-0.16727972626176218 2.090269248079581 L-0.2062198184276608 2.0971771238587404 L-0.23983611723920578 2.105372619894128 L-0.2669940119760479 2.114631686320293 L-0.28677779575983164 2.124862176400023 L-0.29864618588909136 2.135686949185463 L-0.30299401197604786 2.146710341655039 L-0.29864618588909136 2.1577337341246157 L-0.28677779575983164 2.1685585069100553 L-0.2669940119760479 2.178788996989785 L-0.23983611723920578 2.1880480634159505 L-0.2062198184276608 2.196243559451338 L-0.16727972626176218 2.2031514352304975 L-0.12377323275526868 2.2084617531744253 L-0.07646339973114993 2.211970356101663 L-0.0279940119760479 2.2137787549672434 L0.022005988023952094 2.2137787549672434 L0.07047537577905413 2.211970356101663 L0.11778520880317286 2.2084617531744253 L0.16129170230966636 2.2031514352304975 L0.200231794475565 2.196243559451338 L0.23384809328710998 2.1880480634159505 L0.2610059880239521 2.178788996989785 L0.28078977180773584 2.1685585069100553 L0.29265816193699556 2.1577337341246157 L0.29700598802395206 2.146710341655039 L0.29265816193699556 2.135686949185463 L0.28078977180773584 2.124862176400023 L0.2610059880239521 2.114631686320293 z"/>
<path fill="#bababa" stroke="#bababa" d="M-0.8125 1.4285714285714286 L-0.8154940119760479 1.4285714285714286 L-0.8154940119760479 2.775874952630756 L0.809505988023952 2.775874952630756 L0.809505988023952 1.4285714285714286 z M-0.30299401197604786 2.439049071615924 L-0.29864618588909136 2.428025679146348 L-0.28677779575983164 2.4172009063609083 L-0.2669940119760479 2.4069704162811782 L-0.23983611723920578 2.397711349855013 L-0.2062198184276608 2.3895158538196255 L-0.16727972626176218 2.382607978040466 L-0.12377323275526868 2.3772976600965383 L-0.07646339973114993 2.3737890571693003 L-0.0279940119760479 2.3719806583037197 L0.022005988023952094 2.3719806583037197 L0.07047537577905413 2.3737890571693003 L0.11778520880317286 2.3772976600965383 L0.16129170230966636 2.382607978040466 L0.200231794475565 2.3895158538196255 L0.23384809328710998 2.397711349855013 L0.2610059880239521 2.4069704162811782 L0.28078977180773584 2.4172009063609083 L0.29265816193699556 2.428025679146348 L0.29700598802395206 2.439049071615924 L0.29265816193699556 2.4500724640855007 L0.28078977180773584 2.4608972368709403 L0.2610059880239521 2.47112772695067 L0.23384809328710998 2.4803867933768355 L0.200231794475565 2.488582289412223 L0.16129170230966636 2.4954901651913826 L0.11778520880317286 2.5008004831353103 L0.07047537577905413 2.504309086062548 L0.022005988023952094 2.506117484928129 L-0.0279940119760479 2.506117484928129 L-0.07646339973114993 2.504309086062548 L-0.12377323275526868 2.5008004831353103 L-0.16727972626176218 2.4954901651913826 L-0.2062198184276608 2.488582289412223 L-0.23983611723920578 2.4803867933768355 L-0.2669940119760479 2.47112772695067 L-0.28677779575983164 2.4608972368709403 L-0.29864618588909136 2.4500724640855007 z M-0.30299401197604786 1.7653973095862605 L-0.29864618588909136 1.7543739171166843 L-0.28677779575983164 1.7435491443312445 L-0.2669940119760479 1.7333186542515144 L-0.23983611723920578 1.7240595878253493 L-0.2062198184276608 1.7158640917899617 L-0.16727972626176218 1.708956216010802 L-0.12377323275526868 1.7036458980668745 L-0.07646339973114993 1.700137295139637 L-0.0279940119760479 1.6983288962740561 L0.022005988023952094 1.6983288962740561 L0.07047537577905413 1.700137295139637 L0.11778520880317286 1.7036458980668745 L0.16129170230966636 1.708956216010802 L0.200231794475565 1.7158640917899617 L0.23384809328710998 1.7240595878253493 L0.2610059880239521 1.7333186542515144 L0.28078977180773584 1.7435491443312445 L0.29265816193699556 1.7543739171166843 L0.29700598802395206 1.7653973095862605 L0.29265816193699556 1.776420702055837 L0.28078977180773584 1.7872454748412765 L0.2610059880239521 1.7974759649210066 L0.23384809328710998 1.8067350313471717 L0.200231794475565 1.8149305273825593 L0.16129170230966636 1.821838403161719 L0.11778520880317286 1.8271487211056463 L0.07047537577905413 1.830657324032884 L0.022005988023952094 1.8324657228984649 L-0.0279940119760479 1.8324657228984649 L-0.07646339973114993 1.830657324032884 L-0.12377323275526868 1.8271487211056463 L-0.16727972626176218 1.821838403161719 L-0.2062198184276608 1.8149305273825593 L-0.23983611723920578 1.8067350313471717 L-0.2669940119760479 1.7974759649210066 L-0.28677779575983164 1.7872454748412765 L-0.29864618588909136 1.776420702055837 z"/>
<path fill="#bababa" stroke="#bababa" d="M-0.7791067383844531 1.1784329457999014 L-0.5145324735145094 1.1784329457999014 L-0.5145324735145106 0.509992748368382 L-0.811538461538463 0.509992748368382 L-0.8115384615384615 1.1784329457999014 z"/>
<path fill="#bababa" stroke="#bababa" d="M-0.5145324735145106 0.5099927483683827 L-0.5145324735145108 0.24565410550707237 L-0.811538461538463 0.24565410550707237 L-0.811538461538463 0.5099927483683827 z"/>
<path fill="#bababa" stroke="#bababa" d="M-0.8115384615384614 1.0836083592598655 L-0.8115384615384614 1.1555905078642694 L-0.8115384615384615 1.1784329457999017 L-0.811538461538463 0.5099927483683827 L-0.811538461538463 0.24565410550707237 L-0.8115384615384627 0.16177026540759318 z"/>
<path fill="#bababa" stroke="#bababa" d="M-0.8125 1.0836083592598655 L-0.8125 1.1362326986105433 L-0.8125 1.1555905078642694 z"/>
<path fill="#bababa" stroke="#bababa" d="M-0.749797250036862 1.0836083592598655 L-0.8125 1.0836083592598655 L-0.8125 1.1555905078642694 L-0.5145324735145094 1.1555905078642694 L-0.5145324735145095 1.0836083592598655 z"/>
<path fill="#bababa" stroke="#bababa" d="M-0.5145324735145094 1.1555905078642692 L-0.5145324735145095 1.0836083592598655 z"/>
<path fill="#bababa" stroke="#bababa" d="M-0.5145324735145094 1.1784329457999017 L-0.5145324735145094 2.483536222669871 L-0.5145324735145108 1.5090737894669208 L-0.5145324735145108 0.24565410550707237 L-0.5145324735145106 0.5099927483683827 z"/>
<path fill="#bababa" stroke="#bababa" d="M-0.7367858482205334 1.0836083592598655 L-0.8115384615384614 1.0836083592598655 L-0.8115384615384627 0.16177026540759318 L-0.8145324735145109 0.16177026540759318 L-0.8145324735145094 1.1362326986105433 L-0.8125 1.1362326986105433 L-0.8125 1.0836083592598655 L-0.5145324735145095 1.0836083592598655 z"/>
<path fill="#bababa" stroke="#bababa" d="M-0.8145324735145094 2.483536222669871 L-0.8145324735145094 1.136232698610543 L-0.8145324735145109 0.16177026540759318 L-0.8145324735145109 1.5090737894669206 z"/>
<path fill="#bababa" stroke="#bababa" d="M-0.5145324735145094 2.483536222669871 L-0.8145324735145094 2.483536222669871 L-0.8145324735145109 1.5090737894669208 L-0.5145324735145108 1.5090737894669208 z"/>
<path fill="#bababa" stroke="#bababa" d="M-0.5145324735145108 0.2456541055070727 L-0.5145324735145108 1.5090737894669208 L-0.8145324735145109 1.5090737894669208 L-0.8145324735145109 0.16177026540759334 L-0.8115384615384627 0.16177026540759334 L-0.811538461538463 0.2456541055070727 z"/>
<path fill="#bababa" stroke="#bababa" d="M-0.7830783867432515 1.1555905078642694 L-0.5145324735145094 1.1555905078642694 L-0.8125 1.1555905078642694 L-0.8125 1.1362326986105433 L-0.8145324735145094 1.1362326986105433 L-0.8145324735145094 2.483536222669871 L-0.5145324735145094 2.483536222669871 L-0.5145324735145094 1.1784329457999017 L-0.8115384615384615 1.1784329457999017 L-0.8115384615384614 1.1555905078642694 z"/>
<path fill="#bababa" stroke="#bababa" d="M-0.5158488063660477 1.1555905078642692 L-0.8115384615384614 1.1555905078642692 L-0.8115384615384614 1.0836083592598655 L-0.5145324735145095 1.0836083592598655 L-0.5145324735145094 1.1555905078642692 z"/>
<path fill="#bababa" stroke="#bababa" d="M0.2956521739130435 0.12043298833146548 L0.30000000000000004 0.15517041334300216 L0.3 0.3671501087744742 L0.2956521739130435 0.33241268376293753 z"/>
<path fill="#bababa" stroke="#bababa" d="M-0.2627655502392345 0.05275641409813091 L-0.23684210526315827 0.024905069549739603 L-0.23684210526315816 0.23688476498121158 L-0.2640000000000004 0.26606236403190714 L-0.2640000000000004 0.054082668600434945 z"/>
<path fill="#bababa" stroke="#bababa" d="M0.26400000000000046 0.054082668600434994 L0.28378378378378405 0.08632146286968617 L0.2837837837837838 0.29830115830115833 L0.26400000000000023 0.26606236403190714 z"/>
<path fill="#bababa" stroke="#bababa" d="M0.1642857142857154 -0.022689375379731033 L0.20322580645161376 -0.0009209572153740479 L0.2032258064516137 0.21105873821609863 L0.16428571428571534 0.18929032005174165 z"/>
<path fill="#bababa" stroke="#bababa" d="M0.26399999999999973 0.4682378535170412 L0.2639999999999996 0.25625815808556923 L0.23684210526315747 0.28543575713626457 L0.23684210526315747 0.4974154525677368 z"/>
<path fill="#bababa" stroke="#bababa" d="M-0.2958498023715414 0.18832886449037808 L-0.29999999999999993 0.15517041334300216 L-0.29999999999999993 0.3671501087744742 L-0.2956521739130434 0.4018875337860109 L-0.2956521739130434 0.18990783835453884 z"/>
<path fill="#bababa" stroke="#bababa" d="M0.040422077922077915 0.15761424378216787 L0.024999999999999998 0.1558010177840666 L0.024999999999999998 -0.05617867764740607 L0.07346938775510203 -0.0504799673676592 L0.07346938775510203 0.16149972806381346 z"/>
<path fill="#bababa" stroke="#bababa" d="M-0.22614601018675745 0.22866739282867599 L-0.23684210526315827 0.23688476498121144 L-0.23684210526315846 0.024905069549739436 L-0.20322580645161317 -0.0009209572153735668 L-0.20322580645161317 0.21105873821609875 z"/>
<path fill="#bababa" stroke="#bababa" d="M-0.1642857142857138 0.333030202065735 L-0.20322580645161265 0.3112617839013778 L-0.20322580645161276 0.5232414793328498 L-0.16428571428571395 0.5450098974972071 z"/>
<path fill="#bababa" stroke="#bababa" d="M-0.00909090909090909 0.15580101778406716 L-0.024999999999999998 0.15580101778406716 L-0.024999999999999998 -0.056178677647406014 L0.024999999999999998 -0.056178677647406014 L0.024999999999999998 0.15580101778406716 z"/>
<path fill="#bababa" stroke="#bababa" d="M0.23684210526315724 0.2854357571362649 L0.20322580645161237 0.31126178390137776 L0.20322580645161248 0.5232414793328499 L0.2368421052631576 0.49741545256773667 z"/>
<path fill="#bababa" stroke="#bababa" d="M-0.1504427390791027 0.18396582735415107 L-0.16428571428571426 0.1892903200517402 L-0.16428571428571426 -0.022689375379731393 L-0.12077922077922076 -0.03942349528644013 L-0.12077922077922076 0.17255620014503145 z"/>
<path fill="#bababa" stroke="#bababa" d="M0.12077922077922076 0.3497643219724437 L0.07346938775510202 0.36082079405366196 L0.07346938775510202 0.572800489485133 L0.12077922077922076 0.5617440174039147 z"/>
<path fill="#bababa" stroke="#bababa" d="M-0.29187586796282455 0.3215590165705532 L-0.29565217391304355 0.33241268376293753 L-0.2956521739130436 0.12043298833146547 L-0.28378378378378377 0.08632146286968621 L-0.28378378378378377 0.2983011583011583 z"/>
<path fill="#bababa" stroke="#bababa" d="M0.12077922077922076 -0.03942349528644061 L0.16428571428571426 -0.022689375379731872 L0.16428571428571426 0.18929032005174054 L0.12077922077922076 0.17255620014503179 z"/>
<path fill="#bababa" stroke="#bababa" d="M-0.2702948402948399 0.4579800553404613 L-0.2639999999999997 0.4682378535170412 L-0.26399999999999985 0.2562581580855693 L-0.28378378378378355 0.2240193638163181 L-0.2837837837837833 0.4359990592477901 z"/>
<path fill="#bababa" stroke="#bababa" d="M0.29187586796282433 0.4127412009783952 L0.2956521739130432 0.4018875337860109 L0.29565217391304344 0.18990783835453887 L0.2837837837837835 0.2240193638163181 L0.2837837837837836 0.43599905924779014 z"/>
<path fill="#bababa" stroke="#bababa" d="M-0.10572609208972844 0.1690382317555533 L-0.12077922077922076 0.17255620014503184 L-0.12077922077922076 -0.03942349528644024 L-0.07346938775510203 -0.05047996736765852 L-0.07346938775510203 0.16149972806381357 z"/>
<path fill="#bababa" stroke="#bababa" d="M0.00909090909090909 0.5784991997648801 L0.024999999999999998 0.5784991997648801 L0.024999999999999998 0.366519504333408 L-0.024999999999999998 0.366519504333408 L-0.024999999999999998 0.5784991997648801 z"/>
<path fill="#bababa" stroke="#bababa" d="M-0.28288452088452115 0.08485606313017473 L-0.26400000000000046 0.054082668600434994 L-0.26400000000000023 0.26606236403190714 L-0.2837837837837838 0.29830115830115833 L-0.28378378378378405 0.08632146286968617 z"/>
<path fill="#bababa" stroke="#bababa" d="M0.2032258064516127 0.5232414793328498 L0.20322580645161184 0.31126178390137793 L0.16428571428571404 0.333030202065735 L0.16428571428571362 0.5450098974972069 z"/>
<path fill="#bababa" stroke="#bababa" d="M0.24548325358851697 0.24616854649734202 L0.23684210526315813 0.23688476498121158 L0.23684210526315808 0.024905069549739943 L0.2640000000000005 0.0540826686004349 L0.2640000000000002 0.26606236403190714 z"/>
<path fill="#bababa" stroke="#bababa" d="M-0.040422077922077915 0.5766859737667791 L-0.024999999999999998 0.5784991997648804 L-0.024999999999999998 0.36651950433340813 L-0.07346938775510203 0.36082079405366124 L-0.07346938775510203 0.5728004894851335 z"/>
<path fill="#bababa" stroke="#bababa" d="M0.28378378378378355 0.22401936381631812 L0.26399999999999957 0.2562581580855691 L0.2639999999999998 0.4682378535170413 L0.2837837837837834 0.4359990592477901 z"/>
<path fill="#bababa" stroke="#bababa" d="M-0.20322580645161348 -0.0009209572153729431 L-0.16428571428571512 -0.02268937537973061 L-0.16428571428571484 0.18929032005174193 L-0.20322580645161337 0.21105873821609833 z"/>
<path fill="#bababa" stroke="#bababa" d="M0.29980237154150186 0.15674938720716292 L0.2956521739130434 0.18990783835453884 L0.2956521739130433 0.4018875337860109 L0.2999999999999999 0.36715010877447424 L0.29999999999999993 0.15517041334300216 z"/>
<path fill="#bababa" stroke="#bababa" d="M0.20322580645161298 -0.0009209572153733833 L0.23684210526315833 0.024905069549739596 L0.23684210526315813 0.23688476498121172 L0.20322580645161353 0.21105873821609825 z"/>
<path fill="#bababa" stroke="#bababa" d="M-0.2986166007905139 0.35609729172534893 L-0.3 0.3671501087744742 L-0.30000000000000004 0.15517041334300216 L-0.2956521739130435 0.12043298833146548 L-0.2956521739130435 0.33241268376293753 z"/>
<path fill="#bababa" stroke="#bababa" d="M-0.23807655502392333 0.28410950263396045 L-0.26399999999999985 0.2562581580855692 L-0.2639999999999996 0.4682378535170412 L-0.23684210526315758 0.4974154525677368 L-0.2368421052631578 0.2854357571362648 z"/>
<path fill="#bababa" stroke="#bababa" d="M-0.09226235998020603 0.35642881125752546 L-0.12077922077922075 0.3497643219724427 L-0.12077922077922075 0.5617440174039152 L-0.07346938775510203 0.5728004894851334 L-0.07346938775510203 0.36082079405366096 z"/>
<path fill="#bababa" stroke="#bababa" d="M0.2843232560623868 0.08787198675431251 L0.29565217391304366 0.12043298833146547 L0.29565217391304344 0.33241268376293753 L0.28378378378378394 0.2983011583011582 L0.2837837837837838 0.08632146286968623 z"/>
<path fill="#bababa" stroke="#bababa" d="M0.05804730983302411 0.5746137154832348 L0.07346938775510203 0.5728004894851335 L0.07346938775510203 0.36082079405366124 L0.024999999999999998 0.36651950433340813 L0.024999999999999998 0.5784991997648804 z"/>
<path fill="#bababa" stroke="#bababa" d="M-0.07126623376623374 -0.050738999653100934 L-0.024999999999999998 -0.05617867764740476 L-0.024999999999999998 0.1558010177840663 L-0.07346938775510203 0.16149972806381316 L-0.07346938775510203 -0.0504799673676579 z"/>
<path fill="#bababa" stroke="#bababa" d="M0.16428571428571426 0.3330302020657346 L0.12077922077922075 0.3497643219724433 L0.12077922077922075 0.5617440174039154 L0.16428571428571426 0.5450098974972067 z"/>
<path fill="#bababa" stroke="#bababa" d="M-0.21392190152801333 0.515024107180314 L-0.2032258064516123 0.5232414793328497 L-0.2032258064516123 0.31126178390137743 L-0.2368421052631574 0.28543575713626473 L-0.23684210526315763 0.4974154525677368 z"/>
<path fill="#bababa" stroke="#bababa" d="M0.07346938775510202 -0.05047996736765792 L0.12077922077922076 -0.039423495286439646 L0.12077922077922076 0.17255620014503212 L0.07346938775510202 0.16149972806381385 z"/>
<path fill="#bababa" stroke="#bababa" d="M-0.1496120071102502 0.33867422334990155 L-0.16428571428571423 0.33303020206573397 L-0.16428571428571423 0.5450098974972061 L-0.12077922077922076 0.5617440174039149 L-0.12077922077922076 0.34976432197244267 z"/>
<path fill="#bababa" stroke="#bababa" d="M-0.2837837837837837 0.22401936381631812 L-0.2956521739130432 0.1899078383545388 L-0.2956521739130434 0.4018875337860109 L-0.28378378378378355 0.43599905924779014 z"/>
<path fill="#bababa" stroke="#bababa" d="M0.2956521739130435 -2.0024096512624427 L0.30000000000000004 -1.967672226250906 L0.3 -1.7556925308194342 L0.29565217391304355 -1.7904299558309709 z"/>
<path fill="#bababa" stroke="#bababa" d="M-0.26276555023923526 -2.070086225495778 L-0.23684210526315805 -2.0979375700441687 L-0.23684210526315816 -1.8859578746126964 L-0.2640000000000007 -1.8567802755620015 L-0.2640000000000008 -2.0687599709934736 z"/>
<path fill="#bababa" stroke="#bababa" d="M0.26400000000000023 -2.068759970993473 L0.2837837837837838 -2.036521176724222 L0.28378378378378416 -1.8245414812927498 L0.2640000000000004 -1.8567802755620013 z"/>
<path fill="#bababa" stroke="#bababa" d="M0.16428571428571603 -2.145532014973639 L0.20322580645161376 -2.123763596809282 L0.20322580645161362 -1.91178390137781 L0.1642857142857159 -1.933552319542167 z"/>
<path fill="#bababa" stroke="#bababa" d="M0.26399999999999946 -1.6546047860768671 L0.2639999999999997 -1.8665844815083392 L0.23684210526315758 -1.8374068824576435 L0.23684210526315735 -1.6254271870261714 z"/>
<path fill="#bababa" stroke="#bababa" d="M-0.29584980237154146 -1.9345137751035304 L-0.29999999999999993 -1.967672226250906 L-0.2999999999999999 -1.755692530819434 L-0.2956521739130433 -1.7209551058078976 L-0.2956521739130434 -1.9329348012393697 z"/>
<path fill="#bababa" stroke="#bababa" d="M0.040422077922077915 -1.9652283958117405 L0.024999999999999998 -1.9670416218098417 L0.024999999999999998 -2.1790213172413138 L0.07346938775510203 -2.173322606961567 L0.07346938775510203 -1.9613429115300949 z"/>
<path fill="#bababa" stroke="#bababa" d="M-0.22614601018675792 -1.8941752467652324 L-0.23684210526315833 -1.8859578746126966 L-0.23684210526315894 -2.097937570044169 L-0.20322580645161353 -2.1237635968092814 L-0.20322580645161398 -1.9117839013778097 z"/>
<path fill="#bababa" stroke="#bababa" d="M-0.1642857142857134 -1.789812437528173 L-0.2032258064516124 -1.8115808556925306 L-0.20322580645161142 -1.599601160261059 L-0.16428571428571243 -1.577832742096701 z"/>
<path fill="#bababa" stroke="#bababa" d="M-0.00909090909090909 -1.9670416218098417 L-0.024999999999999998 -1.9670416218098417 L-0.024999999999999998 -2.1790213172413138 L0.024999999999999998 -2.1790213172413138 L0.024999999999999998 -1.9670416218098417 z"/>
<path fill="#bababa" stroke="#bababa" d="M0.23684210526315724 -1.8374068824576435 L0.20322580645161192 -1.8115808556925306 L0.20322580645161215 -1.5996011602610585 L0.23684210526315744 -1.6254271870261716 z"/>
<path fill="#bababa" stroke="#bababa" d="M-0.1504427390791027 -1.9388768122397577 L-0.16428571428571426 -1.9335523195421687 L-0.16428571428571426 -2.1455320149736408 L-0.12077922077922075 -2.1622661348803494 L-0.12077922077922075 -1.9502864394488775 z"/>
<path fill="#bababa" stroke="#bababa" d="M0.12077922077922075 -1.773078317621466 L0.07346938775510203 -1.7620218455402477 L0.07346938775510203 -1.5500421501087753 L0.12077922077922075 -1.5610986221899936 z"/>
<path fill="#bababa" stroke="#bababa" d="M-0.29187586796282466 -1.801283623023355 L-0.2956521739130436 -1.7904299558309706 L-0.29565217391304366 -2.0024096512624427 L-0.2837837837837838 -2.036521176724222 L-0.283783783783784 -1.82454148129275 z"/>
<path fill="#bababa" stroke="#bababa" d="M0.12077922077922075 -2.1622661348803494 L0.16428571428571426 -2.1455320149736408 L0.16428571428571426 -1.9335523195421687 L0.12077922077922075 -1.9502864394488775 z"/>
<path fill="#bababa" stroke="#bababa" d="M-0.27029484029483986 -1.6648625842534466 L-0.26399999999999973 -1.654604786076867 L-0.26399999999999957 -1.866584481508339 L-0.28378378378378355 -1.89882327577759 L-0.2837837837837834 -1.686843580346118 z"/>
<path fill="#bababa" stroke="#bababa" d="M0.2918758679628243 -1.7101014386155131 L0.2956521739130433 -1.7209551058078973 L0.29565217391304316 -1.9329348012393694 L0.2837837837837836 -1.8988232757775902 L0.2837837837837835 -1.6868435803461184 z"/>
<path fill="#bababa" stroke="#bababa" d="M-0.10572609208972844 -1.9538044078383556 L-0.12077922077922076 -1.950286439448877 L-0.12077922077922076 -2.162266134880348 L-0.07346938775510202 -2.173322606961566 L-0.07346938775510202 -1.9613429115300953 z"/>
<path fill="#bababa" stroke="#bababa" d="M0.00909090909090909 -1.5443434398290297 L0.024999999999999998 -1.5443434398290297 L0.024999999999999998 -1.7563231352605015 L-0.024999999999999998 -1.7563231352605015 L-0.024999999999999998 -1.5443434398290297 z"/>
<path fill="#bababa" stroke="#bababa" d="M-0.28288452088452104 -2.0379865764637333 L-0.26400000000000023 -2.068759970993473 L-0.26400000000000007 -1.8567802755620013 L-0.28378378378378405 -1.8245414812927503 L-0.2837837837837839 -2.036521176724222 z"/>
<path fill="#bababa" stroke="#bababa" d="M0.20322580645161234 -1.5996011602610583 L0.20322580645161203 -1.8115808556925308 L0.16428571428571367 -1.789812437528173 L0.16428571428571326 -1.577832742096701 z"/>
<path fill="#bababa" stroke="#bababa" d="M0.24548325358851755 -1.8766740930965664 L0.23684210526315816 -1.8859578746126964 L0.23684210526315805 -2.0979375700441687 L0.2640000000000008 -2.0687599709934736 L0.2640000000000007 -1.8567802755620015 z"/>
<path fill="#bababa" stroke="#bababa" d="M-0.040422077922077915 -1.5461566658271289 L-0.024999999999999998 -1.5443434398290274 L-0.024999999999999998 -1.7563231352604998 L-0.07346938775510203 -1.7620218455402468 L-0.07346938775510203 -1.5500421501087744 z"/>
<path fill="#bababa" stroke="#bababa" d="M0.28378378378378366 -1.8988232757775902 L0.26399999999999946 -1.866584481508339 L0.26399999999999973 -1.654604786076867 L0.2837837837837835 -1.6868435803461184 z"/>
<path fill="#bababa" stroke="#bababa" d="M-0.20322580645161328 -2.1237635968092814 L-0.16428571428571495 -2.145532014973639 L-0.16428571428571465 -1.9335523195421667 L-0.20322580645161373 -1.9117839013778097 z"/>
<path fill="#bababa" stroke="#bababa" d="M0.2998023715415019 -1.9660932523867454 L0.2956521739130433 -1.9329348012393692 L0.2956521739130434 -1.7209551058078976 L0.29999999999999993 -1.7556925308194342 L0.29999999999999993 -1.967672226250906 z"/>
<path fill="#bababa" stroke="#bababa" d="M0.20322580645161345 -2.123763596809282 L0.2368421052631588 -2.0979375700441687 L0.23684210526315838 -1.885957874612697 L0.20322580645161303 -1.91178390137781 z"/>
<path fill="#bababa" stroke="#bababa" d="M-0.29861660079051383 -1.7667453478685595 L-0.3 -1.7556925308194342 L-0.30000000000000004 -1.967672226250906 L-0.2956521739130435 -2.0024096512624427 L-0.29565217391304355 -1.7904299558309709 z"/>
<path fill="#bababa" stroke="#bababa" d="M-0.23807655502392278 -1.838733136959948 L-0.2639999999999996 -1.866584481508339 L-0.2639999999999992 -1.654604786076867 L-0.2368421052631575 -1.6254271870261716 L-0.23684210526315694 -1.8374068824576435 z"/>
<path fill="#bababa" stroke="#bababa" d="M-0.09226235998020602 -1.7664138283363828 L-0.12077922077922076 -1.7730783176214657 L-0.12077922077922076 -1.5610986221899936 L-0.07346938775510203 -1.5500421501087753 L-0.07346938775510203 -1.7620218455402474 z"/>
<path fill="#bababa" stroke="#bababa" d="M0.28432325606238656 -2.0349706528395957 L0.2956521739130435 -2.0024096512624427 L0.29565217391304366 -1.7904299558309709 L0.2837837837837838 -1.8245414812927503 L0.28378378378378394 -2.036521176724222 z"/>
<path fill="#bababa" stroke="#bababa" d="M0.05804730983302411 -1.548228924110673 L0.07346938775510203 -1.5500421501087744 L0.07346938775510203 -1.7620218455402468 L0.024999999999999998 -1.7563231352604998 L0.024999999999999998 -1.5443434398290274 z"/>
<path fill="#bababa" stroke="#bababa" d="M-0.07126623376623376 -2.173581639247009 L-0.024999999999999998 -2.179021317241313 L-0.024999999999999998 -1.967041621809842 L-0.07346938775510203 -1.961342911530095 L-0.07346938775510203 -2.173322606961566 z"/>
<path fill="#bababa" stroke="#bababa" d="M0.16428571428571426 -1.7898124375281745 L0.12077922077922076 -1.773078317621466 L0.12077922077922076 -1.5610986221899932 L0.16428571428571426 -1.5778327420967018 z"/>
<path fill="#bababa" stroke="#bababa" d="M-0.2139219015280133 -1.6078185324135945 L-0.20322580645161245 -1.599601160261058 L-0.20322580645161248 -1.8115808556925304 L-0.2368421052631571 -1.837406882457644 L-0.23684210526315705 -1.6254271870261714 z"/>
<path fill="#bababa" stroke="#bababa" d="M0.07346938775510203 -2.173322606961566 L0.12077922077922075 -2.162266134880348 L0.12077922077922075 -1.9502864394488766 L0.07346938775510203 -1.9613429115300949 z"/>
<path fill="#bababa" stroke="#bababa" d="M-0.1496120071102502 -1.7841684162440068 L-0.16428571428571426 -1.7898124375281745 L-0.16428571428571426 -1.5778327420967022 L-0.12077922077922075 -1.5610986221899936 L-0.12077922077922075 -1.7730783176214657 z"/>
<path fill="#bababa" stroke="#bababa" d="M-0.2837837837837835 -1.8988232757775902 L-0.2956521739130433 -1.9329348012393694 L-0.2956521739130434 -1.7209551058078973 L-0.28378378378378355 -1.6868435803461181 z"/>
<path fill="#bababa" stroke="#bababa" d="M0.8125 -2.8171138506163884 L0.8125 1.4285714285714284 L0.8125 1.2165917331399563 L0.8125 -3.0290935460478607 z"/>
<path fill="#bababa" stroke="#bababa" d="M-0.8125 -2.8171138506163906 L0.8125 -2.8171138506163906 L0.8125 -3.0290935460478616 L-0.8125 -3.0290935460478616 z"/>
<path fill="#bababa" stroke="#bababa" d="M-0.8125 1.4285714285714284 L-0.8125 -2.8171138506163884 L-0.8125 -3.0290935460478607 L-0.8125 1.2165917331399563 z"/>
<path fill="#bababa" stroke="#bababa" d="M0.8125 1.428571428571428 L-0.8125 1.428571428571428 L-0.8125 1.2165917331399554 L0.8125 1.2165917331399554 z"/>
<path fill="#bababa" stroke="#bababa" d="M0.8125 1.2165917331399563 L-0.8125 1.2165917331399563 L-0.8125 -3.0290935460478603 L0.8125 -3.0290935460478603 z M-0.027203153988868273 -1.7565821675459423 L-0.024999999999999998 -1.7563231352604995 L0.024999999999999998 -1.7563231352604995 L0.07346938775510203 -1.7620218455402463 L0.12077922077922078 -1.7730783176214646 L0.16428571428571428 -1.7898124375281734 L0.2032258064516129 -1.8115808556925304 L0.23684210526315788 -1.8374068824576435 L0.26399999999999996 -1.866584481508339 L0.28378378378378377 -1.89882327577759 L0.29565217391304344 -1.9329348012393694 L0.3 -1.9676722262509063 L0.29565217391304344 -2.0024096512624427 L0.28378378378378377 -2.036521176724222 L0.26399999999999996 -2.068759970993473 L0.23684210526315788 -2.0979375700441687 L0.2032258064516129 -2.123763596809282 L0.16428571428571428 -2.145532014973639 L0.12077922077922078 -2.162266134880348 L0.07346938775510203 -2.173322606961566 L0.024999999999999998 -2.179021317241313 L-0.024999999999999998 -2.179021317241313 L-0.07346938775510203 -2.173322606961566 L-0.12077922077922078 -2.162266134880348 L-0.16428571428571428 -2.145532014973639 L-0.2032258064516129 -2.123763596809282 L-0.23684210526315788 -2.0979375700441687 L-0.26399999999999996 -2.068759970993473 L-0.28378378378378377 -2.036521176724222 L-0.29565217391304344 -2.0024096512624427 L-0.3 -1.9676722262509063 L-0.29565217391304344 -1.9329348012393694 L-0.28378378378378377 -1.89882327577759 L-0.26399999999999996 -1.866584481508339 L-0.23684210526315788 -1.8374068824576435 L-0.2032258064516129 -1.8115808556925304 L-0.16428571428571428 -1.7898124375281734 L-0.12077922077922078 -1.7730783176214646 L-0.07346938775510203 -1.7620218455402463 z M-0.07126623376623376 -0.05073899965310075 L-0.07346938775510203 -0.05047996736765771 L-0.12077922077922078 -0.03942349528643943 L-0.16428571428571428 -0.022689375379730696 L-0.2032258064516129 -0.0009209572153734511 L-0.23684210526315788 0.024905069549739606 L-0.26399999999999996 0.054082668600435105 L-0.28378378378378377 0.08632146286968621 L-0.29565217391304344 0.12043298833146547 L-0.3 0.15517041334300216 L-0.29565217391304344 0.1899078383545388 L-0.28378378378378377 0.2240193638163181 L-0.26399999999999996 0.25625815808556923 L-0.23684210526315788 0.2854357571362647 L-0.2032258064516129 0.31126178390137776 L-0.16428571428571428 0.33303020206573497 L-0.12077922077922078 0.3497643219724438 L-0.07346938775510203 0.360820794053662 L-0.024999999999999998 0.3665195043334089 L0.024999999999999998 0.3665195043334089 L0.07346938775510203 0.360820794053662 L0.12077922077922078 0.3497643219724438 L0.16428571428571428 0.33303020206573497 L0.2032258064516129 0.31126178390137776 L0.23684210526315788 0.2854357571362647 L0.26399999999999996 0.25625815808556923 L0.28378378378378377 0.2240193638163181 L0.29565217391304344 0.1899078383545388 L0.3 0.15517041334300216 L0.29565217391304344 0.12043298833146547 L0.28378378378378377 0.08632146286968621 L0.26399999999999996 0.054082668600435105 L0.23684210526315788 0.024905069549739606 L0.2032258064516129 -0.0009209572153734511 L0.16428571428571428 -0.022689375379730696 L0.12077922077922078 -0.03942349528643943 L0.07346938775510203 -0.05047996736765771 L0.024999999999999998 -0.05617867764740457 L-0.024999999999999998 -0.05617867764740457 z"/>
<path fill="#bababa" stroke="#bababa" d="M-0.8125 1.4285714285714284 L0.8125 1.4285714285714284 L0.8125 -2.817113850616388 L-0.8125 -2.817113850616388 z M-0.3 0.36715010877447424 L-0.29565217391304344 0.33241268376293753 L-0.28378378378378377 0.2983011583011583 L-0.26399999999999996 0.2660623640319071 L-0.23684210526315788 0.23688476498121164 L-0.2032258064516129 0.21105873821609858 L-0.16428571428571428 0.18929032005174135 L-0.12077922077922078 0.17255620014503262 L-0.07346938775510203 0.16149972806381432 L-0.024999999999999998 0.15580101778406746 L0.024999999999999998 0.15580101778406746 L0.07346938775510203 0.16149972806381432 L0.12077922077922078 0.17255620014503262 L0.16428571428571428 0.18929032005174135 L0.2032258064516129 0.21105873821609858 L0.23684210526315788 0.23688476498121164 L0.26399999999999996 0.2660623640319071 L0.28378378378378377 0.2983011583011583 L0.29565217391304344 0.33241268376293753 L0.3 0.36715010877447424 L0.29565217391304344 0.4018875337860109 L0.28378378378378377 0.43599905924779014 L0.26399999999999996 0.4682378535170413 L0.23684210526315788 0.4974154525677368 L0.2032258064516129 0.5232414793328497 L0.16428571428571428 0.5450098974972071 L0.12077922077922078 0.5617440174039158 L0.07346938775510203 0.5728004894851341 L0.024999999999999998 0.578499199764881 L-0.024999999999999998 0.578499199764881 L-0.07346938775510203 0.5728004894851341 L-0.12077922077922078 0.5617440174039158 L-0.16428571428571428 0.5450098974972071 L-0.2032258064516129 0.5232414793328497 L-0.23684210526315788 0.4974154525677368 L-0.26399999999999996 0.4682378535170413 L-0.28378378378378377 0.43599905924779014 L-0.29565217391304344 0.4018875337860109 z M-0.3 -1.755692530819434 L-0.29565217391304344 -1.7904299558309706 L-0.28378378378378377 -1.8245414812927503 L-0.26399999999999996 -1.8567802755620013 L-0.23684210526315788 -1.8859578746126966 L-0.2032258064516129 -1.9117839013778095 L-0.16428571428571428 -1.933552319542167 L-0.12077922077922078 -1.9502864394488757 L-0.07346938775510203 -1.961342911530094 L-0.024999999999999998 -1.9670416218098408 L0.024999999999999998 -1.9670416218098408 L0.07346938775510203 -1.961342911530094 L0.12077922077922078 -1.9502864394488757 L0.16428571428571428 -1.933552319542167 L0.2032258064516129 -1.9117839013778095 L0.23684210526315788 -1.8859578746126966 L0.26399999999999996 -1.8567802755620013 L0.28378378378378377 -1.8245414812927503 L0.29565217391304344 -1.7904299558309706 L0.3 -1.755692530819434 L0.29565217391304344 -1.7209551058078973 L0.28378378378378377 -1.6868435803461181 L0.26399999999999996 -1.6546047860768671 L0.23684210526315788 -1.6254271870261716 L0.2032258064516129 -1.5996011602610587 L0.16428571428571428 -1.5778327420967013 L0.12077922077922078 -1.5610986221899925 L0.07346938775510203 -1.5500421501087742 L0.024999999999999998 -1.5443434398290274 L-0.024999999999999998 -1.5443434398290274 L-0.07346938775510203 -1.5500421501087742 L-0.12077922077922078 -1.5610986221899925 L-0.16428571428571428 -1.5778327420967013 L-0.2032258064516129 -1.5996011602610587 L-0.23684210526315788 -1.6254271870261716 L-0.26399999999999996 -1.6546047860768671 L-0.28378378378378377 -1.6868435803461181 L-0.29565217391304344 -1.7209551058078973 z"/>
<path fill="#bababa" stroke="#bababa" d="M-0.5115384615384629 -3.735692530819434 L-0.5115384615384615 -3.0290935460478603 L-0.5115384615384615 1.2165917331399563 L-0.5115384615384629 0.5099927483683828 z"/>
<path fill="#bababa" stroke="#bababa" d="M-0.811538461538463 -3.735692530819435 L-0.8115384615384614 -3.0290935460478607 L-0.5115384615384615 -3.0290935460478607 L-0.5115384615384629 -3.735692530819435 z"/>
<path fill="#bababa" stroke="#bababa" d="M-0.811538461538463 0.5099927483683828 L-0.8115384615384614 1.2165917331399563 L-0.8115384615384614 -3.0290935460478603 L-0.811538461538463 -3.735692530819434 z"/>
<path fill="#bababa" stroke="#bababa" d="M-0.5115384615384629 0.5099927483683825 L-0.5115384615384615 1.2165917331399552 L-0.8115384615384614 1.2165917331399552 L-0.811538461538463 0.5099927483683825 z"/>
<path fill="#bababa" stroke="#bababa" d="M-0.5115384615384629 -3.735692530819434 L-0.5115384615384629 0.5099927483683828 L-0.811538461538463 0.5099927483683828 L-0.811538461538463 -3.735692530819434 z"/>
<path fill="#bababa" stroke="#bababa" d="M-0.5115384615384615 -3.02909354604786 L-0.8115384615384614 -3.02909354604786 L-0.8115384615384614 1.2165917331399563 L-0.5115384615384615 1.2165917331399563 z"/>
</svg>